<?xml version="1.0" standalone="no"?>
<!DOCTYPE svg PUBLIC "-//W3C//DTD SVG 1.1//EN" "http://www.w3.org/Graphics/SVG/1.1/DTD/svg11.dtd" >
<svg xmlns="http://www.w3.org/2000/svg">
<metadata></metadata>
<defs>
<font id="isabellight" horiz-adv-x="1161" >
<font-face units-per-em="2048" ascent="1493" descent="-555" />
<missing-glyph horiz-adv-x="475" />
<glyph unicode="&#xfb01;" horiz-adv-x="1060" d="M984 32q16 0 16 -16t-16 -16h-365q-16 0 -16 16t16 16h54q22 0 35.5 14.5t13.5 34.5v761q0 20 -13.5 35t-35.5 15h-320v-811q0 -20 13.5 -34.5t35.5 -14.5h63q16 0 16 -16t-16 -16h-375q-16 0 -16 16t16 16h53q22 0 36 14.5t14 34.5v811h-103q-16 0 -16 16t16 16h103v203 q0 176 99.5 275t278.5 99q151 0 239 -67.5t88 -161.5q0 -62 -30.5 -100t-78.5 -38q-38 0 -64 22t-26 64q0 30 20 56.5t40 49.5t20 46q0 38 -52.5 67t-135.5 29q-126 0 -182 -77t-56 -223v-244h529v-843q0 -20 13.5 -34.5t35.5 -14.5h53z" />
<glyph unicode="&#xfb02;" horiz-adv-x="1064" d="M988 32q16 0 16 -16t-16 -16h-364q-16 0 -16 16t16 16h53q22 0 35.5 14.5t13.5 34.5v1296q0 47 -30 69t-113 22q-121 0 -175.5 -71.5t-54.5 -211.5v-261h194q16 0 16 -17q0 -15 -16 -15h-194v-811q0 -20 13.5 -34.5t35.5 -14.5h67q17 0 17 -16t-17 -16h-379q-16 0 -16 16 t16 16h54q22 0 35.5 14.5t13.5 34.5v811h-103q-16 0 -16 16t16 16h103v218q0 175 103 267t282 92q134 0 308 -66v-1354q0 -20 13.5 -34.5t35.5 -14.5h53z" />
<glyph horiz-adv-x="0" />
<glyph horiz-adv-x="682" />
<glyph unicode=" "  horiz-adv-x="475" />
<glyph unicode="&#x09;" horiz-adv-x="475" />
<glyph unicode="&#xa0;" horiz-adv-x="475" />
<glyph unicode="!" horiz-adv-x="446" d="M237 1518q33 0 57 -25.5t24 -67.5q0 -61 -16 -199.5t-32 -332.5t-16 -391q0 -10 -6 -16.5t-15 -6.5q-8 0 -15 6.5t-7 16.5q0 197 -14.5 390.5t-28.5 332t-14 200.5q0 42 24.5 67.5t58.5 25.5zM129 53q0 35 24.5 59.5t59.5 24.5t60 -24.5t25 -59.5t-25 -60t-60 -25 t-59.5 25t-24.5 60z" />
<glyph unicode="&#x22;" horiz-adv-x="573" d="M192 1476q1 22 -13 35.5t-34 13.5t-34 -13.5t-13 -35.5l22 -575q2 -24 25 -24q9 0 16 6.5t7 17.5zM452 1476q1 22 -13 35.5t-34 13.5t-34 -13.5t-13 -35.5l22 -575q2 -24 25 -24q9 0 16.5 6.5t7.5 17.5z" />
<glyph unicode="#" horiz-adv-x="1075" d="M1044 670h-227l-55 -388h226l-4 -32h-226l-36 -250h-32l35 250h-387l-36 -250h-32l36 250h-278l4 32h278l55 388h-278l4 32h278l36 254h33l-36 -254h387l36 254h32l-35 -254h225zM730 282l55 388h-388l-55 -388h388z" />
<glyph unicode="$" horiz-adv-x="1101" d="M992 360q0 -56 -21.5 -111.5t-63 -106.5t-112 -90t-159.5 -55v-191q0 -17 -18 -17q-17 0 -17 17v186q-47 -5 -90 -5q-36 0 -54 2v-183q0 -17 -17 -17q-18 0 -18 17v187q-143 21 -236 101t-93 180q0 54 26 86.5t64 32.5q32 0 57 -21t25 -58q0 -35 -36.5 -70.5t-36.5 -59.5 q0 -44 50 -82.5t119 -59t133 -20.5q156 0 257.5 78t101.5 216q0 76 -40.5 132t-104.5 91t-142 65t-156 64t-142 76.5t-104.5 113.5t-40.5 165q0 120 79.5 210.5t227.5 118.5v186q0 8 5 13t13 5q17 0 17 -18v-181q54 6 87 6q28 0 57 -3v178q0 18 17 18q8 0 13 -5t5 -13v-182 q139 -21 230 -96.5t91 -173.5q0 -55 -25.5 -87.5t-63.5 -32.5q-32 0 -57 21t-25 58q0 29 18 50t36.5 39t18.5 39q0 43 -50 80t-118.5 55.5t-133.5 18.5q-63 0 -117 -12.5t-102.5 -40t-76.5 -80t-28 -125.5q0 -54 25.5 -97t69 -73t100 -56t118.5 -49.5t124.5 -49.5t119 -60.5 t100 -77.5t69 -106t25.5 -140z" />
<glyph unicode="%" horiz-adv-x="1546" d="M368 -165h-40l828 1658h40zM357 590q-142 0 -223.5 101t-81.5 288q0 186 81.5 284.5t223.5 98.5q141 0 223 -99t82 -284q0 -186 -82 -287.5t-223 -101.5zM357 620q79 0 111 84.5t32 274.5q0 189 -32 271t-111 82t-110.5 -81.5t-31.5 -271.5q0 -191 31.5 -275t110.5 -84z M1191 -12q-142 0 -223.5 101t-81.5 288q0 186 81.5 284.5t223.5 98.5q141 0 222.5 -99t81.5 -284q0 -187 -81.5 -288t-222.5 -101zM1191 18q79 0 111 84.5t32 274.5q0 189 -32 271t-111 82t-110.5 -81.5t-31.5 -271.5q0 -191 31.5 -275t110.5 -84z" />
<glyph unicode="&#x26;" horiz-adv-x="1335" d="M1260 715q16 0 16 -17q0 -15 -16 -15h-63q-22 0 -36 -15t-14 -35v-252q0 -172 -131.5 -283t-351.5 -111q-131 0 -232 31.5t-160.5 86t-89 121.5t-29.5 145q0 133 98.5 218.5t242.5 109.5q-134 25 -220.5 112t-86.5 218q0 107 63.5 184t166 113.5t231.5 36.5 q198 0 313 -95.5t115 -231.5q0 -64 -31.5 -99.5t-76.5 -35.5q-37 0 -64.5 24.5t-27.5 64.5q0 25 13 46t29 33t29 30.5t13 39.5q0 75 -76.5 131t-209.5 56q-151 0 -229.5 -79t-78.5 -218q0 -140 86 -227t216 -87h14q17 0 17 -16t-17 -16h-14q-64 0 -119.5 -17t-102.5 -52 t-74.5 -98t-27.5 -147q0 -162 82.5 -253t235.5 -91q321 0 321 356v252q0 20 -14 35t-36 15h-95q-16 0 -16 15q0 17 16 17h422z" />
<glyph unicode="'" horiz-adv-x="278" d="M186 1476q1 22 -13 35.5t-34 13.5t-34 -13.5t-13 -35.5l22 -575q2 -24 25 -24q9 0 16.5 6.5t7.5 17.5z" />
<glyph unicode="(" horiz-adv-x="735" d="M81 469q0 -170 27 -318.5t69.5 -250.5t96.5 -185.5t107.5 -133.5t104 -84t83 -47t47.5 -13q17 0 17 16q0 8 -16 20t-43 28.5t-61 50.5t-69 79t-69 122.5t-61 172.5t-43 235.5t-16 307.5t16 307.5t43 235.5t61 172.5t69 122.5t69 79t61 50.5t43 28.5t16 20q0 16 -17 16 q-15 0 -47.5 -13t-83 -47t-104 -84t-107.5 -133.5t-96.5 -185.5t-69.5 -250.5t-27 -318.5z" />
<glyph unicode=")" horiz-adv-x="708" d="M606 469q0 170 -27 318.5t-69.5 250.5t-96.5 185.5t-107.5 133.5t-104 84t-83 47t-47.5 13q-17 0 -17 -16q0 -8 16.5 -20t43 -28.5t60.5 -50.5t69.5 -79t69.5 -122.5t60.5 -172.5t43 -235.5t16.5 -307.5t-16.5 -307.5t-43 -235.5t-60.5 -172.5t-69.5 -122.5t-69.5 -79 t-60.5 -50.5t-43 -28.5t-16.5 -20q0 -16 17 -16q15 0 47.5 13t83 47t104 84t107.5 133.5t96.5 185.5t69.5 250.5t27 318.5z" />
<glyph unicode="*" horiz-adv-x="800" d="M400 999l-194 -267q-7 -10 -16 -10q-7 0 -12.5 5.5t-5.5 12.5q0 10 5 15l195 264l-313 101q-14 5 -14 17q0 9 7 15t18 2l313 -102v328q0 20 18 20q17 0 17 -20v-328l310 102q2 0 5 1t4 1q8 0 13.5 -5t5.5 -12q0 -15 -16 -19l-311 -101l193 -264q5 -5 5 -16q0 -7 -4.5 -12 t-11.5 -5q-12 0 -18 10z" />
<glyph unicode="+" horiz-adv-x="733" d="M655 522q16 0 16 -17q0 -15 -16 -15h-64h-209v-272q0 -16 -16 -16t-16 16v272h-271q-16 0 -16 16t16 16h25h246v273q0 16 16 16t16 -16v-273h273z" />
<glyph unicode="," horiz-adv-x="466" d="M242 162q45 0 74.5 -33t29.5 -95q0 -219 -190 -390q-7 -6 -14.5 -4t-8 9t6.5 16q145 145 148 328q-20 -15 -49 -15q-35 0 -62.5 26.5t-27.5 65.5t27 65.5t66 26.5z" />
<glyph unicode="-" horiz-adv-x="614" d="M547 499q17 0 17 -16t-17 -16h-480q-16 0 -16 16t16 16h480z" />
<glyph unicode="." horiz-adv-x="444" d="M131 73q0 37 27 63.5t64 26.5q38 0 64.5 -26.5t26.5 -63.5q0 -38 -26.5 -65.5t-64.5 -27.5q-37 0 -64 27.5t-27 65.5z" />
<glyph unicode="/" horiz-adv-x="448" d="M124 -121h-32l338 1610h34z" />
<glyph unicode="0" horiz-adv-x="1116" d="M557 -13q-214 0 -337.5 179t-123.5 516q0 336 122.5 508.5t338.5 172.5t339.5 -173t123.5 -508q0 -337 -124 -516t-339 -179zM557 21q147 0 215 168t68 493q0 323 -67.5 485t-215.5 162q-146 0 -212.5 -162t-66.5 -485q0 -326 67 -493.5t212 -167.5z" />
<glyph unicode="1" horiz-adv-x="583" d="M507 32q16 0 16 -16t-16 -16h-417q-16 0 -16 16t16 16h91q22 0 35.5 14.5t13.5 34.5v1160h-140q-16 0 -16 16t16 16h54q63 0 106 12.5t86 42.5q12 8 22.5 17.5t16 14t12.5 4.5q17 0 17 -18v-1265q0 -20 14 -34.5t36 -14.5h53z" />
<glyph unicode="2" horiz-adv-x="1093" d="M992 345v-48q0 -309 -263 -309q-84 0 -238.5 44t-222.5 44q-35 0 -59.5 -14t-33.5 -30t-19 -30t-20 -14q-16 0 -16 16v74q0 97 23 179t62 141t90 109t106.5 89.5t111.5 75.5t107 73.5t90 77.5t62 93.5t23 115.5q0 135 -77 214.5t-220 79.5q-129 0 -205.5 -56t-76.5 -127 q0 -22 13.5 -42t29.5 -32.5t29.5 -34t13.5 -46.5q0 -41 -28 -66.5t-66 -25.5q-45 0 -75.5 36t-30.5 102q0 63 27.5 121t79 104.5t135 74.5t186.5 28q131 0 230 -36t158 -114t59 -191q0 -82 -28 -147.5t-75 -110t-108 -82t-128.5 -68.5t-135.5 -63t-129.5 -73t-109 -91.5 t-76 -125t-29.5 -166.5q26 69 73 99.5t119 30.5q58 0 198 -34.5t212 -34.5q98 0 149 49.5t51 141.5q0 16 16 16t16 -17z" />
<glyph unicode="3" horiz-adv-x="1089" d="M524 732q108 -7 191 -30.5t133.5 -56.5t82.5 -78.5t44 -91.5t12 -100q0 -165 -122 -276.5t-332 -111.5q-200 0 -315.5 96t-115.5 232q0 66 30 102t75 36q39 0 67.5 -25.5t28.5 -67.5q0 -24 -13 -44.5t-28.5 -32.5t-28.5 -31t-13 -40q0 -72 76.5 -129.5t208.5 -57.5 q77 0 136.5 29.5t94 79.5t52 110.5t17.5 128.5q0 71 -19 129t-49 94t-70 60.5t-80 34.5t-80 10h-7q-11 0 -18 6t-7 16q0 15 22 30q168 101 246 171q159 136 193 306q-27 -53 -70.5 -78.5t-112.5 -25.5q-58 0 -191 34.5t-205 34.5q-98 0 -149 -50t-51 -142q0 -15 -17 -15 q-15 0 -15 16v48q0 310 263 310q84 0 229.5 -44t213.5 -44q35 0 59.5 16t34 36t20 36t20.5 16q16 0 16 -18v-44q0 -179 -110.5 -311.5t-346.5 -272.5z" />
<glyph unicode="4" horiz-adv-x="1030" d="M961 292q16 0 16 -16t-16 -16h-160v-179q0 -20 14 -34.5t36 -14.5h53q16 0 16 -16t-16 -16h-380q-16 0 -16 16t16 16h53q22 0 36 14.5t14 34.5v179h-606v30q151 114 261.5 246.5t169.5 260.5t86 242.5t27 223.5q0 47 28 73.5t66 26.5q37 0 64 -26.5t27 -73.5 q0 -110 -41 -231t-121 -247t-211 -254t-300 -239h550v419q89 90 137 193q7 17 22 17t15 -17v-612h160z" />
<glyph unicode="5" horiz-adv-x="1097" d="M525 -13q-200 0 -315.5 96t-115.5 232q0 66 30 102t75 36q39 0 67.5 -25.5t28.5 -67.5q0 -24 -13 -44.5t-29 -32.5t-29 -31t-13 -40q0 -72 77 -129.5t209 -57.5q77 0 135.5 29.5t92.5 79.5t51 110.5t17 128.5q0 90 -27.5 157.5t-76.5 107.5t-110.5 59.5t-135.5 19.5 q-66 0 -125.5 -13.5t-95 -26.5t-42.5 -13q-19 0 -17 19l72 640q87 38 192 38q86 0 211 -28.5t189 -28.5q37 0 62.5 12.5t35.5 27.5t20 27.5t20 12.5q16 0 16 -18q0 -109 -59 -164.5t-157 -55.5q-65 0 -181 24t-186 24q-82 0 -149 -36l-52 -454q143 58 288 58 q97 0 184.5 -25.5t156 -72.5t109 -122t40.5 -167q0 -166 -120.5 -277t-329.5 -111z" />
<glyph unicode="6" horiz-adv-x="1056" d="M556 -13q-208 0 -334 173.5t-126 509.5q0 337 136.5 515t381.5 178q149 0 247.5 -81.5t98.5 -209.5q0 -65 -29.5 -100.5t-73.5 -35.5q-38 0 -66.5 25.5t-28.5 66.5q0 27 13.5 47.5t29.5 31t29.5 29t13.5 41.5q0 66 -67 110.5t-167 44.5q-102 0 -173.5 -60t-109 -170 t-50 -250t-3.5 -316q15 70 53.5 123.5t87 82t94.5 42t88 13.5q58 0 111 -14t101.5 -45.5t84 -77.5t56.5 -113.5t21 -149.5q0 -101 -39 -182t-101.5 -129.5t-134 -73.5t-144.5 -25zM554 21q245 0 245 366q0 186 -59 279.5t-159 93.5q-50 0 -99.5 -22.5t-92.5 -64.5 t-70 -112.5t-28 -157.5q0 -161 75 -271.5t188 -110.5z" />
<glyph unicode="7" horiz-adv-x="929" d="M64 1005v48q0 168 70 238.5t192 70.5q84 0 218 -44t202 -44q35 0 59.5 14t34 30t19.5 30t20 14q15 0 15 -16v-74q0 -103 -21 -194.5t-55 -162.5t-75.5 -140t-83 -141t-76 -149.5t-57 -181t-24.5 -221.5q-2 -46 -28.5 -71t-62.5 -25q-38 0 -65 26t-27 72q0 139 29.5 253.5 t76 192.5t103.5 145.5t114 128t104.5 122.5t78 146t31.5 184q-26 -69 -72.5 -99.5t-118.5 -30.5q-58 0 -177.5 34.5t-191.5 34.5q-98 0 -149.5 -49.5t-51.5 -141.5q0 -15 -16 -15q-15 0 -15 16z" />
<glyph unicode="8" horiz-adv-x="1015" d="M653 716q124 -36 195.5 -130t71.5 -218q0 -166 -113.5 -273.5t-298.5 -107.5t-298.5 107.5t-113.5 273.5q0 124 71.5 218t195.5 130q-122 31 -188.5 114t-66.5 203q0 147 108 238.5t292 91.5t292 -91.5t108 -238.5q0 -120 -66.5 -203t-188.5 -114zM508 1325 q-218 0 -218 -294q0 -295 218 -295q220 0 220 295q0 294 -220 294zM508 24q120 0 176 90t56 250q0 155 -56.5 244.5t-175.5 89.5q-118 0 -174 -89.5t-56 -244.5q0 -160 56 -250t174 -90z" />
<glyph unicode="9" horiz-adv-x="1056" d="M502 1363q208 0 333.5 -174t125.5 -510q0 -337 -136 -514.5t-382 -177.5q-149 0 -247.5 81t-98.5 209q0 65 29.5 101t73.5 36q38 0 67 -25.5t29 -66.5q0 -22 -9 -39t-22 -28t-25.5 -22t-21.5 -26t-9 -34q0 -66 67 -111t167 -45q82 0 144.5 39.5t101 111t62.5 171t29 219 t-1 256.5q-15 -70 -53.5 -123.5t-86.5 -82t-94 -42t-88 -13.5q-73 0 -138 23.5t-119 69.5t-86 125t-32 181q0 81 26 150.5t68.5 116.5t97.5 80t113 48.5t115 15.5zM503 1329q-245 0 -245 -366q0 -186 59 -279.5t159 -93.5q39 0 79 13.5t77.5 42.5t67 69.5t47.5 100.5t19 130 q0 162 -75 272.5t-188 110.5z" />
<glyph unicode=":" horiz-adv-x="460" d="M131 746q0 37 27 64t64 27q38 0 64.5 -27t26.5 -64q0 -38 -26.5 -65t-64.5 -27q-37 0 -64 27t-27 65zM131 89q0 37 27 63.5t64 26.5q38 0 64.5 -26.5t26.5 -63.5q0 -38 -26.5 -65t-64.5 -27q-37 0 -64 27t-27 65z" />
<glyph unicode=";" horiz-adv-x="481" d="M261 656q-37 0 -64 27t-27 65q0 37 27 64t64 27q38 0 65 -27t27 -64q0 -38 -27 -65t-65 -27zM258 162q45 0 75 -33t30 -95q0 -219 -190 -390q-7 -6 -15 -4t-8.5 9t6.5 16q146 146 149 328q-20 -15 -50 -15q-35 0 -62.5 26.5t-27.5 65.5t27 65.5t66 26.5z" />
<glyph unicode="&#x3c;" horiz-adv-x="679" d="M53 547l497 303q11 7 19.5 3t8 -12.5t-9.5 -15.5l-457 -278l457 -278q10 -6 10 -15.5t-8 -12.5t-20 3z" />
<glyph unicode="=" horiz-adv-x="884" d="M88 646q-16 0 -16 16t16 16h660q16 0 16 -17q0 -15 -16 -15h-660zM748 429q16 0 16 -16t-16 -16h-660q-16 0 -16 16t16 16h660z" />
<glyph unicode="&#x3e;" horiz-adv-x="679" d="M626 547l-496 -303q-11 -7 -19.5 -3t-8 12.5t9.5 15.5l457 278l-457 278q-10 6 -10 15.5t8 12.5t20 -3z" />
<glyph unicode="?" horiz-adv-x="931" d="M418 1479q-88 0 -153.5 -50t-65.5 -120q0 -27 14.5 -49.5t31.5 -35.5t31.5 -33t14.5 -44q0 -42 -28 -67t-65 -25q-47 0 -75.5 37.5t-28.5 105.5q0 77 29.5 139t79.5 100.5t111.5 59t129.5 20.5q74 0 142.5 -17.5t124 -50.5t89 -87t33.5 -122q0 -67 -23.5 -127t-61.5 -107 t-84 -94.5t-92 -102t-84 -115.5t-61.5 -148t-23.5 -189v-105q0 -8 -5.5 -13t-12.5 -5q-17 0 -17 18v125q0 110 22 207.5t55 164t72 133t72 117.5t55 114.5t22 127.5q0 122 -69.5 180t-178.5 58zM292 -252q0 38 27.5 65.5t66.5 27.5q38 0 65 -27.5t27 -65.5t-27 -65t-65 -27 q-39 0 -66.5 27t-27.5 65z" />
<glyph unicode="@" horiz-adv-x="1857" d="M1395 39q-115 0 -198.5 72t-83.5 193q-37 -115 -114 -183t-181 -68q-68 0 -128 23.5t-109.5 71t-78.5 128.5t-29 186q0 101 29 181t78 128.5t110 74t128 25.5q104 0 181.5 -69.5t113.5 -181.5v238h134v-556q0 -114 42.5 -172.5t115.5 -58.5q50 0 94 23.5t82.5 75 t61 145.5t22.5 222q0 163 -54.5 298t-151 228t-232.5 144t-297 51q-215 0 -382.5 -96t-261.5 -274t-94 -411t94 -411t261.5 -274t382.5 -96q10 0 14.5 -8t0 -15.5t-14.5 -7.5q-169 0 -324.5 59t-274.5 162.5t-190 257.5t-71 333t71 333t190 258t274.5 163t324.5 59 q168 0 323 -54t273.5 -150t189.5 -239t71 -310q0 -112 -24.5 -200.5t-63.5 -143t-91.5 -90.5t-105 -50t-107.5 -14zM856 94q102 0 180 109t78 257q0 150 -78.5 260t-179.5 110q-108 0 -173 -91.5t-65 -276.5q0 -186 65 -277t173 -91z" />
<glyph unicode="A" horiz-adv-x="1347" d="M1322 32q16 0 16 -16t-16 -16h-461q-16 0 -16 16t16 16h73q31 0 46 21t4 51l-127 332h-523l-129 -332q-11 -28 4 -50t46 -22h73q16 0 16 -16t-16 -16h-303q-16 0 -16 16t16 16h49q38 0 59 18t35 54l488 1253h39l481 -1255q28 -70 101 -70h45zM347 468h498l-247 648z" />
<glyph unicode="B" horiz-adv-x="1226" d="M684 699q215 -11 326.5 -92.5t111.5 -231.5q0 -181 -137 -278t-385 -97h-520q-16 0 -16 16t16 16h53q22 0 35.5 14.5t13.5 34.5v1188q0 20 -13.5 34.5t-35.5 14.5h-53q-16 0 -16 15q0 17 16 17h478q78 0 146.5 -11t130 -35.5t105 -61.5t69 -93.5t25.5 -126.5 q0 -123 -89.5 -211t-260.5 -112zM357 1269v-562h192q125 0 213 88t88 220q0 137 -74.5 220t-229.5 83h-141q-22 0 -35 -14.5t-13 -34.5zM587 32q172 0 261 95t89 247q0 136 -91 218t-259 82h-230v-593q0 -20 13.5 -34.5t35.5 -14.5h181z" />
<glyph unicode="C" horiz-adv-x="1331" d="M1113 1133q0 70 -97.5 131.5t-254.5 61.5q-102 0 -184.5 -37t-145.5 -113t-98 -203.5t-35 -298.5q0 -299 119 -469.5t346 -170.5q151 0 264.5 78.5t153.5 167.5q9 17 20 17q19 0 16 -19q-10 -35 -43.5 -79.5t-82.5 -83.5q-151 -128 -353 -128q-196 0 -339 90t-215 244 t-72 353q0 164 48 296t132 217t197 130.5t245 45.5q219 0 353 -99.5t134 -231.5q0 -68 -30.5 -103t-72.5 -35q-37 0 -64 25.5t-27 65.5q0 24 13.5 45.5t29.5 34t29.5 30.5t13.5 38z" />
<glyph unicode="D" horiz-adv-x="1402" d="M538 1350q132 0 242.5 -21.5t206.5 -70.5t162.5 -125t104 -190t37.5 -259t-53 -270.5t-149.5 -217t-238.5 -144t-313 -52.5h-457q-16 0 -16 16t16 16h53q22 0 35.5 14t13.5 33v1191q0 20 -13.5 34t-35.5 14h-53q-16 0 -16 15q0 17 16 17h458zM537 32q111 0 212.5 43 t181.5 123t127.5 206t47.5 280q0 126 -29 230t-80.5 178.5t-122.5 125.5t-156 75.5t-180 24.5h-132q-22 0 -35.5 -14t-13.5 -34v-1191q0 -19 13.5 -33t35.5 -14h131z" />
<glyph unicode="E" d="M986 373q16 0 16 -16v-357h-922q-16 0 -16 16t16 16h53q22 0 35.5 14t13.5 33v1191q0 20 -13.5 34t-35.5 14h-53q-16 0 -16 15q0 17 16 17h914v-357q0 -16 -16 -16t-16 16v83q0 110 -65 176t-187 66h-304q-22 0 -35.5 -14t-13.5 -34v-550h162q49 0 83.5 7t54.5 19 t30.5 32.5t14 41.5t3.5 53v19q0 16 16 16t16 -16v-376q0 -7 -4.5 -12t-11.5 -5q-16 0 -16 18v20q0 39 -5.5 62.5t-24 45.5t-57 32t-99.5 10h-162v-608q0 -19 13.5 -33t35.5 -14h312q122 0 187 66t65 176v83q0 16 16 16z" />
<glyph unicode="F" horiz-adv-x="1071" d="M80 1350h864v-357q0 -16 -16 -16t-16 16v83q0 110 -65 176t-187 66h-254q-22 0 -35.5 -14t-13.5 -34v-550h169q61 0 99 10t56.5 32t24 46.5t5.5 64.5v19q0 16 16 16t16 -16v-376q0 -7 -4.5 -12t-11.5 -5q-16 0 -16 18v20q0 39 -5.5 62.5t-23.5 45.5t-56.5 32t-99.5 10 h-169v-608q0 -19 13.5 -33t35.5 -14h114q16 0 16 -16t-16 -16h-440q-16 0 -16 16t16 16h53q22 0 35.5 14t13.5 33v1191q0 20 -13.5 34t-35.5 14h-53q-16 0 -16 15q0 17 16 17z" />
<glyph unicode="G" horiz-adv-x="1421" d="M1245 110q-232 -123 -468 -123q-140 0 -260.5 46t-211 131t-142 216.5t-51.5 293.5q0 138 37 253t99.5 194.5t146.5 135t176.5 81t191.5 25.5q127 0 235.5 -42t173.5 -118.5t65 -170.5q0 -68 -30 -103t-72 -35q-37 0 -64.5 25.5t-27.5 65.5q0 24 13.5 45.5t29.5 34 t29.5 30.5t13.5 38q0 74 -104.5 133.5t-239.5 59.5q-71 0 -137 -19t-131 -66.5t-112.5 -120t-77 -187t-29.5 -259.5q0 -156 38.5 -280t107.5 -204t162 -122t203 -42q123 0 262 53v434q0 20 -14 34.5t-36 14.5h-142q-16 0 -16 16t16 16h366v-484z" />
<glyph unicode="H" horiz-adv-x="1402" d="M1323 32q17 0 17 -16t-17 -16h-379q-16 0 -16 16t16 16h53q22 0 36 14t14 33v618h-690v-618q0 -19 13.5 -33t35.5 -14h53q16 0 16 -16t-16 -16h-379q-16 0 -16 16t16 16h53q22 0 35.5 14t13.5 33v1191q0 20 -13.5 34t-35.5 14h-53q-16 0 -16 15q0 17 16 17h379 q16 0 16 -17q0 -15 -16 -15h-53q-22 0 -35.5 -14t-13.5 -34v-541h690v541q0 19 -14 33.5t-36 14.5h-53q-16 0 -16 15q0 17 16 17h379q17 0 17 -17q0 -15 -17 -15h-53q-22 0 -35.5 -14t-13.5 -34v-1191q0 -19 13.5 -33t35.5 -14h53z" />
<glyph unicode="I" horiz-adv-x="538" d="M459 32q16 0 16 -16t-16 -16h-379q-16 0 -16 16t16 16h53q22 0 35.5 14t13.5 33v1191q0 20 -13.5 34t-35.5 14h-53q-16 0 -16 15q0 17 16 17h379q16 0 16 -17q0 -15 -16 -15h-53q-22 0 -35.5 -14t-13.5 -34v-1191q0 -19 13.5 -33t35.5 -14h53z" />
<glyph unicode="J" horiz-adv-x="536" d="M457 1350q16 0 16 -17q0 -15 -16 -15h-53q-22 0 -35.5 -14.5t-13.5 -34.5v-1508q0 -115 -80.5 -179.5t-202.5 -64.5q-105 0 -183.5 54t-78.5 145q0 57 26 86.5t68 29.5q38 0 60.5 -22t22.5 -59q0 -28 -28 -62t-28 -58q0 -33 34 -56.5t84 -23.5q42 0 70.5 17.5t43 50 t20 68.5t5.5 84q0 44 -4 131t-4 139v1228q0 20 -13.5 34.5t-35.5 14.5h-53q-16 0 -16 15q0 17 16 17h379z" />
<glyph unicode="K" horiz-adv-x="1239" d="M459 32q16 0 16 -16t-16 -16h-379q-16 0 -16 16t16 16h53q22 0 35.5 14t13.5 33v1191q0 20 -13.5 34t-35.5 14h-53q-16 0 -16 15q0 17 16 17h379q16 0 16 -17q0 -15 -16 -15h-53q-22 0 -35.5 -14t-13.5 -34v-1191q0 -19 13.5 -33t35.5 -14h53zM1212 32q16 0 16 -16 t-16 -16h-409q-16 0 -16 16t17 16h41q30 0 37.5 16t-8.5 36l-472 578l600 608q16 14 10 31t-35 17h-101q-16 0 -16 16t16 16h326q16 0 16 -17q0 -15 -16 -15h-22q-48 0 -75.5 -10.5t-53.5 -37.5l-508 -516l549 -675q36 -47 92 -47h28z" />
<glyph unicode="L" horiz-adv-x="987" d="M945 357q16 0 16 -16v-341h-881q-16 0 -16 16t16 16h53q22 0 35.5 14t13.5 33v1191q0 20 -13.5 34t-35.5 14h-53q-16 0 -16 15q0 17 16 17h379q16 0 16 -17q0 -15 -16 -15h-53q-22 0 -35.5 -14t-13.5 -34v-1191q0 -19 13.5 -33t35.5 -14h271q119 0 185.5 80t66.5 191v38 q0 16 16 16z" />
<glyph unicode="M" horiz-adv-x="1632" d="M781 -7h-39l-524 1260v-1172q0 -20 13.5 -34.5t35.5 -14.5h53q16 0 16 -16t-16 -16h-240q-16 0 -16 16t16 16h53q22 0 35.5 14.5t13.5 34.5v1188q0 20 -13.5 34.5t-35.5 14.5h-53q-16 0 -16 16t16 16h285l468 -1126l438 1126h281q16 0 16 -17q0 -15 -16 -15h-53 q-22 0 -35.5 -14.5t-13.5 -34.5v-1188q0 -20 13.5 -34.5t35.5 -14.5h53q16 0 16 -16t-16 -16h-379q-16 0 -16 16t16 16h53q22 0 35.5 14t13.5 34v1184z" />
<glyph unicode="N" horiz-adv-x="1282" d="M1202 1350q17 0 17 -16t-17 -16h-53q-22 0 -35.5 -14.5t-13.5 -34.5v-1269h-81l-801 1176v-1095q0 -20 13.5 -34.5t35.5 -14.5h53q16 0 16 -16t-16 -16h-240q-16 0 -16 16t16 16h53q22 0 35.5 14.5t13.5 34.5v1188q0 20 -13.5 34.5t-35.5 14.5h-53q-16 0 -16 16t16 16 h223l762 -1117v1036q0 20 -14 34.5t-36 14.5h-53q-16 0 -16 16t16 16h240z" />
<glyph unicode="O" horiz-adv-x="1452" d="M726 1362q190 0 330.5 -89t212.5 -242t72 -349q0 -147 -42 -273.5t-119.5 -220.5t-194.5 -147.5t-259 -53.5q-143 0 -259.5 53.5t-193.5 147.5t-119 220.5t-42 273.5q0 197 71.5 349.5t212 241.5t330.5 89zM726 22q92 0 166 36t122.5 97t80.5 146.5t46 179.5t14 201 q0 135 -23 247t-72 203.5t-134 143t-200 51.5q-92 0 -165.5 -34.5t-122 -93.5t-80.5 -142t-46 -175.5t-14 -199.5t14 -201t46 -179.5t80 -146.5t122 -97t166 -36z" />
<glyph unicode="P" horiz-adv-x="1134" d="M1045 975q0 -185 -135.5 -301.5t-357.5 -116.5h-195v-478q0 -19 13.5 -33t35.5 -14h103q16 0 16 -16t-16 -16h-429q-16 0 -16 16t16 16h53q22 0 35.5 14t13.5 33v1191q0 20 -13.5 34t-35.5 14h-53q-16 0 -16 15q0 17 16 17h472q223 0 358 -103.5t135 -271.5zM357 589h158 q163 0 254.5 107.5t91.5 278.5q0 72 -20.5 132.5t-61 108.5t-108.5 75t-156 27h-109q-22 0 -35.5 -14t-13.5 -34v-681z" />
<glyph unicode="Q" horiz-adv-x="1452" d="M726 1362q190 0 330.5 -89t212.5 -242t72 -349q0 -147 -42 -273.5t-119.5 -220.5t-194.5 -147.5t-259 -53.5q-143 0 -259.5 53.5t-193.5 147.5t-119 220.5t-42 273.5q0 197 71.5 349.5t212 241.5t330.5 89zM726 22q92 0 166 36t122.5 97t80.5 146.5t46 179.5t14 201 q0 135 -23 247t-72 203.5t-134 143t-200 51.5q-92 0 -165.5 -34.5t-122 -93.5t-80.5 -142t-46 -175.5t-14 -199.5t14 -201t46 -179.5t80 -146.5t122 -97t166 -36zM1210 -503q-94 0 -188.5 39.5t-169.5 95.5t-144 112t-138 95.5t-126 39.5q-65 0 -110.5 -48t-45.5 -122 q0 -16 -16 -16t-16 16q0 99 77 165.5t183 66.5q71 0 153.5 -40.5t158 -98.5t149.5 -116t150.5 -98.5t137.5 -40.5q83 0 124.5 44t41.5 92q0 32 -14.5 55.5t-31.5 35.5t-31.5 32t-14.5 46q0 37 23 58t59 21q41 0 64.5 -32t23.5 -92q0 -52 -15 -102.5t-47 -99t-93.5 -78.5 t-143.5 -30z" />
<glyph unicode="R" horiz-adv-x="1173" d="M1161 86q14 0 14 -15q0 -22 -52 -53t-116 -31q-58 0 -99 18.5t-62 50.5t-35.5 74.5t-19 90.5t-13 98.5t-18 98.5t-34 90.5t-59.5 74.5t-95.5 50.5t-142.5 18.5h-72v-573q0 -19 13.5 -33t35.5 -14h53q16 0 16 -16t-16 -16h-379q-16 0 -16 16t16 16h53q22 0 35.5 14 t13.5 33v1191q0 20 -13.5 34t-35.5 14h-53q-16 0 -16 15q0 17 16 17h449q210 0 332.5 -83t122.5 -241q0 -143 -106.5 -237t-295.5 -119q86 -12 150.5 -41t102.5 -68.5t63.5 -87t36.5 -97.5t18 -99t12 -92t14 -76t28.5 -52t51.5 -19q27 0 48.5 12t34 24t19.5 12zM357 684h110 q91 0 158.5 30t104 80.5t54 107.5t17.5 121q0 143 -75.5 219t-242.5 76h-77q-22 0 -35.5 -14t-13.5 -34v-586z" />
<glyph unicode="S" horiz-adv-x="1101" d="M511 -13q-175 0 -296.5 85.5t-121.5 201.5q0 54 26 86t64 32q32 0 57 -20.5t25 -57.5q0 -35 -36.5 -70.5t-36.5 -59.5q0 -44 50 -82.5t119 -59t133 -20.5q156 0 257.5 78t101.5 216q0 76 -40.5 132t-104.5 91t-142 65t-156 64t-142 76.5t-104.5 113.5t-40.5 165 q0 144 112.5 242t316.5 98q171 0 292 -81.5t121 -195.5q0 -55 -25.5 -87.5t-63.5 -32.5q-32 0 -57 21t-25 58q0 29 18 50t36.5 39t18.5 39q0 43 -50 80t-118.5 55.5t-133.5 18.5q-63 0 -117 -12.5t-102.5 -40t-76.5 -80t-28 -125.5q0 -54 25.5 -97t69 -73t100 -56 t118.5 -49.5t124.5 -49.5t119 -60.5t100 -77.5t69 -106t25.5 -140q0 -51 -17.5 -102.5t-55.5 -100.5t-93 -86.5t-136.5 -60.5t-178.5 -23z" />
<glyph unicode="T" horiz-adv-x="1124" d="M1086 1350v-357q0 -16 -17 -16q-15 0 -15 16v83q0 110 -65 176t-187 66h-103q-22 0 -36 -14.5t-14 -33.5v-1191q0 -19 14 -33t36 -14h53q16 0 16 -16t-16 -16h-379q-17 0 -17 16t17 16h53q22 0 35.5 14t13.5 33v1191q0 20 -13.5 34t-35.5 14h-71q-284 0 -284 -275v-50 q0 -16 -16 -16t-16 16v357h1047z" />
<glyph unicode="U" horiz-adv-x="1323" d="M1243 1350q16 0 16 -16t-16 -16h-53q-22 0 -36 -14.5t-14 -34.5v-787q0 -107 -25 -192t-68 -141t-104 -93t-129.5 -53t-147.5 -16q-69 0 -131.5 12t-128.5 46.5t-114 88t-79 145t-31 209.5v781q0 20 -13.5 34.5t-35.5 14.5h-53q-16 0 -16 15q0 17 16 17h379q16 0 16 -17 q0 -15 -16 -15h-53q-22 0 -35.5 -14.5t-13.5 -34.5v-810q0 -94 18.5 -167.5t50 -121.5t76.5 -79t96 -44t111 -13q65 0 122.5 15t108 49t87 84.5t57.5 125.5t21 169v792q0 20 -14 34.5t-36 14.5h-53q-16 0 -16 16t16 16h241z" />
<glyph unicode="V" horiz-adv-x="1347" d="M1322 1350q16 0 16 -16t-16 -16h-49q-38 0 -59 -18t-35 -54l-488 -1253h-39l-481 1255q-28 70 -101 70h-45q-16 0 -16 16t16 16h461q16 0 16 -16t-16 -16h-73q-31 0 -46 -21t-4 -51l386 -1013l393 1013q11 28 -4 50t-46 22h-73q-16 0 -16 16t16 16h303z" />
<glyph unicode="W" horiz-adv-x="1871" d="M1847 1350q16 0 16 -17q0 -15 -16 -15h-58q-61 0 -75 -49l-387 -1271h-39l-356 1055l-302 -1055h-39l-439 1271q-19 49 -69 49h-58q-16 0 -16 16t16 16h446q16 0 16 -17q0 -15 -16 -15h-91q-24 0 -35 -14t-4 -35l338 -994l308 1075h35l355 -1076l300 995q7 21 -3 35 t-32 14h-94q-16 0 -16 16t16 16h299z" />
<glyph unicode="X" horiz-adv-x="1255" d="M1230 32q16 0 16 -16t-16 -16h-437q-16 0 -16 16t16 16h73q25 0 35 15t-2 34l-321 532l-338 -532q-12 -22 -1.5 -35.5t34.5 -13.5h67q16 0 16 -16t-16 -16h-297q-17 0 -17 16t17 16h60q32 0 54.5 9.5t41.5 39.5l359 565l-378 623q-30 49 -94 49h-30q-16 0 -16 16t16 16 h401q16 0 16 -17q0 -15 -16 -15h-35q-24 0 -35 -14t1 -35l299 -495l310 495q13 20 2 34.5t-35 14.5h-51q-16 0 -16 16t16 16h255q16 0 16 -17q0 -15 -16 -15h-34q-66 0 -97 -49l-330 -528l399 -660q30 -49 98 -49h26z" />
<glyph unicode="Y" d="M1138 1350q16 0 16 -16t-16 -16h-43q-50 0 -72 -48l-346 -673v-516q0 -20 13.5 -34.5t35.5 -14.5h53q16 0 16 -16t-16 -16h-379q-16 0 -16 16t16 16h53q22 0 35.5 14.5t13.5 34.5v478l-371 711q-13 23 -29 35.5t-45 12.5h-33q-16 0 -16 16t16 16h393q16 0 16 -16t-16 -16 h-55q-25 0 -33 -14.5t3 -33.5l324 -639l326 639q10 17 0.5 32.5t-36.5 15.5h-44q-16 0 -16 16t16 16h236z" />
<glyph unicode="Z" horiz-adv-x="1208" d="M1083 373q16 0 16 -16v-357h-991v37l776 1281h-430q-284 0 -284 -275v-50q0 -16 -16 -16t-16 16v357h951v-32l-781 -1286h507q122 0 187 66t65 176v83q0 16 16 16z" />
<glyph unicode="[" horiz-adv-x="501" d="M415 -523q16 0 16 -16t-16 -16h-325v2048h325q16 0 16 -16t-16 -16h-109q-22 0 -36 -14.5t-14 -34.5v-1886q0 -20 14 -34.5t36 -14.5h109z" />
<glyph unicode="\" horiz-adv-x="428" d="M358 0h34l-322 1493h-33z" />
<glyph unicode="]" horiz-adv-x="501" d="M86 -523h109q22 0 36 14.5t14 34.5v1886q0 20 -14 34.5t-36 14.5h-109q-16 0 -16 16t16 16h324v-2048h-324q-16 0 -16 16t16 16z" />
<glyph unicode="^" horiz-adv-x="872" d="M770 1034q8 -12 3 -21t-15.5 -8.5t-20.5 10.5l-299 372l-300 -372q-10 -12 -21.5 -11.5t-15 9.5t2.5 21l271 436q22 36 62 36.5t62 -36.5z" />
<glyph unicode="_" horiz-adv-x="1269" d="M1110 32q16 0 16 -16t-16 -16h-951q-16 0 -16 16t16 16h951z" />
<glyph unicode="`" horiz-adv-x="626" d="M468 1157l-307 239q-37 28 -19 65q14 30 48 31q29 1 52 -25l248 -286q13 -14 3.5 -24.5t-25.5 0.5z" />
<glyph unicode="a" horiz-adv-x="1189" d="M1114 32q16 0 16 -16t-16 -16h-262v276q-44 -133 -134.5 -212.5t-211.5 -79.5q-80 0 -151 29t-127.5 86t-89.5 150.5t-33 213.5q0 113 33 205t89 150.5t127.5 89.5t151.5 31q122 0 212.5 -80.5t133.5 -212.5v278h160v-843q0 -20 13.5 -34.5t35.5 -14.5h53zM551 31 q119 0 210.5 127.5t91.5 301.5q0 115 -43 215.5t-112.5 158.5t-146.5 58q-126 0 -200 -106.5t-74 -323.5t74 -324t200 -107z" />
<glyph unicode="b" horiz-adv-x="1204" d="M699 940q80 0 151 -29t127 -86t89 -150.5t33 -213.5q0 -113 -33 -205.5t-88.5 -150.5t-127 -89.5t-151.5 -31.5q-122 0 -212.5 81t-133.5 213v-278h-263q-16 0 -16 16t16 16h54q22 0 35.5 14.5t13.5 34.5v1331q0 20 -13.5 34.5t-35.5 14.5h-54q-16 0 -16 16t16 16h263 v-845q44 133 134.5 212.5t211.5 79.5zM653 31q126 0 200.5 107t74.5 324t-74.5 324t-200.5 107q-119 0 -210.5 -128t-91.5 -302q0 -115 43 -215.5t112.5 -158.5t146.5 -58z" />
<glyph unicode="c" horiz-adv-x="1054" d="M936 660q0 -61 -27.5 -92t-68.5 -31q-34 0 -58.5 24t-24.5 58q0 23 12 42.5t26.5 31t26.5 27.5t12 34q0 61 -76.5 106t-179.5 45q-58 0 -109 -22.5t-95.5 -70.5t-70.5 -137t-26 -210q0 -207 85 -320t230 -113q64 0 118.5 22t91.5 58.5t61.5 73.5t40.5 78q4 12 15 12 q9 0 13 -6.5t2 -14.5q-14 -41 -39 -82t-67.5 -85.5t-110 -72.5t-148.5 -28q-219 0 -341.5 132t-122.5 346q0 96 26 175.5t69.5 134t102 92.5t123 55t132.5 17q164 0 271 -80t107 -199z" />
<glyph unicode="d" horiz-adv-x="1189" d="M1114 32q16 0 16 -16t-16 -16h-262v276q-44 -133 -134.5 -212.5t-211.5 -79.5q-80 0 -151 29t-127.5 86t-89.5 150.5t-33 213.5q0 113 33 205t89 150.5t127.5 89.5t151.5 31q122 0 212.5 -80.5t133.5 -212.5v766q0 20 -14 34.5t-36 14.5h-53q-16 0 -16 16t16 16h263 v-1412q0 -20 13.5 -34.5t35.5 -14.5h53zM551 31q119 0 210.5 127.5t91.5 301.5q0 115 -43 215.5t-112.5 158.5t-146.5 58q-126 0 -200 -106.5t-74 -323.5t74 -324t200 -107z" />
<glyph unicode="e" horiz-adv-x="1079" d="M961 485q0 -22 -26 -22h-658q0 -90 19 -166t56.5 -135.5t100 -93.5t144.5 -34q64 0 119.5 21.5t93.5 57t63 73.5t39 78q5 14 16 14q19 0 15 -19q-6 -23 -20 -53t-44 -70t-69.5 -72t-101 -54.5t-133.5 -22.5q-96 0 -179.5 29t-149 85.5t-103.5 150t-38 213.5 q0 222 122 348t318 126q188 0 302 -118.5t114 -335.5zM278 493h517q-1 205 -68 309.5t-182 104.5t-188.5 -108.5t-78.5 -305.5z" />
<glyph unicode="f" horiz-adv-x="612" d="M476 1503q106 0 185 -52t79 -139q0 -59 -26 -90.5t-70 -31.5q-32 0 -55.5 19t-23.5 56q0 31 31 65t31 57q0 35 -38.5 59t-88.5 24q-61 0 -104 -39t-43 -118v-389h194q16 0 16 -17q0 -15 -16 -15h-194v-811q0 -20 13.5 -34.5t35.5 -14.5h113q16 0 16 -16t-16 -16h-425 q-16 0 -16 16t16 16h54q22 0 35.5 14.5t13.5 34.5v811h-103q-16 0 -16 16t16 16h103v331q0 82 42.5 140t104.5 83t136 25z" />
<glyph unicode="g" horiz-adv-x="1181" d="M855 924h160v-1015q0 -236 -131 -359t-365 -123q-91 0 -168 26t-127.5 69t-78.5 96.5t-28 110.5q0 55 29 85.5t67 30.5q32 0 54 -21t22 -58q0 -23 -11 -40.5t-24.5 -27.5t-24.5 -26.5t-11 -38.5q0 -54 80.5 -113t210.5 -59q87 0 154.5 31.5t108.5 85.5t62 122.5t21 146.5 v429q-44 -133 -134.5 -212.5t-211.5 -79.5q-80 0 -151 29t-127 86t-89 150.5t-33 213.5q0 223 116.5 349.5t283.5 126.5q122 0 212.5 -80.5t133.5 -212.5v278zM554 31q119 0 210.5 127.5t91.5 301.5q0 115 -43 215.5t-112.5 158.5t-146.5 58q-126 0 -200 -106.5t-74 -323.5 t74 -324t200 -107z" />
<glyph unicode="h" horiz-adv-x="1185" d="M1110 32q16 0 16 -16t-16 -16h-364q-16 0 -16 16t16 16h53q22 0 35.5 14.5t13.5 34.5v532q0 74 -17 128t-45.5 83t-59.5 42t-66 13q-134 0 -220.5 -124t-86.5 -299v-375q0 -20 13.5 -34.5t35.5 -14.5h53q16 0 16 -16t-16 -16h-365q-16 0 -16 16t16 16h54q22 0 35.5 14.5 t13.5 34.5v1331q0 20 -13.5 34.5t-35.5 14.5h-54q-16 0 -16 16t16 16h263v-851q41 132 136 213t228 81q134 0 212.5 -75t78.5 -210v-570q0 -20 13.5 -34.5t35.5 -14.5h53z" />
<glyph unicode="i" horiz-adv-x="530" d="M178 1240q0 39 27.5 66.5t67.5 27.5q38 0 66 -27.5t28 -66.5q0 -38 -28 -65.5t-66 -27.5q-40 0 -67.5 27.5t-27.5 65.5zM455 32q16 0 16 -16t-16 -16h-365q-16 0 -16 16t16 16h53q22 0 36 14.5t14 34.5v761q0 20 -14 35t-36 15h-53q-16 0 -16 15q0 17 16 17h263v-843 q0 -20 13.5 -34.5t35.5 -14.5h53z" />
<glyph unicode="j" horiz-adv-x="518" d="M167 1240q0 39 27.5 66.5t67.5 27.5q38 0 65.5 -27.5t27.5 -66.5q0 -38 -27.5 -65.5t-65.5 -27.5q-40 0 -67.5 27.5t-27.5 65.5zM78 924h262v-1244q0 -62 -24.5 -111t-65.5 -78t-90.5 -44t-103.5 -15q-106 0 -184.5 52t-78.5 139q0 59 26 90.5t70 31.5q32 0 55 -19 t23 -56q0 -25 -15.5 -45.5t-30.5 -38.5t-15 -38q0 -35 38.5 -59t88.5 -24q61 0 104 39t43 118v1220q0 20 -13.5 35t-35.5 15h-53q-16 0 -16 15q0 17 16 17z" />
<glyph unicode="k" horiz-adv-x="1062" d="M455 32q16 0 16 -16t-16 -16h-365q-16 0 -16 16t16 16h53q22 0 36 14.5t14 34.5v1331q0 20 -14 34.5t-36 14.5h-53q-16 0 -16 16t16 16h263v-1412q0 -20 13.5 -34.5t35.5 -14.5h53zM1037 32q16 0 16 -16t-16 -16h-383q-17 0 -17 16t17 16h53q21 0 26.5 15t-11.5 37 l-339 404l448 356q18 12 12 30t-36 18h-76q-16 0 -16 16t16 16h297q16 0 16 -17q0 -15 -16 -15h-15q-38 0 -66 -10t-64 -38l-357 -283l403 -482q38 -47 93 -47h15z" />
<glyph unicode="l" horiz-adv-x="530" d="M455 32q16 0 16 -16t-16 -16h-365q-16 0 -16 16t16 16h53q22 0 36 14.5t14 34.5v1331q0 20 -14 34.5t-36 14.5h-53q-16 0 -16 16t16 16h263v-1412q0 -20 13.5 -34.5t35.5 -14.5h53z" />
<glyph unicode="m" horiz-adv-x="1792" d="M1717 32q16 0 16 -16t-17 -16h-364q-16 0 -16 16t16 16h53q22 0 35.5 14.5t13.5 34.5v535q0 140 -50.5 201.5t-125.5 61.5q-133 0 -214 -123t-81 -300v-375q0 -20 14 -34.5t36 -14.5h53q16 0 16 -16t-16 -16h-365q-16 0 -16 16t16 16h53q22 0 36 14.5t14 34.5v535 q0 140 -50.5 201.5t-125.5 61.5q-133 0 -214 -123t-81 -300v-375q0 -20 13.5 -34.5t35.5 -14.5h53q16 0 16 -16t-16 -16h-365q-16 0 -16 16t16 16h53q22 0 36 14.5t14 34.5v761q0 20 -14 35t-36 15h-53q-16 0 -16 15q0 17 16 17h263v-276q40 131 130 209.5t221 78.5 q269 0 278 -290q39 132 130 211t223 79t205.5 -74t73.5 -209v-572q0 -20 14 -34.5t36 -14.5h53z" />
<glyph unicode="n" horiz-adv-x="1185" d="M1110 32q16 0 16 -16t-16 -16h-364q-16 0 -16 16t16 16h53q22 0 35.5 14.5t13.5 34.5v532q0 74 -17 128t-45.5 83t-59.5 42t-66 13q-134 0 -220.5 -124t-86.5 -299v-375q0 -20 13.5 -34.5t35.5 -14.5h53q16 0 16 -16t-16 -16h-365q-16 0 -16 16t16 16h54q22 0 35.5 14.5 t13.5 34.5v761q0 20 -13.5 35t-35.5 15h-54q-16 0 -16 15q0 17 16 17h263v-282q41 132 136 213t228 81q134 0 212.5 -75t78.5 -210v-570q0 -20 13.5 -34.5t35.5 -14.5h53z" />
<glyph unicode="o" horiz-adv-x="1107" d="M554 -13q-196 0 -322.5 127t-126.5 350q0 218 126 346.5t323 128.5q126 0 226 -52.5t161 -161.5t61 -261q0 -224 -125.5 -350.5t-322.5 -126.5zM553 19q124 2 201.5 118.5t77.5 326.5q0 213 -78 328t-200 115t-200 -115t-78 -328q0 -205 77 -324t200 -121z" />
<glyph unicode="p" horiz-adv-x="1204" d="M699 939q167 0 283.5 -126.5t116.5 -349.5q0 -120 -33 -213.5t-89 -150.5t-127 -86t-151 -29q-121 0 -211.5 79.5t-134.5 212.5v-750q0 -20 13.5 -34.5t35.5 -14.5h53q16 0 16 -16t-16 -16h-262v1397q0 20 -13.5 35t-35.5 15h-54q-16 0 -16 15q0 17 16 17h263v-278 q43 132 133.5 212.5t212.5 80.5zM653 31q126 0 200.5 107t74.5 324t-74.5 323.5t-200.5 106.5q-77 0 -146.5 -58t-112.5 -158.5t-43 -215.5q0 -174 91.5 -301.5t210.5 -127.5z" />
<glyph unicode="q" horiz-adv-x="1181" d="M1114 -523q16 0 16 -16t-16 -16h-262v831q-44 -133 -134.5 -212.5t-211.5 -79.5q-80 0 -151 29t-127.5 86t-89.5 150.5t-33 213.5q0 113 33 205t89 150.5t127.5 89.5t151.5 31q122 0 212.5 -80.5t133.5 -212.5v278h160v-1398q0 -20 13.5 -34.5t35.5 -14.5h53zM551 31 q119 0 210.5 127.5t91.5 301.5q0 115 -43 215.5t-112.5 158.5t-146.5 58q-126 0 -200 -106.5t-74 -323.5t74 -324t200 -107z" />
<glyph unicode="r" horiz-adv-x="868" d="M656 936q95 0 142 -53.5t47 -130.5q0 -56 -28.5 -95t-79.5 -39q-36 0 -60 22t-24 61q0 33 33 71t33 58q0 28 -23.5 45t-64.5 17q-111 0 -194.5 -136.5t-83.5 -356.5v-318q0 -20 13.5 -34.5t35.5 -14.5h113q16 0 16 -16t-16 -16h-425q-16 0 -16 16t16 16h54 q22 0 35.5 14.5t13.5 34.5v761q0 20 -13.5 35t-35.5 15h-54q-16 0 -16 15q0 17 16 17h263v-303q20 82 54.5 145t76 99t85 53.5t87.5 17.5z" />
<glyph unicode="s" horiz-adv-x="1003" d="M521 875q0 -52 28 -103.5t70 -91.5t91 -86.5t91 -89t70 -100t28 -117.5q0 -95 -55.5 -164t-148.5 -102.5t-211 -33.5q-163 0 -271 77t-108 204q0 47 21.5 75t52.5 35l263 482q15 62 60 133q13 22 28.5 36.5t23.5 14.5t12 -5.5t2 -12.5q-47 -85 -47 -151zM464 21 q148 0 215 64t67 164q0 37 -18 74.5t-46.5 71t-63 67.5t-69 70t-62 72.5t-44 80t-14.5 88.5l-216 -396q23 -4 39.5 -23t16.5 -49q0 -32 -37.5 -67.5t-37.5 -60.5q0 -62 80 -109t190 -47z" />
<glyph unicode="t" horiz-adv-x="784" d="M729 200q16 0 16 -15q0 -11 -14 -39q-72 -159 -251 -159q-138 0 -213 74t-75 189v642h-102q-16 0 -16 16t16 16h20q91 0 150.5 65t59.5 197q0 16 16 16t16 -16v-262h323q17 0 17 -17q0 -15 -17 -15h-323v-642q0 -99 45 -156t121 -57q139 0 192 136q2 4 4.5 10.5t3.5 9 t4 5t7 2.5z" />
<glyph unicode="u" horiz-adv-x="1165" d="M1088 32q16 0 16 -16t-16 -16h-262v271q-39 -129 -130 -207t-222 -78q-133 0 -207 74.5t-74 210.5v571q0 20 -14 35t-36 15h-53q-16 0 -16 15q0 17 16 17h263v-615q0 -142 51.5 -204t126.5 -62q133 0 214 123t81 300v376q0 20 -13.5 35t-35.5 15h-53q-16 0 -16 15 q0 17 16 17h262v-843q0 -20 13.5 -34.5t35.5 -14.5h53z" />
<glyph unicode="v" horiz-adv-x="1044" d="M1020 924q16 0 16 -16t-16 -16h-36q-47 0 -66 -45l-363 -847h-38l-392 843q-22 49 -69 49h-30q-17 0 -17 16t17 16h382q16 0 16 -16t-16 -16h-78q-36 0 -36 -29q0 -10 4 -19l300 -664l284 663q4 8 4 20q0 29 -37 29h-74q-17 0 -17 16t17 16h245z" />
<glyph unicode="w" horiz-adv-x="1433" d="M1408 924q17 0 17 -16t-17 -16h-53q-57 0 -72 -45l-284 -847h-38l-246 687l-212 -687h-39l-319 843q-19 49 -70 49h-49q-17 0 -17 16t17 16h410q16 0 16 -17q0 -15 -16 -15h-85q-20 0 -31.5 -9.5t-11.5 -23.5q0 -5 3 -16l231 -614l217 695h33l250 -697l205 616q3 11 3 17 q0 14 -10 23t-28 9h-91q-16 0 -16 16t16 16h287z" />
<glyph unicode="x" horiz-adv-x="1015" d="M993 32q16 0 16 -16t-16 -16h-414q-16 0 -16 16t16 16h72q25 0 36 15.5t-3 33.5l-227 332l-277 -332q-14 -19 -3.5 -34t34.5 -15h53q16 0 16 -16t-16 -16h-239q-16 0 -16 16t16 16h14q61 0 101 49l297 359l-275 403q-36 49 -94 49h-31q-16 0 -16 16t16 16h377 q16 0 16 -16t-16 -16h-35q-25 0 -36 -14t2 -35l216 -317l257 317q14 19 3 34t-35 15h-53q-16 0 -16 16t16 16h254q17 0 17 -17q0 -15 -17 -15h-33q-55 0 -95 -49l-279 -344l288 -418q35 -49 97 -49h28z" />
<glyph unicode="y" horiz-adv-x="1153" d="M724 924h262v-1015q0 -482 -471 -482q-91 0 -165 26t-120.5 69t-71.5 96.5t-25 110.5q0 55 29 85.5t67 30.5q32 0 54 -21t22 -58q0 -23 -11 -40.5t-24.5 -27.5t-24.5 -26.5t-11 -38.5q0 -24 16 -52t46.5 -55.5t85 -46t122.5 -18.5q69 0 124 21t91.5 56.5t61 85t35 105 t10.5 118.5v424q-39 -129 -130 -207t-222 -78q-133 0 -207 74.5t-74 210.5v571q0 20 -14 35t-36 15h-53q-16 0 -16 15q0 17 16 17h263v-615q0 -142 51.5 -204t126.5 -62q133 0 214 123t81 300v376q0 20 -13.5 35t-35.5 15h-53q-16 0 -16 15q0 17 16 17z" />
<glyph unicode="z" horiz-adv-x="1075" d="M921 924v-32l-617 -860h333q119 0 185.5 80t66.5 191v38q0 16 16 16t16 -16v-341h-803v37l614 855h-312q-119 0 -185.5 -80.5t-66.5 -191.5v-37q0 -16 -16 -16t-16 16v341h785z" />
<glyph unicode="{" horiz-adv-x="684" d="M604 -523q19 0 19 -16q0 -6 -5.5 -11t-13.5 -5h-46q-178 0 -251 71t-73 243v520q0 88 -45.5 147.5t-118.5 59.5h-20q-16 0 -16 16t16 16h20q72 0 117.5 56t45.5 131v472q0 172 73.5 244t251.5 72h46q19 0 19 -16q0 -6 -5.5 -11t-13.5 -5q-59 0 -101 -22.5t-65.5 -63.5 t-34 -89.5t-10.5 -108.5v-313q0 -174 -46 -259t-168 -102q122 -17 168 -103t46 -261v-380q0 -58 10.5 -106.5t34 -89t66 -63.5t100.5 -23z" />
<glyph unicode="|" horiz-adv-x="323" d="M201 -555h-33v2048h33v-2048z" />
<glyph unicode="}" horiz-adv-x="692" d="M642 518q16 0 16 -16t-16 -16h-19q-74 0 -119.5 -59.5t-45.5 -147.5v-520q0 -172 -73 -243t-251 -71h-46q-8 0 -13 5t-5 11q0 16 18 16q58 0 100.5 23t66 63.5t34 89t10.5 106.5v380q0 175 46 261t168 103q-122 17 -168 102t-46 259v313q0 60 -10.5 108.5t-34 89.5 t-65.5 63.5t-101 22.5q-8 0 -13 5t-5 11q0 16 18 16h46q178 0 251.5 -72t73.5 -244v-472q0 -75 46 -131t118 -56h19z" />
<glyph unicode="~" horiz-adv-x="1130" d="M771 273q-68 0 -126.5 24.5t-99.5 59t-79.5 69t-85 59t-96.5 24.5q-58 0 -104 -37t-46 -99q0 -10 -8 -14t-16 1t-8 17q0 93 69 154t171 61q63 0 118.5 -24.5t96 -59.5t80 -70t89 -59.5t104.5 -24.5q62 0 113 41.5t51 108.5q0 14 8.5 19.5t17 -0.5t8.5 -19 q0 -96 -74.5 -163.5t-182.5 -67.5z" />
<glyph unicode="&#xa1;" horiz-adv-x="471" d="M129 856q0 35 24.5 60t59.5 25t60 -25t25 -60t-25 -59.5t-60 -24.5t-59.5 25t-24.5 59zM237 -608q-35 0 -59 25t-24 67q0 62 14.5 200.5t29 332t14.5 390.5q0 10 6.5 17t14.5 7t14.5 -7t6.5 -17q0 -197 16 -391t32 -332.5t16 -199.5q0 -42 -24 -67t-57 -25z" />
<glyph unicode="&#xa2;" horiz-adv-x="1054" d="M919 276q9 0 13 -6.5t2 -14.5q-14 -41 -39 -82t-67.5 -85.5t-110 -72.5t-148.5 -28q-60 0 -103 8l-73 -351q-5 -16 -17 -16q-18 0 -13 21l74 352q-158 38 -245 161.5t-87 302.5q0 96 26 175.5t69.5 134t102 92.5t123 55t132.5 17q43 0 74 -4l67 319q5 16 18 16q7 0 11 -6 t2 -16l-68 -318q124 -23 199 -97t75 -173q0 -61 -27.5 -92.5t-68.5 -31.5q-34 0 -58.5 24.5t-24.5 58.5q0 23 12 42.5t26.5 31t26.5 27.5t12 34q0 61 -76.5 106t-179.5 45q-58 0 -109 -22.5t-95.5 -70.5t-70.5 -137t-26 -210q0 -207 85 -320t230 -113q64 0 118.5 22 t91.5 58.5t61.5 73.5t40.5 78q4 12 15 12z" />
<glyph unicode="&#xa3;" horiz-adv-x="1341" d="M1250 380q17 0 17 -16q0 -92 -26 -166t-70 -119.5t-99 -69.5t-116 -24q-57 0 -107.5 12t-104.5 41.5t-80.5 46.5t-86.5 59q-46 -78 -124.5 -118t-170.5 -40q-70 0 -123 40t-53 115t52.5 116t132.5 41q70 0 156 -24q2 34 2 51q0 104 -34 340h-174q-16 0 -16 16t16 16h170 q-29 207 -29 311q0 88 35.5 157t97.5 111.5t140.5 64t170.5 21.5q104 0 193 -35t145.5 -103t56.5 -156q0 -63 -28.5 -98t-71.5 -35q-36 0 -63.5 25t-27.5 65q0 24 13 44t28 32t28 29.5t13 37.5q0 70 -75.5 114.5t-191.5 44.5q-137 0 -211.5 -84t-74.5 -227q0 -93 34 -319 h266q16 0 16 -16t-16 -16h-261q28 -189 28 -316q0 -71 -19 -133q80 -32 117.5 -46t107.5 -30.5t132 -16.5q38 0 71 5.5t57 13.5t44.5 23t34 27t24.5 32t16.5 31.5t10.5 33.5t6.5 29.5t3.5 27.5l2 19q3 15 16 15zM275 20q144 0 169 208q-78 38 -153 38q-62 0 -106 -32 t-44 -93q0 -59 42 -90t92 -31z" />
<glyph unicode="&#xa4;" horiz-adv-x="1384" d="M1148 462q0 -178 -120 -306l151 -153l-26 -25l-151 152q-128 -117 -303 -117q-181 0 -309 122l-158 -157l-26 25l159 158q-115 126 -115 301t117 302l-161 159l26 26l160 -160q129 121 307 121q171 0 301 -115l153 154l26 -26l-153 -153q122 -128 122 -308zM699 46 q172 0 293 121.5t121 294.5q0 172 -121 293.5t-293 121.5t-293.5 -121.5t-121.5 -293.5q0 -173 121.5 -294.5t293.5 -121.5z" />
<glyph unicode="&#xa5;" d="M1138 1350q16 0 16 -16t-16 -16h-43q-50 0 -72 -48l-331 -643h234q16 0 16 -16t-16 -16h-249v-146h249q16 0 16 -16t-16 -16h-249v-336q0 -20 13.5 -34.5t35.5 -14.5h53q16 0 16 -16t-16 -16h-379q-16 0 -16 16t16 16h53q22 0 35.5 14.5t13.5 34.5v336h-265q-16 0 -16 16 t16 16h265v110l-18 36h-247q-16 0 -16 16t16 16h230l-336 643q-13 23 -29 35.5t-45 12.5h-33q-16 0 -16 16t16 16h393q16 0 16 -16t-16 -16h-55q-25 0 -33 -14.5t3 -33.5l324 -639l326 639q10 17 0.5 32.5t-36.5 15.5h-44q-16 0 -16 16t16 16h236z" />
<glyph unicode="&#xa6;" horiz-adv-x="323" d="M168 780v713h33v-713h-33zM201 190v-745h-33v745h33z" />
<glyph unicode="&#xa7;" horiz-adv-x="868" d="M760 393q0 -125 -91 -238q116 -123 116 -276q0 -85 -30 -153t-80 -109t-111 -62.5t-127 -21.5q-82 0 -152.5 30t-116.5 93.5t-46 148.5q0 56 26.5 87t62.5 31q28 0 48 -19.5t20 -52.5q0 -21 -11.5 -38t-25 -27t-25 -25.5t-11.5 -33.5q0 -69 67.5 -114.5t155.5 -45.5 q48 0 90.5 15t78 45.5t56.5 83.5t21 121q0 59 -29 112.5t-75.5 96t-102.5 84t-112 86t-102.5 92t-75.5 111.5t-29 137q0 123 94 240q-115 122 -115 274q0 86 29.5 153.5t79.5 108.5t110.5 62.5t126.5 21.5q127 0 219.5 -73.5t92.5 -198.5q0 -56 -27 -87t-63 -31 q-28 0 -48 19.5t-20 52.5q0 21 11.5 38t25 27t25 25.5t11.5 33.5q0 68 -67.5 114t-155.5 46q-100 0 -170 -65.5t-70 -199.5q0 -59 29 -112t75 -95.5t101.5 -84t111 -86t101.5 -92.5t75 -112t29 -137zM241 629q0 -58 24 -108.5t69.5 -93.5t91 -77.5t108 -80.5t101.5 -82 q34 69 34 128q0 58 -24.5 109t-69.5 94t-91 78t-108 80.5t-101 82.5q-34 -71 -34 -130z" />
<glyph unicode="&#xa8;" horiz-adv-x="1034" d="M284 1329q0 32 22.5 54.5t54.5 22.5t54 -22.5t22 -54.5q0 -31 -22.5 -53.5t-53.5 -22.5q-32 0 -54.5 22t-22.5 54zM608 1329q0 32 22.5 54.5t54.5 22.5t54 -22.5t22 -54.5q0 -31 -22.5 -53.5t-53.5 -22.5q-32 0 -54.5 22t-22.5 54z" />
<glyph unicode="&#xa9;" horiz-adv-x="1077" d="M539 580q-125 0 -231 61.5t-167.5 167t-61.5 230.5q0 190 134.5 324t325.5 134q125 0 230.5 -60.5t167 -166t61.5 -231.5q0 -125 -61 -230.5t-166.5 -167t-231.5 -61.5zM539 612q176 0 300.5 125.5t124.5 301.5t-124.5 301t-300.5 125t-301 -125t-125 -301 q0 -177 125 -302t301 -125zM559 752q-136 0 -212.5 80.5t-76.5 211.5q0 139 84 213.5t200 74.5q93 0 161 -48.5t68 -120.5q0 -39 -19 -63.5t-50 -24.5q-27 0 -46 18t-19 45q0 24 22 49t22 45q0 32 -35 52.5t-83 20.5q-81 0 -135 -62.5t-54 -198.5q0 -122 57 -189t143 -67 q57 0 101 33t69 85q6 13 16 13q19 0 12 -20q-6 -16 -18.5 -35.5t-38 -47.5t-69.5 -46t-99 -18z" />
<glyph unicode="&#xaa;" horiz-adv-x="899" d="M358 796q-105 0 -178.5 75.5t-73.5 213.5q0 135 73.5 212t178.5 77q142 0 209 -151v141h134v-483q0 -16 11.5 -27.5t27.5 -11.5h26q17 0 17 -16q0 -17 -17 -17h-199v139q-65 -152 -209 -152zM398 1330q-138 0 -138 -245q0 -244 138 -244q69 0 119.5 73.5t50.5 170.5 q0 98 -51.5 171.5t-118.5 73.5zM814 695q16 0 16 -16q0 -15 -16 -15h-728q-16 0 -16 16q0 15 16 15h728z" />
<glyph unicode="&#xab;" horiz-adv-x="940" d="M154 457q185 177 307 373q8 13 -5 22t-22 -4q-81 -104 -183.5 -201t-182.5 -153q-54 -36 0 -75q81 -57 183 -153t183 -200q9 -12 22 -4t5 21q-124 199 -307 374zM533 457q185 177 307 373q8 13 -5 22t-22 -4q-81 -104 -183.5 -201t-182.5 -153q-54 -36 0 -75 q81 -57 183 -153t183 -200q9 -12 22 -4t5 21q-124 199 -307 374z" />
<glyph unicode="&#xad;" horiz-adv-x="614" d="M547 499q17 0 17 -16t-17 -16h-480q-16 0 -16 16t16 16h480z" />
<glyph unicode="&#xae;" horiz-adv-x="1077" d="M539 1497q125 0 230.5 -60.5t167 -166t61.5 -231.5q0 -125 -61 -230.5t-166.5 -167t-231.5 -61.5q-125 0 -231 61.5t-167.5 167t-61.5 230.5q0 190 134.5 324t325.5 134zM539 612q176 0 300.5 125.5t124.5 301.5t-124.5 301t-300.5 125t-301 -125t-125 -301 q0 -177 125 -302t301 -125zM776 815q12 0 12 -10q0 -12 -20.5 -21.5t-42.5 -9.5q-57 0 -84.5 26.5t-33.5 64.5t-11 76t-30 64.5t-79 26.5h-17v-201q0 -25 31 -25q13 0 13 -13t-13 -13h-173q-12 0 -12 13t12 13q34 0 34 25v433q0 25 -34 25q-12 0 -12 13t12 13h199 q93 0 146.5 -33t53.5 -98q0 -48 -40.5 -85.5t-104.5 -52.5q46 -8 76 -30t41.5 -48t18 -55t7 -52t7 -38.5t19.5 -15.5q8 0 15 4t10 4zM470 1057h32q113 0 113 124q0 59 -30 83.5t-90 24.5q-25 0 -25 -25v-207z" />
<glyph unicode="&#xaf;" horiz-adv-x="733" d="M96 1285q-9 0 -14.5 5.5t-5.5 13.5q0 19 20 19h574q19 0 19 -19t-19 -19h-574z" />
<glyph unicode="&#xb0;" horiz-adv-x="710" d="M356 916q-87 0 -150 62t-63 150q0 85 63 147.5t150 62.5t149.5 -62.5t62.5 -147.5q0 -86 -63.5 -149t-148.5 -63zM356 958q69 0 118 49t49 121q0 69 -49 118.5t-118 49.5q-71 0 -119.5 -49t-48.5 -119q0 -72 48.5 -121t119.5 -49z" />
<glyph unicode="&#xb1;" horiz-adv-x="745" d="M666 620q17 0 17 -16t-17 -16h-273v-271q0 -17 -16 -17t-16 17v271h-271q-16 0 -16 16t16 16h271v273q0 16 17 16q15 0 15 -16v-273h273zM655 170q16 0 16 -16t-16 -16h-576q-16 0 -16 16t16 16h576z" />
<glyph unicode="&#xb4;" horiz-adv-x="626" d="M167 1157q-16 -11 -25.5 -0.5t3.5 24.5l248 286q34 39 73 20q31 -14 32 -46q1 -26 -24 -45z" />
<glyph unicode="&#xb6;" horiz-adv-x="909" d="M557 706h-88q-165 0 -266 87.5t-101 242.5q0 147 102 230.5t273 83.5h354q11 0 16 -8t0.5 -16t-16.5 -8h-36q-16 0 -26.5 -10.5t-10.5 -26.5v-1281h-33v1317h-135v-1317h-33v706z" />
<glyph unicode="&#xb7;" horiz-adv-x="540" d="M175 518q0 39 28 66.5t68 27.5q38 0 65.5 -27.5t27.5 -66.5q0 -38 -27.5 -65.5t-65.5 -27.5q-40 0 -68 27.5t-28 65.5z" />
<glyph unicode="&#xb8;" horiz-adv-x="1228" d="M167 -161l36 175h35l-29 -147q104 -4 160.5 -47t56.5 -115q0 -83 -69.5 -133.5t-162.5 -50.5q-84 0 -137 38q-33 22 -33 43q0 15 16 15q6 0 22.5 -12.5t45.5 -25.5t67 -13q58 0 97 36t39 96q0 55 -37 96t-107 45z" />
<glyph unicode="&#xba;" horiz-adv-x="796" d="M399 797q-133 0 -214 78.5t-81 211.5q0 124 80 205.5t215 81.5q132 0 213 -75t81 -212q0 -134 -79.5 -212t-214.5 -78zM399 1340q-70 0 -111 -64.5t-41 -190.5q0 -118 40 -186.5t112 -68.5q72 2 111.5 67t39.5 188q0 127 -40 191t-111 64zM710 695q16 0 16 -16 q0 -15 -16 -15h-621q-17 0 -17 16q0 15 17 15h621z" />
<glyph unicode="&#xbb;" horiz-adv-x="940" d="M408 457q-183 -175 -307 -374q-8 -13 4.5 -21t21.5 4q80 103 183 199.5t184 153.5q54 39 0 75q-81 57 -183.5 153.5t-183.5 200.5q-9 13 -21.5 4t-4.5 -22q122 -196 307 -373zM786 457q-181 -173 -306 -374q-8 -13 4.5 -21t21.5 4q80 103 183 199.5t184 153.5q54 39 0 75 q-81 57 -183.5 153.5t-183.5 200.5q-9 13 -21.5 4t-4.5 -22q124 -199 306 -373z" />
<glyph unicode="&#xbc;" horiz-adv-x="1374" d="M1079 1493h39l-828 -1658h-39zM498 620q0 -6 -5 -11t-11 -5h-303q-15 0 -15 16q0 15 15 15h52q15 0 25 10t10 24v603h-87q-15 0 -15 16q0 15 15 15h13q106 0 181 43q7 4 14 9t11 7t8 2q15 0 15 -16v-679q0 -14 10 -24t26 -10h25q6 0 11 -4.5t5 -10.5zM1221 174 q16 0 16 -15q0 -16 -16 -16h-84v-78q0 -14 10 -24t25 -10h27q14 0 14 -15q0 -6 -4 -11t-10 -5h-278q-6 0 -10.5 5t-4.5 11t4.5 10.5t10.5 4.5h26q16 0 26 10t10 24v78h-367v29q84 61 145 129.5t93.5 135t47 125t16.5 115.5q1 40 24.5 61.5t56.5 21.5t56 -21.5t23 -61.5 q0 -74 -41.5 -159.5t-137 -180t-228.5 -163.5h312v192q73 58 124 165q6 14 18 14t12 -15v-356h84z" />
<glyph unicode="&#xbd;" horiz-adv-x="1460" d="M290 -165h-39l828 1658h39zM482 635q6 0 11 -4.5t5 -10.5t-5 -11t-11 -5h-303q-15 0 -15 16q0 15 15 15h52q15 0 25 10t10 24v603h-87q-15 0 -15 16q0 15 15 15h13q106 0 181 43q7 4 14 9t11 7t8 2q15 0 15 -16v-679q0 -14 10 -24t26 -10h25zM1321 206v-42 q0 -173 -168 -173q-55 0 -151.5 24.5t-135.5 24.5q-22 0 -36 -7.5t-18.5 -17t-11 -17t-15.5 -7.5q-15 0 -15 15v41q0 70 21 126.5t55 93t75 66.5t81.5 54.5t74.5 50.5t55 61.5t21 79.5q0 69 -41 108t-113 39q-65 0 -103 -23.5t-38 -56.5q0 -20 26 -46t26 -52 q0 -30 -20.5 -47t-49.5 -17q-33 0 -56.5 24t-23.5 68q0 74 71 128.5t195 54.5q126 0 207 -52t81 -147q0 -58 -27.5 -101.5t-72 -70.5t-98.5 -49.5t-108 -44.5t-99.5 -48.5t-74.5 -70t-31 -100.5q36 77 132 77q36 0 121 -16t126 -16q54 0 82 22.5t28 63.5q0 14 14 14 q15 0 15 -14z" />
<glyph unicode="&#xbe;" horiz-adv-x="1511" d="M1215 1493h39l-828 -1658h-39zM730 825q0 -98 -77.5 -161.5t-219.5 -63.5q-122 0 -195.5 52t-73.5 132q0 43 22 66.5t54 23.5q29 0 50.5 -18t21.5 -48q0 -23 -24 -47.5t-24 -40.5q0 -34 39 -59t106 -25q80 0 121 49.5t41 135.5q0 88 -43.5 131t-99.5 43h-5q-21 0 -21 20 q0 13 21 26q89 54 151 103q62 47 90 99q-37 -37 -107 -37q-39 0 -121 17t-122 17q-52 0 -79.5 -21.5t-27.5 -62.5q0 -15 -14 -15q-15 0 -15 15v42q0 172 167 172q55 0 149 -23.5t135 -23.5q27 0 41.5 13t22 26t17.5 13q15 0 15 -16v-17q0 -94 -74 -170.5t-201 -147.5 q153 -7 216.5 -62.5t63.5 -136.5zM1357 174q16 0 16 -15q0 -16 -16 -16h-84v-78q0 -14 10 -24t25 -10h27q14 0 14 -15q0 -6 -4 -11t-10 -5h-278q-6 0 -10.5 5t-4.5 11t4.5 10.5t10.5 4.5h26q16 0 26 10t10 24v78h-367v29q84 61 145 129.5t93.5 135t47 125t16.5 115.5 q1 40 24.5 61.5t56.5 21.5t56 -21.5t23 -61.5q0 -74 -41.5 -159.5t-137 -180t-228.5 -163.5h312v192q73 58 124 165q6 14 18 14t12 -15v-356h84z" />
<glyph unicode="&#xbf;" horiz-adv-x="931" d="M640 1188q0 -38 -27.5 -65.5t-66.5 -27.5q-38 0 -65 27.5t-27 65.5t27 65t65 27q39 0 66.5 -27t27.5 -65zM514 -543q88 0 153.5 50t65.5 120q0 27 -14.5 49.5t-31.5 35.5t-31.5 33t-14.5 44q0 42 27.5 67t64.5 25q47 0 76 -37.5t29 -105.5q0 -77 -29.5 -139t-79.5 -100.5 t-112 -59t-130 -20.5q-74 0 -142.5 17.5t-124 50.5t-89 87t-33.5 122q0 67 24 127t62 107t84 95t91.5 102t83.5 115t62 148t24 189v105q0 18 17 18q8 0 13 -5t5 -13v-125q0 -110 -22 -207.5t-55 -164t-72 -133t-72 -117.5t-55 -114.5t-22 -127.5q0 -122 69.5 -180t178.5 -58 z" />
<glyph unicode="&#xc0;" horiz-adv-x="1347" d="M742 1452l-307 239q-37 28 -19 65q14 30 48 31q29 1 52 -25l248 -286q13 -14 3.5 -24.5t-25.5 0.5zM1322 32q16 0 16 -16t-16 -16h-461q-16 0 -16 16t16 16h73q31 0 46 21t4 51l-127 332h-523l-129 -332q-11 -28 4 -50t46 -22h73q16 0 16 -16t-16 -16h-303q-16 0 -16 16 t16 16h49q38 0 59 18t35 54l488 1253h39l481 -1255q28 -70 101 -70h45zM347 468h498l-247 648z" />
<glyph unicode="&#xc1;" horiz-adv-x="1347" d="M609 1452q-16 -11 -26 -0.5t3 24.5l249 286q35 39 74 20q30 -15 30 -47q0 -25 -24 -44zM1322 32q16 0 16 -16t-16 -16h-461q-16 0 -16 16t16 16h73q31 0 46 21t4 51l-127 332h-523l-129 -332q-11 -28 4 -50t46 -22h73q16 0 16 -16t-16 -16h-303q-16 0 -16 16t16 16h49 q68 0 95 72l487 1253h39l481 -1255q28 -70 101 -70h45zM347 468h498l-247 648z" />
<glyph unicode="&#xc2;" horiz-adv-x="1347" d="M917 1452q10 -18 -5 -26t-28 7l-193 225l-195 -225q-9 -10 -20 -9.5t-15.5 8.5t1.5 20l165 283q23 38 62.5 38t62.5 -38zM1322 32q16 0 16 -16t-16 -16h-461q-16 0 -16 16t16 16h73q31 0 46 21t4 51l-127 332h-523l-129 -332q-11 -28 4 -50t46 -22h73q17 0 17 -16 q0 -7 -5 -11.5t-12 -4.5h-303q-16 0 -16 16t16 16h49q68 0 95 72l487 1253h39l482 -1255q28 -70 100 -70h45zM347 468h498l-247 648z" />
<glyph unicode="&#xc3;" horiz-adv-x="1347" d="M854 1444q-56 0 -113.5 24t-97 52t-90.5 52t-96 24q-61 0 -106.5 -36.5t-45.5 -95.5q0 -8 -5 -13.5t-12 -5.5q-16 0 -16 19q0 94 64.5 153.5t166.5 59.5q45 0 90 -15.5t81.5 -38t72 -45t75 -38t77.5 -15.5q56 0 103.5 34t47.5 98q0 20 16 20q18 0 18 -21q0 -94 -66 -153 t-164 -59zM1322 32q16 0 16 -16t-16 -16h-461q-16 0 -16 16t16 16h73q31 0 46 21t4 51l-127 332h-523l-129 -332q-11 -28 4 -50t46 -22h73q16 0 16 -16t-16 -16h-303q-16 0 -16 16t16 16h49q68 0 95 72l487 1253h39l481 -1255q28 -70 101 -70h45zM347 468h498l-247 648z" />
<glyph unicode="&#xc4;" horiz-adv-x="1347" d="M440 1519q0 32 22 54t54 22t54 -22t22 -54q0 -31 -22 -53.5t-54 -22.5t-54 22t-22 54zM764 1519q0 32 22 54t54 22t54 -22t22 -54q0 -31 -22 -53.5t-54 -22.5t-54 22t-22 54zM1322 32q16 0 16 -16t-16 -16h-461q-16 0 -16 16t16 16h73q31 0 46 21t4 51l-127 332h-523 l-129 -332q-11 -28 4 -50t46 -22h73q16 0 16 -16t-16 -16h-303q-16 0 -16 16t16 16h49q38 0 59 18t35 54l488 1253h39l481 -1255q28 -70 101 -70h45zM347 468h498l-247 648z" />
<glyph unicode="&#xc5;" horiz-adv-x="1347" d="M646 1443q-85 0 -146.5 60.5t-61.5 145.5q0 83 61.5 143.5t146.5 60.5q84 0 144.5 -60.5t60.5 -143.5q0 -85 -60.5 -145.5t-144.5 -60.5zM646 1482q67 0 115.5 49t48.5 118q0 68 -48 116.5t-116 48.5q-69 0 -117.5 -48.5t-48.5 -116.5q0 -69 49 -118t117 -49zM1322 32 q16 0 16 -16t-16 -16h-461q-16 0 -16 16t16 16h73q31 0 46 21t4 51l-127 332h-523l-129 -332q-11 -28 4 -50t46 -22h73q17 0 17 -16q0 -7 -5 -11.5t-12 -4.5h-303q-16 0 -16 16t16 16h49q68 0 95 72l487 1253h39l482 -1255q28 -70 100 -70h45zM347 468h498l-247 648z" />
<glyph unicode="&#xc6;" horiz-adv-x="1939" d="M1026 1350h746v-357q0 -16 -17 -16q-15 0 -15 16v83q0 110 -65 176t-187 66h-312q-22 0 -36 -14.5t-14 -34.5v-544h169q49 0 83.5 7t54.5 19t30.5 32.5t14 41.5t3.5 53v18q0 7 4.5 12t11.5 5t11.5 -5t4.5 -12v-376q0 -16 -16 -16t-16 17v20q0 39 -5.5 63t-24 46t-57 32 t-99.5 10h-169v-611q0 -20 14 -34.5t36 -14.5h320q119 0 185.5 80t66.5 191v38q0 16 16 16t16 -16v-341h-931q-16 0 -16 16t16 16h53q22 0 36 14.5t14 34.5v355h-512l-230 -332q-18 -26 -1.5 -49t48.5 -23h76q16 0 16 -16t-16 -16h-308q-16 0 -16 16t16 16h45q25 0 44 11 t27 21.5t28 39.5zM952 468v713l-490 -713h490z" />
<glyph unicode="&#xc7;" horiz-adv-x="1331" d="M1201 297q19 0 16 -19q-10 -35 -43.5 -79.5t-82.5 -83.5q-144 -124 -343 -128l-24 -120q104 -4 161 -47t57 -115q0 -83 -69.5 -133.5t-162.5 -50.5q-85 0 -138 38q-32 21 -32 43q0 16 16 16q6 0 22.5 -13t45.5 -26t67 -13q58 0 97 36t39 96q0 55 -37 96t-107 45l30 148 q-188 6 -325.5 97t-206.5 243t-69 347q0 164 48 296t132 217t197 130.5t245 45.5q219 0 353 -99.5t134 -231.5q0 -68 -30 -103t-72 -35q-37 0 -64.5 25.5t-27.5 65.5q0 24 13.5 45.5t29.5 34t29.5 30.5t13.5 38q0 70 -97.5 131.5t-254.5 61.5q-102 0 -184.5 -37t-145.5 -113 t-98 -203.5t-35 -298.5q0 -299 119 -469.5t346 -170.5q151 0 264.5 78.5t153.5 167.5q9 17 20 17z" />
<glyph unicode="&#xc8;" d="M662 1452l-307 239q-37 28 -19 65q14 30 48 31q29 1 52 -25l248 -286q13 -14 3.5 -24.5t-25.5 0.5zM986 373q16 0 16 -16v-357h-922q-16 0 -16 16t16 16h53q22 0 35.5 14t13.5 33v1191q0 20 -13.5 34t-35.5 14h-53q-16 0 -16 15q0 17 16 17h914v-357q0 -16 -16 -16 t-16 16v83q0 110 -65 176t-187 66h-304q-22 0 -35.5 -14t-13.5 -34v-550h162q49 0 83.5 7t54.5 19t30.5 32.5t14 41.5t3.5 53v19q0 16 16 16t16 -16v-376q0 -7 -4.5 -12t-11.5 -5q-16 0 -16 18v20q0 39 -5.5 62.5t-24 45.5t-57 32t-99.5 10h-162v-608q0 -19 13.5 -33 t35.5 -14h312q122 0 187 66t65 176v83q0 16 16 16z" />
<glyph unicode="&#xc9;" d="M528 1452q-16 -11 -25.5 -0.5t3.5 24.5l248 286q34 39 73 20q31 -14 32 -46q1 -26 -24 -45zM986 373q16 0 16 -16v-357h-922q-16 0 -16 16t16 16h53q22 0 35.5 14t13.5 33v1191q0 20 -13.5 34t-35.5 14h-53q-16 0 -16 15q0 17 16 17h914v-357q0 -16 -16 -16t-16 16v83 q0 110 -65 176t-187 66h-304q-22 0 -35.5 -14t-13.5 -34v-550h162q49 0 83.5 7t54.5 19t30.5 32.5t14 41.5t3.5 53v19q0 16 16 16t16 -16v-376q0 -7 -4.5 -12t-11.5 -5q-16 0 -16 18v20q0 39 -5.5 62.5t-24 45.5t-57 32t-99.5 10h-162v-608q0 -19 13.5 -33t35.5 -14h312 q122 0 187 66t65 176v83q0 16 16 16z" />
<glyph unicode="&#xca;" d="M837 1452q10 -18 -5.5 -26t-28.5 7l-193 225l-195 -225q-9 -10 -20 -9.5t-15 8.5t2 20l165 283q23 38 62.5 38t61.5 -38zM986 373q16 0 16 -16v-357h-922q-16 0 -16 16t16 16h53q22 0 35.5 14t13.5 33v1191q0 20 -13.5 34t-35.5 14h-53q-16 0 -16 15q0 17 16 17h914v-357 q0 -16 -16 -16t-16 16v83q0 110 -65 176t-187 66h-304q-22 0 -35.5 -14t-13.5 -34v-550h162q49 0 83.5 7t54.5 19t30.5 32.5t14 41.5t3.5 53v19q0 16 16 16t16 -16v-376q0 -7 -4.5 -12t-11.5 -5q-16 0 -16 18v20q0 39 -5.5 62.5t-24 45.5t-57 32t-99.5 10h-162v-608 q0 -19 13.5 -33t35.5 -14h312q122 0 187 66t65 176v83q0 16 16 16z" />
<glyph unicode="&#xcb;" d="M359 1519q0 32 22.5 54t54.5 22t54 -22t22 -54q0 -31 -22 -53.5t-54 -22.5t-54.5 22t-22.5 54zM683 1519q0 32 22.5 54t54.5 22t54 -22t22 -54q0 -31 -22 -53.5t-54 -22.5t-54.5 22t-22.5 54zM986 373q16 0 16 -16v-357h-922q-16 0 -16 16t16 16h53q22 0 35.5 14t13.5 33 v1191q0 20 -13.5 34t-35.5 14h-53q-16 0 -16 15q0 17 16 17h914v-357q0 -16 -16 -16t-16 16v83q0 110 -65 176t-187 66h-304q-22 0 -35.5 -14t-13.5 -34v-550h162q49 0 83.5 7t54.5 19t30.5 32.5t14 41.5t3.5 53v19q0 16 16 16t16 -16v-376q0 -7 -4.5 -12t-11.5 -5 q-16 0 -16 18v20q0 39 -5.5 62.5t-24 45.5t-57 32t-99.5 10h-162v-608q0 -19 13.5 -33t35.5 -14h312q122 0 187 66t65 176v83q0 16 16 16z" />
<glyph unicode="&#xcc;" horiz-adv-x="538" d="M336 1452l-307 239q-37 28 -19 65q14 30 48 31q29 1 52 -25l248 -286q13 -14 3.5 -24.5t-25.5 0.5zM459 32q16 0 16 -16t-16 -16h-379q-16 0 -16 16t16 16h53q22 0 35.5 14t13.5 33v1191q0 20 -13.5 34t-35.5 14h-53q-16 0 -16 15q0 17 16 17h379q16 0 16 -17 q0 -15 -16 -15h-53q-22 0 -35.5 -14t-13.5 -34v-1191q0 -19 13.5 -33t35.5 -14h53z" />
<glyph unicode="&#xcd;" horiz-adv-x="538" d="M202 1452q-16 -11 -25.5 -0.5t3.5 24.5l248 286q34 39 73 20q31 -14 32 -46q1 -26 -24 -45zM459 32q16 0 16 -16t-16 -16h-379q-16 0 -16 16t16 16h53q22 0 35.5 14t13.5 33v1191q0 20 -13.5 34t-35.5 14h-53q-16 0 -16 15q0 17 16 17h379q16 0 16 -17q0 -15 -16 -15h-53 q-22 0 -35.5 -14t-13.5 -34v-1191q0 -19 13.5 -33t35.5 -14h53z" />
<glyph unicode="&#xce;" horiz-adv-x="538" d="M511 1452q10 -18 -5 -26t-28 7l-194 225l-195 -225q-9 -10 -20 -9.5t-15 8.5t2 20l165 283q22 38 62 38t63 -38zM459 32q16 0 16 -16t-16 -16h-379q-16 0 -16 16t16 16h53q22 0 35.5 14t13.5 33v1191q0 20 -13.5 34t-35.5 14h-53q-16 0 -16 15q0 17 16 17h379 q16 0 16 -17q0 -15 -16 -15h-53q-22 0 -35.5 -14t-13.5 -34v-1191q0 -19 13.5 -33t35.5 -14h53z" />
<glyph unicode="&#xcf;" horiz-adv-x="538" d="M33 1519q0 32 22.5 54t54.5 22t54 -22t22 -54q0 -31 -22 -53.5t-54 -22.5t-54.5 22t-22.5 54zM357 1519q0 32 22.5 54t54.5 22t54 -22t22 -54q0 -31 -22 -53.5t-54 -22.5t-54.5 22t-22.5 54zM459 32q16 0 16 -16t-16 -16h-379q-16 0 -16 16t16 16h53q22 0 35.5 14 t13.5 33v1191q0 20 -13.5 34t-35.5 14h-53q-16 0 -16 15q0 17 16 17h379q16 0 16 -17q0 -15 -16 -15h-53q-22 0 -35.5 -14t-13.5 -34v-1191q0 -19 13.5 -33t35.5 -14h53z" />
<glyph unicode="&#xd0;" horiz-adv-x="1398" d="M538 1350q132 0 242.5 -21.5t206.5 -70.5t162.5 -125t104 -190t37.5 -259t-53 -270.5t-149.5 -217t-238.5 -144t-313 -52.5h-457q-16 0 -16 16t16 16h53q22 0 35.5 14t13.5 33v608h-102q-16 0 -16 17q0 15 16 15h102v551q0 20 -13.5 34t-35.5 14h-53q-16 0 -16 15 q0 17 16 17h458zM537 32q111 0 212.5 43t181.5 123t127.5 206t47.5 280q0 126 -29 230t-80.5 178.5t-122.5 125.5t-156 75.5t-180 24.5h-132q-22 0 -35.5 -14t-13.5 -34v-551h383q16 0 16 -16t-16 -16h-383v-608q0 -19 13.5 -33t35.5 -14h131z" />
<glyph unicode="&#xd1;" horiz-adv-x="1282" d="M815 1444q-56 0 -113.5 24t-97.5 52t-91 52t-96 24q-61 0 -106.5 -36.5t-45.5 -95.5q0 -19 -16 -19q-7 0 -12 5.5t-5 13.5q0 94 64.5 153.5t166.5 59.5q45 0 90 -15.5t81.5 -38t72 -45t75 -38t77.5 -15.5q56 0 103.5 34t47.5 98q0 20 16 20q18 0 18 -21q0 -94 -65.5 -153 t-163.5 -59zM1202 1350q17 0 17 -16t-17 -16h-53q-22 0 -35.5 -14.5t-13.5 -34.5v-1269h-81l-801 1176v-1095q0 -20 13.5 -34.5t35.5 -14.5h53q16 0 16 -16t-16 -16h-240q-16 0 -16 16t16 16h53q22 0 35.5 14.5t13.5 34.5v1188q0 20 -13.5 34.5t-35.5 14.5h-53q-16 0 -16 16 t16 16h223l762 -1117v1036q0 20 -14 34.5t-36 14.5h-53q-16 0 -16 16t16 16h240z" />
<glyph unicode="&#xd2;" horiz-adv-x="1452" d="M790 1452l-307 239q-37 28 -19 65q14 30 48 31q29 1 52 -25l248 -286q13 -14 3.5 -24.5t-25.5 0.5zM726 1362q190 0 330.5 -89t212.5 -242t72 -349q0 -147 -42 -273.5t-119.5 -220.5t-194.5 -147.5t-259 -53.5q-143 0 -259.5 53.5t-193.5 147.5t-119 220.5t-42 273.5 q0 197 71.5 349.5t212 241.5t330.5 89zM726 22q92 0 166 36t122.5 97t80.5 146.5t46 179.5t14 201q0 135 -23 247t-72 203.5t-134 143t-200 51.5q-92 0 -165.5 -34.5t-122 -93.5t-80.5 -142t-46 -175.5t-14 -199.5t14 -201t46 -179.5t80 -146.5t122 -97t166 -36z" />
<glyph unicode="&#xd3;" horiz-adv-x="1452" d="M657 1452q-16 -11 -26 -0.5t3 24.5l249 286q35 39 74 20q30 -15 30 -47q0 -25 -24 -44zM726 1362q190 0 330.5 -89t212.5 -242t72 -349q0 -147 -42 -273.5t-119.5 -220.5t-194.5 -147.5t-259 -53.5q-143 0 -259.5 53.5t-193.5 147.5t-119 220.5t-42 273.5 q0 197 71.5 349.5t212 241.5t330.5 89zM726 22q92 0 166 36t122.5 97t80.5 146.5t46 179.5t14 201q0 135 -23 247t-72 203.5t-134 143t-200 51.5q-92 0 -165.5 -34.5t-122 -93.5t-80.5 -142t-46 -175.5t-14 -199.5t14 -201t46 -179.5t80 -146.5t122 -97t166 -36z" />
<glyph unicode="&#xd4;" horiz-adv-x="1452" d="M965 1452q10 -18 -5 -26t-28 7l-194 225l-195 -225q-9 -10 -20 -9.5t-15 8.5t2 20l165 283q23 38 63 38t62 -38zM727 1362q190 0 330.5 -89t212 -242t71.5 -349q0 -197 -71.5 -353.5t-212.5 -249t-330 -92.5q-143 0 -260 53.5t-194 147.5t-119 220.5t-42 273.5 q0 197 71.5 349.5t212.5 241.5t331 89zM727 22q92 0 166 36t122 97t80 146.5t46 179.5t14 201t-14 199.5t-46 175.5t-80.5 142t-122 93.5t-165.5 34.5q-115 0 -200 -51.5t-134 -143t-72 -203.5t-23 -247q0 -107 14 -201t46 -179.5t80.5 -146.5t122.5 -97t166 -36z" />
<glyph unicode="&#xd5;" horiz-adv-x="1452" d="M902 1444q-56 0 -113.5 24t-97 52t-90.5 52t-96 24q-61 0 -106.5 -36.5t-45.5 -95.5q0 -8 -5 -13.5t-12 -5.5q-16 0 -16 19q0 94 64.5 153.5t166.5 59.5q45 0 90 -15.5t81.5 -38t72 -45t75 -38t77.5 -15.5q56 0 103.5 34t47.5 98q0 20 16 20q18 0 18 -21q0 -94 -66 -153 t-164 -59zM726 1362q190 0 330.5 -89t212.5 -242t72 -349q0 -147 -42 -273.5t-119.5 -220.5t-194.5 -147.5t-259 -53.5q-143 0 -259.5 53.5t-193.5 147.5t-119 220.5t-42 273.5q0 197 71.5 349.5t212 241.5t330.5 89zM726 22q92 0 166 36t122.5 97t80.5 146.5t46 179.5 t14 201q0 135 -23 247t-72 203.5t-134 143t-200 51.5q-92 0 -165.5 -34.5t-122 -93.5t-80.5 -142t-46 -175.5t-14 -199.5t14 -201t46 -179.5t80 -146.5t122 -97t166 -36z" />
<glyph unicode="&#xd6;" horiz-adv-x="1452" d="M488 1519q0 32 22 54t54 22t54 -22t22 -54q0 -31 -22 -53.5t-54 -22.5t-54 22t-22 54zM812 1519q0 32 22 54t54 22t54 -22t22 -54q0 -31 -22 -53.5t-54 -22.5t-54 22t-22 54zM726 1362q190 0 330.5 -89t212.5 -242t72 -349q0 -147 -42 -273.5t-119.5 -220.5 t-194.5 -147.5t-259 -53.5q-143 0 -259.5 53.5t-193.5 147.5t-119 220.5t-42 273.5q0 197 71.5 349.5t212 241.5t330.5 89zM726 22q92 0 166 36t122.5 97t80.5 146.5t46 179.5t14 201q0 135 -23 247t-72 203.5t-134 143t-200 51.5q-92 0 -165.5 -34.5t-122 -93.5t-80.5 -142 t-46 -175.5t-14 -199.5t14 -201t46 -179.5t80 -146.5t122 -97t166 -36z" />
<glyph unicode="&#xd7;" horiz-adv-x="718" d="M587 289q11 -11 0 -23q-11 -11 -22 0l-70 70l-136 136l-239 -239q-12 -11 -23 0t0 22l18 18l127 127l95 94l-94 94l-18 18l-57 57l-70 70q-12 11 0 23q11 11 23 -1l69 -69l76 -75l93 -94l8 8l70 69v1l82 82l45 45q12 12 23 0t0 -23l-173 -172l-32 -33l136 -136l24 -24z " />
<glyph unicode="&#xd8;" horiz-adv-x="1452" d="M867 1349q223 -46 348.5 -226.5t125.5 -440.5q0 -147 -42 -273.5t-119.5 -220.5t-194.5 -147.5t-259 -53.5q-76 0 -144 15l-26 -123h-32l28 131q-207 57 -323.5 239.5t-116.5 432.5q0 197 71.5 349.5t212 241.5t330.5 89q60 0 108 -7l28 134h34zM298 682 q0 -107 14.5 -202t45 -179t82.5 -147.5t122 -96.5l264 1259q-49 11 -100 11q-92 0 -165.5 -34.5t-122 -93.5t-80.5 -142t-46 -175.5t-14 -199.5zM726 22q92 0 166 36t122.5 97t80.5 146.5t46 179.5t14 201q0 113 -16.5 211t-50.5 182.5t-92.5 144.5t-137.5 87l-267 -1263 q59 -22 135 -22z" />
<glyph unicode="&#xd9;" horiz-adv-x="1323" d="M807 1452l-307 239q-37 28 -19 65q14 30 48 31q29 1 52 -25l248 -286q13 -14 3.5 -24.5t-25.5 0.5zM1243 1350q16 0 16 -16t-16 -16h-53q-22 0 -36 -14.5t-14 -34.5v-787q0 -107 -25 -192t-68 -141t-104 -93t-129.5 -53t-147.5 -16q-69 0 -131.5 12t-128.5 46.5t-114 88 t-79 145t-31 209.5v781q0 20 -13.5 34.5t-35.5 14.5h-53q-16 0 -16 15q0 17 16 17h379q16 0 16 -17q0 -15 -16 -15h-53q-22 0 -35.5 -14.5t-13.5 -34.5v-810q0 -94 18.5 -167.5t50 -121.5t76.5 -79t96 -44t111 -13q65 0 122.5 15t108 49t87 84.5t57.5 125.5t21 169v792 q0 20 -13.5 34.5t-35.5 14.5h-54q-16 0 -16 16t16 16h241z" />
<glyph unicode="&#xda;" horiz-adv-x="1323" d="M673 1452q-16 -11 -25.5 -0.5t3.5 24.5l248 286q34 39 73 20q31 -14 32 -46q1 -26 -24 -45zM1243 1350q16 0 16 -16t-16 -16h-53q-22 0 -36 -14.5t-14 -34.5v-787q0 -107 -25 -192t-68 -141t-104 -93t-129.5 -53t-147.5 -16q-69 0 -131.5 12t-128.5 46.5t-114 88t-79 145 t-31 209.5v781q0 20 -13.5 34.5t-35.5 14.5h-53q-16 0 -16 15q0 17 16 17h379q16 0 16 -17q0 -15 -16 -15h-53q-22 0 -35.5 -14.5t-13.5 -34.5v-810q0 -94 18.5 -167.5t50 -121.5t76.5 -79t96 -44t111 -13q65 0 122.5 15t108 49t87 84.5t57.5 125.5t21 169v792 q0 20 -13.5 34.5t-35.5 14.5h-54q-16 0 -16 16t16 16h241z" />
<glyph unicode="&#xdb;" horiz-adv-x="1323" d="M982 1452q10 -18 -5 -26t-28 7l-194 225l-195 -225q-9 -10 -20 -9.5t-15 8.5t2 20l165 283q22 38 62 38t63 -38zM1243 1350q16 0 16 -16t-16 -16h-53q-22 0 -36 -14.5t-14 -34.5v-787q0 -107 -25 -192t-68 -141t-104 -93t-129.5 -53t-147.5 -16q-69 0 -131.5 12 t-128.5 46.5t-114 88t-79 145t-31 209.5v781q0 20 -13.5 34.5t-35.5 14.5h-53q-16 0 -16 15q0 17 16 17h379q16 0 16 -17q0 -15 -16 -15h-53q-22 0 -35.5 -14.5t-13.5 -34.5v-810q0 -94 18.5 -167.5t50 -121.5t76.5 -79t96 -44t111 -13q65 0 122.5 15t108 49t87 84.5 t57.5 125.5t21 169v792q0 20 -13.5 34.5t-35.5 14.5h-54q-16 0 -16 16t16 16h241z" />
<glyph unicode="&#xdc;" horiz-adv-x="1323" d="M504 1519q0 32 22.5 54t54.5 22t54 -22t22 -54q0 -31 -22.5 -53.5t-53.5 -22.5q-32 0 -54.5 22t-22.5 54zM828 1519q0 32 22.5 54t54.5 22t54 -22t22 -54q0 -31 -22.5 -53.5t-53.5 -22.5q-32 0 -54.5 22t-22.5 54zM1243 1350q16 0 16 -16t-16 -16h-53q-22 0 -36 -14.5 t-14 -34.5v-787q0 -107 -25 -192t-68 -141t-104 -93t-129.5 -53t-147.5 -16q-69 0 -131.5 12t-128.5 46.5t-114 88t-79 145t-31 209.5v781q0 20 -13.5 34.5t-35.5 14.5h-53q-16 0 -16 15q0 17 16 17h379q16 0 16 -17q0 -15 -16 -15h-53q-22 0 -35.5 -14.5t-13.5 -34.5v-810 q0 -94 18.5 -167.5t50 -121.5t76.5 -79t96 -44t111 -13q65 0 122.5 15t108 49t87 84.5t57.5 125.5t21 169v792q0 20 -13.5 34.5t-35.5 14.5h-54q-16 0 -16 16t16 16h241z" />
<glyph unicode="&#xdd;" d="M560 1452q-16 -11 -26 -0.5t3 24.5l249 286q35 39 74 20q30 -15 30 -47q0 -25 -24 -44zM1138 1350q16 0 16 -16t-16 -16h-43q-50 0 -72 -48l-346 -673v-516q0 -20 13.5 -34.5t35.5 -14.5h53q16 0 16 -16t-16 -16h-379q-16 0 -16 16t16 16h53q22 0 35.5 14.5t13.5 34.5 v478l-371 711q-13 23 -29 35.5t-45 12.5h-33q-16 0 -16 16t16 16h393q16 0 16 -16t-16 -16h-55q-25 0 -33 -14.5t3 -33.5l324 -639l326 639q10 17 0.5 32.5t-36.5 15.5h-44q-16 0 -16 16t16 16h236z" />
<glyph unicode="&#xde;" horiz-adv-x="1138" d="M557 1073q223 0 357.5 -103.5t134.5 -271.5q0 -185 -135.5 -301.5t-357.5 -116.5h-199v-201q0 -19 13.5 -33t35.5 -14h53q16 0 16 -16t-16 -16h-379q-16 0 -16 16t16 16h53q22 0 35.5 14t13.5 33v1191q0 20 -13.5 34t-35.5 14h-53q-16 0 -16 15q0 17 16 17h379 q16 0 16 -17q0 -15 -16 -15h-53q-22 0 -35.5 -14t-13.5 -34v-197h200zM519 312q163 0 254.5 107.5t91.5 278.5q0 72 -20.5 132.5t-61 108.5t-108.5 75t-156 27h-162v-729h162z" />
<glyph unicode="&#xdf;" horiz-adv-x="1257" d="M722 797q0 -55 44.5 -101t107.5 -82t126 -76.5t107.5 -104.5t44.5 -146q0 -94 -48.5 -163.5t-124.5 -103t-167 -33.5q-140 0 -220.5 74.5t-80.5 202.5q0 54 27.5 84.5t63.5 30.5q28 0 48.5 -21t20.5 -56q0 -23 -13.5 -42t-29.5 -31t-29.5 -29.5t-13.5 -37.5 q0 -61 60.5 -101t146.5 -40q109 0 160.5 64.5t51.5 163.5q0 44 -20.5 83t-54 68.5t-73.5 57.5t-79.5 57t-73 60t-54 71.5t-20.5 87.5q0 62 27.5 115.5t66.5 95t77.5 83t66 98t27.5 121.5q0 113 -77 174t-186 61q-56 0 -104.5 -17.5t-88 -54t-62.5 -99t-23 -146.5v-1084 q0 -20 13.5 -34.5t35.5 -14.5h53q16 0 16 -16t-16 -16h-365q-16 0 -16 16t16 16h53q22 0 36 14.5t14 34.5v811h-103q-16 0 -16 16t16 16h103v190q0 100 34 178.5t93 126.5t133.5 72.5t160.5 24.5q137 0 227.5 -68t90.5 -200q0 -57 -15.5 -104.5t-39 -78.5t-50.5 -63 t-50.5 -58.5t-39 -65t-15.5 -81.5z" />
<glyph unicode="&#xe0;" horiz-adv-x="1189" d="M617 1157l-307 239q-37 28 -19 65q14 30 48 31q29 1 52 -25l248 -286q13 -14 3.5 -24.5t-25.5 0.5zM1114 32q16 0 16 -16t-16 -16h-262v276q-44 -133 -134.5 -212.5t-211.5 -79.5q-80 0 -151 29t-127.5 86t-89.5 150.5t-33 213.5q0 113 33 205t89 150.5t127.5 89.5 t151.5 31q122 0 212.5 -80.5t133.5 -212.5v278h160v-843q0 -20 13.5 -34.5t35.5 -14.5h53zM551 31q119 0 210.5 127.5t91.5 301.5q0 115 -43 215.5t-112.5 158.5t-146.5 58q-126 0 -200 -106.5t-74 -323.5t74 -324t200 -107z" />
<glyph unicode="&#xe1;" horiz-adv-x="1189" d="M473 1157q-16 -11 -26 -0.5t3 24.5l249 286q35 39 74 20q30 -15 30 -47q0 -25 -24 -44zM1114 32q16 0 16 -16t-16 -16h-262v276q-44 -133 -134.5 -212.5t-211.5 -79.5q-80 0 -151 29t-127.5 86t-89.5 150.5t-33 213.5q0 113 33 205t89 150.5t127.5 89.5t151.5 31 q122 0 212.5 -80.5t133.5 -212.5v278h160v-843q0 -20 13.5 -34.5t35.5 -14.5h53zM551 31q119 0 210.5 127.5t91.5 301.5q0 115 -43 215.5t-112.5 158.5t-146.5 58q-126 0 -200 -106.5t-74 -323.5t74 -324t200 -107z" />
<glyph unicode="&#xe2;" horiz-adv-x="1189" d="M774 1169q10 -18 -5.5 -25.5t-28.5 7.5l-193 224l-195 -224q-9 -10 -20 -10t-15.5 8t1.5 20l166 284q22 38 62 38t62 -38zM1114 32q16 0 16 -16t-16 -16h-262v276q-44 -133 -134.5 -212.5t-211.5 -79.5q-80 0 -151 29t-127.5 86t-89.5 150.5t-33 213.5q0 113 33 205 t89 150.5t127.5 89.5t151.5 31q122 0 212.5 -80.5t133.5 -212.5v278h160v-843q0 -20 13.5 -34.5t35.5 -14.5h53zM551 31q119 0 210.5 127.5t91.5 301.5q0 115 -43 215.5t-112.5 158.5t-146.5 58q-126 0 -200 -106.5t-74 -323.5t74 -324t200 -107z" />
<glyph unicode="&#xe3;" horiz-adv-x="1189" d="M723 1159q-46 0 -91.5 15.5t-82.5 38t-72 45t-74.5 38t-76.5 15.5q-61 0 -107 -36.5t-46 -95.5q0 -19 -16 -19t-16 19q0 94 64.5 153.5t166.5 59.5q55 0 111.5 -24t96 -52t91 -52t97.5 -24q56 0 103.5 34t47.5 98q0 20 16 20q18 0 18 -21q0 -94 -66 -153t-164 -59z M1114 32q16 0 16 -16t-16 -16h-262v276q-44 -133 -134.5 -212.5t-211.5 -79.5q-80 0 -151 29t-127.5 86t-89.5 150.5t-33 213.5q0 113 33 205t89 150.5t127.5 89.5t151.5 31q122 0 212.5 -80.5t133.5 -212.5v278h160v-843q0 -20 13.5 -34.5t35.5 -14.5h53zM551 31 q119 0 210.5 127.5t91.5 301.5q0 115 -43 215.5t-112.5 158.5t-146.5 58q-126 0 -200 -106.5t-74 -323.5t74 -324t200 -107z" />
<glyph unicode="&#xe4;" horiz-adv-x="1189" d="M309 1217q0 32 22 54.5t54 22.5t54 -22.5t22 -54.5q0 -31 -22.5 -53.5t-53.5 -22.5q-32 0 -54 22t-22 54zM633 1217q0 32 22 54.5t54 22.5t54 -22.5t22 -54.5q0 -31 -22.5 -53.5t-53.5 -22.5q-32 0 -54 22t-22 54zM1114 32q16 0 16 -16t-16 -16h-262v276 q-44 -133 -134.5 -212.5t-211.5 -79.5q-80 0 -151 29t-127.5 86t-89.5 150.5t-33 213.5q0 113 33 205t89 150.5t127.5 89.5t151.5 31q122 0 212.5 -80.5t133.5 -212.5v278h160v-843q0 -20 13.5 -34.5t35.5 -14.5h53zM551 31q119 0 210.5 127.5t91.5 301.5q0 115 -43 215.5 t-112.5 158.5t-146.5 58q-126 0 -200 -106.5t-74 -323.5t74 -324t200 -107z" />
<glyph unicode="&#xe5;" horiz-adv-x="1189" d="M547 1127q-85 0 -146.5 61t-61.5 146q0 83 61.5 143.5t146.5 60.5q84 0 144.5 -60.5t60.5 -143.5q0 -85 -60.5 -146t-144.5 -61zM547 1166q67 0 115.5 49.5t48.5 118.5q0 68 -48 116.5t-116 48.5q-69 0 -117.5 -48.5t-48.5 -116.5q0 -70 49 -119t117 -49zM1114 32 q16 0 16 -16t-16 -16h-262v276q-44 -133 -134.5 -212.5t-211.5 -79.5q-80 0 -151 29t-127.5 86t-89.5 150.5t-33 213.5q0 113 33 205t89 150.5t127.5 89.5t151.5 31q122 0 212.5 -80.5t133.5 -212.5v278h160v-843q0 -20 13.5 -34.5t35.5 -14.5h53zM551 31q119 0 210.5 127.5 t91.5 301.5q0 115 -43 215.5t-112.5 158.5t-146.5 58q-126 0 -200 -106.5t-74 -323.5t74 -324t200 -107z" />
<glyph unicode="&#xe6;" horiz-adv-x="1677" d="M1142 939q188 0 302.5 -118.5t114.5 -335.5q0 -22 -27 -22h-657q0 -90 19 -166t56.5 -135.5t100 -93.5t144.5 -34q64 0 119.5 21.5t93.5 57t63 73.5t39 78q5 14 16 14q18 0 14 -19q-6 -23 -20 -53t-44 -70t-69.5 -72t-101 -54.5t-133.5 -22.5q-168 0 -292 85.5 t-161 252.5q-27 -151 -114 -244.5t-239 -93.5q-124 0 -198.5 72t-74.5 168q0 108 90 180.5t275 83.5l245 13v174q0 105 -73.5 166t-171.5 61q-106 0 -178.5 -44t-72.5 -103q0 -17 11.5 -31.5t24.5 -24.5t24.5 -28t11.5 -40q0 -33 -23 -54t-54 -21q-35 0 -60.5 28.5 t-25.5 85.5q0 116 97.5 191t264.5 75q253 0 337 -140q120 140 327 140zM875 493h517q-1 205 -68 309.5t-182 104.5t-188.5 -108.5t-78.5 -305.5zM442 53q124 0 192.5 111t68.5 310l-238 -12q-102 -6 -151.5 -61t-49.5 -147q0 -99 46.5 -150t131.5 -51z" />
<glyph unicode="&#xe7;" horiz-adv-x="1054" d="M919 276q9 0 13 -6.5t2 -14.5q-14 -41 -39 -82t-67.5 -85.5t-110 -72.5t-148.5 -28h-15l-24 -120q104 -4 161 -47t57 -115q0 -83 -69.5 -133.5t-162.5 -50.5q-85 0 -138 38q-33 22 -33 43q0 16 17 16q7 0 23 -13t45 -26t67 -13q58 0 97 36t39 96q0 55 -37.5 96t-107.5 45 l31 150q-196 15 -305 145t-109 331q0 96 26 175.5t70 134t102.5 92.5t123 55t132.5 17q164 0 270.5 -80t106.5 -199q0 -61 -27.5 -92.5t-68.5 -31.5q-34 0 -58.5 24.5t-24.5 58.5q0 23 12 42.5t26.5 31t26.5 27.5t12 34q0 61 -76.5 106t-179.5 45q-58 0 -109 -22.5 t-95.5 -70.5t-70.5 -137t-26 -210q0 -207 85 -320t230 -113q64 0 118.5 22t91.5 58.5t61.5 73.5t40.5 78q4 12 15 12z" />
<glyph unicode="&#xe8;" horiz-adv-x="1079" d="M603 1157l-306 239q-37 29 -19 65q15 31 49 31q27 1 50 -25l248 -286q13 -14 3.5 -24.5t-25.5 0.5zM961 485q0 -22 -26 -22h-658q0 -90 19 -166t56.5 -135.5t100 -93.5t144.5 -34q64 0 119.5 21.5t93.5 57t63 73.5t39 78q5 14 16 14q19 0 15 -19q-6 -23 -20 -53t-44 -70 t-69.5 -72t-101 -54.5t-133.5 -22.5q-96 0 -179.5 29t-149 85.5t-103.5 150t-38 213.5q0 222 122 348t318 126q188 0 302 -118.5t114 -335.5zM278 493h517q-1 205 -68 309.5t-182 104.5t-188.5 -108.5t-78.5 -305.5z" />
<glyph unicode="&#xe9;" horiz-adv-x="1079" d="M459 1157q-16 -11 -26 -0.5t3 24.5l249 286q35 39 74 20q30 -15 30 -47q0 -25 -24 -44zM961 485q0 -22 -26 -22h-658q0 -90 19 -166t56.5 -135.5t100 -93.5t144.5 -34q64 0 119.5 21.5t93.5 57t63 73.5t39 78q5 14 16 14q19 0 15 -19q-6 -23 -20 -53t-44 -70t-69.5 -72 t-101 -54.5t-133.5 -22.5q-96 0 -179.5 29t-149 85.5t-103.5 150t-38 213.5q0 222 122 348t318 126q188 0 302 -118.5t114 -335.5zM278 493h517q-1 205 -68 309.5t-182 104.5t-188.5 -108.5t-78.5 -305.5z" />
<glyph unicode="&#xea;" horiz-adv-x="1079" d="M760 1169q10 -18 -5.5 -25.5t-28.5 7.5l-193 224l-195 -224q-9 -10 -20 -10t-15.5 8t1.5 20l166 284q22 38 62 38t62 -38zM961 485q0 -22 -26 -22h-658q0 -90 19 -166t56.5 -135.5t100 -93.5t144.5 -34q64 0 119.5 21.5t93.5 57t63 73.5t39 78q5 14 16 14q19 0 15 -19 q-6 -23 -20 -53t-44 -70t-69.5 -72t-101 -54.5t-133.5 -22.5q-96 0 -179.5 29t-149 85.5t-103.5 150t-38 213.5q0 222 122 348t318 126q188 0 302 -118.5t114 -335.5zM278 493h517q-1 205 -68 309.5t-182 104.5t-188.5 -108.5t-78.5 -305.5z" />
<glyph unicode="&#xeb;" horiz-adv-x="1079" d="M295 1217q0 32 22 54.5t54 22.5t54 -22.5t22 -54.5q0 -31 -22.5 -53.5t-53.5 -22.5q-32 0 -54 22t-22 54zM619 1217q0 32 22 54.5t54 22.5t54 -22.5t22 -54.5q0 -31 -22.5 -53.5t-53.5 -22.5q-32 0 -54 22t-22 54zM961 485q0 -22 -26 -22h-658q0 -90 19 -166t56.5 -135.5 t100 -93.5t144.5 -34q64 0 119.5 21.5t93.5 57t63 73.5t39 78q5 14 16 14q19 0 15 -19q-6 -23 -20 -53t-44 -70t-69.5 -72t-101 -54.5t-133.5 -22.5q-96 0 -179.5 29t-149 85.5t-103.5 149.5t-38 213q0 222 122 348.5t318 126.5q188 0 302 -118.5t114 -335.5zM278 493h517 q-1 205 -68 309.5t-182 104.5t-188.5 -108.5t-78.5 -305.5z" />
<glyph unicode="&#xec;" horiz-adv-x="530" d="M335 1157l-307 239q-37 28 -19 65q14 30 48 31q29 1 52 -25l248 -286q13 -14 3.5 -24.5t-25.5 0.5zM455 32q16 0 16 -16t-16 -16h-365q-16 0 -16 16t16 16h54q22 0 35.5 14.5t13.5 34.5v761q0 20 -13.5 35t-35.5 15h-54q-16 0 -16 15q0 17 16 17h263v-843 q0 -20 13.5 -34.5t35.5 -14.5h53z" />
<glyph unicode="&#xed;" horiz-adv-x="530" d="M191 1157q-16 -11 -26 -0.5t3 24.5l249 286q35 39 74 20q30 -15 30 -47q0 -25 -24 -44zM455 32q16 0 16 -16t-16 -16h-365q-16 0 -16 16t16 16h54q22 0 35.5 14.5t13.5 34.5v761q0 20 -13.5 35t-35.5 15h-54q-16 0 -16 15q0 17 16 17h263v-843q0 -20 13.5 -34.5 t35.5 -14.5h53z" />
<glyph unicode="&#xee;" horiz-adv-x="530" d="M492 1169q10 -18 -5.5 -25.5t-28.5 7.5l-193 224l-195 -224q-9 -10 -20 -10t-15.5 8t1.5 20l166 284q23 38 62 38t62 -38zM455 32q16 0 16 -16t-16 -16h-365q-16 0 -16 16t16 16h54q22 0 35.5 14.5t13.5 34.5v761q0 20 -13.5 35t-35.5 15h-54q-16 0 -16 15q0 17 16 17 h263v-843q0 -20 13.5 -34.5t35.5 -14.5h53z" />
<glyph unicode="&#xef;" horiz-adv-x="530" d="M27 1217q0 32 22 54.5t54 22.5t54 -22.5t22 -54.5q0 -31 -22.5 -53.5t-53.5 -22.5q-32 0 -54 22t-22 54zM351 1217q0 32 22 54.5t54 22.5t54 -22.5t22 -54.5q0 -31 -22.5 -53.5t-53.5 -22.5q-32 0 -54 22t-22 54zM455 32q16 0 16 -16t-16 -16h-365q-16 0 -16 16t16 16h53 q22 0 36 14.5t14 34.5v761q0 20 -14 35t-36 15h-53q-16 0 -16 15q0 17 16 17h263v-843q0 -20 13.5 -34.5t35.5 -14.5h53z" />
<glyph unicode="&#xf0;" horiz-adv-x="1114" d="M635 1373q99 -60 173 -147t117 -189t63.5 -210t20.5 -223q0 -178 -49.5 -315.5t-154.5 -219.5t-253 -82q-93 0 -173 29.5t-141.5 87t-97 148.5t-35.5 207q0 111 36 204t96 152t134 91.5t153 32.5q220 0 306 -200q-46 392 -255 573l-129 -129l-18 -17q-12 -12 -23 0 q-11 11 0 22l18 18l127 126q-161 125 -403 125q-21 0 -21 17q0 19 21 19q268 0 460 -104l138 139q11 12 23 0q11 -11 -1 -23l-45 -45zM555 20q142 0 214 130.5t72 361.5q0 183 -81.5 285t-198.5 102q-46 0 -85.5 -12.5t-76 -43.5t-62 -80t-41 -126.5t-15.5 -177.5 q0 -112 20.5 -196t49.5 -129t69 -72t71 -34.5t64 -7.5z" />
<glyph unicode="&#xf1;" horiz-adv-x="1185" d="M775 1159q-46 0 -91.5 15.5t-82.5 38t-72 45t-74.5 38t-76.5 15.5q-61 0 -107 -36.5t-46 -95.5q0 -19 -16 -19t-16 19q0 94 64.5 153.5t166.5 59.5q55 0 111.5 -24t96 -52t91 -52t97.5 -24q56 0 103.5 34t47.5 98q0 20 16 20q18 0 18 -21q0 -94 -66 -153t-164 -59z M1110 32q17 0 17 -16t-17 -16h-364q-16 0 -16 16t16 16h53q22 0 35.5 14.5t13.5 34.5v532q0 74 -17 128t-45.5 83t-59.5 42t-66 13q-134 0 -220.5 -124t-86.5 -299v-375q0 -20 13.5 -34.5t35.5 -14.5h53q16 0 16 -16t-16 -16h-365q-16 0 -16 16t16 16h54q22 0 35.5 14.5 t13.5 34.5v761q0 20 -13.5 35t-35.5 15h-54q-16 0 -16 15q0 17 16 17h263v-282q41 132 136 213t228 81q134 0 212.5 -75t78.5 -210v-570q0 -20 13.5 -34.5t35.5 -14.5h53z" />
<glyph unicode="&#xf2;" horiz-adv-x="1107" d="M623 1157l-306 239q-37 29 -19 65q15 31 49 31q27 1 50 -25l248 -286q13 -14 3.5 -24.5t-25.5 0.5zM554 -13q-196 0 -322.5 127t-126.5 350q0 218 126 346.5t323 128.5q126 0 226 -52.5t161 -161.5t61 -261q0 -224 -125.5 -350.5t-322.5 -126.5zM553 19 q124 2 201.5 118.5t77.5 326.5q0 213 -78 328t-200 115t-200 -115t-78 -328q0 -205 77 -324t200 -121z" />
<glyph unicode="&#xf3;" horiz-adv-x="1107" d="M479 1157q-16 -11 -26 -0.5t3 24.5l249 286q35 39 74 20q30 -15 30 -47q0 -25 -24 -44zM554 -13q-196 0 -322.5 127t-126.5 350q0 218 126 346.5t323 128.5q126 0 226 -52.5t161 -161.5t61 -261q0 -224 -125.5 -350.5t-322.5 -126.5zM553 19q124 2 201.5 118.5 t77.5 326.5q0 213 -78 328t-200 115t-200 -115t-78 -328q0 -205 77 -324t200 -121z" />
<glyph unicode="&#xf4;" horiz-adv-x="1107" d="M780 1169q10 -18 -5.5 -25.5t-28.5 7.5l-193 224l-195 -224q-9 -10 -20 -10t-15.5 8t1.5 20l166 284q22 38 62 38t62 -38zM554 -13q-196 0 -322.5 127t-126.5 350q0 218 126 346.5t323 128.5q126 0 226 -52.5t161 -161.5t61 -261q0 -224 -125.5 -350.5t-322.5 -126.5z M553 19q124 2 201.5 118.5t77.5 326.5q0 213 -78 328t-200 115t-200 -115t-78 -328q0 -205 77 -324t200 -121z" />
<glyph unicode="&#xf5;" horiz-adv-x="1107" d="M729 1159q-46 0 -91.5 15.5t-82.5 38t-72 45t-74.5 38t-76.5 15.5q-61 0 -106.5 -36.5t-45.5 -95.5q0 -8 -5 -13.5t-12 -5.5q-16 0 -16 19q0 94 64.5 153.5t166.5 59.5q55 0 111.5 -24t96 -52t91 -52t97.5 -24q56 0 103.5 34t47.5 98q0 20 16 20q18 0 18 -21 q0 -94 -66 -153t-164 -59zM554 -13q-196 0 -322.5 127t-126.5 350q0 218 126 346.5t323 128.5q126 0 226 -52.5t161 -161.5t61 -261q0 -224 -125.5 -350.5t-322.5 -126.5zM553 19q124 2 201.5 118.5t77.5 326.5q0 213 -78 328t-200 115t-200 -115t-78 -328q0 -205 77 -324 t200 -121z" />
<glyph unicode="&#xf6;" horiz-adv-x="1107" d="M315 1217q0 32 22 54.5t54 22.5t54 -22.5t22 -54.5q0 -31 -22.5 -53.5t-53.5 -22.5q-32 0 -54 22t-22 54zM639 1217q0 32 22 54.5t54 22.5t54 -22.5t22 -54.5q0 -31 -22.5 -53.5t-53.5 -22.5q-32 0 -54 22t-22 54zM554 -13q-196 0 -322.5 127t-126.5 350q0 218 126 346.5 t323 128.5q126 0 226 -52.5t161 -161.5t61 -261q0 -224 -125.5 -350.5t-322.5 -126.5zM553 19q124 2 201.5 118.5t77.5 326.5q0 213 -78 328t-200 115t-200 -115t-78 -328q0 -205 77 -324t200 -121z" />
<glyph unicode="&#xf7;" horiz-adv-x="864" d="M433 687q-31 0 -53.5 21.5t-22.5 51.5q0 31 22.5 53t53.5 22q30 0 51.5 -22t21.5 -53q0 -30 -21.5 -51.5t-51.5 -21.5zM738 493q16 0 16 -16t-16 -16h-636h-24q-17 0 -17 16t17 16h596h64zM433 265q30 0 51.5 -21.5t21.5 -51.5q0 -31 -21.5 -52.5t-51.5 -21.5 q-32 0 -54 21.5t-22 52.5q0 30 22.5 51.5t53.5 21.5z" />
<glyph unicode="&#xf8;" horiz-adv-x="1107" d="M722 912q129 -45 204.5 -160t75.5 -288q0 -224 -125.5 -350.5t-322.5 -126.5q-72 0 -135 18l-42 -126h-34l45 135q-130 47 -206.5 162.5t-76.5 287.5q0 218 126 346.5t323 128.5q75 0 136 -17l40 120h36zM276 464q0 -135 35 -235.5t97 -154.5l266 799q-53 34 -120 34 q-122 0 -200 -115t-78 -328zM553 19q124 2 201.5 118.5t77.5 326.5q0 278 -130 388l-267 -798q53 -35 118 -35z" />
<glyph unicode="&#xf9;" horiz-adv-x="1165" d="M644 1157l-307 239q-37 28 -19 65q14 30 48 31q29 1 52 -25l248 -286q13 -14 3.5 -24.5t-25.5 0.5zM1088 32q16 0 16 -16t-16 -16h-262v271q-39 -129 -130 -207t-222 -78q-133 0 -207 74.5t-74 210.5v571q0 20 -13.5 35t-35.5 15h-54q-16 0 -16 15q0 17 16 17h263v-615 q0 -142 51.5 -204t126.5 -62q133 0 214 123t81 300v376q0 20 -13.5 35t-35.5 15h-53q-16 0 -16 15q0 17 16 17h262v-843q0 -20 13.5 -34.5t35.5 -14.5h53z" />
<glyph unicode="&#xfa;" horiz-adv-x="1165" d="M499 1157q-16 -11 -25.5 -0.5t3.5 24.5l248 286q34 39 73 20q31 -14 32 -46q1 -26 -24 -45zM1088 32q17 0 17 -16t-17 -16h-262v271q-39 -129 -130 -207t-222 -78q-133 0 -207 74.5t-74 210.5v571q0 20 -13.5 35t-35.5 15h-54q-16 0 -16 15q0 17 16 17h263v-615 q0 -142 51.5 -204t126.5 -62q133 0 214 123t81 300v376q0 20 -13.5 35t-35.5 15h-53q-16 0 -16 15q0 17 16 17h262v-843q0 -20 13.5 -34.5t35.5 -14.5h53z" />
<glyph unicode="&#xfb;" horiz-adv-x="1165" d="M800 1169q10 -18 -5 -25.5t-28 7.5l-194 224l-195 -224q-9 -10 -20 -10t-15 8t2 20l165 284q22 38 62 38t63 -38zM1088 32q17 0 17 -16t-17 -16h-262v271q-39 -129 -130 -207t-222 -78q-133 0 -207 74.5t-74 210.5v571q0 20 -13.5 35t-35.5 15h-53q-17 0 -17 15 q0 17 17 17h262v-615q0 -142 51.5 -204t126.5 -62q133 0 214 123t81 300v376q0 20 -13.5 35t-35.5 15h-53q-16 0 -16 15q0 17 16 17h262v-843q0 -20 13.5 -34.5t35.5 -14.5h53z" />
<glyph unicode="&#xfc;" horiz-adv-x="1165" d="M335 1217q0 32 22.5 54.5t54.5 22.5t54 -22.5t22 -54.5q0 -31 -22 -53.5t-54 -22.5t-54.5 22t-22.5 54zM659 1217q0 32 22.5 54.5t54.5 22.5t54 -22.5t22 -54.5q0 -31 -22 -53.5t-54 -22.5t-54.5 22t-22.5 54zM1088 32q16 0 16 -16t-16 -16h-262v271q-39 -129 -130 -207 t-222 -78q-133 0 -207 74.5t-74 210.5v571q0 20 -13.5 35t-35.5 15h-54q-16 0 -16 15q0 17 16 17h263v-615q0 -142 51.5 -204t126.5 -62q133 0 214 123t81 300v376q0 20 -13.5 35t-35.5 15h-53q-16 0 -16 15q0 17 16 17h262v-843q0 -20 13.5 -34.5t35.5 -14.5h53z" />
<glyph unicode="&#xfd;" horiz-adv-x="1153" d="M539 1157q-16 -11 -26 -0.5t3 24.5l249 286q35 39 74 20q30 -15 30 -47q0 -25 -24 -44zM724 924h262v-1015q0 -482 -471 -482q-91 0 -165 26t-120.5 69t-71.5 96.5t-25 110.5q0 55 29 85.5t67 30.5q32 0 54 -21t22 -58q0 -23 -11 -40.5t-24.5 -27.5t-24.5 -26.5 t-11 -38.5q0 -24 16 -52t46.5 -55.5t85 -46t122.5 -18.5q69 0 124 21t91.5 56.5t61 85t35 105t10.5 118.5v424q-39 -129 -130 -207t-222 -78q-133 0 -207 74.5t-74 210.5v571q0 20 -13.5 35t-35.5 15h-54q-16 0 -16 15q0 17 16 17h263v-615q0 -142 51.5 -204t126.5 -62 q133 0 214 123t81 300v376q0 20 -13.5 35t-35.5 15h-53q-16 0 -16 15q0 17 16 17z" />
<glyph unicode="&#xfe;" horiz-adv-x="1204" d="M699 939q167 0 283.5 -126.5t116.5 -349.5q0 -120 -33 -213.5t-89 -150.5t-127 -86t-151 -29q-121 0 -211.5 79.5t-134.5 212.5v-750q0 -20 13.5 -34.5t35.5 -14.5h53q16 0 16 -16t-16 -16h-262v1823q0 20 -13.5 35t-35.5 15h-54q-16 0 -16 15q0 17 16 17h263v-704 q43 132 133.5 212.5t212.5 80.5zM653 31q126 0 200.5 107t74.5 324t-74.5 323.5t-200.5 106.5q-77 0 -146.5 -58t-112.5 -158.5t-43 -215.5q0 -174 91.5 -301.5t210.5 -127.5z" />
<glyph unicode="&#xff;" horiz-adv-x="1153" d="M375 1217q0 32 22 54.5t54 22.5t54 -22.5t22 -54.5q0 -31 -22.5 -53.5t-53.5 -22.5q-32 0 -54 22t-22 54zM699 1217q0 32 22 54.5t54 22.5t54 -22.5t22 -54.5q0 -31 -22.5 -53.5t-53.5 -22.5q-32 0 -54 22t-22 54zM724 924h262v-1015q0 -482 -471 -482q-91 0 -165 26 t-120.5 69t-71.5 96.5t-25 110.5q0 55 29 85.5t67 30.5q32 0 54 -21t22 -58q0 -23 -11 -40.5t-24.5 -27.5t-24.5 -26.5t-11 -38.5q0 -24 16 -52t46.5 -55.5t85 -46t122.5 -18.5q69 0 124 21t91.5 56.5t61 85t35 105t10.5 118.5v424q-39 -129 -130 -207t-222 -78 q-133 0 -207 74.5t-74 210.5v571q0 20 -13.5 35t-35.5 15h-54q-16 0 -16 15q0 17 16 17h263v-615q0 -142 51.5 -204t126.5 -62q133 0 214 123t81 300v376q0 20 -13.5 35t-35.5 15h-53q-16 0 -16 15q0 17 16 17z" />
<glyph unicode="&#x152;" horiz-adv-x="2093" d="M1910 988q-2 0 -7.5 -1t-7 0t-1.5 6v83q0 110 -65 176t-187 66h-312q-22 0 -36 -14.5t-14 -34.5v-544h169q49 0 83.5 7t54.5 19t30.5 32.5t14 41.5t3.5 53v18q0 7 4.5 12t11.5 5t11.5 -5t4.5 -12v-376q0 -16 -16 -16t-16 17v20q0 39 -5.5 63t-24 46t-57 32t-99.5 10h-169 v-611q0 -20 14 -34.5t36 -14.5h320q119 0 185.5 80t66.5 191v38q0 16 16 16t16 -16v-341h-828v181q-146 -194 -414 -194q-181 0 -314 93t-199.5 248.5t-66.5 353.5q0 197 67 349.5t199.5 241.5t313.5 89q267 0 414 -184v172h820v-357q0 -3 -0.5 -4.5t-2 -1.5h-3.5t-5 0.5 t-5 0.5zM702 22q91 0 161.5 37t115.5 98.5t74 148.5t41 179t12 197q0 137 -20 248t-64.5 203t-125.5 143t-194 51q-91 0 -162 -34.5t-116 -93t-74 -142.5t-40.5 -175.5t-11.5 -199.5q0 -90 8.5 -169t26.5 -154.5t49.5 -135.5t75 -106t106 -70.5t138.5 -24.5z" />
<glyph unicode="&#x153;" horiz-adv-x="1802" d="M1268 939q188 0 302.5 -118.5t114.5 -335.5q0 -22 -27 -22h-657q0 -90 19 -166t56.5 -135.5t100 -93.5t144.5 -34q64 0 119.5 21.5t93.5 57t63 73.5t39 78q5 14 16 14q18 0 14 -19q-6 -23 -20 -53t-44 -70t-69.5 -72t-101 -54.5t-133.5 -22.5q-122 0 -221.5 49.5 t-159.5 144.5q-57 -93 -151.5 -143t-211.5 -50q-196 0 -322.5 126.5t-126.5 349.5q0 218 126 346.5t323 128.5q114 0 209 -49t152 -140q55 91 146.5 140t206.5 49zM1518 493q-1 205 -68 309.5t-182 104.5t-188.5 -108.5t-78.5 -305.5h517zM553 21q124 2 201.5 117.5 t77.5 325.5q0 213 -78 328t-200 115t-200 -115t-78 -328q0 -205 77 -323t200 -120z" />
<glyph unicode="&#x178;" d="M391 1519q0 32 22 54t54 22t54 -22t22 -54q0 -31 -22.5 -53.5t-53.5 -22.5q-32 0 -54 22t-22 54zM715 1519q0 32 22 54t54 22t54 -22t22 -54q0 -31 -22.5 -53.5t-53.5 -22.5q-32 0 -54 22t-22 54zM1138 1350q16 0 16 -16t-16 -16h-43q-50 0 -72 -48l-346 -673v-516 q0 -20 13.5 -34.5t35.5 -14.5h53q16 0 16 -16t-16 -16h-379q-16 0 -16 16t16 16h53q22 0 35.5 14.5t13.5 34.5v478l-371 711q-13 23 -29 35.5t-45 12.5h-33q-16 0 -16 16t16 16h393q16 0 16 -16t-16 -16h-55q-25 0 -33 -14.5t3 -33.5l324 -639l326 639q10 17 0.5 32.5 t-36.5 15.5h-44q-16 0 -16 16t16 16h236z" />
<glyph unicode="&#x2c6;" horiz-adv-x="843" d="M661 1186q10 -18 -5 -25.5t-28 7.5l-194 224l-195 -224q-9 -10 -20 -10t-15 8t2 20l165 284q23 38 62.5 38t62.5 -38z" />
<glyph unicode="&#x2dc;" horiz-adv-x="1021" d="M665 1159q-46 0 -91.5 15.5t-82.5 38t-72 45t-74.5 38t-76.5 15.5q-61 0 -107 -36.5t-46 -95.5q0 -19 -16 -19t-16 19q0 94 64.5 153.5t166.5 59.5q55 0 111.5 -24t96 -52t91 -52t97.5 -24q56 0 103.5 34t47.5 98q0 20 16 20q18 0 18 -21q0 -94 -66 -153t-164 -59z" />
<glyph unicode="&#x2000;" horiz-adv-x="926" />
<glyph unicode="&#x2001;" horiz-adv-x="1853" />
<glyph unicode="&#x2002;" horiz-adv-x="926" />
<glyph unicode="&#x2003;" horiz-adv-x="1853" />
<glyph unicode="&#x2004;" horiz-adv-x="617" />
<glyph unicode="&#x2005;" horiz-adv-x="463" />
<glyph unicode="&#x2006;" horiz-adv-x="308" />
<glyph unicode="&#x2007;" horiz-adv-x="308" />
<glyph unicode="&#x2008;" horiz-adv-x="231" />
<glyph unicode="&#x2009;" horiz-adv-x="370" />
<glyph unicode="&#x200a;" horiz-adv-x="102" />
<glyph unicode="&#x2010;" horiz-adv-x="614" d="M547 499q17 0 17 -16t-17 -16h-480q-16 0 -16 16t16 16h480z" />
<glyph unicode="&#x2011;" horiz-adv-x="614" d="M547 499q17 0 17 -16t-17 -16h-480q-16 0 -16 16t16 16h480z" />
<glyph unicode="&#x2012;" horiz-adv-x="614" d="M547 499q17 0 17 -16t-17 -16h-480q-16 0 -16 16t16 16h480z" />
<glyph unicode="&#x2013;" horiz-adv-x="794" d="M728 499q16 0 16 -16t-16 -16h-661q-16 0 -16 16t16 16h661z" />
<glyph unicode="&#x2014;" horiz-adv-x="1085" d="M1019 499q16 0 16 -16t-16 -16h-952q-16 0 -16 16t16 16h952z" />
<glyph unicode="&#x2018;" horiz-adv-x="432" d="M182 909q-62 0 -109.5 52t-47.5 145q0 121 77 218.5t184 140.5q16 7 22 -6t-10 -20q-104 -52 -168 -137.5t-64 -193.5q0 -71 35 -107q0 46 27.5 71.5t61.5 25.5q41 0 67.5 -28t26.5 -66t-28 -66.5t-74 -28.5z" />
<glyph unicode="&#x2019;" horiz-adv-x="419" d="M237 1466q62 0 109.5 -51.5t47.5 -144.5q0 -121 -77.5 -219t-184.5 -141q-10 -4 -17 0.5t-5.5 13t11.5 13.5q104 52 168 137.5t64 193.5q0 68 -36 106q0 -46 -27 -71t-61 -25q-42 0 -68.5 27.5t-26.5 65.5t28.5 66.5t74.5 28.5z" />
<glyph unicode="&#x201a;" horiz-adv-x="419" d="M237 231q62 0 109.5 -51.5t47.5 -144.5q0 -121 -77.5 -219t-184.5 -141q-10 -4 -17 0.5t-5.5 13t11.5 13.5q104 52 168 137.5t64 193.5q0 69 -36 107q0 -46 -27 -71.5t-61 -25.5q-42 0 -68.5 27.5t-26.5 65.5t28.5 66.5t74.5 28.5z" />
<glyph unicode="&#x201c;" horiz-adv-x="745" d="M182 909q-62 0 -109.5 52t-47.5 145q0 121 77 218.5t184 140.5q16 7 22 -6t-10 -20q-104 -52 -168 -137.5t-64 -193.5q0 -71 35 -107q0 46 27.5 71.5t61.5 25.5q41 0 67.5 -28t26.5 -66t-28 -66.5t-74 -28.5zM494 909q-62 0 -109.5 52t-47.5 145q0 121 77 218.5 t184 140.5q16 7 22 -6t-10 -20q-104 -52 -168 -137.5t-64 -193.5q0 -71 35 -107q0 46 27.5 71.5t61.5 25.5q41 0 68 -28t27 -66t-28.5 -66.5t-74.5 -28.5z" />
<glyph unicode="&#x201d;" horiz-adv-x="733" d="M237 1450q62 0 109.5 -52t47.5 -145q0 -121 -77.5 -218.5t-184.5 -140.5q-10 -4 -17 0.5t-5.5 12.5t11.5 13q104 52 168 138t64 194q0 68 -36 106q0 -46 -27 -71.5t-61 -25.5q-41 0 -68 28t-27 66t28.5 66.5t74.5 28.5zM549 1450q62 0 109.5 -52t47.5 -145 q0 -121 -77 -218.5t-184 -140.5q-16 -7 -22 6t10 20q104 52 168 138t64 194q0 70 -35 106q0 -46 -27.5 -71.5t-61.5 -25.5q-41 0 -68 28t-27 66t28.5 66.5t74.5 28.5z" />
<glyph unicode="&#x201e;" horiz-adv-x="708" d="M210 183q62 0 109.5 -52t47.5 -145q0 -121 -77 -218.5t-184 -140.5q-16 -7 -22 6t10 20q104 52 168 137.5t64 193.5q0 71 -35 107q0 -46 -27.5 -71.5t-61.5 -25.5q-41 0 -68 28t-27 66t28.5 66.5t74.5 28.5zM522 183q62 0 109.5 -52t47.5 -145q0 -121 -77 -218.5 t-184 -140.5q-16 -7 -22 6t10 20q104 52 168 137.5t64 193.5q0 71 -35 107q0 -46 -27.5 -71.5t-61.5 -25.5q-41 0 -68 28t-27 66t28.5 66.5t74.5 28.5z" />
<glyph unicode="&#x2022;" horiz-adv-x="661" d="M119 517q0 86 62.5 147.5t150.5 61.5q85 0 146 -61.5t61 -147.5q0 -85 -61 -146.5t-146 -61.5q-88 0 -150.5 61.5t-62.5 146.5z" />
<glyph unicode="&#x2026;" horiz-adv-x="1191" d="M131 70q0 37 27 64t64 27q38 0 64.5 -27t26.5 -64q0 -38 -26.5 -65t-64.5 -27q-37 0 -64 27t-27 65zM495 70q0 37 27.5 64t64.5 27q38 0 64.5 -27t26.5 -64q0 -38 -26.5 -65t-64.5 -27q-37 0 -64.5 27t-27.5 65zM862 70q0 37 27 64t64 27q38 0 65 -27t27 -64 q0 -38 -27 -65t-65 -27q-37 0 -64 27t-27 65z" />
<glyph unicode="&#x202f;" horiz-adv-x="370" />
<glyph unicode="&#x2039;" horiz-adv-x="561" d="M154 457q185 177 307 373q8 13 -5 22t-22 -4q-81 -104 -183.5 -201t-182.5 -153q-54 -36 0 -75q81 -57 183 -153t183 -200q9 -12 22 -4t5 21q-124 199 -307 374z" />
<glyph unicode="&#x203a;" horiz-adv-x="561" d="M408 457q-183 -175 -307 -374q-8 -13 4.5 -21t21.5 4q80 103 183 199.5t184 153.5q54 39 0 75q-81 57 -183.5 153.5t-183.5 200.5q-9 13 -21.5 4t-4.5 -22q122 -196 307 -373z" />
<glyph unicode="&#x205f;" horiz-adv-x="463" />
<glyph unicode="&#x20ac;" horiz-adv-x="1333" d="M1206 297q19 0 16 -19q-8 -38 -44 -89.5t-92 -96.5q-130 -105 -297 -105q-244 0 -391 155t-176 412h-108q-16 0 -16 16t16 16h105q-3 43 -3 88q0 44 3 84h-105q-16 0 -16 17q0 15 16 15h108q29 259 176.5 415t390.5 156q160 0 297 -104q57 -42 92.5 -94t43.5 -93 q3 -19 -16 -19q-12 0 -21 17q-18 40 -49.5 80.5t-76.5 79t-109 62.5t-134 24q-183 0 -286 -137.5t-122 -386.5h451q16 0 16 -16t-16 -16h-453q-2 -54 -2 -84q0 -44 3 -88h452q16 0 16 -17q0 -15 -16 -15h-450q19 -247 121.5 -383.5t285.5 -136.5q70 0 134 24t109.5 62.5 t77 79t48.5 80.5q9 17 21 17z" />
<glyph unicode="&#x2122;" horiz-adv-x="1525" d="M604 1350v-192q0 -16 -16 -16q-15 0 -15 16v28q0 57 -31 95t-89 38h-37q-13 0 -21.5 -10t-8.5 -25v-544q0 -14 10 -24t25 -10h22q15 0 15 -15q0 -16 -15 -16h-246q-17 0 -17 16q0 15 17 15h20q15 0 25.5 10t10.5 24v544q0 14 -8 24.5t-23 10.5h-26q-62 0 -96.5 -40 t-34.5 -101v-20q0 -16 -16 -16q-15 0 -15 16v192h570zM1474 706q15 0 15 -15q0 -16 -15 -16h-246q-16 0 -16 16q0 15 16 15h22q15 0 24.5 10t9.5 24v545l-238 -615h-28l-251 612v-542q0 -14 9.5 -24t24.5 -10h22q16 0 16 -16q0 -15 -16 -15h-145q-15 0 -15 15q0 16 15 16h21 q16 0 26 10t10 24v544q0 14 -10 24.5t-26 10.5h-21q-15 0 -15 15q0 6 4.5 11t10.5 5h204l203 -492l192 492h197q15 0 15 -18q0 -13 -15 -13h-22q-15 0 -25 -10.5t-10 -24.5v-544q0 -14 9.5 -24t25.5 -10h22z" />
<glyph unicode="&#x25fc;" horiz-adv-x="921" d="M0 922h922v-922h-922v922z" />
</font>
</defs>
</svg>
