<?xml version="1.0" standalone="no"?>
<!DOCTYPE svg PUBLIC "-//W3C//DTD SVG 1.1//EN" "http://www.w3.org/Graphics/SVG/1.1/DTD/svg11.dtd" >
<svg xmlns="http://www.w3.org/2000/svg">
<metadata></metadata>
<defs>
<font id="isabel_unicasebold" horiz-adv-x="1552" >
<font-face units-per-em="2048" ascent="1493" descent="-555" />
<missing-glyph horiz-adv-x="485" />
<glyph unicode="&#xfb01;" horiz-adv-x="1617" d="M1180 1291q0 59 40.5 99.5t99.5 40.5q56 0 96.5 -41t40.5 -99q0 -56 -40.5 -96t-96.5 -40q-59 0 -99.5 39.5t-40.5 96.5zM897 924v-282q0 -14 -8.5 -22.5t-22.5 -8.5q-13 0 -21 8.5t-8 22.5v23q0 92 -47.5 145t-134.5 53h-148q-29 0 -47 -19t-18 -45v-298h66 q70 0 100.5 28.5t30.5 85.5v10q0 14 10 23.5t23 9.5t23 -9.5t10 -23.5v-308q0 -14 -10 -24.5t-23 -10.5t-23 11t-10 29v8q0 111 -131 111h-66v-317q0 -26 18 -45t47 -19h66q14 0 22.5 -8.5t8.5 -21.5t-9 -21.5t-22 -8.5h-487q-14 0 -22.5 9t-8.5 22t8.5 21t22.5 8h37 q29 0 47.5 19t18.5 45v675q0 26 -18.5 45t-47.5 19h-37q-13 0 -22 8.5t-9 21.5t8.5 22t22.5 9h811zM1547 61q13 0 21.5 -8.5t8.5 -21.5q0 -14 -8.5 -22.5t-21.5 -8.5h-457q-14 0 -22.5 9t-8.5 22t9 21.5t22 8.5h37q28 0 46.5 19t18.5 46v672q0 27 -18.5 46t-46.5 19h-37 q-13 0 -22 8.5t-9 21.5t8.5 22t22.5 9h354v-798q0 -27 18.5 -46t46.5 -19h38z" />
<glyph unicode="&#xfb02;" horiz-adv-x="1945" d="M897 924v-282q0 -14 -8.5 -22.5t-22.5 -8.5q-13 0 -21 8.5t-8 22.5v23q0 92 -47.5 145t-134.5 53h-148q-29 0 -47 -19t-18 -45v-298h66q70 0 100.5 28.5t30.5 85.5v10q0 14 10 23.5t23 9.5t23 -9.5t10 -23.5v-308q0 -14 -10 -24.5t-23 -10.5t-23 11t-10 29v8 q0 111 -131 111h-66v-317q0 -26 18 -45t47 -19h66q14 0 22.5 -8.5t8.5 -21.5t-9 -21.5t-22 -8.5h-487q-14 0 -22.5 9t-8.5 22t8.5 21t22.5 8h37q29 0 47.5 19t18.5 45v675q0 26 -18.5 45t-47.5 19h-37q-13 0 -22 8.5t-9 21.5t8.5 22t22.5 9h811zM1450 799v-675 q0 -26 18.5 -44.5t47.5 -18.5h140q95 0 145.5 56t50.5 141v23q0 13 9 22t22 9t21 -8.5t8 -22.5v-281h-822q-14 0 -22.5 9t-8.5 22t9 21.5t22 8.5h37q29 0 47 18.5t18 44.5v675q0 26 -18 45t-47 19h-37q-13 0 -22 8.5t-9 21.5t8.5 22t22.5 9h463q13 0 22 -9t9 -22t-9 -21.5 t-22 -8.5h-38q-29 0 -47 -19t-18 -45z" />
<glyph horiz-adv-x="0" />
<glyph horiz-adv-x="682" />
<glyph unicode=" "  horiz-adv-x="485" />
<glyph unicode="&#x09;" horiz-adv-x="485" />
<glyph unicode="&#xa0;" horiz-adv-x="485" />
<glyph unicode="!" horiz-adv-x="458" d="M230 1518q49 0 84.5 -36t35.5 -89q0 -67 -40.5 -469.5t-40.5 -565.5q0 -21 -12.5 -33t-30.5 -12q-17 0 -30.5 12t-13.5 33q0 163 -36.5 565t-36.5 470q0 53 35 89t86 36zM111 -192q0 49 35.5 83.5t84.5 34.5q48 0 82.5 -34.5t34.5 -83.5q0 -48 -34.5 -83t-82.5 -35 q-49 0 -84.5 35t-35.5 83z" />
<glyph unicode="&#x22;" horiz-adv-x="573" d="M226 1444q3 33 -21 56.5t-57 23.5q-32 0 -56 -23.5t-22 -56.5l32 -523q2 -21 15 -32.5t31 -11.5t32 12t15 34zM487 1444q3 33 -21 56.5t-57 23.5q-32 0 -55.5 -23.5t-21.5 -56.5l31 -523q2 -21 15 -32.5t31 -11.5t32 12t15 34z" />
<glyph unicode="#" horiz-adv-x="1075" d="M1042 655h-213l-51 -359h212l-8 -61h-213l-33 -235h-62l33 235h-358l-33 -235h-62l33 235h-261l8 61h262l51 359h-262l8 61h262l34 240h62l-34 -240h358l34 240h62l-34 -240h212zM716 296l51 359h-358l-51 -359h358z" />
<glyph unicode="$" horiz-adv-x="1206" d="M1116 386q0 -138 -109 -250t-302 -145v-172q0 -14 -11 -24.5t-25 -10.5q-16 0 -26.5 10.5t-10.5 24.5v163q-36 -3 -74 -3q-4 0 -12 0.5t-12 0.5v-161q0 -14 -10.5 -24.5t-24.5 -10.5q-16 0 -26.5 10.5t-10.5 24.5v167q-166 24 -271 117.5t-105 214.5q0 68 38 106t91 38 q46 0 80 -29t34 -81q0 -40 -36.5 -85t-36.5 -68q0 -43 43.5 -80t106 -56.5t124.5 -19.5q64 0 121 15.5t103.5 46.5t74 82.5t27.5 116.5q0 51 -25 91.5t-68 67.5t-98 50t-116 44.5t-122.5 45t-116.5 57t-98 75.5t-68 105t-25 141q0 157 101 254t270 125v158q0 14 11 25t26 11 q14 0 24.5 -11t10.5 -25v-150q42 2 64 2q23 0 34 -1v149q0 14 11 25t26 11q14 0 25 -11t11 -25v-157q151 -25 251.5 -109t100.5 -194q0 -71 -37.5 -110.5t-89.5 -39.5q-46 0 -81 29.5t-35 81.5q0 27 11 49.5t24.5 35.5t24.5 29.5t11 33.5q0 61 -86.5 100.5t-185.5 39.5 q-61 0 -113.5 -12.5t-96 -39.5t-68.5 -74.5t-25 -111.5q0 -48 26.5 -86t71.5 -65t103.5 -50.5t123 -46t129 -47.5t123 -60t103.5 -78.5t71.5 -107.5t26.5 -142z" />
<glyph unicode="%" horiz-adv-x="1810" d="M506 -199h-76l845 1692h76zM400 587q-167 0 -261 101.5t-94 285.5t94 286t261 102q166 0 260 -102t94 -286t-94 -285.5t-260 -101.5zM400 631q64 0 83 68t19 275t-19 275.5t-83 68.5t-83.5 -69t-19.5 -275q0 -207 19.5 -275t83.5 -68zM1410 -15q-167 0 -260.5 101.5 t-93.5 285.5t93.5 286t260.5 102q166 0 260.5 -102t94.5 -286t-94.5 -285.5t-260.5 -101.5zM1410 28q64 0 83.5 68.5t19.5 275.5q0 206 -19.5 275t-83.5 69t-83 -68.5t-19 -275.5q0 -208 19 -276t83 -68z" />
<glyph unicode="&#x26;" horiz-adv-x="1429" d="M1357 729q13 0 22 -8.5t9 -22.5q0 -13 -8.5 -21t-22.5 -8h-71q-28 0 -46.5 -19t-18.5 -46v-223q0 -177 -141 -289.5t-400 -112.5q-278 0 -428.5 109t-150.5 290q0 132 92 213t236 109q-138 29 -224 111.5t-86 214.5q0 74 30.5 133.5t81.5 98.5t121 64.5t145 36.5t157 11 q199 0 326 -92t127 -236q0 -75 -47 -118.5t-109 -43.5q-50 0 -85.5 29.5t-35.5 82.5q0 31 12 57t26.5 40.5t26.5 35t12 42.5q0 62 -56 99t-156 37q-135 0 -210 -69.5t-75 -206.5q0 -131 67.5 -213.5t190.5 -82.5h10q14 0 22.5 -8.5t8.5 -22.5q0 -13 -9 -21.5t-22 -8.5h-10 q-117 0 -189.5 -72t-72.5 -229q0 -316 273 -316q288 0 288 328v223q0 27 -18.5 46t-46.5 19h-83q-14 0 -22.5 8t-8.5 21q0 14 9 22.5t22 8.5h538z" />
<glyph unicode="'" horiz-adv-x="286" d="M221 1444q3 33 -21 56.5t-57 23.5q-32 0 -56 -23.5t-22 -56.5l32 -523q2 -21 15 -32.5t31 -11.5t32 12t15 34z" />
<glyph unicode="(" horiz-adv-x="784" d="M28 469q0 -154 29 -294t76 -243t107 -190.5t121 -145.5t119 -98.5t100.5 -58.5t65.5 -18q14 0 24.5 8.5t10.5 23.5q0 12 -21 31t-54.5 48.5t-73.5 73.5t-80.5 119t-74 172t-54.5 245.5t-21 326.5t21 326.5t54.5 245.5t74 172t80.5 119t73.5 73.5t54.5 48.5t21 31 q0 15 -10.5 23.5t-24.5 8.5q-23 0 -65.5 -18t-100.5 -58.5t-119 -98.5t-121 -145.5t-107 -190.5t-76 -243t-29 -294z" />
<glyph unicode=")" horiz-adv-x="841" d="M738 469q0 154 -29 294t-76 243t-106.5 190.5t-120.5 145.5t-119 98.5t-100.5 58.5t-65.5 18q-15 0 -25.5 -8.5t-10.5 -23.5q0 -12 21 -31t54.5 -48.5t73.5 -73.5t80.5 -119t74 -172t54.5 -245.5t21 -326.5t-21 -326.5t-54.5 -245.5t-74 -172t-80.5 -119t-73.5 -73.5 t-54.5 -48.5t-21 -31q0 -15 10.5 -23.5t25.5 -8.5q23 0 65.5 18t100.5 58.5t119 98.5t120.5 145.5t106.5 190.5t76 243t29 294z" />
<glyph unicode="*" horiz-adv-x="849" d="M424 976l-184 -251q-12 -17 -30 -14.5t-24 17.5t4 34l185 251l-297 95q-19 7 -22.5 24t9 28.5t33.5 4.5l296 -95v310q0 20 15 28.5t30 0.5t15 -29v-310l294 95q13 4 24 1.5t16 -10.5t6 -17t-6 -18t-20 -13l-296 -95l184 -251q21 -31 -3.5 -48.5t-46.5 11.5z" />
<glyph unicode="+" horiz-adv-x="751" d="M665 535q13 0 22 -8.5t9 -22.5q0 -13 -8.5 -21t-22.5 -8h-260v-259q0 -14 -8.5 -22.5t-22.5 -8.5q-13 0 -21 8.5t-8 22.5v259h-259q-14 0 -22.5 8.5t-8.5 22.5q0 13 8.5 21t22.5 8h259v260q0 13 8.5 22t22.5 9q13 0 21 -8.5t8 -22.5v-260h260z" />
<glyph unicode="," horiz-adv-x="460" d="M242 230q78 0 120 -56.5t42 -150.5q0 -114 -59.5 -214t-155.5 -165q-10 -7 -20 -2.5t-10.5 14.5t9.5 22q70 70 106 155t26 157q-25 -20 -69 -20q-52 0 -89 35t-37 90q0 59 39.5 97t97.5 38z" />
<glyph unicode="-" horiz-adv-x="647" d="M564 527q14 0 22.5 -8.5t8.5 -22.5q0 -13 -8.5 -21t-22.5 -8h-482q-14 0 -22.5 8.5t-8.5 22.5q0 13 8.5 21t22.5 8h482z" />
<glyph unicode="." horiz-adv-x="454" d="M99 105q0 53 38 90.5t91 37.5t90 -37.5t37 -90.5t-37.5 -90.5t-89.5 -37.5q-53 0 -91 37.5t-38 90.5z" />
<glyph unicode="/" horiz-adv-x="448" d="M153 -121h-61l338 1610h63z" />
<glyph unicode="0" horiz-adv-x="1187" d="M593 -21q-233 0 -373 178t-140 521q0 173 38 306t107 217t161.5 126.5t206.5 42.5q235 0 374.5 -175.5t139.5 -516.5q0 -343 -140 -521t-374 -178zM593 38q121 0 166 143.5t45 496.5q0 351 -45 492.5t-166 141.5q-120 0 -164.5 -141.5t-44.5 -492.5q0 -353 44.5 -496.5 t164.5 -143.5z" />
<glyph unicode="1" horiz-adv-x="698" d="M626 61q13 0 22 -8.5t9 -21.5t-8.5 -22t-22.5 -9h-540q-14 0 -22.5 9t-8.5 22t8.5 21t22.5 8h85q29 0 47 19t18 45v1072h-150q-14 0 -22.5 9t-8.5 22t8.5 21t22.5 8h37q120 0 187.5 21.5t126.5 61.5q43 29 57 29q13 0 21.5 -9t8.5 -23v-1212q0 -26 18 -44.5t47 -18.5h37z " />
<glyph unicode="2" horiz-adv-x="1157" d="M1054 379v-82q0 -170 -77 -242.5t-213 -72.5q-97 0 -256.5 44t-224.5 44q-38 0 -60.5 -14t-28.5 -30t-17.5 -30t-29.5 -14q-13 0 -21 8.5t-8 22.5v76q0 102 21 187t57 145.5t83 111.5t98.5 90t102.5 75t98 72.5t83 76.5t57 93.5t21 117.5q0 123 -67.5 184t-176.5 61 q-88 0 -144.5 -37t-56.5 -87q0 -27 13.5 -52t29.5 -42t29.5 -44t13.5 -58q0 -55 -37.5 -87.5t-91.5 -32.5q-61 0 -105 44.5t-44 126.5q0 64 30 123.5t85.5 107t143.5 76t195 28.5q142 0 249 -36.5t172 -117.5t65 -198q0 -83 -28.5 -150t-77 -112.5t-111.5 -83t-133.5 -68 t-140.5 -60t-134.5 -66t-115 -80t-82 -108t-34.5 -143.5q36 77 93.5 108.5t140.5 31.5q59 0 192.5 -23.5t198.5 -23.5q87 0 135.5 38t48.5 104q0 13 8.5 21t22.5 8q13 0 21 -8.5t8 -22.5z" />
<glyph unicode="3" horiz-adv-x="1181" d="M620 739q135 -9 228.5 -40t142 -80t68.5 -103.5t20 -123.5q0 -86 -32.5 -160t-95 -131t-161.5 -89.5t-224 -32.5q-205 0 -334.5 94.5t-129.5 240.5q0 83 42.5 127t103.5 44q55 0 96.5 -35t41.5 -92q0 -28 -12.5 -52t-27 -38t-27 -34.5t-12.5 -43.5q0 -55 56 -96t155 -41 q115 0 186.5 85.5t71.5 245.5q0 80 -18.5 140t-50 93t-67 49t-74.5 16h-7q-18 0 -29 10.5t-11 26.5q0 14 9 24t33 28q169 118 238 189q65 59 109 126q-54 -24 -141 -24q-59 0 -191 23.5t-198 23.5q-87 0 -135 -38t-48 -104q0 -13 -8.5 -21t-22.5 -8q-13 0 -21.5 9t-8.5 22 v82q0 170 77 242.5t214 72.5q77 0 164 -22t165.5 -44t136.5 -22q38 0 60.5 14.5t29 32t18 32t29.5 14.5q13 0 21 -8.5t8 -22.5v-28q0 -71 -26 -141t-66 -126t-101 -114.5t-116.5 -101t-127.5 -90.5z" />
<glyph unicode="4" horiz-adv-x="1142" d="M1054 321q14 0 22.5 -8.5t8.5 -22.5q0 -13 -9 -21.5t-22 -8.5h-129v-136q0 -26 18 -45t47 -19h38q14 0 22.5 -8t8.5 -21t-8.5 -22t-22.5 -9h-493q-13 0 -22 9t-9 22t8.5 21t22.5 8h37q29 0 47 19t18 45v136h-614v59q109 88 192 188t131.5 190.5t79.5 186.5t41.5 172.5 t10.5 153.5q0 76 45.5 119t107.5 43t107 -43t45 -119t-22 -161.5t-72.5 -183t-124 -190.5t-185 -186t-247.5 -168h505v346q163 153 226 311q10 27 36 27t26 -28v-656h129z" />
<glyph unicode="5" horiz-adv-x="1171" d="M563 -21q-205 0 -334 94.5t-129 240.5q0 83 42.5 127t102.5 44q55 0 96.5 -35.5t41.5 -92.5q0 -28 -12 -51.5t-27 -37.5t-27 -34.5t-12 -43.5q0 -55 56 -96t154 -41q114 0 178.5 84t64.5 246q0 155 -81 231.5t-219 76.5q-64 0 -121.5 -13.5t-93.5 -26.5t-47 -13 q-35 0 -31 38l73 656q111 31 206 31q107 0 238.5 -30.5t180.5 -30.5q35 0 58.5 9t34.5 21t18 24.5t16 21.5t23 9q29 0 29 -37q0 -150 -64.5 -223.5t-183.5 -73.5q-81 0 -204.5 28t-183.5 28q-73 0 -135 -34l-41 -361q147 52 311 52q81 0 155.5 -13.5t141.5 -43t116.5 -72 t78.5 -105.5t29 -140q0 -86 -30.5 -160t-90 -131t-156.5 -89.5t-222 -32.5z" />
<glyph unicode="6" horiz-adv-x="1157" d="M597 -21q-247 0 -382 176.5t-135 511.5q0 338 144 520.5t427 182.5q99 0 188 -33.5t149 -104t60 -162.5q0 -81 -41 -123.5t-101 -42.5q-52 0 -92.5 34t-40.5 89q0 28 12 51t27 36t27 33t12 44q0 52 -56 87.5t-144 35.5q-153 0 -218 -161.5t-59 -532.5q31 95 116.5 144 t182.5 49q74 0 144.5 -24.5t128.5 -72t93.5 -125t35.5 -174.5q0 -194 -138.5 -316t-339.5 -122zM591 38q99 0 145.5 91.5t46.5 252.5q0 170 -41.5 261t-136.5 91t-153 -95t-59 -252q0 -160 50.5 -254.5t147.5 -94.5z" />
<glyph unicode="7" horiz-adv-x="1009" d="M69 972v82q0 170 77 242.5t213 72.5q77 0 157.5 -22t152.5 -44t130 -22q31 0 51.5 9t29 22t15 26t16 22t24.5 9q13 0 21 -8.5t8 -22.5v-75q0 -112 -18.5 -207.5t-48.5 -165.5t-66.5 -135t-74.5 -129t-70.5 -131.5t-56 -159t-30.5 -196.5q-6 -75 -49.5 -116t-103.5 -41 q-62 0 -107.5 43t-45.5 119q0 93 20 173.5t54 141t78 114t93 98.5t98.5 89t95 91t81 97.5t58.5 116t26 140.5q-36 -77 -93.5 -108.5t-140.5 -31.5q-59 0 -172 23.5t-179 23.5q-87 0 -135 -37t-48 -105q0 -13 -8.5 -21t-22.5 -8q-13 0 -21 8.5t-8 22.5z" />
<glyph unicode="8" horiz-adv-x="1120" d="M769 710q126 -41 198.5 -130t72.5 -204q0 -181 -132.5 -289t-347.5 -108t-347.5 108t-132.5 289q0 115 72.5 204t198.5 130q-122 34 -187.5 116t-65.5 209q0 155 124.5 245t337.5 90t337.5 -90t124.5 -245q0 -127 -65.5 -209t-187.5 -116zM560 1310q-169 0 -169 -282 q0 -138 36.5 -211t132.5 -73q51 0 85 20.5t52 60.5t25.5 88t7.5 115q0 282 -170 282zM560 39q102 0 145 78.5t43 244.5q0 320 -188 320q-187 0 -187 -320q0 -166 43 -244.5t144 -78.5z" />
<glyph unicode="9" horiz-adv-x="1157" d="M560 1370q247 0 382 -176.5t135 -511.5q0 -338 -144 -520.5t-427 -182.5q-99 0 -188 33.5t-149 104t-60 162.5q0 81 41 124t100 43q53 0 93.5 -34.5t40.5 -88.5q0 -28 -12.5 -51t-27 -36t-27 -33t-12.5 -44q0 -52 56.5 -88t144.5 -36q153 0 218 161.5t59 532.5 q-31 -95 -116.5 -143.5t-182.5 -48.5q-75 0 -145 24.5t-128 71.5t-93.5 124.5t-35.5 174.5q0 194 138.5 316t339.5 122zM566 1312q-99 0 -145.5 -91.5t-46.5 -252.5q0 -171 41.5 -262t136.5 -91t153 95t59 252q0 160 -50.5 255t-147.5 95z" />
<glyph unicode=":" horiz-adv-x="512" d="M99 779q0 53 38 90.5t91 37.5t90 -37.5t37 -90.5t-37.5 -90.5t-89.5 -37.5q-53 0 -91 37.5t-38 90.5zM99 111q0 53 38 90.5t91 37.5t90 -37.5t37 -90.5t-37.5 -90.5t-89.5 -37.5q-53 0 -91 37.5t-38 90.5z" />
<glyph unicode=";" horiz-adv-x="512" d="M268 653q-53 0 -91 37.5t-38 90.5t38 90.5t91 37.5t90 -37.5t37 -90.5t-37.5 -90.5t-89.5 -37.5zM247 230q78 0 120 -56.5t42 -150.5q0 -114 -59 -214t-155 -165q-10 -7 -20 -2.5t-11 14.5t9 22q70 70 106.5 155t26.5 157q-25 -20 -69 -20q-52 0 -89 35t-37 90 q0 59 39 97t97 38z" />
<glyph unicode="&#x3c;" horiz-adv-x="690" d="M59 548l477 309q19 13 35 5.5t15.5 -23.5t-17.5 -30l-406 -261l406 -261q18 -11 17.5 -29t-15 -23.5t-35.5 5.5z" />
<glyph unicode="=" horiz-adv-x="940" d="M103 627q-13 0 -22 8.5t-9 22.5q0 13 8.5 21t22.5 8h236h482q13 0 22 -8.5t9 -22.5q0 -13 -8.5 -21t-22.5 -8h-83h-153h-84h-398zM821 447q13 0 22 -8.5t9 -22.5q0 -13 -8.5 -21t-22.5 -8h-236h-482q-13 0 -22 8.5t-9 22.5q0 13 8.5 21t22.5 8h83h153h84h398z" />
<glyph unicode="&#x3e;" horiz-adv-x="690" d="M631 548l-478 -308q-19 -13 -35 -5.5t-15.5 23t17.5 29.5l406 261l-406 261q-18 11 -17.5 29t15 24t35.5 -5z" />
<glyph unicode="?" horiz-adv-x="1007" d="M449 1443q-74 0 -131.5 -38.5t-57.5 -90.5q0 -29 20.5 -54t41 -52t20.5 -61q0 -57 -36.5 -90t-86.5 -33q-68 0 -107 46t-39 119q0 80 34.5 143.5t92.5 103t130 60t151 20.5q116 0 213.5 -33.5t161.5 -105.5t64 -170q0 -69 -26 -130.5t-67 -109.5t-91 -95t-99.5 -97.5 t-90.5 -106t-67 -131.5t-26 -163v-101q0 -15 -10.5 -26t-25.5 -11q-16 0 -26.5 10.5t-10.5 26.5v172q0 115 29.5 211.5t71.5 163t84 125.5t71.5 126t29.5 138q0 62 -18 109t-49.5 73.5t-69 39t-80.5 12.5zM287 -200q0 55 38 93t94 38q54 0 91.5 -38t37.5 -93q0 -53 -38 -91 t-91 -38q-55 0 -93.5 38t-38.5 91z" />
<glyph unicode="@" horiz-adv-x="1947" d="M1432 10q-122 0 -209 65t-87 174q-101 -201 -300 -201q-153 0 -255.5 109t-102.5 303q0 192 102 302.5t256 110.5q200 0 300 -199v183h203v-604q0 -87 35.5 -135t91.5 -48q87 0 153.5 107t66.5 321q0 338 -195.5 542t-515.5 204q-158 0 -290.5 -55t-226 -154t-145 -242.5 t-51.5 -315.5t51.5 -315.5t145 -242.5t226 -154t290.5 -55q19 0 27.5 -15t0.5 -29.5t-28 -14.5q-137 0 -268 37.5t-242 110.5t-195 172t-131.5 229.5t-47.5 276.5t47.5 276.5t131.5 229.5t195 172t242 110.5t268 37.5q171 0 330.5 -58.5t282 -161.5t196 -255.5t73.5 -329.5 q0 -104 -25.5 -188.5t-67.5 -139t-98 -91.5t-114.5 -53t-119.5 -16zM898 116q96 0 169.5 105t73.5 238q0 137 -74.5 242t-168.5 105q-203 0 -203 -346q0 -344 203 -344z" />
<glyph unicode="A" horiz-adv-x="1320" d="M1273 120q23 0 23 -29q0 -36 -63 -73t-156 -37q-101 0 -159.5 57t-58.5 156v18q-49 -108 -142.5 -170.5t-234.5 -62.5q-168 0 -270 92.5t-102 240.5q0 172 127 264t381 109l230 13v371q0 115 -68 179t-213 64q-111 0 -194.5 -49t-83.5 -122q0 -21 16.5 -39t33.5 -41 t17 -57q0 -42 -30.5 -68t-71.5 -26q-46 0 -78.5 33.5t-32.5 99.5q0 136 126.5 231.5t341.5 95.5q252 0 388.5 -90.5t136.5 -259.5v-882q0 -66 45 -66q27 0 59 32q24 16 33 16zM581 84q119 0 193 111t74 286v157l-218 -16q-117 -10 -183 -85.5t-66 -193.5q0 -122 57.5 -190.5 t142.5 -68.5z" />
<glyph unicode="B" horiz-adv-x="1366" d="M838 707q449 -32 449 -331q0 -183 -145.5 -279.5t-418.5 -96.5h-643q-14 0 -22.5 9t-8.5 22t9 21.5t22 8.5h37q29 0 47 18.5t18 44.5v1101q0 26 -18 45t-47 19h-37q-13 0 -22 8.5t-9 21.5t8.5 22t22.5 9h598q113 0 204 -16t165.5 -51t115.5 -97.5t41 -147.5 q0 -127 -92 -215t-274 -116zM471 1225v-502h123q129 0 212.5 76t83.5 215q0 127 -74.5 200.5t-230.5 74.5h-51q-27 0 -45 -20t-18 -44zM626 61q157 0 251 84.5t94 226.5q0 134 -92 210.5t-253 76.5h-155v-535q0 -26 18.5 -44.5t47.5 -18.5h89z" />
<glyph unicode="C" horiz-adv-x="1372" d="M1106 1143q0 63 -84 111.5t-209 48.5q-68 0 -126.5 -19t-112 -65t-91 -116.5t-60 -180t-22.5 -248.5q0 -282 110.5 -446t310.5 -164q125 0 225.5 59t152.5 151q23 38 45 38q13 0 21.5 -9t7.5 -22q-8 -49 -76 -118q-162 -184 -432 -184q-160 0 -289.5 53t-214.5 146.5 t-130.5 220.5t-45.5 275q0 204 85 362t241.5 246t358.5 88q225 0 365.5 -101t140.5 -242q0 -83 -40.5 -127t-96.5 -44q-49 0 -85.5 32t-36.5 85q0 28 14 53t30 40t30 36t14 41z" />
<glyph unicode="D" horiz-adv-x="1497" d="M612 1350q186 0 328.5 -35t250 -111.5t164 -207t56.5 -312.5q0 -147 -53 -271.5t-152 -216.5t-251.5 -144t-342.5 -52h-532q-14 0 -22.5 9t-8.5 22t9 21.5t22 8.5h37q28 0 46.5 17t18.5 40v1113q0 23 -18.5 40.5t-46.5 17.5h-37q-13 0 -22 8.5t-9 21.5t8.5 22t22.5 9h532 zM612 61q103 0 190 38.5t153 113.5t103 195.5t37 275.5q0 310 -126.5 457.5t-356.5 147.5h-77q-28 0 -46.5 -17.5t-18.5 -40.5v-1111q0 -24 18.5 -41.5t46.5 -17.5h77z" />
<glyph unicode="E" horiz-adv-x="1482" d="M1396 715q0 -29 -16 -40t-51 -11h-928q4 -614 403 -614q91 0 170 24.5t132 60.5t96 84t66 86t38 76q11 27 31 27q25 0 25 -28q0 -14 -13.5 -46.5t-40 -78.5t-73.5 -93.5t-107 -89t-149 -67.5t-190 -26q-167 0 -301.5 54t-221.5 148.5t-133.5 221t-46.5 274.5 q0 147 44 273t125.5 219.5t206.5 146.5t279 53q309 0 482 -178t173 -476zM402 719l679 -2q0 110 -8 193.5t-30.5 161t-60 127t-98 79t-143.5 29.5q-66 0 -118.5 -20.5t-88.5 -60t-61.5 -91t-40.5 -120t-22 -139.5t-8 -157z" />
<glyph unicode="F" horiz-adv-x="1196" d="M80 1350h1002v-364q0 -14 -9 -22.5t-22 -8.5t-21.5 9t-8.5 22v35q0 113 -66 190.5t-186 77.5h-234q-28 0 -46.5 -17.5t-18.5 -40.5v-497h95q114 0 161.5 43t47.5 140v9q0 13 9 22t22 9t22 -9t9 -22v-447q0 -13 -9 -22t-22 -9t-22 9.5t-9 25.5v10q0 93 -47 135.5 t-162 42.5h-95v-551q0 -24 18.5 -41.5t46.5 -17.5h93q14 0 22.5 -8.5t8.5 -22.5q0 -13 -9 -21.5t-22 -8.5h-548q-14 0 -22.5 9t-8.5 22t9 21.5t22 8.5h37q28 0 46.5 16.5t18.5 40.5v1113q0 23 -18.5 40.5t-46.5 17.5h-37q-13 0 -22 8.5t-9 21.5t8.5 22t22.5 9z" />
<glyph unicode="G" horiz-adv-x="1462" d="M1307 124q-116 -67 -258 -106t-270 -39q-315 0 -504 192.5t-189 502.5q0 206 90 365.5t247.5 245t357.5 85.5q216 0 358.5 -99.5t142.5 -243.5q0 -83 -40.5 -127t-96.5 -44q-49 0 -85 32t-36 85q0 28 13.5 53t30 40t30 36t13.5 41q0 65 -86 112.5t-203 47.5 q-65 0 -122.5 -18t-113.5 -63t-96 -114.5t-64.5 -180.5t-24.5 -253q0 -285 118.5 -449t318.5 -164q94 0 181 32v398q0 26 -18 45t-47 19h-95q-14 0 -22.5 8t-8.5 21q0 14 9 22.5t22 8.5h448v-491z" />
<glyph unicode="H" horiz-adv-x="1527" d="M1447 61q13 0 22 -8.5t9 -21.5t-9 -22t-22 -9h-492q-13 0 -22 9t-9 22t8.5 21t22.5 8h37q28 0 46.5 17t18.5 41v561h-587v-559q0 -24 18.5 -41.5t46.5 -17.5h37q13 0 22 -8.5t9 -21.5t-8.5 -22t-22.5 -9h-492q-14 0 -22.5 9t-8.5 22t9 21.5t22 8.5h37q28 0 46.5 16.5 t18.5 40.5v1113q0 23 -18.5 40.5t-46.5 17.5h-37q-13 0 -22 8.5t-9 21.5t8.5 22t22.5 9h492q14 0 22.5 -9t8.5 -22t-9 -21.5t-22 -8.5h-37q-28 0 -46.5 -17.5t-18.5 -40.5v-491h587v491q0 23 -18.5 40.5t-46.5 17.5h-37q-13 0 -22 8.5t-9 21.5t9 22t22 9h492q13 0 22 -9 t9 -22t-9 -21.5t-22 -8.5h-37q-28 0 -46.5 -17.5t-18.5 -40.5v-1111q0 -24 18.5 -41.5t46.5 -17.5h37z" />
<glyph unicode="I" horiz-adv-x="651" d="M572 61q13 0 22 -8.5t9 -21.5t-8.5 -22t-22.5 -9h-492q-14 0 -22.5 9t-8.5 22t9 21.5t22 8.5h37q28 0 46.5 16.5t18.5 40.5v1113q0 23 -18.5 40.5t-46.5 17.5h-37q-13 0 -22 8.5t-9 21.5t8.5 22t22.5 9h492q14 0 22.5 -9t8.5 -22t-9 -21.5t-22 -8.5h-37 q-28 0 -46.5 -17.5t-18.5 -40.5v-1111q0 -24 18.5 -41.5t46.5 -17.5h37z" />
<glyph unicode="J" horiz-adv-x="649" d="M570 1350q14 0 22.5 -9t8.5 -22t-9 -21.5t-22 -8.5h-37q-29 0 -47 -19t-18 -45v-1396q0 -99 -50.5 -171.5t-127 -106.5t-165.5 -34q-122 0 -210 66t-88 181q0 61 37 95.5t88 34.5q48 0 81.5 -30t34.5 -84q-1 -30 -25 -70t-24 -66q0 -31 22 -48t55 -17q53 0 82 54t29 139 q0 42 -13.5 120.5t-13.5 148.5v1184q0 26 -18 45t-47 19h-37q-13 0 -22 8.5t-9 21.5t8.5 22t22.5 9h492z" />
<glyph unicode="K" horiz-adv-x="1400" d="M572 61q13 0 22 -8.5t9 -21.5t-8.5 -22t-22.5 -9h-492q-14 0 -22.5 9t-8.5 22t9 21.5t22 8.5h37q28 0 46.5 16.5t18.5 40.5v1113q0 23 -18.5 40.5t-46.5 17.5h-37q-13 0 -22 8.5t-9 21.5t8.5 22t22.5 9h492q14 0 22.5 -9t8.5 -22t-9 -21.5t-22 -8.5h-37 q-28 0 -46.5 -17.5t-18.5 -40.5v-1111q0 -24 18.5 -41.5t46.5 -17.5h37zM1359 61q13 0 22 -8.5t9 -22.5q0 -13 -9 -21.5t-22 -8.5h-523q-14 0 -22.5 9t-8.5 22t8.5 21t22.5 8h21q32 0 41 20t-10 45l-393 539l589 566q20 19 12 39t-40 20h-62q-14 0 -22.5 8.5t-8.5 22.5 q0 13 9 21.5t22 8.5h346q14 0 22.5 -9t8.5 -22t-9 -21.5t-22 -8.5h-20q-45 0 -74.5 -12.5t-65.5 -46.5l-441 -424l508 -698q34 -47 92 -47h20z" />
<glyph unicode="L" horiz-adv-x="1103" d="M1061 389q13 0 21 -8.5t8 -22.5v-358h-1010q-14 0 -22.5 9t-8.5 22t8.5 21t22.5 8h37q28 0 46.5 17t18.5 41v1113q0 23 -18.5 40.5t-46.5 17.5h-37q-13 0 -22 8.5t-9 21.5t8.5 22t22.5 9h492q14 0 22.5 -9t8.5 -22t-9 -21.5t-22 -8.5h-37q-28 0 -46.5 -17.5t-18.5 -40.5 v-1111q0 -24 18.5 -42t46.5 -18h243q115 0 183.5 82.5t68.5 187.5v28q0 14 9 22.5t22 8.5z" />
<glyph unicode="M" horiz-adv-x="1789" d="M843 -11h-84l-504 1223v-1088q0 -26 18 -44.5t47 -18.5h37q13 0 22 -8.5t9 -22.5q0 -13 -9 -21.5t-22 -8.5h-277q-13 0 -22 8.5t-9 21.5q0 14 8.5 22.5t22.5 8.5h37q29 0 47 18.5t18 44.5v1101q0 26 -18 45t-47 19h-37q-14 0 -22.5 8.5t-8.5 22.5q0 13 9 21.5t22 8.5h424 l409 -990l388 990h409q14 0 22.5 -9t8.5 -22t-9 -21.5t-22 -8.5h-37q-29 0 -47.5 -19t-18.5 -45v-1101q0 -26 18.5 -44.5t47.5 -18.5h37q13 0 22 -8.5t9 -21.5t-8.5 -22t-22.5 -9h-493q-13 0 -22 9t-9 22t9 21.5t22 8.5h38q29 0 46.5 18t18.5 44v1086z" />
<glyph unicode="N" horiz-adv-x="1509" d="M1430 61q13 0 22 -8.5t9 -21.5t-8.5 -22t-22.5 -9h-492q-13 0 -22 8.5t-9 21.5q0 14 8.5 22.5t22.5 8.5h37q26 0 43 15t21 38v890q0 256 -197 256q-157 0 -264 -163t-107 -456v-517q0 -26 18 -44.5t47 -18.5h37q13 0 22 -8.5t9 -22.5q0 -13 -9 -21.5t-22 -8.5h-493 q-13 0 -22 8.5t-9 21.5q0 14 8.5 22.5t22.5 8.5h37q29 0 47 18.5t18 44.5v461h1v639q0 27 -18.5 46t-46.5 19h-38q-13 0 -22 8.5t-9 21.5t8.5 22t22.5 9h373v-373q60 197 187 295t302 98q59 0 111.5 -11t103.5 -39t88 -71t59.5 -112t22.5 -157v-856q0 -26 18 -44.5t47 -18.5 h38z" />
<glyph unicode="O" d="M776 1369q155 0 285.5 -53.5t219 -146t137.5 -219.5t49 -273t-49 -274t-137.5 -222t-219 -148t-285.5 -54q-156 0 -286.5 54t-218 148t-136.5 222t-49 274q0 117 30.5 222t90.5 190.5t142.5 148.5t192 97t234.5 34zM776 41q103 0 178 50t117 140t61 200t19 246t-19 245 t-61 198t-117 138t-178 49t-178 -49t-117 -138t-61 -198t-19 -245t19 -246t61 -200t117 -140t178 -50z" />
<glyph unicode="P" horiz-adv-x="1261" d="M1214 953q0 -191 -143.5 -309.5t-412.5 -118.5h-188v-405q0 -24 18.5 -41.5t46.5 -17.5h89q14 0 23 -9t9 -22t-9 -21.5t-23 -8.5h-544q-14 0 -22.5 9t-8.5 22t9 21.5t22 8.5h37q28 0 46.5 16.5t18.5 40.5v1113q0 23 -18.5 40.5t-46.5 17.5h-37q-13 0 -22 8.5t-9 21.5 t8.5 22t22.5 9h578q269 0 412.5 -111t143.5 -286zM470 585h125q148 0 228 99t80 269q0 72 -17.5 131.5t-53 106t-96 72.5t-141.5 26h-60q-28 0 -46.5 -17.5t-18.5 -40.5v-646z" />
<glyph unicode="Q" d="M776 1369q155 0 285.5 -53.5t219 -146t137.5 -219.5t49 -273t-49 -274t-137.5 -222t-219 -148t-285.5 -54q-156 0 -286.5 54t-218 148t-136.5 222t-49 274q0 117 30.5 222t90.5 190.5t142.5 148.5t192 97t234.5 34zM776 41q103 0 178 50t117 140t61 200t19 246t-19 245 t-61 198t-117 138t-178 49t-178 -49t-117 -138t-61 -198t-19 -245t19 -246t61 -200t117 -140t178 -50zM1250 -528q-87 0 -170.5 27.5t-146.5 68.5t-128 89.5t-116 89.5t-109 68.5t-110 27.5q-53 0 -90.5 -40t-37.5 -105q0 -15 -9 -23t-21 -8t-20.5 8t-8.5 23q0 113 86 183 t207 70q75 0 150 -29t133.5 -73t121.5 -95t115 -95t112.5 -73t115.5 -29q71 0 111 37t40 86q0 24 -10.5 43t-25 33l-29 28t-25 34t-10.5 44q0 49 32.5 78t77.5 29q51 0 85.5 -38t34.5 -109q0 -44 -11.5 -89.5t-39 -93t-67 -84t-101.5 -60t-136 -23.5z" />
<glyph unicode="R" horiz-adv-x="1359" d="M1344 95q24 0 24 -25q0 -35 -58.5 -63t-136.5 -28q-83 0 -140 22t-87.5 59t-48 85.5t-26 101.5t-17 106.5t-26.5 102t-48.5 85.5t-89 59t-141.5 22h-79v-502q0 -24 18.5 -41.5t46.5 -17.5h37q13 0 22 -8.5t9 -21.5t-8.5 -22t-22.5 -9h-492q-14 0 -22.5 9t-8.5 22t9 21.5 t22 8.5h37q28 0 46.5 16.5t18.5 40.5v1113q0 23 -18.5 40.5t-46.5 17.5h-37q-13 0 -22 8.5t-9 21.5t8.5 22t22.5 9h598q243 0 372.5 -88.5t129.5 -251.5q0 -134 -99 -225t-277 -123q101 -18 171 -61.5t102.5 -97.5t50.5 -115t24 -119t13 -104.5t26.5 -75t57.5 -28.5 q30 0 57 17t38 17zM470 684h124q79 0 136 27.5t87 74.5t43.5 100t13.5 115q0 128 -73 208t-228 80h-38q-28 0 -46.5 -17.5t-18.5 -40.5v-547z" />
<glyph unicode="S" horiz-adv-x="1206" d="M558 -21q-201 0 -336.5 100t-135.5 239q0 68 38 106t91 38q46 0 80 -29t34 -81q0 -40 -36.5 -85t-36.5 -68q0 -43 43.5 -80t106 -56.5t124.5 -19.5q64 0 121 15.5t103.5 46.5t74 82.5t27.5 116.5q0 51 -25 91.5t-68 67.5t-98 50t-116 44.5t-122.5 45t-116.5 57t-98 75.5 t-68 105t-25 141q0 188 141.5 288.5t365.5 100.5q121 0 226 -40.5t169 -113t64 -158.5q0 -71 -37.5 -110.5t-89.5 -39.5q-46 0 -81 29.5t-35 81.5q0 27 11 49.5t24.5 35.5t24.5 29.5t11 33.5q0 61 -86.5 100.5t-185.5 39.5q-61 0 -113.5 -12.5t-96 -39.5t-68.5 -74.5 t-25 -111.5q0 -48 26.5 -86t71.5 -65t103.5 -50.5t123 -46t129 -47.5t123 -60t103.5 -78.5t71.5 -107.5t26.5 -142t-37 -150.5t-105.5 -130t-176.5 -92t-239 -34.5z" />
<glyph unicode="T" horiz-adv-x="1226" d="M1194 1350v-364q0 -14 -9 -22.5t-22 -8.5t-21.5 9t-8.5 22v35q0 113 -66 190.5t-186 77.5h-58q-28 0 -47 -17.5t-19 -40.5v-1111q0 -24 19 -41.5t47 -17.5h37q13 0 22 -8.5t9 -21.5t-8.5 -22t-22.5 -9h-493q-13 0 -22 9t-9 22t9 21.5t22 8.5h38q28 0 46.5 16.5t18.5 40.5 v1113q0 23 -18.5 40.5t-46.5 17.5h-48q-126 0 -194.5 -78t-68.5 -202v-23q0 -14 -9 -22.5t-22 -8.5t-21 8.5t-8 22.5v364h1160z" />
<glyph unicode="U" horiz-adv-x="1509" d="M1429 61q13 0 22 -8.5t9 -21.5t-9 -22t-22 -9h-373v372q-60 -197 -187 -295t-302 -98q-59 0 -111.5 11t-103.5 39.5t-88 71.5t-59.5 112t-22.5 157v855q0 26 -18 45t-47 19h-37q-13 0 -22 8.5t-9 21.5t8.5 22t22.5 9h390v-1005q0 -128 48 -191.5t149 -63.5q75 0 141.5 40 t118.5 115.5t82 195t30 267.5v517q0 26 -18 45t-47 19h-37q-13 0 -22 8.5t-9 22.5q0 13 9 21.5t22 8.5h390v-1224q0 -27 18.5 -46t46.5 -19h37z" />
<glyph unicode="V" horiz-adv-x="1458" d="M1421 1350q13 0 22 -8.5t9 -21.5t-9 -22t-22 -9h-49q-38 0 -58.5 -17.5t-35.5 -54.5l-498 -1228h-84l-514 1230q-30 70 -100 70h-45q-13 0 -22 9t-9 22t9 21.5t22 8.5h580q13 0 22 -8.5t9 -21.5t-9 -22t-22 -9h-74q-31 0 -46.5 -21.5t-2.5 -50.5l362 -866l349 866 q11 28 -4 50t-45 22h-74q-13 0 -22 9t-9 22t9 21.5t22 8.5h339z" />
<glyph unicode="W" horiz-adv-x="1990" d="M1954 1350q14 0 22.5 -9t8.5 -22t-9 -21.5t-22 -8.5h-53q-64 0 -85 -64l-402 -1232h-84l-331 921l-306 -921h-84l-434 1232q-24 64 -75 64h-63q-13 0 -22 8.5t-9 22.5q0 13 9 21.5t22 8.5h568q13 0 22 -9t9 -22t-9 -21.5t-22 -8.5h-77q-30 0 -44 -18.5t-4 -45.5l278 -841 l320 966h72l327 -960l267 835q8 27 -4.5 45.5t-40.5 18.5h-80q-13 0 -22 8.5t-9 22.5q0 13 9 21.5t22 8.5h335z" />
<glyph unicode="X" horiz-adv-x="1331" d="M1289 61q13 0 22 -8.5t9 -22.5q0 -13 -9 -21.5t-22 -8.5h-522q-13 0 -22 9t-9 22t9 21.5t22 8.5h36q34 0 47.5 18t-2.5 45l-274 454l-297 -454q-16 -26 -3.5 -44.5t43.5 -18.5h38q13 0 22 -8.5t9 -22.5q0 -13 -9 -21.5t-22 -8.5h-308q-13 0 -22 9t-9 22t9 21.5t22 8.5h35 q72 0 114 63l339 519l-355 582q-24 38 -46.5 51t-56.5 13h-13q-14 0 -22.5 8.5t-8.5 22.5q0 13 9 21.5t22 8.5h510q14 0 22.5 -9t8.5 -22t-9 -21.5t-22 -8.5h-20q-33 0 -47 -18.5t2 -45.5l251 -416l271 416q16 24 3.5 44t-42.5 20h-35q-13 0 -22 8.5t-9 22.5q0 13 9 21.5 t22 8.5h293q14 0 22.5 -9t8.5 -22t-9 -21.5t-22 -8.5h-26q-71 0 -113 -64l-311 -481l374 -620q23 -38 46 -50.5t59 -12.5h10z" />
<glyph unicode="Y" horiz-adv-x="1302" d="M1269 1350q13 0 21.5 -8.5t8.5 -21.5t-8.5 -22t-21.5 -9h-36q-29 0 -55.5 -16.5t-40.5 -42.5l-330 -620v-486q0 -26 18 -45t47 -19h37q14 0 22.5 -8t8.5 -21t-9 -22t-22 -9h-492q-13 0 -22 9t-9 22t8.5 21t22.5 8h37q29 0 47 19t18 45v420l-372 686q-16 29 -33.5 44 t-46.5 15h-33q-14 0 -22.5 8.5t-8.5 22.5q0 13 9 21.5t22 8.5h516q13 0 21 -8.5t8 -21.5q0 -14 -8 -22.5t-21 -8.5h-34q-35 0 -47 -15.5t3 -43.5l295 -551l289 551q12 22 -1 40.5t-43 18.5h-30q-14 0 -22.5 8.5t-8.5 22.5q0 13 9 21.5t22 8.5h287z" />
<glyph unicode="Z" horiz-adv-x="1271" d="M1138 394q13 0 21.5 -9t8.5 -22v-363h-1070v78l722 1211h-367q-126 0 -194.5 -78t-68.5 -202v-23q0 -14 -9 -22.5t-22 -8.5t-21.5 9t-8.5 22v364h1030v-61l-735 -1228h431q120 0 186 77.5t66 190.5v34q0 13 8.5 22t22.5 9z" />
<glyph unicode="[" horiz-adv-x="677" d="M556 -494q13 0 22 -8.5t9 -21.5q0 -14 -8.5 -22.5t-22.5 -8.5h-444v2048h444q13 0 22 -8.5t9 -21.5t-8.5 -22t-22.5 -9h-121q-29 0 -47 -18.5t-18 -44.5v-1800q0 -26 18 -44.5t47 -18.5h121z" />
<glyph unicode="\" horiz-adv-x="456" d="M358 0h61l-321 1493h-61z" />
<glyph unicode="]" horiz-adv-x="677" d="M122 -494l121 -1q29 0 47 19t18 45v1800q0 26 -18 44.5t-47 18.5h-121q-14 0 -22.5 9t-8.5 22t9 21.5t22 8.5h444v-2048h-444q-14 0 -22.5 8.5t-8.5 22.5q0 13 9 21.5t22 8.5z" />
<glyph unicode="^" horiz-adv-x="872" d="M781 1053q20 -30 -3 -49q-23 -17 -51 2q-7 5 -13 12l-277 330l-278 -330q-20 -22 -42.5 -21.5t-29 18t4.5 38.5l257 400q35 55 87.5 55.5t87.5 -55.5z" />
<glyph unicode="_" horiz-adv-x="1298" d="M1177 61q13 0 22 -8.5t9 -22.5q0 -13 -9 -21.5t-22 -8.5h-1056q-13 0 -22 9t-9 22t9 21.5t22 8.5h1056z" />
<glyph unicode="`" horiz-adv-x="626" d="M454 1157l-290 211q-44 32 -28 78q13 36 50 45q44 12 81 -32l224 -264q19 -23 2.5 -39t-39.5 1z" />
<glyph unicode="a" horiz-adv-x="1159" d="M1121 120q11 0 17.5 -8t6.5 -21q0 -35 -58 -72.5t-137 -37.5q-102 0 -153.5 57.5t-53.5 155.5q-32 -89 -112 -152t-212 -63q-126 0 -201 70.5t-75 171.5q0 59 20 103.5t67.5 82.5t132.5 62t208 33l162 10v166q0 106 -56 156.5t-155 50.5q-106 0 -157.5 -27.5t-51.5 -72.5 q0 -21 16.5 -39t33 -41t16.5 -57q0 -42 -30.5 -68t-71.5 -26q-46 0 -78.5 33.5t-32.5 99.5q0 51 21 94.5t66 80.5t125.5 58.5t188.5 21.5q121 0 205.5 -23t129.5 -66t64 -95.5t19 -121.5v-506q0 -58 44 -58q28 0 60 32q24 16 32 16zM530 88q96 0 149 97.5t54 273.5l-156 -12 q-83 -7 -130 -58t-47 -127q0 -92 33 -133t97 -41z" />
<glyph unicode="b" horiz-adv-x="1105" d="M708 490q73 -6 128 -18.5t102 -36.5t72 -64.5t25 -96.5q0 -127 -116 -200.5t-317 -73.5h-516q-14 0 -22.5 9t-8.5 22t8.5 21t22.5 8h37q29 0 47.5 19t18.5 45v675q0 26 -18.5 45t-47.5 19h-37q-13 0 -22 8.5t-9 21.5t8.5 22t22.5 9h479q198 0 304 -55t106 -164 q0 -86 -72 -141.5t-195 -73.5zM507 863q-29 0 -47 -19t-18 -45v-285h85q71 0 125.5 48.5t54.5 139.5q0 76 -43.5 118.5t-119.5 42.5h-37zM579 61q82 0 134 57t52 155q0 49 -21 85.5t-56 56t-73.5 28.5t-80.5 9h-92v-322q0 -32 20 -50.5t51 -18.5h66z" />
<glyph unicode="c" horiz-adv-x="1093" d="M1014 637q0 -79 -42 -123t-106 -44q-52 0 -86.5 38t-34.5 83q0 31 13.5 57t30 40.5t30 34.5t13.5 41q0 52 -68 86.5t-147 34.5q-63 0 -111.5 -20t-88 -66.5t-60.5 -130.5t-21 -203q0 -415 284 -415q66 0 122.5 20.5t97 55.5t69 74t47.5 83q8 23 29 23q17 0 24 -13t3 -25 q-10 -27 -24 -54.5t-50 -73t-80 -78.5t-117.5 -58t-159.5 -25q-250 0 -377 132.5t-127 353.5q0 148 70 258t185 164.5t258 54.5q179 0 301.5 -93t122.5 -212z" />
<glyph unicode="d" horiz-adv-x="1210" d="M566 924q134 0 234.5 -23t177.5 -75t116.5 -141.5t39.5 -215.5q0 -208 -149 -338.5t-418 -130.5h-481q-14 0 -22.5 9t-8.5 22t8.5 21t22.5 8h37q29 0 47.5 19t18.5 45v675q0 26 -18.5 45t-47.5 19h-37q-13 0 -22 8.5t-9 21.5t8.5 22t22.5 9h480zM548 61q145 0 234.5 118 t89.5 290q0 170 -87 282t-237 112h-41q-29 0 -47 -19t-18 -45v-675q0 -26 18 -44.5t47 -18.5h41z" />
<glyph unicode="e" horiz-adv-x="1136" d="M599 942q226 0 341.5 -116t115.5 -313q0 -29 -15.5 -39.5t-50.5 -10.5h-654q0 -408 311 -408q67 0 124.5 20.5t98 55t68 72.5t44.5 81q11 28 31 28q27 0 25 -30q-2 -20 -17 -53.5t-50 -77.5t-83 -82t-126 -64t-170 -26q-107 0 -198.5 29t-163 86.5t-112.5 152t-41 216.5 q0 104 33 190.5t96.5 151t164 101t228.5 36.5zM337 517h469q-5 191 -56.5 280t-161.5 89q-113 0 -177.5 -96.5t-73.5 -272.5z" />
<glyph unicode="f" horiz-adv-x="1003" d="M897 924v-282q0 -14 -8.5 -22.5t-22.5 -8.5q-13 0 -21 8.5t-8 22.5v23q0 92 -47.5 145t-134.5 53h-148q-29 0 -47 -19t-18 -45v-298h66q70 0 100.5 28.5t30.5 85.5v10q0 14 10 23.5t23 9.5t23 -9.5t10 -23.5v-308q0 -14 -10 -24.5t-23 -10.5t-23 11t-10 29v8 q0 111 -131 111h-66v-317q0 -26 18 -45t47 -19h66q14 0 22.5 -8.5t8.5 -21.5t-9 -21.5t-22 -8.5h-487q-14 0 -22.5 9t-8.5 22t8.5 21t22.5 8h37q29 0 47.5 19t18.5 45v675q0 26 -18.5 45t-47.5 19h-37q-13 0 -22 8.5t-9 21.5t8.5 22t22.5 9h811z" />
<glyph unicode="g" horiz-adv-x="1171" d="M1046 101q-207 -122 -428 -122q-112 0 -209.5 32t-171.5 91.5t-117 152t-43 207.5q0 98 31 179.5t83.5 136.5t122.5 92.5t146.5 54.5t156.5 17q109 0 202 -31t151 -90.5t58 -134.5q0 -74 -38.5 -112.5t-90.5 -38.5q-45 0 -78 29t-33 78q0 36 33.5 77.5t33.5 62.5 q0 42 -63 72t-154 30q-47 0 -86 -10t-78.5 -38t-66.5 -73.5t-44 -122t-17 -178.5q0 -215 83.5 -314.5t217.5 -99.5q80 0 149 26v210q0 24 -16.5 41t-42.5 17h-42q-13 0 -22 9t-9 22t8.5 21t22.5 8h351v-301z" />
<glyph unicode="h" horiz-adv-x="1312" d="M1227 61q13 0 22 -8.5t9 -21.5t-9 -22t-22 -9h-459q-14 0 -22.5 9t-8.5 22t9 21.5t22 8.5h37q29 0 47.5 18.5t18.5 44.5v320h-429v-320q0 -26 18.5 -44.5t47.5 -18.5h37q13 0 22 -8.5t9 -21.5t-9 -22t-22 -9h-459q-14 0 -22.5 9t-8.5 22t9 21.5t22 8.5h37q29 0 47.5 18.5 t18.5 44.5v675q0 26 -18.5 45t-47.5 19h-37q-13 0 -22 8.5t-9 21.5t8.5 22t22.5 9h459q13 0 22 -9t9 -22t-9 -21.5t-22 -8.5h-37q-29 0 -47.5 -19t-18.5 -45v-295h429v295q0 26 -18.5 45t-47.5 19h-37q-13 0 -22 8.5t-9 21.5t8.5 22t22.5 9h459q13 0 22 -9t9 -22t-9 -21.5 t-22 -8.5h-38q-29 0 -47 -19t-18 -45v-675q0 -26 18 -44.5t47 -18.5h38z" />
<glyph unicode="i" horiz-adv-x="614" d="M177 1291q0 59 40.5 99.5t99.5 40.5q56 0 96 -41t40 -99q0 -56 -40 -96t-96 -40q-59 0 -99.5 39.5t-40.5 96.5zM543 61q13 0 22 -8.5t9 -21.5t-9 -22t-22 -9h-457q-14 0 -22.5 9t-8.5 22t9 21.5t22 8.5h37q28 0 47 19t19 46v672q0 27 -19 46t-47 19h-37q-13 0 -22 8.5 t-9 21.5t8.5 22t22.5 9h355v-798q0 -27 18.5 -46t46.5 -19h37z" />
<glyph unicode="j" horiz-adv-x="595" d="M169 1291q0 59 40.5 99.5t99.5 40.5q56 0 96.5 -41t40.5 -99q0 -56 -40.5 -96t-96.5 -40q-59 0 -99.5 39.5t-40.5 96.5zM78 924h354v-1049q0 -81 -31.5 -144.5t-83 -102t-114 -58t-129.5 -19.5q-121 0 -207 58t-86 159q0 72 36 111.5t96 39.5q40 0 70.5 -25.5t30.5 -67.5 q0 -27 -10.5 -47.5t-23 -30.5t-23 -26.5t-10.5 -36.5q0 -33 31.5 -54.5t74.5 -21.5q52 0 89.5 36t37.5 109v1044q0 27 -18.5 46t-46.5 19h-37q-13 0 -22 8.5t-9 21.5t8.5 22t22.5 9z" />
<glyph unicode="k" horiz-adv-x="1218" d="M549 0h-463q-14 0 -22.5 9t-8.5 22t9 21.5t22 8.5h37q29 0 47.5 18.5t18.5 44.5v675q0 26 -18.5 45t-47.5 19h-37q-13 0 -22 8.5t-9 21.5t8.5 22t22.5 9h463q13 0 22 -9t9 -22t-9 -21.5t-22 -8.5h-37q-29 0 -47 -19t-18 -45v-675q0 -26 18 -44.5t47 -18.5h37 q16 0 25.5 -9t9.5 -21q0 -13 -9.5 -22t-25.5 -9zM1181 61q13 0 22 -8.5t9 -22.5q0 -13 -9 -21.5t-22 -8.5h-470q-13 0 -22 9t-9 22t9 21.5t22 8.5h24q36 0 36 26q0 18 -16 37l-281 340l434 340q15 12 15 28q0 13 -11.5 22t-32.5 9h-77q-14 0 -22.5 8.5t-8.5 22.5 q0 13 9 21.5t22 8.5h365q13 0 22 -9t9 -22t-9 -21.5t-22 -8.5h-17q-42 0 -70 -12.5t-73 -46.5l-303 -239l378 -457q38 -47 92 -47h7z" />
<glyph unicode="l" horiz-adv-x="942" d="M447 799v-675q0 -26 18 -44.5t47 -18.5h140q95 0 145.5 56t50.5 141v23q0 13 9 22t22 9t21.5 -9t8.5 -22v-281h-823q-14 0 -22.5 9t-8.5 22t9 21.5t22 8.5h37q29 0 47.5 18.5t18.5 44.5v675q0 26 -18.5 45t-47.5 19h-37q-13 0 -22 8.5t-9 21.5t8.5 22t22.5 9h463 q13 0 22 -9t9 -22t-9 -21.5t-22 -8.5h-37q-29 0 -47 -19t-18 -45z" />
<glyph unicode="m" horiz-adv-x="1875" d="M1804 61q14 0 23 -8.5t9 -21.5t-9 -22t-22 -9h-457q-14 0 -22.5 9t-8.5 22t8.5 21t22.5 8h37q27 0 46 19.5t19 46.5v509q0 98 -36.5 146t-103.5 48q-111 0 -175 -107.5t-64 -267.5v-328q0 -27 19 -46.5t47 -19.5h37q14 0 22.5 -8t8.5 -21t-8.5 -22t-22.5 -9h-457 q-13 0 -22 9t-9 22t8.5 21t22.5 8h37q27 0 46 19.5t19 46.5v509q0 98 -36.5 146t-103.5 48q-111 0 -174.5 -107.5t-63.5 -267.5v-328q0 -27 19 -46.5t46 -19.5h37q14 0 22.5 -8t8.5 -21t-9 -22t-22 -9h-457q-14 0 -22.5 9t-8.5 22t8.5 21t22.5 8h37q28 0 47 19.5t19 46.5 v672q0 27 -19 46t-47 19h-37q-13 0 -22 8.5t-9 21.5t8.5 22t22.5 9h355v-216q50 107 139 170t206 63q122 0 193.5 -62t85.5 -180q50 111 141 176.5t211 65.5q133 0 209 -76.5t76 -216.5v-522q0 -27 18.5 -46t46.5 -19h37z" />
<glyph unicode="n" horiz-adv-x="1300" d="M1228 61q13 0 22 -8.5t9 -21.5t-8.5 -22t-22.5 -9h-457q-13 0 -22 9t-9 22t8.5 21t22.5 8h37q28 0 47 19.5t19 46.5v500q0 100 -48.5 151.5t-119.5 51.5q-113 0 -189 -109.5t-76 -265.5v-328q0 -27 19 -46.5t46 -19.5h37q14 0 22.5 -8t8.5 -21t-9 -22t-22 -9h-457 q-14 0 -22.5 9t-8.5 22t8.5 21t22.5 8h37q28 0 47 19.5t19 46.5v672q0 27 -19 46t-47 19h-37q-13 0 -22 8.5t-9 21.5t8.5 22t22.5 9h355v-222q52 108 151.5 173.5t220.5 65.5q146 0 229.5 -78.5t83.5 -223.5v-513q0 -27 18.5 -46t46.5 -19h37z" />
<glyph unicode="o" horiz-adv-x="1175" d="M589 -20q-232 0 -372 132t-140 351q0 96 34.5 182t97.5 152.5t161.5 105.5t218.5 39q150 0 263.5 -53.5t180 -163t66.5 -262.5q0 -221 -136.5 -352t-373.5 -131zM584 36q127 1 194 109t67 315q0 212 -67 318.5t-189 106.5q-121 0 -189.5 -107.5t-68.5 -317.5 q0 -188 64 -305.5t189 -118.5z" />
<glyph unicode="p" horiz-adv-x="1083" d="M1007 645q0 -130 -108 -213.5t-310 -83.5h-142v-224q0 -26 18 -45t47 -19h68q14 0 22.5 -8.5t8.5 -21.5t-9 -21.5t-22 -8.5h-494q-14 0 -22.5 9t-8.5 22t8.5 21t22.5 8h37q29 0 47.5 19t18.5 45v675q0 26 -18.5 45t-47.5 19h-37q-13 0 -22 8.5t-9 21.5t8.5 22t22.5 9h503 q204 0 311 -76.5t107 -202.5zM738 648q0 215 -200 215h-26q-29 0 -47 -19t-18 -45v-391h76q106 0 160.5 66.5t54.5 173.5z" />
<glyph unicode="q" horiz-adv-x="1153" d="M589 -20q-232 0 -372 132t-140 351q0 96 34.5 182t97.5 152.5t161.5 105.5t218.5 39q150 0 263.5 -53.5t180 -163t66.5 -262.5q0 -221 -136.5 -352t-373.5 -131zM584 36q127 1 194 109t67 315q0 212 -67 318.5t-189 106.5q-121 0 -189.5 -107.5t-68.5 -317.5 q0 -188 64 -305.5t189 -118.5zM889 -429q-74 0 -144 27t-122 65.5t-99.5 77t-96.5 65.5t-94 27q-43 0 -69.5 -22.5t-26.5 -64.5q0 -15 -9.5 -23.5t-21.5 -8.5t-21.5 8.5t-9.5 23.5q0 95 65 150t157 55q60 0 117 -23t99.5 -57t86.5 -74t79.5 -74t76.5 -57t79 -23 q50 0 78 23.5t28 61.5q0 25 -13.5 45t-29 32t-29 31.5t-13.5 43.5q0 44 31.5 72.5t72.5 28.5q45 0 78.5 -33t33.5 -93q0 -35 -8.5 -71.5t-29.5 -75.5t-52 -69t-81 -49t-112 -19z" />
<glyph unicode="r" horiz-adv-x="1013" d="M741 941q103 0 171 -68t68 -172q0 -82 -46.5 -142.5t-124.5 -60.5q-53 0 -88 35.5t-35 85.5q0 30 13.5 56t29 41.5t29 35.5t13.5 39q0 27 -25.5 45t-64.5 18q-72 0 -128.5 -63t-84 -155.5t-27.5 -192.5v-317q0 -27 18.5 -46t46.5 -19h103q13 0 22 -8.5t9 -22.5 q0 -13 -9 -21.5t-22 -8.5h-523q-14 0 -22.5 9t-8.5 22t9 21.5t22 8.5h37q28 0 47 19t19 46v672q0 27 -19 46t-47 19h-37q-13 0 -22 8.5t-9 21.5t8.5 22t22.5 9h355v-226q43 120 121.5 181.5t178.5 61.5z" />
<glyph unicode="s" horiz-adv-x="1032" d="M565 912q0 -57 29 -111.5t72 -96t94 -89.5t94 -92t72 -105t29 -126q0 -97 -65.5 -169.5t-167.5 -108t-221 -35.5q-113 0 -207 34t-155.5 107t-61.5 174q0 60 32 93.5t77 35.5l264 450q19 49 72 130q21 31 39 31q14 0 22 -8t7 -20q-3 -10 -10 -26.5t-11 -32t-4 -35.5z M473 38q117 0 182 51.5t65 141.5q0 35 -15.5 68t-41 61.5t-56 57.5t-62 60.5t-58.5 64.5t-45.5 76.5t-21.5 90.5l-175 -302q46 -25 46 -83q0 -33 -38 -77.5t-38 -72.5q0 -57 77.5 -97t180.5 -40z" />
<glyph unicode="t" horiz-adv-x="831" d="M771 208q13 0 20.5 -8.5t7.5 -19.5q0 -18 -26 -55q-95 -146 -264 -146q-144 0 -233 82t-89 226v576h-102q-13 0 -22 8.5t-9 22.5q0 13 9 21.5t22 8.5h9q114 0 199.5 86t85.5 221q0 13 8.5 22t22.5 9q13 0 21 -8.5t8 -22.5v-307h297q14 0 22.5 -9t8.5 -22t-9 -21.5 t-22 -8.5h-297v-576q0 -92 40.5 -145t109.5 -53q51 0 88 23.5t67 74.5q14 21 27 21z" />
<glyph unicode="u" horiz-adv-x="1284" d="M1212 61q13 0 22 -8.5t9 -21.5t-8.5 -22t-22.5 -9h-354v208q-47 -102 -142.5 -164t-217.5 -62q-137 0 -223 79.5t-86 222.5v514q0 27 -19 46t-47 19h-37q-13 0 -22 8.5t-9 21.5t8.5 22t22.5 9h355v-627q0 -101 46.5 -152t116.5 -51q112 0 183 109t71 266v329 q0 27 -18.5 46t-46.5 19h-37q-13 0 -22 8.5t-9 21.5t8.5 22t22.5 9h354v-798q0 -27 18.5 -46t46.5 -19h37z" />
<glyph unicode="v" horiz-adv-x="1089" d="M1051 924q13 0 22 -9t9 -22t-9 -21.5t-22 -8.5h-24q-50 0 -70 -49l-362 -814h-80l-386 799q-31 64 -75 64h-16q-14 0 -22.5 8.5t-8.5 22.5q0 13 9 21.5t22 8.5h449q13 0 22 -9t9 -22t-9 -21.5t-22 -8.5h-54q-23 0 -36.5 -11t-13.5 -28q0 -13 5 -24l255 -540l242 539 q6 15 6 25q0 18 -14 28.5t-37 10.5h-59q-13 0 -22 8.5t-9 22.5q0 13 9 21.5t22 8.5h270z" />
<glyph unicode="w" horiz-adv-x="1490" d="M1453 924q13 0 22 -9t9 -22t-9 -21.5t-22 -8.5h-39q-57 0 -73 -49l-285 -814h-85l-226 591l-199 -591h-84l-314 799q-26 64 -75 64h-35q-14 0 -22.5 8.5t-8.5 22.5q0 13 9 21.5t22 8.5h464q14 0 22.5 -9t8.5 -22t-9 -21.5t-22 -8.5h-58q-25 0 -38 -12t-13 -30q0 -6 4 -22 l190 -490l211 615h64l235 -615l174 490q5 11 5 24q0 40 -50 40h-68q-14 0 -22.5 8.5t-8.5 22.5q0 13 9 21.5t22 8.5h295z" />
<glyph unicode="x" horiz-adv-x="1083" d="M1053 61q13 0 22 -9t9 -23q0 -13 -8.5 -21t-22.5 -8h-476q-13 0 -22 9t-9 22t8.5 21t22.5 8h33q34 0 48.5 19t-3.5 45l-189 261l-214 -261q-18 -22 -8.5 -43t39.5 -21h43q14 0 22.5 -8.5t8.5 -21.5t-9 -21.5t-22 -8.5h-289q-13 0 -22 9t-9 22t8.5 21t22.5 8h9 q41 0 68.5 14t58.5 50l257 311l-263 364q-27 37 -49 50.5t-54 13.5h-16q-14 0 -22.5 8.5t-8.5 22.5q0 13 9 21.5t22 8.5h463q13 0 22 -9t9 -22t-9 -21.5t-22 -8.5h-20q-33 0 -48 -19t3 -45l171 -238l205 238q18 21 5.5 42.5t-41.5 21.5h-42q-14 0 -22.5 8.5t-8.5 22.5 q0 13 9 21.5t22 8.5h290q14 0 22.5 -9t8.5 -22t-9 -21.5t-22 -8.5h-24q-31 0 -54 -14t-55 -50l-248 -288l281 -387q27 -38 48.5 -50.5t55.5 -12.5h15z" />
<glyph unicode="y" horiz-adv-x="1038" d="M618 411l214 388q15 27 0.5 45.5t-45.5 18.5h-41q-14 0 -22.5 8.5t-8.5 22.5q0 13 9 21.5t22 8.5h255q13 0 22 -9t9 -22t-9 -21.5t-22 -8.5h-23q-44 0 -71 -49l-253 -457v-233q0 -26 18 -44.5t47 -18.5h37q13 0 22 -8.5t9 -21.5t-8.5 -22t-22.5 -9h-463q-13 0 -22 9 t-9 22t9 21.5t22 8.5h38q29 0 47 18.5t18 44.5v212l-267 463q-35 64 -75 64h-16q-14 0 -22.5 8.5t-8.5 22.5q0 13 9 21.5t22 8.5h434q14 0 22.5 -9t8.5 -22t-9 -21.5t-22 -8.5h-39q-31 0 -45 -18.5t0 -44.5z" />
<glyph unicode="z" horiz-adv-x="1075" d="M956 924v-59l-579 -804h267q115 0 183.5 82t68.5 187v28q0 14 9 22.5t22 8.5t21 -8.5t8 -22.5v-358h-849v78l564 785h-235q-115 0 -183.5 -82t-68.5 -187v-28q0 -14 -9 -22.5t-22 -8.5t-21 8.5t-8 22.5v358h832z" />
<glyph unicode="{" horiz-adv-x="821" d="M696 -494q15 0 25 -9t10 -23q0 -13 -10.5 -21t-24.5 -8h-109q-196 0 -274 83.5t-78 262.5v488q0 86 -45 139t-120 53h-7q-13 0 -22 8.5t-9 22.5q0 13 8.5 21t22.5 8h7q73 0 118 50t45 124v440q0 179 79 263.5t275 84.5h109q12 0 23.5 -8.5t11.5 -22.5t-10 -22.5t-25 -8.5 q-59 0 -101 -23t-65.5 -64.5t-34 -90t-10.5 -108.5v-281q0 -166 -56 -254t-181 -105q125 -18 181 -109t56 -257v-348q0 -58 10.5 -107t34 -90t66 -64.5t100.5 -23.5z" />
<glyph unicode="|" horiz-adv-x="323" d="M201 -555h-62v2048h62v-2048z" />
<glyph unicode="}" horiz-adv-x="825" d="M762 531q14 0 22.5 -8t8.5 -21q0 -14 -8.5 -22.5t-22.5 -8.5h-7q-75 0 -120 -53t-45 -139v-488q0 -179 -78 -262.5t-274 -83.5h-110q-14 0 -24 8t-10 22t9.5 22.5t24.5 8.5q58 0 100.5 23.5t66 64.5t34 90t10.5 107v348q0 166 56.5 257t181.5 109q-125 17 -181.5 105.5 t-56.5 253.5v281q0 60 -10.5 108.5t-34 90t-65.5 64.5t-101 23q-15 0 -24.5 8.5t-9.5 22.5t11 22.5t23 8.5h110q100 0 169 -21.5t109 -67t57.5 -108t17.5 -151.5v-440q0 -74 45.5 -124t118.5 -50h7z" />
<glyph unicode="~" horiz-adv-x="1140" d="M744 259q-76 0 -136.5 26t-98 63t-69.5 74t-70.5 63t-82.5 26q-51 0 -88.5 -36.5t-37.5 -96.5q0 -21 -21 -24q-25 -5 -35 19q-3 8 -3 18q0 101 84.5 168.5t202.5 67.5q65 0 119 -19t88 -47.5t66.5 -62t57 -62t57.5 -47.5t70 -19q51 0 89.5 36t38.5 94q0 24 15.5 33t31 -1 t15.5 -34q0 -101 -87 -170t-206 -69z" />
<glyph unicode="&#xa1;" horiz-adv-x="471" d="M106 1101q0 48 33.5 83.5t79.5 35.5q45 0 77.5 -35.5t32.5 -83.5q0 -49 -32 -83.5t-78 -34.5q-47 0 -80 34.5t-33 83.5zM218 -608q-48 0 -81 35.5t-33 88.5q0 68 34.5 470t34.5 565q0 21 12.5 33.5t28.5 12.5q17 0 29 -12.5t12 -33.5q0 -163 38.5 -565.5t38.5 -469.5 q0 -52 -34 -88t-80 -36z" />
<glyph unicode="&#xa2;" horiz-adv-x="1073" d="M985 306q17 0 24 -13t3 -25q-10 -27 -24 -54.5t-50 -73t-80 -78.5t-117.5 -58t-159.5 -25q-35 0 -68 3l-71 -338q-6 -28 -31 -28q-14 0 -22.5 10t-4.5 28l71 336q-188 32 -283 158t-95 317q0 148 70 258t185 164.5t258 54.5q32 0 64 -3l66 317q7 28 33 28q13 0 21.5 -10 t4.5 -28l-68 -316q134 -29 218.5 -113t84.5 -180q0 -79 -42 -123t-106 -44q-52 0 -86.5 38t-34.5 83q0 31 13.5 57t30 40.5t30 34.5t13.5 41q0 52 -68 86.5t-147 34.5q-63 0 -111.5 -20t-88 -66.5t-60.5 -130.5t-21 -203q0 -415 284 -415q66 0 122.5 20.5t97 55.5t69 74 t47.5 83q8 23 29 23z" />
<glyph unicode="&#xa3;" horiz-adv-x="1484" d="M1371 405q13 0 22 -9t9 -22q0 -172 -106 -287t-253 -115q-110 0 -204.5 40t-203.5 113q-115 -147 -343 -147q-100 0 -169.5 51t-69.5 143q0 81 58 135t158 54q74 0 165 -28q0 108 -33 320h-177q-14 0 -22.5 8.5t-8.5 22.5q0 13 9 21.5t22 8.5h167q-29 189 -29 261 q0 82 27 149t73.5 112t111.5 75.5t138 44t156 13.5q121 0 227 -40t172.5 -114t66.5 -165q0 -73 -39 -114t-92 -41q-48 0 -83 31.5t-35 84.5q0 35 18.5 61.5t37 48t18.5 43.5q0 63 -65 102.5t-160 39.5q-123 0 -203 -79.5t-80 -226.5q0 -102 34 -286h223q14 0 22.5 -9 t8.5 -22t-9 -21.5t-22 -8.5h-212q25 -137 25 -240t-29 -182q189 -76 323 -76q50 0 92 7.5t71 18t54 28.5t39 32.5t27.5 38t18.5 36t13 34.5t10 27q12 28 31 28zM265 44q68 0 111 54t54 158q-88 45 -161 45q-65 0 -104.5 -36.5t-39.5 -92.5q0 -58 42.5 -93t97.5 -35z" />
<glyph unicode="&#xa4;" horiz-adv-x="1384" d="M1162 464q0 -174 -114 -304l141 -143l-51 -49l-139 144q-130 -111 -303 -111q-177 0 -308 113l-144 -146l-49 49l145 145q-112 130 -112 302t115 303l-148 143l49 52l147 -148q132 111 305 111q172 0 301 -108l141 145l51 -52l-143 -141q116 -131 116 -305zM696 63 q164 0 279.5 117t115.5 284q0 165 -115.5 282t-279.5 117q-165 0 -281 -116.5t-116 -282.5q0 -167 116 -284t281 -117z" />
<glyph unicode="&#xa5;" horiz-adv-x="1302" d="M1269 1350q13 0 21.5 -8.5t8.5 -21.5t-8.5 -22t-21.5 -9h-36q-29 0 -55.5 -16.5t-40.5 -42.5l-302 -567h226q13 0 22 -8.5t9 -22.5q0 -13 -9 -21.5t-22 -8.5h-254v-131h254q13 0 22 -8.5t9 -22.5q0 -13 -8.5 -21t-22.5 -8h-254v-287q0 -26 18 -45t47 -19h37q14 0 22.5 -8 t8.5 -21t-9 -22t-22 -9h-492q-13 0 -22 9t-9 22t8.5 21t22.5 8h37q29 0 47 19t18 45v287h-278q-13 0 -22 8.5t-9 22.5q0 13 8.5 21t22.5 8h278v73l-31 58h-247q-13 0 -22 9t-9 22t9 21.5t22 8.5h214l-308 567q-16 29 -33.5 44t-46.5 15h-33q-14 0 -22.5 8.5t-8.5 22.5 q0 13 9 21.5t22 8.5h516q13 0 21 -8.5t8 -21.5q0 -14 -8 -22.5t-21 -8.5h-34q-35 0 -47 -15.5t3 -43.5l295 -551l289 551q12 22 -1 40.5t-43 18.5h-30q-14 0 -22.5 8.5t-8.5 22.5q0 13 9 21.5t22 8.5h287z" />
<glyph unicode="&#xa6;" horiz-adv-x="323" d="M139 780v713h62v-713h-62zM201 190v-745h-62v745h62z" />
<glyph unicode="&#xa7;" horiz-adv-x="882" d="M797 413q0 -129 -88 -248q104 -113 104 -261q0 -92 -33.5 -165t-89 -117t-123 -66.5t-140.5 -22.5q-90 0 -167.5 31.5t-127.5 97.5t-50 153q0 71 32.5 108t76.5 37q35 0 60 -23.5t25 -59.5q0 -35 -36 -69t-36 -66q0 -67 62 -108.5t145 -41.5q95 0 163 56t68 164 q0 59 -29.5 109t-76.5 87.5t-104 74.5t-114 78.5t-104 90.5t-76.5 120.5t-29.5 158.5q0 131 93 254q-95 110 -95 255q0 93 32 166t85.5 116.5t117.5 66t135 22.5q136 0 237 -77t101 -205q0 -71 -32.5 -108t-75.5 -37q-35 0 -60.5 23.5t-25.5 59.5q0 35 36.5 69t36.5 66 q0 64 -64 107t-145 43q-87 0 -147 -54.5t-60 -165.5q0 -58 28.5 -107t74.5 -86.5t101.5 -74.5t111 -79t101.5 -91.5t74.5 -121.5t28.5 -159zM255 625q0 -54 22.5 -99.5t65.5 -84t85.5 -67.5t104.5 -69.5t101 -70.5q17 49 17 87q0 54 -22.5 100.5t-65.5 84.5t-86 68 t-104 70.5t-99 71.5q-19 -48 -19 -91z" />
<glyph unicode="&#xa8;" horiz-adv-x="1034" d="M216 1329q0 48 33.5 81.5t81.5 33.5q47 0 79.5 -33.5t32.5 -81.5q0 -47 -32.5 -79.5t-79.5 -32.5q-48 0 -81.5 32.5t-33.5 79.5zM603 1329q0 48 34 81.5t81 33.5t79.5 -33.5t32.5 -81.5q0 -47 -33 -79.5t-79 -32.5q-47 0 -81 33t-34 79z" />
<glyph unicode="&#xa9;" horiz-adv-x="1087" d="M544 570q-129 0 -238 62.5t-172.5 171t-63.5 236.5q0 194 139 331t335 137q128 0 237 -62.5t172 -170t63 -235.5q0 -127 -63 -235.5t-172 -171.5t-237 -63zM544 622q170 0 291 122.5t121 295.5q0 172 -121 294.5t-291 122.5q-172 0 -293 -122t-121 -295q0 -174 121 -296 t293 -122zM570 752q-145 0 -225 80.5t-80 211.5q0 132 87.5 210.5t212.5 78.5q106 0 180.5 -56t74.5 -128q0 -48 -26.5 -77t-67.5 -29q-33 0 -55 24t-22 54q0 31 26 61t26 48q0 29 -36.5 47t-79.5 18q-161 0 -161 -251q0 -122 48 -185t124 -63q64 0 112.5 38.5t74.5 95.5 q5 15 18 15q11 0 16 -8.5t2 -17.5q-5 -13 -12.5 -28t-28 -42t-46 -46.5t-68.5 -35t-94 -15.5z" />
<glyph unicode="&#xaa;" horiz-adv-x="931" d="M352 795q-110 0 -186.5 78t-76.5 212q0 133 76 211t187 78q77 0 126 -33t84 -97v120h177v-458q0 -20 15 -34t35 -14h22q12 0 18.5 -7t6.5 -17q0 -25 -25 -25h-249v119q-35 -68 -85.5 -100.5t-124.5 -32.5zM406 1317q-56 0 -81 -53.5t-25 -178.5q0 -126 25 -179t81 -53 q64 0 108 70.5t44 161.5q0 93 -45 162.5t-107 69.5zM836 724q14 0 22.5 -9t8.5 -22t-8.5 -21t-22.5 -8h-741q-13 0 -22 9t-9 22t8.5 21t22.5 8h741z" />
<glyph unicode="&#xab;" horiz-adv-x="942" d="M191 457q82 78 158.5 180t122.5 185q13 25 -11 39.5t-41 -9.5q-136 -182 -372 -361q-21 -15 -20.5 -34.5t20.5 -34.5q238 -180 372 -360q17 -23 41.5 -9t10.5 39q-46 83 -122.5 185t-158.5 180zM570 457q82 78 158 179.5t122 185.5q13 25 -11 39.5t-41 -9.5 q-137 -184 -371 -361q-21 -15 -20.5 -34.5t20.5 -34.5q235 -178 371 -360q17 -23 41.5 -9t10.5 39q-46 84 -122 185.5t-158 179.5z" />
<glyph unicode="&#xad;" horiz-adv-x="647" d="M564 527q14 0 22.5 -8.5t8.5 -22.5q0 -13 -8.5 -21t-22.5 -8h-482q-14 0 -22.5 8.5t-8.5 22.5q0 13 8.5 21t22.5 8h482z" />
<glyph unicode="&#xae;" horiz-adv-x="1087" d="M544 1508q128 0 237 -62.5t172 -170t63 -235.5q0 -127 -63 -235.5t-172 -171.5t-237 -63q-129 0 -238 62.5t-172.5 171t-63.5 236.5q0 194 139 331t335 137zM544 622q170 0 291 122.5t121 295.5q0 172 -121 294.5t-291 122.5q-172 0 -293 -122t-121 -295q0 -174 121 -296 t293 -122zM800 830q16 0 16 -16q0 -15 -23.5 -27.5t-56.5 -12.5q-62 0 -93 25.5t-37.5 61.5t-11 72t-25.5 61.5t-68 25.5h-4v-165q0 -16 10 -26.5t29 -10.5t19 -19t-19 -19h-221q-20 0 -20 19q0 8 6 13.5t14 5.5q19 0 29 10.5t10 26.5v385q0 16 -10.5 26t-28.5 10 q-8 0 -14 6t-6 14q0 19 20 19h230q100 0 157 -36t57 -103q0 -45 -32 -80t-89 -53q50 -16 74.5 -53.5t26.5 -74t9 -64.5t27 -28q7 0 14.5 3.5t10.5 3.5zM497 1058h21q98 0 98 117q0 102 -82 102q-17 0 -27 -11t-10 -26v-182z" />
<glyph unicode="&#xaf;" horiz-adv-x="733" d="M96 1267q-16 0 -26 9.5t-10 22.5t9 22t27 9h574q32 0 32 -32q0 -31 -32 -31h-574z" />
<glyph unicode="&#xb0;" horiz-adv-x="710" d="M356 893q-99 0 -169 68t-70 167q0 97 70.5 165.5t168.5 68.5t168 -68.5t70 -165.5t-70 -166t-168 -69zM356 958q68 0 116 49.5t48 120.5q0 69 -48 118.5t-116 49.5q-69 0 -117 -49t-48 -119q0 -71 47.5 -120.5t117.5 -49.5z" />
<glyph unicode="&#xb1;" horiz-adv-x="755" d="M90 573q-14 0 -22.5 8.5t-8.5 22.5q0 13 9 21.5t22 8.5h259v259q0 13 8.5 22t22.5 9q13 0 21 -8.5t8 -22.5v-259h260q13 0 22 -9t9 -22t-9 -21.5t-22 -8.5h-260v-259q0 -14 -8.5 -22.5t-22.5 -8.5q-13 0 -21 8.5t-8 22.5v259h-259zM665 186q13 0 22 -9t9 -22t-8.5 -21 t-22.5 -8h-579q-14 0 -22.5 9t-8.5 22t8.5 21t22.5 8h579z" />
<glyph unicode="&#xb4;" horiz-adv-x="626" d="M181 1157q-23 -17 -39.5 -1t2.5 39l224 264q42 50 91 29q36 -16 43 -54q6 -39 -31 -66z" />
<glyph unicode="&#xb6;" horiz-adv-x="1136" d="M671 577h-119q-215 0 -332.5 109.5t-117.5 288.5q0 168 118.5 271.5t343.5 103.5h497q21 0 30 -15t0.5 -30.5t-30.5 -15.5h-61q-25 0 -43.5 -18.5t-18.5 -42.5v-1228h-65v1288h-139v-1288h-63v577z" />
<glyph unicode="&#xb7;" horiz-adv-x="540" d="M132 517q0 59 40.5 99t99.5 40q56 0 96 -40.5t40 -98.5q0 -56 -40 -96.5t-96 -40.5q-59 0 -99.5 40t-40.5 97z" />
<glyph unicode="&#xb8;" horiz-adv-x="1228" d="M163 -170l40 184h71l-25 -127q103 -16 156 -62.5t53 -119.5q0 -89 -72.5 -143t-172.5 -54q-87 0 -153 38q-38 20 -38 50q0 12 8.5 20t22.5 8q9 0 50.5 -19t84.5 -19q55 0 88.5 32.5t33.5 82.5t-38 87.5t-109 41.5z" />
<glyph unicode="&#xba;" horiz-adv-x="894" d="M449 794q-147 0 -238.5 81t-91.5 211q0 117 90 202.5t240 85.5q144 0 236 -75.5t92 -212.5q0 -131 -89.5 -211.5t-238.5 -80.5zM449 1328q-65 0 -96 -59.5t-31 -184.5q0 -244 127 -244q66 1 96 60t30 184q0 126 -30 185t-96 59zM796 724q14 0 22.5 -9t8.5 -22t-9 -21.5 t-22 -8.5h-690q-14 0 -22.5 8.5t-8.5 22.5q0 13 9 21.5t22 8.5h690z" />
<glyph unicode="&#xbb;" horiz-adv-x="942" d="M371 457q-82 -78 -158 -179.5t-122 -185.5q-14 -25 10.5 -39t41.5 9q134 180 372 360q20 15 20.5 34.5t-20.5 34.5q-236 179 -372 361q-17 24 -41 9.5t-11 -39.5q46 -84 122 -185.5t158 -179.5zM750 457q-82 -78 -158 -179.5t-122 -185.5q-14 -25 10.5 -39t41.5 9 q134 180 372 360q20 15 20.5 34.5t-20.5 34.5q-236 179 -372 361q-17 24 -41 9.5t-11 -39.5q46 -84 122 -185.5t158 -179.5z" />
<glyph unicode="&#xbc;" horiz-adv-x="1585" d="M1207 1493h76l-845 -1692h-76zM605 628q0 -10 -6.5 -17t-16.5 -7h-395q-23 0 -23 24q0 9 6.5 16t16.5 7h50q20 0 32 12.5t12 29.5v550h-94q-23 0 -23 24q0 10 6.5 16.5t16.5 6.5h18q166 0 257 59q24 16 36 16q22 0 22 -21v-651q0 -17 12.5 -29.5t32.5 -12.5h16 q10 0 17 -7t7 -16zM1516 47q10 0 16.5 -7t6.5 -16q0 -10 -6.5 -17t-16.5 -7h-362q-10 0 -17 7t-7 17q0 9 7 16t17 7h16q20 0 32.5 12.5t12.5 29.5v54h-371v45q145 111 203.5 221t69.5 234q6 57 38 87t81 30q50 0 84.5 -30.5t34.5 -86.5q0 -45 -26.5 -103t-76 -120.5 t-132 -124t-183.5 -105.5h278v132q124 76 194 250q7 21 26 21t19 -22v-381h67q11 0 17.5 -7t6.5 -17t-7 -16.5t-17 -6.5h-67v-54q0 -17 12.5 -29.5t32.5 -12.5h17z" />
<glyph unicode="&#xbd;" horiz-adv-x="1646" d="M438 -199h-76l845 1692h76zM581 651q10 0 17 -7t7 -16q0 -10 -6.5 -17t-16.5 -7h-395q-23 0 -23 24q0 9 6.5 16t16.5 7h50q20 0 32 12.5t12 29.5v550h-94q-23 0 -23 24q0 10 6.5 16.5t16.5 6.5h18q166 0 257 59q24 16 36 16q22 0 22 -21v-651q0 -17 12.5 -29.5 t32.5 -12.5h16zM1603 225v-61q0 -176 -184 -176q-63 0 -167 24t-142 24q-22 0 -35 -7.5t-17 -16.5t-11.5 -16.5t-19.5 -7.5q-10 0 -16 6.5t-6 17.5v41q0 74 19 132t49.5 95t67.5 67t74.5 54.5t68 50t49.5 61t19 80.5q0 60 -31 87.5t-82 27.5q-47 0 -73.5 -17t-26.5 -45 q0 -14 8.5 -26t18 -19.5t18 -23t8.5 -36.5q0 -39 -27 -60.5t-65 -21.5q-43 0 -75 29.5t-32 83.5q0 76 77 131t207 55q138 0 229 -51t91 -149q0 -59 -29 -103.5t-76 -72t-103.5 -49.5t-114 -42t-105.5 -43t-80 -59t-35 -84q45 85 160 85q36 0 126.5 -15t127.5 -15q43 0 66 18 t23 48q0 22 23 22q9 0 16 -6.5t7 -16.5z" />
<glyph unicode="&#xbe;" horiz-adv-x="1740" d="M1343 1493h77l-845 -1692h-77zM790 834q0 -104 -88 -171t-258 -67q-121 0 -200.5 50.5t-79.5 136.5q0 54 28 82.5t68 28.5q38 0 67 -23t29 -61q0 -27 -22.5 -54.5t-22.5 -43.5q0 -28 28.5 -45t73.5 -17q64 0 98.5 45.5t34.5 134.5q0 81 -26 115t-63 34h-5q-12 0 -20 8 t-8 20q0 10 6.5 17.5t25.5 21.5q126 87 160 115q2 1 6 4.5t6 5.5q-35 -11 -72 -11q-46 0 -131 18.5t-121 18.5q-35 0 -55 -17.5t-20 -47.5q0 -10 -6.5 -16.5t-16.5 -6.5t-16.5 7t-6.5 17v58q0 177 179 177q62 0 169 -23.5t145 -23.5q27 0 40 12.5t21 24.5t22 12 q9 0 15.5 -6.5t6.5 -16.5v-8q0 -39 -20.5 -79.5t-48 -71.5t-71 -66t-71.5 -54t-68 -45q155 -2 221.5 -55.5t66.5 -133.5zM1653 47q10 0 16.5 -7t6.5 -16q0 -10 -6.5 -17t-16.5 -7h-363q-10 0 -16.5 7t-6.5 17q0 9 6.5 16t16.5 7h17q20 0 32.5 12.5t12.5 29.5v54h-371v46 q145 111 203.5 220.5t69.5 233.5q6 57 38 87t81 30q50 0 84 -30.5t34 -86.5q0 -45 -26.5 -103t-75.5 -120.5t-131.5 -124t-183.5 -105.5h278v132q124 76 194 250q8 21 26 21q19 0 19 -22v-381h67q10 0 17 -7t7 -17t-7 -16.5t-17 -6.5h-67v-54q0 -17 12 -29.5t32 -12.5h18z " />
<glyph unicode="&#xbf;" horiz-adv-x="1007" d="M721 1136q0 -56 -38.5 -94t-93.5 -38q-53 0 -91 38.5t-38 93.5q0 53 38 91t91 38q55 0 93.5 -38t38.5 -91zM559 -507q74 0 131.5 38.5t57.5 90.5q0 29 -20.5 54t-41 52t-20.5 61q0 57 36.5 90t86.5 33q68 0 107 -46t39 -119q0 -80 -34.5 -143.5t-92.5 -103t-130 -60 t-151 -20.5q-116 0 -213.5 33.5t-161.5 105.5t-64 170q0 69 26 130.5t67 109.5t91 95t99.5 97.5t90.5 106t67 131.5t26 163v101q0 15 10.5 26t25.5 11q16 0 26.5 -10.5t10.5 -26.5v-172q0 -115 -29.5 -211.5t-71.5 -163t-84 -125.5t-71.5 -126t-29.5 -138q0 -62 18 -109 t49.5 -73.5t69 -39t80.5 -12.5z" />
<glyph unicode="&#xc0;" horiz-adv-x="1320" d="M413 1658q-44 32 -28 77q14 37 51 46q43 11 80 -33l224 -263q19 -23 2.5 -39t-39.5 1zM1272 120q11 0 17.5 -8t6.5 -21q0 -36 -63 -73t-156 -37q-101 0 -159.5 57t-58.5 156v18q-49 -108 -142.5 -170.5t-234.5 -62.5q-168 0 -270 92.5t-102 240.5q0 172 127 264t381 109 l230 13v371q0 115 -68 179t-213 64q-111 0 -194.5 -49t-83.5 -122q0 -21 16.5 -39t33.5 -41t17 -57q0 -42 -30.5 -68t-71.5 -26q-46 0 -78.5 33.5t-32.5 99.5q0 136 126.5 231.5t341.5 95.5q252 0 388.5 -90.5t136.5 -259.5v-882q0 -66 45 -66q27 0 59 32q24 16 32 16z M581 84q119 0 193 111t74 286v157l-218 -16q-117 -10 -183 -85.5t-66 -193.5q0 -122 57.5 -190.5t142.5 -68.5z" />
<glyph unicode="&#xc1;" horiz-adv-x="1320" d="M570 1452q-23 -17 -39.5 -1t2.5 39l224 263q42 50 91 29q36 -15 43 -53q6 -39 -31 -66zM1273 120q23 0 23 -29q0 -36 -63 -73t-156 -37q-101 0 -159.5 57t-58.5 156v18q-49 -108 -142.5 -170.5t-234.5 -62.5q-168 0 -270 92.5t-102 240.5q0 172 127 264t381 109l230 13 v371q0 115 -68 179t-213 64q-111 0 -194.5 -49t-83.5 -122q0 -21 16.5 -39t33.5 -41t17 -57q0 -42 -30.5 -68t-71.5 -26q-46 0 -78.5 33.5t-32.5 99.5q0 136 126.5 231.5t341.5 95.5q252 0 388.5 -90.5t136.5 -259.5v-882q0 -66 45 -66q27 0 59 32q24 16 33 16zM581 84 q119 0 193 111t74 286v157l-218 -16q-117 -10 -183 -85.5t-66 -193.5q0 -122 57.5 -190.5t142.5 -68.5z" />
<glyph unicode="&#xc2;" horiz-adv-x="1320" d="M493 1448q-17 -16 -36.5 -16.5t-30.5 15.5t0 36l144 249q33 56 87.5 56t87.5 -56l144 -249q10 -23 -1 -38t-31.5 -14t-33.5 17l-165 197zM1273 120q23 0 23 -29q0 -36 -63 -73t-156 -37q-101 0 -159.5 57t-58.5 156v18q-49 -108 -142.5 -170.5t-234.5 -62.5 q-168 0 -270 92.5t-102 240.5q0 172 127 264t381 109l230 13v371q0 115 -68 179t-213 64q-111 0 -194.5 -49t-83.5 -122q0 -21 16.5 -39t33.5 -41t17 -57q0 -42 -30.5 -68t-71.5 -26q-46 0 -78.5 33.5t-32.5 99.5q0 136 126.5 231.5t341.5 95.5q252 0 388.5 -90.5 t136.5 -259.5v-882q0 -66 45 -66q27 0 59 32q24 16 33 16zM581 84q119 0 193 111t74 286v157l-218 -16q-117 -10 -183 -85.5t-66 -193.5q0 -122 57.5 -190.5t142.5 -68.5z" />
<glyph unicode="&#xc3;" horiz-adv-x="1320" d="M237 1446q-12 0 -21.5 9t-9.5 25q0 107 69.5 169t186.5 62q67 0 133 -26t109.5 -57t98.5 -57t102 -26q59 0 96.5 31t37.5 89q0 36 31 36q12 0 22 -10t10 -28q0 -102 -69 -164.5t-182 -62.5q-70 0 -137 26t-110.5 56.5t-98 56.5t-102.5 26q-62 0 -98.5 -33.5t-36.5 -87.5 q0 -16 -9 -25t-22 -9zM1273 120q23 0 23 -29q0 -36 -63 -73t-156 -37q-101 0 -159.5 57t-58.5 156v18q-49 -108 -142.5 -170.5t-234.5 -62.5q-168 0 -270 92.5t-102 240.5q0 172 127 264t381 109l230 13v371q0 115 -68 179t-213 64q-111 0 -194 -49t-83 -122q0 -21 16.5 -39 t33 -41t16.5 -57q0 -42 -30.5 -68t-71.5 -26q-46 0 -78.5 33.5t-32.5 99.5q0 136 126.5 231.5t341.5 95.5q252 0 388.5 -90.5t136.5 -259.5v-882q0 -66 45 -66q27 0 59 32q24 16 33 16zM581 84q119 0 193 111t74 286v157l-218 -16q-117 -10 -183 -85.5t-66 -193.5 q0 -122 57.5 -190.5t142.5 -68.5z" />
<glyph unicode="&#xc4;" horiz-adv-x="1320" d="M461 1436q-48 0 -81.5 32.5t-33.5 79.5q0 48 33.5 81.5t81.5 33.5q47 0 79.5 -33.5t32.5 -81.5q0 -46 -32.5 -79t-79.5 -33zM848 1436q-47 0 -81 33t-34 79q0 48 34 81.5t81 33.5q46 0 78.5 -33.5t32.5 -81.5q0 -47 -32.5 -79.5t-78.5 -32.5zM1273 120q23 0 23 -29 q0 -36 -63 -73t-156 -37q-101 0 -159.5 57t-58.5 156v18q-49 -108 -142.5 -170.5t-234.5 -62.5q-168 0 -270 92.5t-102 240.5q0 172 127 264t381 109l230 13v371q0 115 -68 179t-213 64q-111 0 -194.5 -49t-83.5 -122q0 -21 16.5 -39t33.5 -41t17 -57q0 -42 -30.5 -68 t-71.5 -26q-46 0 -78.5 33.5t-32.5 99.5q0 136 126.5 231.5t341.5 95.5q252 0 388.5 -90.5t136.5 -259.5v-882q0 -66 45 -66q27 0 59 32q24 16 33 16zM581 84q119 0 193 111t74 286v157l-218 -16q-117 -10 -183 -85.5t-66 -193.5q0 -122 57.5 -190.5t142.5 -68.5z" />
<glyph unicode="&#xc5;" horiz-adv-x="1320" d="M654 1426q-92 0 -158 64.5t-66 155.5q0 90 66 154t158 64t157.5 -64t65.5 -154t-66 -155t-157 -65zM654 1800q-62 0 -106.5 -45t-44.5 -109q0 -65 44 -110.5t107 -45.5q62 0 106 46t44 110q0 62 -44.5 108t-105.5 46zM1273 120q23 0 23 -29q0 -36 -63 -73t-156 -37 q-101 0 -159.5 57t-58.5 156v18q-49 -108 -142.5 -170.5t-234.5 -62.5q-168 0 -270 92.5t-102 240.5q0 172 127 264t381 109l230 13v371q0 115 -68 179t-213 64q-111 0 -194 -49t-83 -122q0 -21 16.5 -39t33 -41t16.5 -57q0 -42 -30.5 -68t-71.5 -26q-46 0 -78.5 33.5 t-32.5 99.5q0 136 126.5 231.5t341.5 95.5q252 0 388.5 -90.5t136.5 -259.5v-882q0 -66 45 -66q27 0 59 32q24 16 33 16zM581 84q119 0 193 111t74 286v157l-218 -16q-117 -10 -183 -85.5t-66 -193.5q0 -122 57.5 -190.5t142.5 -68.5z" />
<glyph unicode="&#xc6;" horiz-adv-x="1959" d="M1025 1350h847v-364q0 -14 -9 -22.5t-22 -8.5t-21.5 9t-8.5 22v35q0 113 -66 190.5t-186 77.5h-294q-29 0 -47 -19t-18 -45v-476h94q114 0 161.5 43t47.5 140v9q0 13 9 22t22 9t22 -9t9 -22v-448q0 -13 -9 -22t-22 -9t-22 10t-9 26v10q0 93 -47 135t-162 42h-94v-561 q0 -26 18 -44.5t47 -18.5h297q115 0 183.5 82t68.5 187v28q0 14 9 22.5t22 8.5t21 -8.5t8 -22.5v-358h-1064q-14 0 -22.5 9t-8.5 22t9 21.5t22 8.5h37q29 0 47 18.5t18 44.5v287h-460l-195 -279q-18 -27 -4.5 -49t45.5 -22h82q13 0 22 -9t9 -22t-9 -21.5t-22 -8.5h-346 q-13 0 -22 8.5t-9 21.5t9 22t22 9h34q37 0 60.5 17.5t48.5 53.5zM912 470v601l-419 -601h419z" />
<glyph unicode="&#xc7;" horiz-adv-x="1372" d="M1245 312q13 0 21.5 -9t7.5 -22q-8 -49 -76 -118q-142 -162 -375 -181l-18 -95q103 -16 156 -62.5t53 -119.5q0 -89 -72.5 -143t-172.5 -54q-87 0 -153 38q-38 20 -38 50q0 12 8.5 20t22.5 8q9 0 50.5 -19t84.5 -19q55 0 88.5 32.5t33.5 82.5t-37.5 87.5t-108.5 41.5 l31 149q-125 2 -232 37.5t-186 98t-135 148.5t-84 190t-28 221q0 204 85 362t241.5 246t358.5 88q225 0 365.5 -101t140.5 -242q0 -83 -40.5 -127t-96.5 -44q-49 0 -85.5 32t-36.5 85q0 28 14 53t30 40t30 36t14 41q0 63 -84 111.5t-209 48.5q-68 0 -126.5 -19t-112 -65 t-91 -116.5t-60 -180t-22.5 -248.5q0 -282 110.5 -446t310.5 -164q125 0 225.5 59t152.5 151q23 38 45 38z" />
<glyph unicode="&#xc8;" horiz-adv-x="1482" d="M500 1658q-44 32 -28 77q14 37 51 46q43 11 80 -33l224 -263q19 -23 2.5 -39t-39.5 1zM1396 715q0 -29 -16 -40t-51 -11h-928q4 -614 403 -614q91 0 170 24.5t132 60.5t96 84t66 86t38 76q11 27 31 27q25 0 25 -28q0 -14 -13.5 -46.5t-40 -78.5t-73.5 -93.5t-107 -89 t-149 -67.5t-190 -26q-167 0 -301.5 54t-221.5 148.5t-133.5 221t-46.5 274.5q0 147 44 273t125.5 219.5t206.5 146.5t279 53q309 0 482 -178t173 -476zM402 719l679 -2q0 110 -8 193.5t-30.5 161t-60 127t-98 79t-143.5 29.5q-66 0 -118.5 -20.5t-88.5 -60t-61.5 -91 t-40.5 -120t-22 -139.5t-8 -157z" />
<glyph unicode="&#xc9;" horiz-adv-x="1482" d="M657 1452q-23 -17 -39.5 -1t2.5 39l223 263q42 50 91 29q36 -15 43 -53q6 -39 -31 -66zM1396 715q0 -29 -16 -40t-51 -11h-928q4 -614 403 -614q91 0 170 24.5t132 60.5t96 84t66 86t38 76q11 27 31 27q25 0 25 -28q0 -14 -13.5 -46.5t-40 -78.5t-73.5 -93.5t-107 -89 t-149 -67.5t-190 -26q-167 0 -301.5 54t-221.5 148.5t-133.5 221t-46.5 274.5q0 147 44 273t125.5 219.5t206.5 146.5t279 53q309 0 482 -178t173 -476zM402 719l678 -2q0 110 -8 193.5t-30.5 161t-59.5 127t-97.5 79t-143.5 29.5q-66 0 -118.5 -20.5t-88.5 -60t-61.5 -91 t-40.5 -120t-22 -139.5t-8 -157z" />
<glyph unicode="&#xca;" horiz-adv-x="1482" d="M579 1448q-14 -18 -35.5 -17t-30.5 16t0 36l144 249q33 56 87 56t87 -56l145 -249q10 -23 -1.5 -38t-32 -14t-33.5 17l-164 197zM1396 715q0 -29 -16 -40t-51 -11h-928q4 -614 403 -614q91 0 170 24.5t132 60.5t96 84t66 86t38 76q11 27 31 27q25 0 25 -28 q0 -14 -13.5 -46.5t-40 -78.5t-73.5 -93.5t-107 -89t-149 -67.5t-190 -26q-167 0 -301.5 54t-221.5 148.5t-133.5 221t-46.5 274.5q0 147 44 273t125.5 219.5t206.5 146.5t279 53q309 0 482 -178t173 -476zM402 719l679 -2q0 110 -8 193.5t-30.5 161t-60 127t-98 79 t-143.5 29.5q-66 0 -118.5 -20.5t-88.5 -60t-61.5 -91t-40.5 -120t-22 -139.5t-8 -157z" />
<glyph unicode="&#xcb;" horiz-adv-x="1482" d="M548 1436q-48 0 -81.5 32.5t-33.5 79.5q0 48 33.5 81.5t81.5 33.5q47 0 79.5 -33.5t32.5 -81.5q0 -46 -33 -79t-79 -33zM934 1436q-47 0 -80.5 33t-33.5 79q0 48 33.5 81.5t80.5 33.5t79.5 -33.5t32.5 -81.5q0 -46 -33 -79t-79 -33zM1396 715q0 -29 -16 -40t-51 -11h-928 q4 -614 403 -614q91 0 170 24.5t132 60.5t96 84t66 86t38 76q11 27 31 27q25 0 25 -28q0 -14 -13.5 -46.5t-40 -78.5t-73.5 -93.5t-107 -89t-149 -67.5t-190 -26q-167 0 -301.5 54t-221.5 148.5t-133.5 221t-46.5 274.5q0 147 44 273t125.5 219.5t206.5 146.5t279 53 q309 0 482 -178t173 -476zM402 719l679 -2q0 110 -8 193.5t-30.5 161t-60 127t-98 79t-143.5 29.5q-66 0 -118.5 -20.5t-88.5 -60t-61.5 -91t-40.5 -120t-22 -139.5t-8 -157z" />
<glyph unicode="&#xcc;" horiz-adv-x="651" d="M376 1447l-290 211q-44 32 -28 77q14 37 51 46q43 11 80 -33l224 -263q19 -23 2.5 -39t-39.5 1zM572 61q13 0 22 -8.5t9 -21.5t-8.5 -22t-22.5 -9h-492q-14 0 -22.5 9t-8.5 22t9 21.5t22 8.5h37q28 0 46.5 16.5t18.5 40.5v1113q0 23 -18.5 40.5t-46.5 17.5h-37 q-13 0 -22 8.5t-9 21.5t8.5 22t22.5 9h492q14 0 22.5 -9t8.5 -22t-9 -21.5t-22 -8.5h-37q-28 0 -46.5 -17.5t-18.5 -40.5v-1111q0 -24 18.5 -41.5t46.5 -17.5h37z" />
<glyph unicode="&#xcd;" horiz-adv-x="651" d="M243 1452q-23 -17 -39.5 -1t2.5 39l224 263q42 49 90 30q35 -15 42 -52q8 -40 -30 -68zM572 60q14 0 22.5 -8t8.5 -21t-8.5 -22t-22.5 -9h-492q-14 0 -22.5 9t-8.5 22t8.5 21t22.5 8h37q28 0 46.5 17t18.5 41v1113q0 23 -18.5 40.5t-46.5 17.5h-37q-13 0 -22 8.5t-9 21.5 t8.5 22t22.5 9h492q14 0 22.5 -9t8.5 -22t-9 -21.5t-22 -8.5h-37q-28 0 -46.5 -17.5t-18.5 -40.5v-1111q0 -24 18.5 -42t46.5 -18h37z" />
<glyph unicode="&#xce;" horiz-adv-x="651" d="M562 1483q10 -23 -1.5 -38t-32 -14t-33.5 17l-164 197l-166 -197q-14 -18 -35.5 -17t-30.5 16t0 36l144 249q33 56 87 56t87 -56zM572 61q13 0 22 -8.5t9 -21.5t-8.5 -22t-22.5 -9h-492q-14 0 -22.5 9t-8.5 22t9 21.5t22 8.5h37q28 0 46.5 16.5t18.5 40.5v1113 q0 23 -18.5 40.5t-46.5 17.5h-37q-13 0 -22 8.5t-9 21.5t8.5 22t22.5 9h492q14 0 22.5 -9t8.5 -22t-9 -21.5t-22 -8.5h-37q-28 0 -46.5 -17.5t-18.5 -40.5v-1111q0 -24 18.5 -41.5t46.5 -17.5h37z" />
<glyph unicode="&#xcf;" horiz-adv-x="651" d="M19 1548q0 48 33.5 81.5t81.5 33.5q47 0 79.5 -33.5t32.5 -81.5q0 -46 -33 -79t-79 -33q-48 0 -81.5 32.5t-33.5 79.5zM406 1548q0 48 33.5 81.5t80.5 33.5t79.5 -33.5t32.5 -81.5q0 -46 -33 -79t-79 -33q-47 0 -80.5 33t-33.5 79zM572 61q13 0 22 -8.5t9 -21.5t-8.5 -22 t-22.5 -9h-492q-14 0 -22.5 9t-8.5 22t9 21.5t22 8.5h37q28 0 46.5 16.5t18.5 40.5v1113q0 23 -18.5 40.5t-46.5 17.5h-37q-13 0 -22 8.5t-9 21.5t8.5 22t22.5 9h492q14 0 22.5 -9t8.5 -22t-9 -21.5t-22 -8.5h-37q-28 0 -46.5 -17.5t-18.5 -40.5v-1111q0 -24 18.5 -41.5 t46.5 -17.5h37z" />
<glyph unicode="&#xd0;" horiz-adv-x="1480" d="M612 1350q186 0 328.5 -35t250 -111.5t164 -207t56.5 -312.5q0 -147 -53 -271.5t-152 -216.5t-251.5 -144t-342.5 -52h-532q-14 0 -22.5 9t-8.5 22t9 21.5t22 8.5h37q28 0 46.5 17t18.5 40v553h-102q-14 0 -22.5 8.5t-8.5 22.5q0 13 8.5 21t22.5 8h102v500 q0 23 -18.5 40.5t-46.5 17.5h-37q-13 0 -22 8.5t-9 21.5t8.5 22t22.5 9h532zM612 61q103 0 190 38.5t153 113.5t103 195.5t37 275.5q0 310 -126.5 457.5t-356.5 147.5h-77q-28 0 -46.5 -17.5t-18.5 -40.5v-500h328q14 0 22.5 -8.5t8.5 -22.5q0 -13 -8.5 -21t-22.5 -8h-328 v-551q0 -24 18.5 -41.5t46.5 -17.5h77z" />
<glyph unicode="&#xd1;" horiz-adv-x="1509" d="M448 1446q-12 0 -21.5 9t-9.5 25q0 107 69.5 169t185.5 62q67 0 133 -26t109.5 -57t98.5 -57t102 -26q59 0 96.5 31t37.5 89q0 36 31 36q12 0 22 -10t10 -28q0 -102 -69 -164.5t-182 -62.5q-70 0 -137 26t-110.5 56.5t-98 56.5t-102.5 26q-62 0 -98 -33t-36 -88 q0 -16 -9 -25t-22 -9zM1430 60q14 0 22.5 -8t8.5 -21t-8.5 -22t-22.5 -9h-492q-13 0 -22 8.5t-9 21.5q0 14 8.5 22.5t22.5 8.5h37q26 0 43 15t21 38v890q0 256 -197 256q-157 0 -264 -163t-107 -456v-517q0 -26 18 -44.5t47 -18.5h37q13 0 22 -8.5t9 -22.5q0 -13 -9 -21.5 t-22 -8.5h-493q-13 0 -22 8.5t-9 21.5q0 14 8.5 22.5t22.5 8.5h37q29 0 47 18.5t18 44.5v461h1v639q0 27 -18.5 46t-46.5 19h-38q-13 0 -22 8.5t-9 21.5t8.5 22t22.5 9h373v-373q60 197 187 295t302 98q59 0 111.5 -11t103.5 -39t88 -71t59.5 -112t22.5 -157v-856 q0 -26 18 -45t47 -19h38z" />
<glyph unicode="&#xd2;" d="M824 1447l-290 211q-44 32 -28 77q14 37 51 46q43 11 80 -33l224 -263q19 -23 2.5 -39t-39.5 1zM776 1369q155 0 285.5 -53.5t219 -146t137.5 -219.5t49 -273t-49 -274t-137.5 -222t-219 -148t-285.5 -54q-156 0 -286.5 54t-218 148t-136.5 222t-49 274q0 117 30.5 222 t90.5 190.5t142.5 148.5t192 97t234.5 34zM776 41q103 0 178 50t117 140t61 200t19 246t-19 245t-61 198t-117 138t-178 49t-178 -49t-117 -138t-61 -198t-19 -245t19 -246t61 -200t117 -140t178 -50z" />
<glyph unicode="&#xd3;" d="M691 1452q-23 -17 -40 -1t2 39l224 263q42 50 91 29q36 -15 43 -53q6 -39 -31 -66zM776 1369q155 0 285.5 -53.5t219 -146t137.5 -219.5t49 -273t-49 -274t-137.5 -222t-219 -148t-285.5 -54q-156 0 -286.5 54t-218 148t-136.5 222t-49 274q0 117 30.5 222t90.5 190.5 t142.5 148.5t192 97t234.5 34zM776 41q103 0 178 50t117 140t61 200t19 246t-19 245t-61 198t-117 138t-178 49t-178 -49t-117 -138t-61 -198t-19 -245t19 -246t61 -200t117 -140t178 -50z" />
<glyph unicode="&#xd4;" d="M1010 1483q10 -23 -1.5 -38t-32 -14t-33.5 17l-165 197l-165 -197q-14 -18 -35.5 -17t-30.5 16t0 36l144 249q33 56 87 56t87 -56zM776 1369q155 0 285.5 -53.5t219 -146t137.5 -219.5t49 -273t-49 -274t-137.5 -222t-219 -148t-285.5 -54q-156 0 -286.5 54t-218 148 t-136.5 222t-49 274q0 117 30.5 222t90.5 190.5t142.5 148.5t192 97t234.5 34zM776 41q103 0 178 50t117 140t61 200t19 246t-19 245t-61 198t-117 138t-178 49t-178 -49t-117 -138t-61 -198t-19 -245t19 -246t61 -200t117 -140t178 -50z" />
<glyph unicode="&#xd5;" d="M972 1436q-70 0 -137 26t-110.5 56.5t-98 56.5t-102.5 26q-62 0 -98.5 -33.5t-36.5 -87.5q0 -16 -9 -25.5t-22 -9.5q-12 0 -21.5 9.5t-9.5 25.5q0 107 69.5 169t185.5 62q67 0 133 -26t110 -57t99 -57t102 -26q60 0 97 31t37 89q0 36 31 36q12 0 21.5 -10t9.5 -28 q0 -102 -68.5 -164.5t-181.5 -62.5zM776 1369q155 0 285.5 -53.5t219 -146t137.5 -219.5t49 -273t-49 -274t-137.5 -222t-219 -148t-285.5 -54q-156 0 -286.5 54t-218 148t-136.5 222t-49 274q0 117 30.5 222t90.5 190.5t142.5 148.5t192 97t234.5 34zM776 41q103 0 178 50 t117 140t61 200t19 246t-19 245t-61 198t-117 138t-178 49t-178 -49t-117 -138t-61 -198t-19 -245t19 -246t61 -200t117 -140t178 -50z" />
<glyph unicode="&#xd6;" d="M467 1548q0 48 33.5 81.5t81.5 33.5q47 0 79.5 -33.5t32.5 -81.5q0 -46 -33 -79t-79 -33q-48 0 -81.5 32.5t-33.5 79.5zM853 1548q0 48 34 81.5t81 33.5t79.5 -33.5t32.5 -81.5q0 -46 -33 -79t-79 -33q-47 0 -81 33t-34 79zM776 1369q155 0 285.5 -53.5t219 -146 t137.5 -219.5t49 -273t-49 -274t-137.5 -222t-219 -148t-285.5 -54q-156 0 -286.5 54t-218 148t-136.5 222t-49 274q0 117 30.5 222t90.5 190.5t142.5 148.5t192 97t234.5 34zM776 41q103 0 178 50t117 140t61 200t19 246t-19 245t-61 198t-117 138t-178 49t-178 -49 t-117 -138t-61 -198t-19 -245t19 -246t61 -200t117 -140t178 -50z" />
<glyph unicode="&#xd7;" horiz-adv-x="712" d="M625 277q22 -22 0 -44q-9 -9 -21 -8.5t-22 10.5l-34 34l-192 192v0l-64 -64l-7 -7l-108 -108l-60 -59q-21 -21 -43 0q-21 21 1 43l59 59l115 115l64 64l-65 64l-7 7v1l-107 107l-60 60q-22 21 0 43q21 21 43 -1l7 -7l232 -231l192 192l35 35q22 22 44 0q21 -21 -1 -43 l-60 -59l-107 -108l-60 -59v-1z" />
<glyph unicode="&#xd8;" d="M943 1352q241 -51 382.5 -235.5t141.5 -439.5q0 -146 -49 -274t-137.5 -222t-219 -148t-285.5 -54q-62 0 -121 9l-23 -109h-61l25 120q-236 55 -373 240.5t-137 437.5q0 117 30.5 222t90.5 190.5t142.5 148.5t192 97t234.5 34q46 0 106 -7l27 127h63zM401 677 q0 -471 213 -595l254 1214q-44 11 -92 11q-103 0 -178 -49t-117 -138t-61 -198t-19 -245zM776 41q103 0 178 50t117 140t61 200t19 246q0 483 -225 597l-257 -1217q51 -16 107 -16z" />
<glyph unicode="&#xd9;" horiz-adv-x="1509" d="M500 1658q-43 31 -28 76q12 36 48 46q44 13 82 -32l224 -263q19 -23 2.5 -39t-39.5 1zM1429 61q13 0 22 -8.5t9 -21.5t-9 -22t-22 -9h-373v372q-60 -197 -187 -295t-302 -98q-59 0 -111.5 11t-103.5 39.5t-88 71.5t-59.5 112t-22.5 157v855q0 26 -18 45t-47 19h-37 q-13 0 -22 8.5t-9 21.5t8.5 22t22.5 9h390v-1005q0 -128 48 -191.5t149 -63.5q75 0 141.5 40t118.5 115.5t82 195t30 267.5v517q0 26 -18 45t-47 19h-38q-14 0 -22.5 8.5t-8.5 22.5q0 13 9 21.5t22 8.5h391v-1224q0 -27 18.5 -46t46.5 -19h37z" />
<glyph unicode="&#xda;" horiz-adv-x="1509" d="M656 1452q-23 -17 -39.5 -1t2.5 39l224 263q42 50 91 29q36 -15 43 -53q6 -39 -31 -66zM1429 60q14 0 22.5 -8t8.5 -21t-9 -22t-22 -9h-373v372q-60 -197 -187 -295t-302 -98q-59 0 -111.5 11t-103.5 39.5t-88 71.5t-59.5 112t-22.5 157v855q0 26 -18 45t-47 19h-37 q-13 0 -22 8.5t-9 21.5t8.5 22t22.5 9h390v-1005q0 -128 48 -191.5t149 -63.5q75 0 141.5 40t118.5 115.5t82 195t30 267.5v517q0 26 -18 45t-47 19h-38q-14 0 -22.5 8.5t-8.5 22.5q0 13 9 21.5t22 8.5h391v-1224q0 -27 19 -46.5t46 -19.5h37z" />
<glyph unicode="&#xdb;" horiz-adv-x="1509" d="M579 1448q-17 -16 -36.5 -16.5t-30.5 15.5t0 36l145 249q33 56 87 56t87 -56l144 -249q10 -23 -1 -38t-31.5 -14t-33.5 17l-165 197zM1429 61q13 0 22 -8.5t9 -21.5t-9 -22t-22 -9h-373v372q-60 -197 -187 -295t-302 -98q-59 0 -111.5 11t-103.5 39.5t-88 71.5t-59.5 112 t-22.5 157v855q0 26 -18 45t-47 19h-37q-13 0 -22 8.5t-9 21.5t8.5 22t22.5 9h390v-1005q0 -128 48 -191.5t149 -63.5q75 0 141.5 40t118.5 115.5t82 195t30 267.5v517q0 26 -18 45t-47 19h-37q-13 0 -22 8.5t-9 22.5q0 13 9 21.5t22 8.5h390v-1224q0 -27 18.5 -46t46.5 -19 h37z" />
<glyph unicode="&#xdc;" horiz-adv-x="1509" d="M547 1436q-48 0 -81.5 32.5t-33.5 79.5q0 48 33.5 81.5t81.5 33.5q47 0 79.5 -33.5t32.5 -81.5q0 -46 -32.5 -79t-79.5 -33zM934 1436q-47 0 -81 33t-34 79q0 48 34 81.5t81 33.5t79.5 -33.5t32.5 -81.5q0 -46 -33 -79t-79 -33zM1429 61q13 0 22 -8.5t9 -21.5t-9 -22 t-22 -9h-373v372q-60 -197 -187 -295t-302 -98q-59 0 -111.5 11t-103.5 39.5t-88 71.5t-59.5 112t-22.5 157v855q0 26 -18 45t-47 19h-37q-13 0 -22 8.5t-9 21.5t8.5 22t22.5 9h390v-1005q0 -128 48 -191.5t149 -63.5q75 0 141.5 40t118.5 115.5t82 195t30 267.5v517 q0 26 -18 45t-47 19h-37q-13 0 -22 8.5t-9 22.5q0 13 9 21.5t22 8.5h390v-1224q0 -27 18.5 -46t46.5 -19h37z" />
<glyph unicode="&#xdd;" horiz-adv-x="1302" d="M654 1452q-23 -17 -39.5 -1t2.5 39l224 263q42 50 91 29q36 -15 43 -53q6 -39 -31 -66zM1269 1350q13 0 21.5 -8.5t8.5 -21.5t-8.5 -22t-21.5 -9h-36q-29 0 -55.5 -16.5t-40.5 -42.5l-330 -620v-486q0 -26 18 -45t47 -19h37q14 0 22.5 -8t8.5 -21t-9 -22t-22 -9h-492 q-13 0 -22 9t-9 22t8.5 21t22.5 8h37q29 0 47 19t18 45v420l-372 686q-16 29 -33.5 44t-46.5 15h-33q-14 0 -22.5 8.5t-8.5 22.5q0 13 9 21.5t22 8.5h516q13 0 21 -8.5t8 -21.5q0 -14 -8 -22.5t-21 -8.5h-34q-35 0 -47 -15.5t3 -43.5l295 -551l289 551q12 22 -1 40.5 t-43 18.5h-30q-14 0 -22.5 8.5t-8.5 22.5q0 13 9 21.5t22 8.5h287z" />
<glyph unicode="&#xde;" horiz-adv-x="1275" d="M673 1089q269 0 412.5 -110.5t143.5 -285.5q0 -191 -143.5 -310t-412.5 -119h-203v-144q0 -24 18.5 -41.5t46.5 -17.5h37q13 0 22 -8.5t9 -21.5t-8.5 -22t-22.5 -9h-492q-14 0 -22.5 9t-8.5 22t9 21.5t22 8.5h37q28 0 46.5 16.5t18.5 40.5v1113q0 23 -18.5 40.5 t-46.5 17.5h-37q-13 0 -22 8.5t-9 21.5t8.5 22t22.5 9h492q14 0 22.5 -9t8.5 -22t-9 -21.5t-22 -8.5h-37q-28 0 -46.5 -17.5t-18.5 -40.5v-142h203zM609 325q149 0 229 99.5t80 268.5q0 150 -75.5 243t-233.5 93h-139v-704h139z" />
<glyph unicode="&#xdf;" horiz-adv-x="1396" d="M868 833q0 -40 25 -75.5t65 -64t88 -57.5t96 -62.5t88 -72t65 -92.5t25 -117q0 -145 -115.5 -229t-283.5 -84q-161 0 -259 78.5t-98 221.5q0 62 34.5 96.5t81.5 34.5q40 0 68.5 -26.5t28.5 -72.5q0 -35 -40.5 -80t-40.5 -75q0 -57 54 -87.5t143 -30.5q102 0 156 51 t54 142q0 38 -22 73t-57.5 63.5t-78 57t-85.5 59.5t-78.5 65.5t-57.5 81.5t-22 100q0 64 26 120.5t62.5 98.5t73 83t62.5 93t26 109q0 93 -69 153t-185 60q-118 0 -187.5 -75t-69.5 -200v-1047q0 -27 18.5 -46t46.5 -19h37q13 0 22 -8.5t9 -21.5t-9 -22t-22 -9h-457 q-14 0 -22.5 9t-8.5 22t9 21.5t22 8.5h37q28 0 47 19t19 46v737h-103q-14 0 -22.5 8.5t-8.5 22.5q0 13 9 21.5t22 8.5h103v159q0 199 130 316t365 117q160 0 254.5 -76.5t94.5 -198.5q0 -61 -17 -112t-41.5 -85.5t-48.5 -65.5t-41 -67.5t-17 -77.5z" />
<glyph unicode="&#xe0;" horiz-adv-x="1159" d="M315 1368q-44 32 -28 78q13 36 50 45q44 12 81 -32l224 -264q19 -23 2.5 -39t-39.5 1zM1121 120q11 0 17.5 -8t6.5 -21q0 -35 -58 -72.5t-137 -37.5q-102 0 -153.5 57.5t-53.5 155.5q-32 -89 -112 -152t-212 -63q-126 0 -201 70.5t-75 171.5q0 59 20 103.5t67.5 82.5 t132.5 62t208 33l162 10v166q0 106 -56 156.5t-155 50.5q-106 0 -157.5 -27.5t-51.5 -72.5q0 -21 16.5 -39t33 -41t16.5 -57q0 -42 -30.5 -68t-71.5 -26q-46 0 -78.5 33.5t-32.5 99.5q0 51 21 94.5t66 80.5t125.5 58.5t188.5 21.5q121 0 205.5 -23t129.5 -66t64 -95.5 t19 -121.5v-506q0 -58 44 -58q28 0 60 32q24 16 32 16zM530 88q96 0 149 97.5t54 273.5l-156 -12q-83 -7 -130 -58t-47 -127q0 -92 33 -133t97 -41z" />
<glyph unicode="&#xe1;" horiz-adv-x="1159" d="M509 1157q-23 -17 -39.5 -1t2.5 39l224 264q42 49 90 30q36 -15 43 -53q7 -41 -31 -68zM1121 120q11 0 17.5 -8t6.5 -21q0 -35 -58 -72.5t-137 -37.5q-102 0 -153.5 57.5t-53.5 155.5q-32 -89 -112 -152t-212 -63q-126 0 -201 70.5t-75 171.5q0 59 20 103.5t67.5 82.5 t132.5 62t208 33l162 10v166q0 106 -56 156.5t-155 50.5q-106 0 -157.5 -27.5t-51.5 -72.5q0 -21 16.5 -39t33 -41t16.5 -57q0 -42 -30.5 -68t-71.5 -26q-46 0 -78.5 33.5t-32.5 99.5q0 51 21 94.5t66 80.5t125.5 58.5t188.5 21.5q121 0 205.5 -23t129.5 -66t64 -95.5 t19 -121.5v-506q0 -58 44 -58q28 0 60 32q24 16 32 16zM530 88q96 0 149 97.5t54 273.5l-156 -12q-83 -7 -130 -58t-47 -127q0 -92 33 -133t97 -41z" />
<glyph unicode="&#xe2;" horiz-adv-x="1159" d="M383 1165q-17 -16 -36.5 -16.5t-30.5 15.5t0 36l145 250q33 56 87 56t87 -56l144 -250q10 -23 -1 -38t-31.5 -14t-33.5 17l-165 197zM1121 120q11 0 17.5 -8t6.5 -21q0 -35 -58 -72.5t-137 -37.5q-102 0 -153.5 57.5t-53.5 155.5q-32 -89 -112 -152t-212 -63 q-126 0 -201 70.5t-75 171.5q0 59 20 103.5t67.5 82.5t132.5 62t208 33l162 10v166q0 106 -56 156.5t-155 50.5q-106 0 -157.5 -27.5t-51.5 -72.5q0 -21 16.5 -39t33 -41t16.5 -57q0 -42 -30.5 -68t-71.5 -26q-46 0 -78.5 33.5t-32.5 99.5q0 51 21 94.5t66 80.5t125.5 58.5 t188.5 21.5q121 0 205.5 -23t129.5 -66t64 -95.5t19 -121.5v-506q0 -58 44 -58q28 0 60 32q24 16 32 16zM530 88q96 0 149 97.5t54 273.5l-156 -12q-83 -7 -130 -58t-47 -127q0 -92 33 -133t97 -41z" />
<glyph unicode="&#xe3;" horiz-adv-x="1159" d="M163 1199q0 -16 -9 -25.5t-22 -9.5q-12 0 -21.5 9.5t-9.5 25.5q0 107 69 168.5t186 61.5q67 0 133 -26t110 -56.5t99 -56.5t102 -26q60 0 97 31t37 89q0 36 31 36q12 0 21.5 -10t9.5 -28q0 -102 -68.5 -164.5t-181.5 -62.5q-70 0 -137 26t-110.5 56.5t-98 56.5t-102.5 26 q-62 0 -98.5 -33.5t-36.5 -87.5zM1121 120q11 0 17.5 -8t6.5 -21q0 -35 -58 -72.5t-137 -37.5q-102 0 -153.5 57.5t-53.5 155.5q-32 -89 -112 -152t-212 -63q-126 0 -201 70.5t-75 171.5q0 59 20 103.5t67.5 82.5t132.5 62t208 33l162 10v166q0 106 -56 156.5t-155 50.5 q-106 0 -157.5 -27.5t-51.5 -72.5q0 -21 16.5 -39t33 -41t16.5 -57q0 -42 -30.5 -68t-71.5 -26q-46 0 -78.5 33.5t-32.5 99.5q0 51 21 94.5t66 80.5t125.5 58.5t188.5 21.5q121 0 205.5 -23t129.5 -66t64 -95.5t19 -121.5v-506q0 -58 44 -58q28 0 60 32q24 16 32 16zM530 88 q96 0 149 97.5t54 273.5l-156 -12q-83 -7 -130 -58t-47 -127q0 -92 33 -133t97 -41z" />
<glyph unicode="&#xe4;" horiz-adv-x="1159" d="M357 1151q-48 0 -81.5 32.5t-33.5 79.5q0 48 33.5 81.5t81.5 33.5q47 0 79.5 -33.5t32.5 -81.5q0 -47 -32.5 -79.5t-79.5 -32.5zM743 1151q-47 0 -80.5 33t-33.5 79q0 48 33.5 81.5t80.5 33.5t79.5 -33.5t32.5 -81.5q0 -47 -32.5 -79.5t-79.5 -32.5zM1121 120 q11 0 17.5 -8t6.5 -21q0 -35 -58 -72.5t-137 -37.5q-102 0 -153.5 57.5t-53.5 155.5q-32 -89 -112 -152t-212 -63q-126 0 -201 70.5t-75 171.5q0 59 20 103.5t67.5 82.5t132.5 62t208 33l162 10v166q0 106 -56 156.5t-155 50.5q-106 0 -157.5 -27.5t-51.5 -72.5 q0 -21 16.5 -39t33 -41t16.5 -57q0 -42 -30.5 -68t-71.5 -26q-46 0 -78.5 33.5t-32.5 99.5q0 51 21 94.5t66 80.5t125.5 58.5t188.5 21.5q121 0 205.5 -23t129.5 -66t64 -95.5t19 -121.5v-506q0 -58 44 -58q28 0 60 32q24 16 32 16zM530 88q96 0 149 97.5t54 273.5l-156 -12 q-83 -7 -130 -58t-47 -127q0 -92 33 -133t97 -41z" />
<glyph unicode="&#xe5;" horiz-adv-x="1159" d="M548 1115q-92 0 -158 64.5t-66 155.5q0 90 66 154t158 64t157 -64t65 -154q0 -91 -65.5 -155.5t-156.5 -64.5zM548 1488q-62 0 -106.5 -44.5t-44.5 -108.5q0 -65 44 -110.5t107 -45.5q62 0 105.5 46t43.5 110q0 62 -44 107.5t-105 45.5zM1121 120q11 0 17.5 -8t6.5 -21 q0 -35 -58 -72.5t-137 -37.5q-102 0 -153.5 57.5t-53.5 155.5q-32 -89 -112 -152t-212 -63q-126 0 -201 70.5t-75 171.5q0 59 20 103.5t67.5 82.5t132.5 62t208 33l162 10v166q0 106 -56 156.5t-155 50.5q-106 0 -157.5 -27.5t-51.5 -72.5q0 -21 16.5 -39t33 -41t16.5 -57 q0 -42 -30.5 -68t-71.5 -26q-46 0 -78.5 33.5t-32.5 99.5q0 51 21 94.5t66 80.5t125.5 58.5t188.5 21.5q121 0 205.5 -23t129.5 -66t64 -95.5t19 -121.5v-506q0 -58 44 -58q28 0 60 32q24 16 32 16zM530 88q96 0 149 97.5t54 273.5l-156 -12q-83 -7 -130 -58t-47 -127 q0 -92 33 -133t97 -41z" />
<glyph unicode="&#xe6;" horiz-adv-x="1835" d="M1291 942q224 0 344 -116.5t120 -312.5q0 -29 -15.5 -39.5t-50.5 -10.5h-638q0 -117 31 -206.5t100 -144.5t170 -55q66 0 122 20t96 54t67 72t44 81q11 28 31 28q27 0 25 -29q-2 -20 -16.5 -53.5t-48 -78t-79.5 -82t-119.5 -64t-159.5 -26.5q-114 0 -211.5 33t-174 105.5 t-110.5 177.5q-36 -146 -136.5 -231t-247.5 -85q-136 0 -214.5 74.5t-78.5 177.5q0 84 40 140.5t137 91t257 42.5l217 10v163q0 53 -23.5 94t-61.5 65t-81 36t-87 12q-91 0 -154 -31.5t-63 -74.5q0 -17 10.5 -32t22.5 -25.5t22.5 -31t10.5 -47.5q0 -42 -30.5 -68.5 t-70.5 -26.5q-46 0 -79 34t-33 100q0 107 99 183.5t293 76.5q261 0 377 -116q128 116 347 116zM1053 517h452q-9 369 -225 369q-100 0 -159.5 -97t-67.5 -272zM560 88q100 0 165.5 97.5t66.5 275.5l-193 -8q-102 -5 -149 -59.5t-47 -128.5q0 -83 42 -130t115 -47z" />
<glyph unicode="&#xe7;" horiz-adv-x="1093" d="M985 306q17 0 24 -13t3 -25q-9 -25 -22.5 -51.5t-47 -70t-74 -76t-108 -59t-146.5 -31.5l-18 -93q103 -16 156.5 -62.5t53.5 -119.5q0 -89 -73 -143t-173 -54q-87 0 -153 38q-38 20 -38 50q0 12 8.5 20t22.5 8q9 0 50.5 -19t84.5 -19q55 0 88.5 32.5t33.5 82.5 t-37.5 87.5t-108.5 41.5l32 150q-232 11 -349 142t-117 343q0 148 70 258t185 164.5t258 54.5q179 0 301.5 -93t122.5 -212q0 -79 -42 -123t-106 -44q-52 0 -86.5 38t-34.5 83q0 31 13.5 57t30 40.5t30 34.5t13.5 41q0 52 -68 86.5t-147 34.5q-63 0 -111.5 -20t-88 -66.5 t-60.5 -130.5t-21 -203q0 -415 284 -415q66 0 122.5 20.5t97 55.5t69 74t47.5 83q8 23 29 23z" />
<glyph unicode="&#xe8;" horiz-adv-x="1136" d="M624 1157l-289 211q-43 31 -28 76q11 36 47 47q45 13 83 -32l224 -264q19 -23 2.5 -39t-39.5 1zM599 942q226 0 341.5 -116t115.5 -313q0 -29 -15.5 -39.5t-50.5 -10.5h-654q0 -408 311 -408q67 0 124.5 20.5t98 55t68 72.5t44.5 81q11 28 31 28q27 0 25 -30 q-2 -20 -17 -53.5t-50 -77.5t-83 -82t-126 -64t-170 -26q-107 0 -198.5 29t-163 86.5t-112.5 152t-41 216.5q0 104 33 190.5t96.5 151t164 101t228.5 36.5zM337 517h469q-5 191 -56.5 280t-161.5 89q-113 0 -177.5 -96.5t-73.5 -272.5z" />
<glyph unicode="&#xe9;" horiz-adv-x="1136" d="M529 1157q-23 -17 -39.5 -1t2.5 39l223 264q42 50 91 29q36 -16 43 -54q6 -39 -31 -66zM599 942q226 0 341.5 -116t115.5 -313q0 -29 -15.5 -39.5t-50.5 -10.5h-654q0 -408 311 -408q67 0 124.5 20.5t98 55t68 72.5t44.5 81q11 28 31 28q27 0 25 -30q-2 -20 -17 -53.5 t-50 -77.5t-83 -82t-126 -64t-170 -26q-107 0 -198.5 29t-163 86.5t-112.5 152t-41 216.5q0 104 33 190.5t96.5 151t164 101t228.5 36.5zM337 517h469q-5 191 -56.5 280t-161.5 89q-113 0 -177.5 -96.5t-73.5 -272.5z" />
<glyph unicode="&#xea;" horiz-adv-x="1136" d="M799 1200q10 -23 -1 -38t-31.5 -14t-33.5 17l-165 197l-166 -197q-14 -18 -35.5 -17t-30.5 16t0 36l144 249q33 56 87.5 56t87.5 -56zM599 942q227 0 342.5 -116t115.5 -313q0 -29 -15.5 -39.5t-51.5 -10.5h-654q0 -408 311 -408q67 0 124.5 20.5t98 55t68 72.5t44.5 81 q11 28 31 28q27 0 25 -29q-2 -20 -17 -53.5t-50 -78t-83 -82t-126 -64t-170 -26.5q-107 0 -198.5 29t-163 86.5t-112.5 152t-41 216.5q0 104 33 190.5t96.5 151t164 101t228.5 36.5zM337 517h469q-5 191 -56.5 280t-161.5 89q-113 0 -177.5 -96.5t-73.5 -272.5z" />
<glyph unicode="&#xeb;" horiz-adv-x="1136" d="M262 1263q0 48 33.5 81.5t81.5 33.5q47 0 79.5 -33.5t32.5 -81.5q0 -47 -32.5 -79.5t-79.5 -32.5q-48 0 -81.5 32.5t-33.5 79.5zM648 1263q0 48 34 81.5t81 33.5t79.5 -33.5t32.5 -81.5q0 -47 -32.5 -79.5t-79.5 -32.5t-81 33t-34 79zM599 942q226 0 341.5 -116 t115.5 -313q0 -29 -15.5 -39.5t-50.5 -10.5h-654q0 -408 311 -408q67 0 124.5 20.5t98 55t68 72.5t44.5 81q11 28 31 28q27 0 25 -30q-2 -20 -17 -53.5t-50 -77.5t-83 -82t-126 -64t-170 -26q-107 0 -198.5 29t-163 86.5t-112.5 152t-41 216.5q0 104 33 190.5t96.5 151 t164 101t228.5 36.5zM337 517h469q-5 191 -56.5 280t-161.5 89q-113 0 -177.5 -96.5t-73.5 -272.5z" />
<glyph unicode="&#xec;" horiz-adv-x="614" d="M364 1157l-290 211q-44 32 -28 78q13 36 50 45q44 12 81 -32l224 -264q19 -23 2.5 -39t-39.5 1zM543 61q13 0 22 -8.5t9 -21.5t-9 -22t-22 -9h-457q-14 0 -22.5 9t-8.5 22t9 21.5t22 8.5h37q28 0 47 19t19 46v672q0 27 -19 46t-47 19h-37q-13 0 -22 8.5t-9 21.5t8.5 22 t22.5 9h355v-798q0 -27 18.5 -46t46.5 -19h37z" />
<glyph unicode="&#xed;" horiz-adv-x="614" d="M268 1157q-23 -17 -39.5 -1t2.5 39l224 264q42 50 91 29q36 -16 43 -54q6 -39 -31 -66zM543 60q14 0 22.5 -8t8.5 -21t-9 -22t-22 -9h-457q-14 0 -22.5 9t-8.5 22t8.5 21t22.5 8h37q28 0 47 19.5t19 46.5v672q0 27 -19 46t-47 19h-37q-13 0 -22 8.5t-9 21.5t8.5 22 t22.5 9h355v-798q0 -27 19 -46.5t46 -19.5h37z" />
<glyph unicode="&#xee;" horiz-adv-x="614" d="M538 1200q10 -23 -1 -38t-31.5 -14t-33.5 17l-165 197l-165 -197q-17 -16 -36.5 -16.5t-30.5 15.5t0 36l145 249q33 56 87 56t87 -56zM543 61q13 0 22 -8.5t9 -21.5t-9 -22t-22 -9h-457q-14 0 -22.5 9t-8.5 22t9 21.5t22 8.5h37q28 0 47 19t19 46v672q0 27 -19 46t-47 19 h-37q-13 0 -22 8.5t-9 21.5t8.5 22t22.5 9h355v-798q0 -27 18.5 -46t46.5 -19h37z" />
<glyph unicode="&#xef;" horiz-adv-x="614" d="M1 1263q0 48 33.5 81.5t81.5 33.5q47 0 79.5 -33.5t32.5 -81.5q0 -47 -33 -79.5t-79 -32.5q-48 0 -81.5 32.5t-33.5 79.5zM388 1263q0 48 34 81.5t81 33.5q46 0 78.5 -33.5t32.5 -81.5q0 -47 -32.5 -79.5t-78.5 -32.5q-47 0 -81 33t-34 79zM543 61q13 0 22 -8.5t9 -21.5 t-9 -22t-22 -9h-457q-14 0 -22.5 9t-8.5 22t9 21.5t22 8.5h37q28 0 47 19t19 46v672q0 27 -19 46t-47 19h-37q-13 0 -22 8.5t-9 21.5t8.5 22t22.5 9h355v-798q0 -27 18.5 -46t46.5 -19h37z" />
<glyph unicode="&#xf0;" horiz-adv-x="1185" d="M685 1386q111 -55 194 -136t132.5 -178.5t73 -204t23.5 -223.5q0 -158 -42.5 -286t-117 -210t-172 -125.5t-210.5 -43.5q-98 0 -185.5 31t-155.5 89.5t-108 151.5t-40 208q0 110 35.5 202.5t95 153t136 94t159.5 33.5q115 0 192 -48.5t136 -143.5q-43 377 -240 541 l-131 -130l-7 -7q-22 -22 -44 0q-21 21 1 43l131 130q-153 100 -391 100q-15 0 -25 8.5t-10 22.5q0 15 10 25t25 10q277 0 476 -81l125 125q22 22 44 0q21 -21 -1 -42zM575 35q77 0 138 58t94 159t33 225q0 163 -80.5 276.5t-182.5 113.5q-53 0 -91 -18t-68 -62.5t-45 -126 t-15 -201.5q0 -107 14 -186.5t35 -124t51.5 -71t57.5 -34.5t59 -8z" />
<glyph unicode="&#xf1;" horiz-adv-x="1300" d="M836 1155q-70 0 -137 26t-110.5 56.5t-98 56.5t-102.5 26q-62 0 -98.5 -33.5t-36.5 -87.5q0 -16 -9 -25.5t-22 -9.5q-12 0 -21.5 9.5t-9.5 25.5q0 107 69.5 169t185.5 62q67 0 133 -26t110 -57t99 -57t102 -26q60 0 97 31t37 89q0 36 31 36q12 0 21.5 -10t9.5 -28 q0 -102 -68.5 -164.5t-181.5 -62.5zM1228 60q14 0 22.5 -8t8.5 -21t-8.5 -22t-22.5 -9h-457q-13 0 -22 9t-9 22t8.5 21t22.5 8h37q28 0 47 19.5t19 46.5v500q0 100 -48.5 151.5t-119.5 51.5q-113 0 -189 -109.5t-76 -265.5v-328q0 -27 19 -46.5t46 -19.5h37q14 0 22.5 -8 t8.5 -21t-9 -22t-22 -9h-457q-14 0 -22.5 9t-8.5 22t8.5 21t22.5 8h37q28 0 47 19.5t19 46.5v672q0 27 -19 46t-47 19h-37q-13 0 -22 8.5t-9 21.5t8.5 22t22.5 9h355v-222q52 108 151.5 173.5t220.5 65.5q146 0 229.5 -78.5t83.5 -223.5v-513q0 -27 19 -46.5t46 -19.5h37z " />
<glyph unicode="&#xf2;" horiz-adv-x="1175" d="M641 1157l-290 211q-44 32 -28 78q13 36 50 45q44 12 81 -32l224 -264q19 -23 2.5 -39t-39.5 1zM589 -20q-232 0 -372 132t-140 351q0 96 34.5 182t97.5 152.5t161.5 105.5t218.5 39q150 0 263.5 -53.5t180 -163t66.5 -262.5q0 -221 -136.5 -352t-373.5 -131zM584 36 q127 1 194 109.5t67 315.5q0 212 -67 318t-189 106q-121 0 -189.5 -107t-68.5 -317q0 -188 64 -306t189 -119z" />
<glyph unicode="&#xf3;" horiz-adv-x="1175" d="M545 1157q-23 -17 -39.5 -1t2.5 39l224 264q42 50 91 29q36 -16 43 -54q6 -39 -31 -66zM589 -20q-232 0 -372 132t-140 351q0 96 34.5 182t97.5 152.5t161.5 105.5t218.5 39q150 0 263.5 -53.5t180 -163t66.5 -262.5q0 -221 -136.5 -352t-373.5 -131zM584 36 q127 1 194 109t67 315q0 212 -67 318.5t-189 106.5q-121 0 -189.5 -107.5t-68.5 -317.5q0 -188 64 -305.5t189 -118.5z" />
<glyph unicode="&#xf4;" horiz-adv-x="1175" d="M815 1200q10 -23 -1 -38t-31.5 -14t-33.5 17l-165 197l-165 -197q-17 -16 -36.5 -16.5t-30.5 15.5t0 36l145 249q33 56 87 56t87 -56zM589 -20q-232 0 -372 132t-140 351q0 96 34.5 182t97.5 152.5t161.5 105.5t218.5 39q150 0 263.5 -53.5t180 -163t66.5 -262.5 q0 -221 -136.5 -352t-373.5 -131zM584 36q127 1 194 109.5t67 315.5q0 212 -67 318t-189 106q-121 0 -189.5 -107t-68.5 -317q0 -188 64 -306t189 -119z" />
<glyph unicode="&#xf5;" horiz-adv-x="1175" d="M782 1155q-70 0 -137 26t-110.5 56.5t-98 56.5t-102.5 26q-62 0 -98.5 -33.5t-36.5 -87.5q0 -16 -9 -25.5t-22 -9.5q-12 0 -21.5 9.5t-9.5 25.5q0 107 69.5 169t186.5 62q67 0 133 -26t109.5 -57t98.5 -57t102 -26q60 0 97 31t37 89q0 36 31 36q12 0 22 -10t10 -28 q0 -102 -69 -164.5t-182 -62.5zM589 -20q-232 0 -372 132t-140 351q0 96 34.5 182t97.5 152.5t161.5 105.5t218.5 39q150 0 263.5 -53.5t180 -163t66.5 -262.5q0 -221 -136.5 -352t-373.5 -131zM584 36q127 1 194 109t67 315q0 212 -67 318.5t-189 106.5 q-121 0 -189.5 -107.5t-68.5 -317.5q0 -188 64 -305.5t189 -118.5z" />
<glyph unicode="&#xf6;" horiz-adv-x="1175" d="M278 1263q0 48 33.5 81.5t81.5 33.5q47 0 79.5 -33.5t32.5 -81.5q0 -47 -32.5 -79.5t-79.5 -32.5q-48 0 -81.5 32.5t-33.5 79.5zM665 1263q0 48 34 81.5t81 33.5t79.5 -33.5t32.5 -81.5q0 -47 -33 -79.5t-79 -32.5q-47 0 -81 33t-34 79zM589 -20q-232 0 -372 132 t-140 351q0 96 34.5 182t97.5 152.5t161.5 105.5t218.5 39q150 0 263.5 -53.5t180 -163t66.5 -262.5q0 -221 -136.5 -352t-373.5 -131zM584 36q127 1 194 109t67 315q0 212 -67 318.5t-189 106.5q-121 0 -189.5 -107.5t-68.5 -317.5q0 -188 64 -305.5t189 -118.5z" />
<glyph unicode="&#xf7;" horiz-adv-x="919" d="M461 652q-46 0 -78 31.5t-32 76.5q0 46 31.5 78t78.5 32q45 0 76.5 -32t31.5 -78q0 -44 -32 -76t-76 -32zM811 507q13 0 22 -8.5t9 -21.5t-9 -22t-22 -9h-719q-13 0 -22 8.5t-9 21.5q0 14 8.5 22.5t22.5 8.5h719zM461 301q44 0 76 -32t32 -76q0 -46 -32 -78.5t-76 -32.5 q-46 0 -78 32t-32 79q0 45 32 76.5t78 31.5z" />
<glyph unicode="&#xf8;" horiz-adv-x="1153" d="M761 921q157 -42 247.5 -159.5t90.5 -298.5q0 -221 -136.5 -352t-373.5 -131q-71 0 -138 14l-38 -115h-61l43 130q-149 48 -233.5 167t-84.5 287q0 96 34.5 182t97.5 152.5t161.5 105.5t218.5 39q66 0 114 -8l36 108h63zM331 461q0 -241 97 -353l252 759q-42 18 -91 18 q-121 0 -189.5 -107t-68.5 -317zM584 36q127 1 194 109t67 315q0 274 -113 373l-256 -767q49 -30 108 -30z" />
<glyph unicode="&#xf9;" horiz-adv-x="1284" d="M690 1157l-289 211q-44 32 -28 78q13 36 50 45q44 12 81 -32l223 -264q19 -23 2.5 -39t-39.5 1zM1212 61q13 0 22 -8.5t9 -21.5t-8.5 -22t-22.5 -9h-354v208q-47 -102 -142.5 -164t-217.5 -62q-137 0 -223 79.5t-86 222.5v514q0 27 -19 46t-47 19h-37q-13 0 -22 8.5 t-9 21.5t8.5 22t22.5 9h355v-627q0 -101 46.5 -152t116.5 -51q112 0 183 109t71 266v329q0 27 -18.5 46t-46.5 19h-37q-13 0 -22 8.5t-9 21.5t8.5 22t22.5 9h354v-798q0 -27 18.5 -46t46.5 -19h37z" />
<glyph unicode="&#xfa;" horiz-adv-x="1284" d="M595 1157q-23 -17 -39.5 -1t2.5 39l223 264q42 50 91 29q36 -16 43 -54q6 -39 -31 -66zM1212 60q14 0 22.5 -8t8.5 -21t-8.5 -22t-22.5 -9h-354v208q-47 -102 -142.5 -164t-217.5 -62q-137 0 -223 79.5t-86 222.5v514q0 27 -19 46t-47 19h-37q-13 0 -22 8.5t-9 21.5 t8.5 22t22.5 9h355v-627q0 -101 46.5 -152t116.5 -51q112 0 183 109t71 266v329q0 27 -18.5 46t-46.5 19h-37q-13 0 -22 8.5t-9 21.5t8.5 22t22.5 9h354v-798q0 -27 19 -46.5t46 -19.5h37z" />
<glyph unicode="&#xfb;" horiz-adv-x="1284" d="M865 1200q10 -23 -1 -38t-31.5 -14t-33.5 17l-165 197l-165 -197q-17 -16 -36.5 -16.5t-30.5 15.5t0 36l144 249q33 56 87.5 56t87.5 -56zM1212 61q13 0 22 -8.5t9 -21.5t-8.5 -22t-22.5 -9h-354v208q-47 -102 -142.5 -164t-217.5 -62q-137 0 -223 79.5t-86 222.5v514 q0 27 -19 46t-47 19h-37q-13 0 -22 8.5t-9 21.5t8.5 22t22.5 9h355v-627q0 -101 46.5 -152t116.5 -51q112 0 183 109t71 266v329q0 27 -18.5 46t-46.5 19h-37q-13 0 -22 8.5t-9 21.5t8.5 22t22.5 9h354v-798q0 -27 18.5 -46t46.5 -19h37z" />
<glyph unicode="&#xfc;" horiz-adv-x="1284" d="M328 1263q0 48 33.5 81.5t81.5 33.5q47 0 79.5 -33.5t32.5 -81.5q0 -47 -32.5 -79.5t-79.5 -32.5q-48 0 -81.5 32.5t-33.5 79.5zM714 1263q0 48 34 81.5t81 33.5t79.5 -33.5t32.5 -81.5q0 -47 -32.5 -79.5t-79.5 -32.5t-81 33t-34 79zM1212 61q13 0 22 -8.5t9 -21.5 t-8.5 -22t-22.5 -9h-354v208q-47 -102 -142.5 -164t-217.5 -62q-137 0 -223 79.5t-86 222.5v514q0 27 -19 46t-47 19h-37q-13 0 -22 8.5t-9 21.5t8.5 22t22.5 9h355v-627q0 -101 46.5 -152t116.5 -51q112 0 183 109t71 266v329q0 27 -18.5 46t-46.5 19h-37q-13 0 -22 8.5 t-9 21.5t8.5 22t22.5 9h354v-798q0 -27 18.5 -46t46.5 -19h37z" />
<glyph unicode="&#xfd;" horiz-adv-x="1038" d="M559 1157q-23 -17 -39.5 -1t2.5 39l224 264q42 50 91 29q36 -16 43 -54q6 -39 -31 -66zM618 411l214 388q15 27 0.5 45.5t-45.5 18.5h-41q-14 0 -22.5 8.5t-8.5 22.5q0 13 9 21.5t22 8.5h255q13 0 22 -9t9 -22t-9 -21.5t-22 -8.5h-23q-44 0 -71 -49l-253 -457v-233 q0 -26 18 -44.5t47 -18.5h37q13 0 22 -8.5t9 -21.5t-8.5 -22t-22.5 -9h-463q-13 0 -22 9t-9 22t9 21.5t22 8.5h38q29 0 47 18.5t18 44.5v212l-267 463q-35 64 -75 64h-16q-14 0 -22.5 8.5t-8.5 22.5q0 13 9 21.5t22 8.5h434q14 0 22.5 -9t8.5 -22t-9 -21.5t-22 -8.5h-39 q-31 0 -45 -18.5t0 -44.5z" />
<glyph unicode="&#xfe;" horiz-adv-x="1087" d="M1014 472q0 -136 -117 -218t-330 -82h-120v-48q0 -26 18 -44.5t47 -18.5h37q13 0 22 -8.5t9 -21.5t-9 -22t-22 -9h-463q-14 0 -22.5 9t-8.5 22t9 21.5t22 8.5h37q29 0 47.5 18.5t18.5 44.5v675q0 26 -18.5 45t-47.5 19h-37q-13 0 -22 8.5t-9 21.5t8.5 22t22.5 9h463 q13 0 22 -9t9 -22t-9 -21.5t-22 -8.5h-37q-29 0 -47 -19t-18 -45v-45h120q211 0 329 -78.5t118 -203.5zM745 472q0 102 -63 159.5t-181 57.5h-54v-450h54q112 0 178 58t66 175z" />
<glyph unicode="&#xff;" horiz-adv-x="1038" d="M292 1263q0 48 33.5 81.5t81.5 33.5q47 0 79.5 -33.5t32.5 -81.5q0 -47 -32.5 -79.5t-79.5 -32.5q-48 0 -81.5 32.5t-33.5 79.5zM679 1263q0 48 33.5 81.5t80.5 33.5t79.5 -33.5t32.5 -81.5q0 -47 -32.5 -79.5t-79.5 -32.5t-80.5 33t-33.5 79zM618 411l214 388 q15 27 0.5 45.5t-45.5 18.5h-41q-14 0 -22.5 8.5t-8.5 22.5q0 13 9 21.5t22 8.5h255q13 0 22 -9t9 -22t-9 -21.5t-22 -8.5h-23q-44 0 -71 -49l-253 -457v-233q0 -26 18 -44.5t47 -18.5h37q13 0 22 -8.5t9 -21.5t-8.5 -22t-22.5 -9h-463q-13 0 -22 9t-9 22t9 21.5t22 8.5h38 q29 0 47 18.5t18 44.5v212l-267 463q-35 64 -75 64h-16q-14 0 -22.5 8.5t-8.5 22.5q0 13 9 21.5t22 8.5h434q14 0 22.5 -9t8.5 -22t-9 -21.5t-22 -8.5h-39q-31 0 -45 -18.5t0 -44.5z" />
<glyph unicode="&#x152;" horiz-adv-x="2203" d="M2009 959q-29 0 -29 27v35q0 113 -66 190.5t-186 77.5h-294q-29 0 -47.5 -19t-18.5 -45v-476h95q114 0 161.5 43t47.5 140v9q0 13 9 22t22 9t22 -9t9 -22v-448q0 -13 -9 -22t-22 -9t-22 10t-9 26v10q0 93 -47 135t-162 42h-95v-561q0 -26 18.5 -45t47.5 -19h297 q115 0 183.5 82.5t68.5 187.5v28q0 14 8.5 22.5t22.5 8.5q13 0 21 -8.5t8 -22.5v-358h-962v126q-137 -147 -376 -147q-133 0 -248.5 54.5t-196.5 147.5t-127.5 222t-46.5 274q0 193 79.5 351.5t221.5 249.5t318 91q234 0 376 -139v120h959v-364q0 -27 -31 -27zM741 41 q340 0 340 636q0 111 -9.5 200.5t-33 171.5t-61.5 137.5t-97.5 88t-138.5 32.5t-139 -33t-97.5 -89t-61.5 -138.5t-33 -171.5t-9 -198t9 -199t33 -173t61.5 -140t97.5 -90.5t139 -33.5z" />
<glyph unicode="&#x153;" horiz-adv-x="1853" d="M1311 942q224 0 344 -116.5t120 -312.5q0 -29 -15.5 -39.5t-51.5 -10.5h-637q0 -117 31 -206.5t100 -144.5t170 -55q66 0 122 20t95.5 54t66.5 72t44 81q11 28 31 28q27 0 25 -30q-2 -20 -16.5 -53.5t-48 -77.5t-79.5 -82t-119.5 -64t-159.5 -26q-119 0 -218.5 50.5 t-163.5 139.5q-57 -89 -151.5 -139t-222.5 -50q-231 0 -365.5 131t-134.5 352q0 97 32.5 182.5t93.5 152t157.5 105.5t216.5 39q122 0 216 -47.5t152 -132.5q122 180 366 180zM1524 517q-9 369 -224 369q-100 0 -160 -97t-68 -272h452zM573 37q123 1 186 108.5t63 314.5 q0 212 -64 318t-181 106q-116 0 -181 -106.5t-65 -317.5q0 -122 24.5 -214.5t80 -150.5t137.5 -58z" />
<glyph unicode="&#x178;" horiz-adv-x="1302" d="M431 1548q0 48 33 81.5t81 33.5q47 0 79.5 -33.5t32.5 -81.5q0 -46 -32.5 -79t-79.5 -33q-48 0 -81 32.5t-33 79.5zM817 1548q0 48 34 81.5t81 33.5t79.5 -33.5t32.5 -81.5q0 -46 -33 -79t-79 -33q-47 0 -81 33t-34 79zM1269 1350q13 0 21.5 -8.5t8.5 -21.5t-8.5 -22 t-21.5 -9h-36q-29 0 -55.5 -16.5t-40.5 -42.5l-330 -620v-486q0 -26 18 -45t47 -19h37q14 0 22.5 -8t8.5 -21t-9 -22t-22 -9h-492q-13 0 -22 9t-9 22t8.5 21t22.5 8h37q29 0 47 19t18 45v420l-372 686q-16 29 -33.5 44t-46.5 15h-33q-14 0 -22.5 8.5t-8.5 22.5q0 13 9 21.5 t22 8.5h516q13 0 21 -8.5t8 -21.5q0 -14 -8 -22.5t-21 -8.5h-34q-35 0 -47 -15.5t3 -43.5l295 -551l289 551q12 22 -1 40.5t-43 18.5h-30q-14 0 -22.5 8.5t-8.5 22.5q0 13 9 21.5t22 8.5h287z" />
<glyph unicode="&#x2c6;" horiz-adv-x="772" d="M665 1203q10 -23 -1 -37.5t-31.5 -13.5t-33.5 17l-165 197l-165 -197q-17 -16 -36.5 -17t-30.5 15t0 36l145 250q33 56 87 56t87 -56z" />
<glyph unicode="&#x2dc;" horiz-adv-x="1021" d="M669 1155q-70 0 -137 26t-110.5 56.5t-98 56.5t-102.5 26q-62 0 -98 -33t-36 -88q0 -16 -9 -25.5t-22 -9.5q-12 0 -21.5 9.5t-9.5 25.5q0 107 69.5 169t185.5 62q67 0 133 -26t110 -57t99 -57t102 -26q60 0 97 31t37 89q0 36 31 36q12 0 21.5 -10t9.5 -28 q0 -102 -69 -164.5t-182 -62.5z" />
<glyph unicode="&#x2000;" horiz-adv-x="932" />
<glyph unicode="&#x2001;" horiz-adv-x="1864" />
<glyph unicode="&#x2002;" horiz-adv-x="932" />
<glyph unicode="&#x2003;" horiz-adv-x="1864" />
<glyph unicode="&#x2004;" horiz-adv-x="621" />
<glyph unicode="&#x2005;" horiz-adv-x="466" />
<glyph unicode="&#x2006;" horiz-adv-x="310" />
<glyph unicode="&#x2007;" horiz-adv-x="310" />
<glyph unicode="&#x2008;" horiz-adv-x="233" />
<glyph unicode="&#x2009;" horiz-adv-x="372" />
<glyph unicode="&#x200a;" horiz-adv-x="103" />
<glyph unicode="&#x2010;" horiz-adv-x="647" d="M564 527q14 0 22.5 -8.5t8.5 -22.5q0 -13 -8.5 -21t-22.5 -8h-482q-14 0 -22.5 8.5t-8.5 22.5q0 13 8.5 21t22.5 8h482z" />
<glyph unicode="&#x2011;" horiz-adv-x="647" d="M564 527q14 0 22.5 -8.5t8.5 -22.5q0 -13 -8.5 -21t-22.5 -8h-482q-14 0 -22.5 8.5t-8.5 22.5q0 13 8.5 21t22.5 8h482z" />
<glyph unicode="&#x2012;" horiz-adv-x="647" d="M564 527q14 0 22.5 -8.5t8.5 -22.5q0 -13 -8.5 -21t-22.5 -8h-482q-14 0 -22.5 8.5t-8.5 22.5q0 13 8.5 21t22.5 8h482z" />
<glyph unicode="&#x2013;" horiz-adv-x="882" d="M801 527q13 0 22 -8.5t9 -22.5q0 -13 -8.5 -21t-22.5 -8h-719q-14 0 -22.5 8.5t-8.5 22.5q0 13 8.5 21t22.5 8h719z" />
<glyph unicode="&#x2014;" horiz-adv-x="1220" d="M1138 527q14 0 22.5 -8.5t8.5 -22.5q0 -13 -8.5 -21t-22.5 -8h-1056q-14 0 -22.5 8.5t-8.5 22.5q0 13 8.5 21t22.5 8h1056z" />
<glyph unicode="&#x2018;" horiz-adv-x="520" d="M242 879q-82 0 -144.5 60t-62.5 172q0 124 87.5 229.5t244.5 148.5q30 8 37 -14.5t-23 -32.5q-123 -45 -193 -130.5t-70 -194.5q0 -44 16 -76q11 51 48 77.5t78 26.5q54 0 92.5 -38.5t38.5 -94.5q0 -58 -43.5 -95.5t-105.5 -37.5z" />
<glyph unicode="&#x2019;" horiz-adv-x="477" d="M235 1486q82 0 144.5 -60t62.5 -172q0 -124 -87.5 -229.5t-244.5 -148.5q-30 -8 -37.5 14.5t22.5 32.5q123 45 193.5 131t70.5 194q0 44 -16 76q-11 -51 -48 -77.5t-78 -26.5q-54 0 -93 38.5t-39 94.5q0 57 44 95t106 38z" />
<glyph unicode="&#x201a;" horiz-adv-x="477" d="M235 262q82 0 144.5 -60.5t62.5 -172.5q0 -124 -87.5 -229t-244.5 -148q-30 -8 -37.5 14.5t22.5 32.5q123 45 193.5 131t70.5 194q0 43 -16 75q-11 -51 -48 -77t-78 -26q-54 0 -93 38.5t-39 94.5q0 57 44 95t106 38z" />
<glyph unicode="&#x201c;" horiz-adv-x="931" d="M242 879q-82 0 -144.5 60t-62.5 172q0 124 87.5 229.5t244.5 148.5q30 8 37 -14.5t-23 -32.5q-123 -45 -193 -130.5t-70 -194.5q0 -44 16 -76q11 51 48 77.5t78 26.5q54 0 92.5 -38.5t38.5 -94.5q0 -58 -43.5 -95.5t-105.5 -37.5zM654 879q-82 0 -144.5 60t-62.5 172 q0 124 87 229.5t244 148.5q30 8 37.5 -14.5t-22.5 -32.5q-123 -45 -193.5 -131t-70.5 -194q0 -42 17 -76q11 51 47.5 77.5t77.5 26.5q54 0 93 -38.5t39 -94.5q0 -58 -43.5 -95.5t-105.5 -37.5z" />
<glyph unicode="&#x201d;" horiz-adv-x="888" d="M235 1481q82 0 144.5 -60.5t62.5 -172.5q0 -124 -87.5 -229t-244.5 -148q-19 -5 -30.5 4t-7.5 22.5t23 19.5q123 45 193.5 131t70.5 194q0 44 -16 76q-11 -51 -48 -77t-78 -26q-55 0 -93.5 38t-38.5 94q0 58 44 96t106 38zM646 1481q82 0 144.5 -60.5t62.5 -172.5 q0 -124 -87 -229t-244 -148q-19 -5 -30.5 4t-7.5 22.5t23 19.5q123 45 193.5 131t70.5 194q0 44 -16 76q-11 -51 -48 -77t-78 -26q-55 0 -93.5 38t-38.5 94q0 58 43.5 96t105.5 38z" />
<glyph unicode="&#x201e;" horiz-adv-x="854" d="M192 245q82 0 144.5 -60t62.5 -172q0 -124 -87.5 -229.5t-244.5 -148.5q-30 -8 -37 14.5t23 32.5q123 45 193 130.5t70 194.5q0 43 -16 75q-11 -51 -48 -77t-78 -26q-54 0 -92.5 38.5t-38.5 94.5q0 58 43.5 95.5t105.5 37.5zM604 245q82 0 144.5 -60t62.5 -172 q0 -124 -87.5 -229.5t-244.5 -148.5q-30 -8 -37 14.5t23 32.5q123 45 193 130.5t70 194.5q0 43 -16 75q-11 -51 -48 -77t-78 -26q-54 0 -93 38.5t-39 94.5q0 57 44 95t106 38z" />
<glyph unicode="&#x2022;" horiz-adv-x="661" d="M73 515q0 109 75.5 184.5t184.5 75.5q105 0 179.5 -76t74.5 -184q0 -105 -74.5 -179t-179.5 -74q-109 0 -184.5 74t-75.5 179z" />
<glyph unicode="&#x2026;" horiz-adv-x="1415" d="M99 98q0 53 38 90.5t91 37.5t90 -37.5t37 -90.5t-37.5 -90.5t-89.5 -37.5q-53 0 -91 37.5t-38 90.5zM546 98q0 53 38 90.5t91 37.5t90 -37.5t37 -90.5t-37.5 -90.5t-89.5 -37.5q-53 0 -91 37.5t-38 90.5zM1001 98q0 53 38 90.5t91 37.5t90 -37.5t37 -90.5t-37.5 -90.5 t-89.5 -37.5q-53 0 -91 37.5t-38 90.5z" />
<glyph unicode="&#x202f;" horiz-adv-x="372" />
<glyph unicode="&#x2039;" horiz-adv-x="563" d="M191 457q82 78 158.5 180t122.5 185q13 25 -11 39.5t-41 -9.5q-136 -182 -372 -361q-21 -15 -20.5 -34.5t20.5 -34.5q238 -180 372 -360q17 -23 41.5 -9t10.5 39q-46 83 -122.5 185t-158.5 180z" />
<glyph unicode="&#x203a;" horiz-adv-x="563" d="M371 457q-82 -78 -158 -179.5t-122 -185.5q-14 -25 10.5 -39t41.5 9q134 180 372 360q20 15 20.5 34.5t-20.5 34.5q-236 179 -372 361q-17 24 -41 9.5t-11 -39.5q46 -84 122 -185.5t158 -179.5z" />
<glyph unicode="&#x205f;" horiz-adv-x="466" />
<glyph unicode="&#x20ac;" horiz-adv-x="1402" d="M1278 312q13 0 22 -9t8 -22q-3 -33 -42 -92t-105 -109q-135 -101 -319 -101q-138 0 -249.5 41.5t-188 117t-124 177t-64.5 225.5h-97q-13 0 -22 9t-9 22t8.5 21t22.5 8h91q-3 38 -3 75q0 35 3 70h-91q-13 0 -22 8.5t-9 22.5q0 13 8.5 21t22.5 8h97q35 255 198 410 t428 155q177 0 316 -98q69 -48 108 -108t42 -96q1 -13 -8 -21.5t-22 -8.5q-22 0 -44 37q-119 210 -334 210q-167 0 -259.5 -125.5t-111.5 -354.5h482q13 0 22 -8.5t9 -22.5q0 -13 -8.5 -21t-22.5 -8h-486q-1 -23 -1 -70q0 -27 2 -75h485q13 0 22 -9t9 -22t-8.5 -21t-22.5 -8 h-481q20 -227 112 -351.5t258 -124.5q216 0 334 210q23 38 44 38z" />
<glyph unicode="&#x2122;" horiz-adv-x="1800" d="M715 1350v-222q0 -14 -8.5 -22t-21.5 -8q-26 0 -26 30v19q-1 59 -29 102t-80 43h-17q-35 -1 -35 -51v-453q0 -22 15 -37t38 -15h16q11 0 19.5 -8t8.5 -19q0 -13 -7.5 -21t-20.5 -8h-344q-30 0 -30 29q0 12 8.5 19.5t21.5 7.5h16q22 0 37.5 15.5t15.5 36.5v453 q0 51 -39 51h-13q-50 0 -80 -49t-31 -96v-19q0 -30 -29 -30q-12 0 -19.5 8.5t-7.5 21.5v222h642zM1712 736q11 0 19.5 -8t8.5 -19q0 -13 -7.5 -21t-20.5 -8h-343q-30 0 -30 29q0 12 8.5 19.5t21.5 7.5h15q22 0 38 15.5t16 36.5v457l-223 -574h-31l-231 572v-455 q0 -21 16 -36.5t38 -15.5h15q14 0 22 -8t8 -22q0 -26 -30 -26h-194q-11 0 -19.5 7.5t-8.5 18.5q0 13 7.5 21.5t20.5 8.5h16q22 0 37.5 15.5t15.5 36.5v453q0 21 -15.5 36t-37.5 15h-16q-13 0 -20.5 8.5t-7.5 21.5q0 11 8 19.5t20 8.5h303l148 -366l146 366h287 q13 0 20.5 -8.5t7.5 -21.5q0 -11 -8 -19.5t-20 -8.5h-16q-23 0 -38 -15t-15 -36v-453q0 -22 15 -37t38 -15h16z" />
<glyph unicode="&#x25fc;" horiz-adv-x="921" d="M0 922h922v-922h-922v922z" />
</font>
</defs>
</svg>
