<?xml version="1.0" standalone="no"?>
<!DOCTYPE svg PUBLIC "-//W3C//DTD SVG 1.1//EN" "http://www.w3.org/Graphics/SVG/1.1/DTD/svg11.dtd" >
<svg xmlns="http://www.w3.org/2000/svg">
<metadata></metadata>
<defs>
<font id="isabel_unicasethin" horiz-adv-x="1413" >
<font-face units-per-em="2048" ascent="1493" descent="-555" />
<missing-glyph horiz-adv-x="471" />
<glyph unicode="&#xfb01;" horiz-adv-x="1388" d="M1069 1247q0 31 23 53.5t55 22.5q31 0 53.5 -22.5t22.5 -53.5t-22.5 -53.5t-53.5 -22.5q-32 0 -55 22.5t-23 53.5zM784 924v-273q0 -10 -10 -10t-10 10v62q0 190 -211 190h-186q-20 0 -31.5 -12.5t-11.5 -30.5v-371h131q88 0 114.5 26t26.5 87v12q0 13 12 13q13 0 13 -13 v-270q0 -14 -13 -14q-12 0 -12 14v14q0 29 -4 46.5t-18 34t-43 23.5t-76 7h-131v-406q0 -18 11.5 -30.5t31.5 -12.5h96q10 0 10 -10t-10 -10h-371q-10 0 -10 10t10 10h60q20 0 31.5 12.5t11.5 30.5v797q0 18 -11.5 30.5t-31.5 12.5h-60q-10 0 -10 10q0 11 10 11h692z M1311 20q10 0 10 -10t-10 -10h-328q-10 0 -10 10t10 10h59q20 0 31.5 12.5t11.5 30.5v797q0 18 -11.5 30.5t-31.5 12.5h-59q-10 0 -10 10q0 11 10 11h225v-861q0 -18 11.5 -30.5t31.5 -12.5h60z" />
<glyph unicode="&#xfb02;" horiz-adv-x="1736" d="M784 924v-273q0 -10 -10 -10t-10 10v62q0 190 -211 190h-186q-20 0 -31.5 -12.5t-11.5 -30.5v-371h131q88 0 114.5 26t26.5 87v12q0 13 12 13q13 0 13 -13v-270q0 -14 -13 -14q-12 0 -12 14v14q0 29 -4 46.5t-18 34t-43 23.5t-76 7h-131v-406q0 -18 11.5 -30.5 t31.5 -12.5h96q10 0 10 -10t-10 -10h-371q-10 0 -10 10t10 10h60q20 0 31.5 12.5t11.5 30.5v797q0 18 -11.5 30.5t-31.5 12.5h-60q-10 0 -10 10q0 11 10 11h692zM1214 860v-797q0 -18 11.5 -30.5t31.5 -12.5h207q211 0 211 191v61q0 11 11 11q10 0 10 -11v-272h-713 q-10 0 -10 10t10 10h59q20 0 31.5 12.5t11.5 30.5v797q0 18 -11.5 30.5t-31.5 12.5h-59q-10 0 -10 10q0 11 10 11h334q10 0 10 -11q0 -10 -10 -10h-60q-20 0 -31.5 -12.5t-11.5 -30.5z" />
<glyph horiz-adv-x="0" />
<glyph horiz-adv-x="682" />
<glyph unicode=" "  horiz-adv-x="471" />
<glyph unicode="&#x09;" horiz-adv-x="471" />
<glyph unicode="&#xa0;" horiz-adv-x="471" />
<glyph unicode="!" horiz-adv-x="440" d="M221 1518q27 0 46 -21t19 -59q0 -59 -14 -205.5t-28.5 -361t-14.5 -439.5q0 -14 -12 -14q-5 0 -9 4t-4 10q0 225 -13 439t-25.5 360.5t-12.5 206.5q0 38 20 59t48 21zM149 -222q0 29 21 50t49 21q30 0 51 -21t21 -50q0 -30 -21 -51t-51 -21q-29 0 -49.5 21t-20.5 51z" />
<glyph unicode="&#x22;" horiz-adv-x="573" d="M178 1489q1 18 -9.5 27.5t-25.5 9.5q-14 0 -24 -9.5t-10 -27.5l18 -596q0 -16 16 -16q5 0 10 4.5t5 11.5zM438 1489q1 18 -9.5 27.5t-25.5 9.5q-14 0 -24 -9.5t-10 -27.5l18 -596q0 -16 16 -16q5 0 10 4.5t5 11.5z" />
<glyph unicode="#" horiz-adv-x="1075" d="M1044 676h-232l-56 -400h231l-2 -20h-232l-36 -256h-21l37 256h-400l-36 -256h-21l37 256h-284l2 20h285l56 400h-284l2 20h285l37 260h20l-37 -260h400l36 260h21l-37 -260h232zM735 276l57 400h-400l-56 -400h399z" />
<glyph unicode="$" horiz-adv-x="1058" d="M942 350q0 -51 -19.5 -104t-57.5 -103t-104.5 -88.5t-152.5 -54.5v-199q0 -10 -10 -10t-10 10v195q-45 -6 -96 -6q-34 0 -66 3v-192q0 -10 -10 -10q-11 0 -11 10v195q-135 20 -222 93.5t-87 166.5q0 49 20.5 79t53.5 30q26 0 48 -17.5t22 -48.5q0 -21 -11.5 -38 t-25.5 -27t-25.5 -24.5t-11.5 -31.5q0 -44 52 -83t124 -60t137 -21q165 0 269 83t104 225q0 63 -25 113.5t-67 84.5t-96.5 62.5t-114.5 52t-120.5 48.5t-115 57t-96.5 71t-67 97.5t-25 131.5q0 49 16 96.5t48.5 90.5t88 75.5t127.5 46.5v197q0 10 11 10q10 0 10 -10v-193 q42 7 96 7q24 0 66 -4v190q0 10 10 10t10 -10v-192q135 -20 222.5 -92t87.5 -164q0 -49 -20.5 -79t-53.5 -30q-26 0 -48 17.5t-22 48.5q0 21 11.5 38t25.5 27t25.5 24.5t11.5 31.5q0 44 -52.5 82t-123.5 57.5t-137 19.5q-64 0 -118.5 -12t-105 -40.5t-79.5 -83t-29 -130.5 q0 -56 25.5 -101t68 -76.5t98 -58t116.5 -51t122.5 -50.5t117 -60.5t98 -77t68 -105t25.5 -139.5z" />
<glyph unicode="%" horiz-adv-x="1486" d="M335 -152h-25l822 1645h24zM340 592q-132 0 -208.5 100.5t-76.5 288.5q0 186 76.5 283.5t208.5 97.5q131 0 208 -97.5t77 -283.5q0 -188 -77 -288.5t-208 -100.5zM340 616q84 0 122 90.5t38 274.5q0 183 -37.5 269.5t-122.5 86.5t-121.5 -86t-36.5 -270q0 -185 37 -275 t121 -90zM1149 -10q-132 0 -208.5 100.5t-76.5 288.5q0 186 76.5 283.5t208.5 97.5q131 0 207.5 -97.5t76.5 -283.5q0 -188 -76.5 -288.5t-207.5 -100.5zM1149 14q84 0 121.5 90t37.5 275q0 183 -37 269.5t-122 86.5t-121.5 -86t-36.5 -270q0 -185 37 -275t121 -90z" />
<glyph unicode="&#x26;" horiz-adv-x="1298" d="M1221 709q10 0 10 -11q0 -10 -10 -10h-60q-20 0 -31.5 -12.5t-11.5 -30.5v-264q0 -170 -128.5 -280.5t-332.5 -110.5q-103 0 -186.5 21.5t-138 58t-91 86t-52 102.5t-15.5 111q0 134 101 221.5t245 108.5q-132 23 -218.5 111.5t-86.5 219.5q0 152 120 241t310 89 q102 0 183.5 -27.5t131.5 -74t76.5 -104t26.5 -120.5q0 -59 -25 -92t-63 -33q-32 0 -56 22.5t-24 57.5q0 23 13.5 42t29.5 30t29.5 29t13.5 38q0 79 -85 143t-230 64q-158 0 -238 -82.5t-80 -222.5q0 -144 93.5 -232.5t226.5 -88.5h16q10 0 10 -11q0 -10 -10 -10h-16 q-67 0 -126.5 -17t-111 -52.5t-81.5 -99.5t-30 -150q0 -163 87.5 -259t248.5 -96q334 0 334 367v264q0 18 -11.5 30.5t-31.5 12.5h-100q-10 0 -10 10q0 11 10 11h375z" />
<glyph unicode="'" horiz-adv-x="274" d="M172 1489q1 18 -9.5 27.5t-25.5 9.5t-25 -9.5t-10 -27.5l19 -596q0 -16 16 -16q5 0 10 4.5t5 11.5z" />
<glyph unicode="(" horiz-adv-x="716" d="M102 469q0 -177 26 -328.5t66.5 -253.5t93 -184t102.5 -129t97.5 -78t76 -42t40.5 -11q10 0 10 10q0 6 -16 17t-43 25.5t-61 47.5t-69 77.5t-69 121.5t-61 173.5t-43 240t-16 313.5t16 313.5t43 240t61 173.5t69 121.5t69 77.5t61 47.5t43 25.5t16 17q0 10 -10 10 q-12 0 -40.5 -11t-76 -42t-97.5 -78t-102.5 -129t-93 -184t-66.5 -253.5t-26 -328.5z" />
<glyph unicode=")" horiz-adv-x="655" d="M553 469q0 177 -26 328.5t-66.5 253.5t-93 184t-102.5 129t-97.5 78t-76 42t-40.5 11q-10 0 -10 -10q0 -6 16.5 -17t43 -25.5t60.5 -47.5t69.5 -77.5t69.5 -121.5t60.5 -173.5t43 -240t16.5 -313.5t-16.5 -313.5t-43 -240t-60.5 -173.5t-69.5 -121.5t-69.5 -77.5 t-60.5 -47.5t-43 -25.5t-16.5 -17q0 -10 10 -10q12 0 40.5 11t76 42t97.5 78t102.5 129t93 184t66.5 253.5t26 328.5z" />
<glyph unicode="*" horiz-adv-x="782" d="M391 1008l-198 -273q-6 -9 -14 -8t-10.5 8.5t3.5 16.5l199 270l-320 102q-9 3 -10 10.5t4 12.5t14 2l320 -105v336q0 9 6 12t12 0t6 -12v-336l318 105q9 3 15 -2t4 -12.5t-11 -10.5l-317 -102l196 -270q7 -8 4.5 -16t-10 -8.5t-14.5 7.5z" />
<glyph unicode="+" horiz-adv-x="727" d="M651 516q11 0 11 -10t-11 -10h-278v-277q0 -10 -11 -10q-10 0 -10 10v277h-276q-10 0 -10 10t10 10h276v279q0 10 10 10q11 0 11 -10v-279h278z" />
<glyph unicode="," horiz-adv-x="468" d="M242 135q33 0 57.5 -23.5t24.5 -72.5q0 -214 -181 -395q-6 -6 -12 -4.5t-7 7.5t5 13q142 142 155 334q-19 -12 -42 -12q-28 0 -52 22.5t-24 54.5q0 31 22.5 53.5t53.5 22.5z" />
<glyph unicode="-" horiz-adv-x="602" d="M541 487q10 0 10 -10t-10 -10h-480q-10 0 -10 10t10 10h480z" />
<glyph unicode="." horiz-adv-x="440" d="M143 59q0 31 22.5 53.5t53.5 22.5q32 0 55 -22.5t23 -53.5q0 -32 -23 -54.5t-55 -22.5q-31 0 -53.5 22.5t-22.5 54.5z" />
<glyph unicode="/" horiz-adv-x="448" d="M113 -121h-21l338 1610h23z" />
<glyph unicode="0" horiz-adv-x="1087" d="M543 -10q-207 0 -324 179.5t-117 514.5q0 333 116.5 504.5t324.5 171.5q209 0 325.5 -171.5t116.5 -504.5q0 -335 -117.5 -514.5t-324.5 -179.5zM543 14q156 0 233.5 177.5t77.5 492.5q0 313 -77 482t-234 169q-156 0 -231.5 -169t-75.5 -482q0 -207 32 -354.5 t101.5 -231.5t173.5 -84z" />
<glyph unicode="1" horiz-adv-x="536" d="M459 20q10 0 10 -10t-10 -10h-367q-10 0 -10 10t10 10h92q20 0 31.5 12.5t11.5 30.5v1197h-135q-10 0 -10 10t10 10h60q81 0 143 43q13 8 22.5 18.5t15 15.5t11.5 5q12 0 12 -12v-1287q0 -18 11.5 -30.5t31.5 -12.5h60z" />
<glyph unicode="2" horiz-adv-x="1069" d="M967 332v-35q0 -307 -252 -307q-79 0 -231.5 44t-221.5 44q-34 0 -59 -14t-35 -30t-19.5 -30t-17.5 -14q-10 0 -10 10v74q0 95 24 176t64 139t92.5 108t110 89t115 75.5t110 74t92.5 78t64 93.5t24 115q0 141 -80 227t-237 86q-145 0 -230.5 -64t-85.5 -143 q0 -20 13.5 -38t29.5 -29t29.5 -30t13.5 -42q0 -35 -24 -57.5t-56 -22.5q-38 0 -63 33t-25 92q0 63 26.5 120.5t76.5 104t131.5 74t183.5 27.5q126 0 221.5 -36.5t152 -114t56.5 -187.5q0 -81 -27.5 -146t-74 -109.5t-106.5 -81t-127 -68t-133.5 -64.5t-126.5 -76 t-106.5 -96t-74 -131t-27.5 -176q23 65 65.5 95t109.5 30q58 0 200.5 -39t216.5 -39q103 0 155 54t52 157q0 10 10 10q11 0 11 -10z" />
<glyph unicode="3" horiz-adv-x="1052" d="M950 1317q0 -184 -105.5 -313.5t-359.5 -274.5q465 -31 465 -360q0 -161 -117.5 -270t-312.5 -109q-102 0 -183.5 27.5t-131.5 73.5t-76.5 103.5t-26.5 120.5q0 59 25 92t63 33q32 0 56 -22.5t24 -57.5q0 -23 -13.5 -42t-29.5 -30t-29.5 -29t-13.5 -38q0 -79 85.5 -143 t230.5 -64q86 0 150 32.5t99 86.5t51.5 113t16.5 123q0 92 -32 161t-83.5 106.5t-107 55t-111.5 17.5h-6q-20 0 -20 16q0 12 14 20q173 99 250 164q109 92 153 178.5t50 183.5q-24 -61 -66 -90.5t-110 -29.5q-58 0 -192 39t-208 39q-103 0 -155 -54t-52 -157q0 -10 -10 -10 t-10 10v35q0 307 252 307q79 0 222 -44t212 -44q34 0 59 17t35.5 37t20.5 37t18 17q10 0 10 -12v-51z" />
<glyph unicode="4" horiz-adv-x="985" d="M924 281q10 0 10 -11q0 -10 -10 -10h-172v-197q0 -18 11.5 -30.5t31.5 -12.5h59q10 0 10 -10t-10 -10h-334q-10 0 -10 10t10 10h60q20 0 31.5 12.5t11.5 30.5v197h-603v19q158 117 274.5 252t181 267t94.5 252.5t30 233.5q0 36 20.5 56t49.5 20q27 0 47 -20t20 -56 q0 -238 -173.5 -502t-508.5 -501h568v448q39 42 59 70.5t43 74.5q5 13 16 13t11 -13v-593h172z" />
<glyph unicode="5" horiz-adv-x="1069" d="M510 -10q-102 0 -183.5 27.5t-131.5 73.5t-76.5 103.5t-26.5 120.5q0 59 25 92t63 33q32 0 56 -22.5t24 -57.5q0 -23 -13.5 -42t-29.5 -30t-29.5 -29t-13.5 -38q0 -79 85 -143t230 -64q69 0 125 22t91 57.5t59 82.5t33.5 95t9.5 98q0 94 -30 165t-82.5 112t-117 61 t-141.5 20q-68 0 -127.5 -13.5t-94 -26.5t-40.5 -13q-12 0 -12 12l71 633q81 41 187 41q79 0 201.5 -27.5t191.5 -27.5q34 0 59 12t35.5 26.5t20.5 26.5t18 12q10 0 10 -10q0 -93 -56 -140.5t-146 -47.5q-58 0 -171.5 22.5t-187.5 22.5q-86 0 -155 -37l-56 -492 q138 60 279 60q128 0 235 -44.5t174.5 -135t67.5 -211.5q0 -161 -117.5 -270t-312.5 -109z" />
<glyph unicode="6" horiz-adv-x="1021" d="M541 -10q-93 0 -171 41.5t-138.5 123t-95 214t-34.5 303.5q0 336 134.5 512t365.5 176q147 0 236.5 -81t89.5 -206q0 -59 -25 -92t-63 -33q-32 0 -56 22.5t-24 57.5q0 26 14 45.5t31 29t31 27.5t14 41q0 72 -71.5 120t-176.5 48q-90 0 -159 -45.5t-110 -124t-66.5 -185 t-28.5 -228.5t4 -254q12 64 42 115.5t66 83t78.5 52.5t78 29.5t66.5 8.5q72 0 135.5 -23t116.5 -69.5t84 -126t31 -183.5q0 -83 -26.5 -152t-68.5 -113.5t-96 -75.5t-106.5 -44.5t-101.5 -13.5zM541 14q132 0 199 90.5t67 284.5q0 193 -66 287t-168 94q-40 0 -82.5 -12.5 t-85 -41t-76 -69t-55 -102t-22.5 -135.5q0 -107 39 -198t105.5 -144.5t144.5 -53.5z" />
<glyph unicode="7" horiz-adv-x="897" d="M61 1018v35q0 307 252 307q79 0 211 -44t201 -44q34 0 59 14t35 30t19.5 30t17.5 14q10 0 10 -10v-74q0 -99 -22 -188.5t-58 -161.5t-79 -142.5t-85.5 -146t-78.5 -157t-58 -190t-22 -231.5q0 -33 -19.5 -52t-46.5 -19q-28 0 -47.5 18.5t-19.5 52.5q0 148 28 269t73 203 t99.5 152t109 131.5t99.5 125t73 149t28 187.5q-23 -65 -65 -95t-109 -30q-58 0 -180.5 39t-196.5 39q-103 0 -155 -54t-52 -157q0 -10 -10 -10q-11 0 -11 10z" />
<glyph unicode="8" horiz-adv-x="974" d="M606 719q124 -33 195 -129t71 -225q0 -161 -106 -268t-279 -107t-279 107t-106 268q0 128 71.5 224t195.5 130q-122 29 -189 112.5t-67 200.5q0 143 100.5 235.5t273.5 92.5t274 -92.5t101 -235.5q0 -117 -67 -200.5t-189 -112.5zM487 1331q-237 0 -237 -299t237 -299 q240 0 240 299t-240 299zM487 18q126 0 188 94.5t62 252.5q0 156 -61.5 248t-188.5 92q-125 0 -186 -92t-61 -248q0 -158 61 -252.5t186 -94.5z" />
<glyph unicode="9" horiz-adv-x="1021" d="M481 1360q93 0 171 -41.5t138.5 -123t95 -214t34.5 -303.5q0 -336 -134.5 -512t-365.5 -176q-147 0 -236.5 80.5t-89.5 205.5q0 59 25 92t63 33q32 0 56 -22t24 -57q0 -26 -14 -45.5t-31 -29.5t-31 -28t-14 -41q0 -72 71.5 -120t176.5 -48q90 0 159 45.5t110 124.5 t66.5 185.5t28.5 228.5t-4 254q-12 -64 -42 -115.5t-66 -83t-78.5 -52.5t-78 -29.5t-66.5 -8.5q-72 0 -135.5 23t-116.5 69.5t-84 126t-31 183.5q0 83 26.5 152t68.5 113.5t96 75.5t106.5 44.5t101.5 13.5zM481 1335q-132 0 -199 -90t-67 -284q0 -193 66 -287t168 -94 q40 0 82.5 12.5t85 41t76 69t55 102t22.5 135.5q0 163 -85 279t-204 116z" />
<glyph unicode=":" horiz-adv-x="440" d="M143 733q0 31 22.5 53.5t53.5 22.5q32 0 55 -22.5t23 -53.5q0 -32 -23 -55t-55 -23q-31 0 -53.5 23t-22.5 55zM143 80q0 31 22.5 53.5t53.5 22.5q32 0 55 -22.5t23 -53.5q0 -32 -23 -55t-55 -23q-31 0 -53.5 23t-22.5 55z" />
<glyph unicode=";" horiz-adv-x="468" d="M258 657q-31 0 -53.5 23t-22.5 55q0 31 22.5 53.5t53.5 22.5q32 0 55 -22.5t23 -53.5q0 -32 -23 -55t-55 -23zM262 135q33 0 57.5 -23.5t24.5 -72.5q0 -215 -180 -395q-6 -6 -12 -4.5t-7 7.5t5 13q141 141 154 334q-19 -12 -42 -12q-28 0 -52 22.5t-24 54.5 q0 31 22.5 53.5t53.5 22.5z" />
<glyph unicode="&#x3c;" horiz-adv-x="675" d="M51 547l504 301q8 4 13 2t5 -8.5t-6 -10.5l-477 -284l477 -285q6 -4 6 -10t-5 -8t-13 2z" />
<glyph unicode="=" horiz-adv-x="862" d="M82 653q-10 0 -10 11q0 10 10 10h637q10 0 10 -10q0 -11 -10 -11h-637zM719 422q10 0 10 -10q0 -11 -10 -11h-637q-10 0 -10 11q0 10 10 10h637z" />
<glyph unicode="&#x3e;" horiz-adv-x="675" d="M625 547l-504 -301q-8 -4 -13 -2t-5 8t6 10l477 285l-477 284q-6 4 -6 10.5t5 8.5t13 -2z" />
<glyph unicode="?" horiz-adv-x="901" d="M406 1493q-93 0 -162.5 -54.5t-69.5 -131.5q0 -29 15 -51.5t33 -35t33 -32t15 -41.5q0 -35 -24 -57.5t-56 -22.5q-39 0 -63.5 34.5t-24.5 100.5q0 101 48 174.5t121 107.5t159 34q94 0 175.5 -27.5t137.5 -89.5t56 -148q0 -67 -23 -126t-59.5 -106t-81 -95t-89 -103.5 t-81 -119t-59.5 -154.5t-23 -199v-106q0 -11 -10 -11q-11 0 -11 11v106q0 136 31.5 253.5t76 198t89 151.5t76 147.5t31.5 152.5q0 123 -72.5 181.5t-187.5 58.5zM295 -246q0 31 23 53.5t55 22.5q31 0 53.5 -22.5t22.5 -53.5t-22.5 -53.5t-53.5 -22.5q-32 0 -55 22.5 t-23 53.5z" />
<glyph unicode="@" horiz-adv-x="1820" d="M1380 51q-112 0 -194 74.5t-82 200.5q-32 -120 -111 -195.5t-182 -75.5q-52 0 -99.5 13t-92 44t-77 77t-52 116.5t-19.5 157.5q0 102 29.5 182.5t78.5 128t108.5 72t123.5 24.5q103 0 182 -76.5t111 -195.5v260h106v-536q0 -124 45 -187t125 -63q43 0 81 13.5t74.5 48 t63 87.5t42.5 138t16 194q0 213 -96 375.5t-265 249t-385 86.5q-162 0 -300.5 -56.5t-237 -158.5t-154 -249.5t-55.5 -322.5t55.5 -322.5t154 -249t237 -158t300.5 -56.5q11 0 11 -10.5t-11 -10.5q-134 0 -260.5 36.5t-233 107.5t-186.5 168t-125 224.5t-45 270.5t45 270.5 t125 224.5t186.5 168t233 107.5t260.5 36.5q167 0 320.5 -52.5t270.5 -145t187 -231.5t70 -302q0 -96 -16.5 -175t-45.5 -132.5t-65.5 -92.5t-80.5 -60.5t-85.5 -31.5t-85.5 -10zM840 86q105 0 184.5 110.5t79.5 264.5q0 155 -80 267t-184 112q-113 0 -182.5 -96.5 t-69.5 -280.5q0 -185 69 -281t183 -96z" />
<glyph unicode="A" horiz-adv-x="1175" d="M1135 84q10 0 10 -12q0 -23 -43 -52.5t-101 -29.5q-61 0 -101 37t-40 110v182q-14 -62 -45 -118.5t-77.5 -104.5t-113.5 -77t-145 -29q-176 0 -276.5 93.5t-100.5 235.5t112.5 232.5t315.5 99.5l330 12v396q0 58 -18 105.5t-56 87t-105.5 61.5t-158.5 22 q-126 0 -226.5 -59.5t-100.5 -124.5q0 -16 11.5 -31t25 -25t25 -26.5t11.5 -36.5q0 -30 -20 -48.5t-47 -18.5q-31 0 -53.5 26.5t-22.5 79.5q0 120 121 204.5t293 84.5q230 0 340 -90t110 -240v-924q0 -75 60 -75q44 0 71 45q5 8 15 8zM514 27q148 0 247 129t99 309v178 l-330 -12q-130 -6 -211 -90.5t-81 -196.5q0 -150 77.5 -233.5t198.5 -83.5z" />
<glyph unicode="B" horiz-adv-x="1169" d="M623 696q214 -9 324 -91t110 -230q0 -181 -134 -278t-372 -97h-471q-10 0 -10 10t10 10h59q20 0 31.5 12.5t11.5 30.5v1223q0 18 -11.5 30.5t-31.5 12.5h-59q-10 0 -10 10q0 11 10 11h430q94 0 173.5 -18.5t144.5 -56.5t102 -104.5t37 -154.5q0 -122 -88.5 -210 t-255.5 -110zM311 1286v-586h219q124 0 214 93t90 223q0 67 -17 122.5t-52.5 99t-95 67.5t-139.5 24h-176q-20 0 -31.5 -12.5t-11.5 -30.5zM571 20q92 0 161 28t110.5 77.5t61.5 112t20 137.5q0 137 -91 221t-262 84h-260v-617q0 -18 11.5 -30.5t31.5 -12.5h217z" />
<glyph unicode="C" horiz-adv-x="1314" d="M1116 1128q0 72 -103.5 139.5t-273.5 67.5q-108 0 -195 -39t-152 -117.5t-100.5 -206.5t-35.5 -298q0 -306 122.5 -478.5t360.5 -172.5q86 0 164.5 27t132 69t89 84.5t49.5 79.5q3 8 10 8q14 0 10 -15q-13 -41 -51 -90t-94 -90q-144 -106 -322 -106q-189 0 -327 89 t-207.5 242.5t-69.5 352.5q0 169 47 302t129 215.5t189 125.5t231 43q110 0 202.5 -28.5t152 -75t92 -104t32.5 -118.5q0 -62 -26 -93.5t-62 -31.5q-32 0 -56 22.5t-24 57.5q0 23 13.5 43t29.5 31.5t29.5 28.5t13.5 36z" />
<glyph unicode="D" horiz-adv-x="1366" d="M508 1350q126 0 233 -21.5t201 -70.5t159.5 -124.5t103.5 -190t38 -259.5t-53 -271t-148 -217t-233 -143.5t-301 -52.5h-428q-10 0 -10 10t10 10h59q20 0 31.5 12.5t11.5 30.5v1223q0 18 -11.5 30.5t-31.5 12.5h-59q-10 0 -10 10q0 11 10 11h428zM508 20q114 0 221 45 t192.5 127t137 210t51.5 282q0 156 -48 280.5t-131.5 203t-191.5 120t-231 41.5h-154q-20 0 -31.5 -12.5t-11.5 -30.5v-1223q0 -18 11.5 -30.5t31.5 -12.5h154z" />
<glyph unicode="E" horiz-adv-x="1372" d="M686 1360q177 0 305.5 -88.5t193 -240.5t64.5 -349q0 -10 -10 -10h-983q1 -133 26 -246t75.5 -206t137.5 -146.5t203 -53.5q83 0 160 24t131.5 60t98.5 80.5t68.5 83t35.5 70.5q3 8 10 8q10 0 10 -12q0 -10 -13.5 -37.5t-39.5 -67t-70 -81t-98 -77t-131 -58.5t-162 -23 q-113 0 -207 34.5t-161.5 97t-114.5 149.5t-69.5 191t-22.5 222q0 197 64.5 348.5t193 239.5t305.5 88zM256 692h860q0 104 -14 196t-46.5 175t-81 142.5t-122.5 94.5t-166 35t-165.5 -34.5t-122 -93.5t-81 -142t-46.5 -175t-15 -198z" />
<glyph unicode="F" horiz-adv-x="1021" d="M80 1350h809v-355q0 -10 -10 -10q-11 0 -11 10v103q0 108 -64.5 169.5t-187.5 61.5h-262q-20 0 -31.5 -12.5t-11.5 -30.5v-571h199q62 0 99.5 9.5t53.5 31.5t19.5 42t3.5 58v23q0 10 10 10q11 0 11 -10v-349q0 -10 -11 -10q-10 0 -10 10v25q0 30 -1.5 46t-11 37t-27.5 31 t-52 17.5t-84 7.5h-199v-631q0 -18 11.5 -30.5t31.5 -12.5h123q10 0 10 -10t-10 -10h-397q-10 0 -10 10t10 10h59q20 0 31.5 12.5t11.5 30.5v1223q0 18 -11.5 30.5t-31.5 12.5h-59q-10 0 -10 10q0 11 10 11z" />
<glyph unicode="G" horiz-adv-x="1404" d="M1221 104q-225 -114 -445 -114q-133 0 -250 43.5t-207.5 127t-143 215.5t-52.5 298q0 143 38 261t100.5 195.5t146 130.5t170.5 76t178 23q122 0 227 -40t170.5 -116t65.5 -170q0 -61 -26.5 -93t-62.5 -32q-32 0 -55.5 22.5t-23.5 57.5q0 23 13.5 43t29.5 31.5t29.5 28.5 t13.5 36q0 50 -51 98t-136.5 78.5t-179.5 30.5q-74 0 -143.5 -19.5t-138 -68t-119 -121.5t-82 -189.5t-31.5 -262.5q0 -161 41.5 -288.5t115.5 -208.5t171.5 -123t212.5 -42q138 0 295 62v448q0 18 -11.5 30.5t-31.5 12.5h-162q-10 0 -10 10q0 11 10 11h334v-482z" />
<glyph unicode="H" horiz-adv-x="1353" d="M1274 20q10 0 10 -10t-10 -10h-334q-10 0 -10 10t10 10h59q20 0 31.5 12.5t11.5 30.5v642h-731v-642q0 -18 11.5 -30.5t31.5 -12.5h60q10 0 10 -10t-10 -10h-334q-10 0 -10 10t10 10h59q20 0 31.5 12.5t11.5 30.5v1223q0 18 -11.5 30.5t-31.5 12.5h-59q-10 0 -10 10 q0 11 10 11h334q10 0 10 -11q0 -10 -10 -10h-60q-20 0 -31.5 -12.5t-11.5 -30.5v-561h731v561q0 18 -11.5 30.5t-31.5 12.5h-59q-10 0 -10 10q0 11 10 11h334q10 0 10 -11q0 -10 -10 -10h-60q-20 0 -31.5 -12.5t-11.5 -30.5v-1223q0 -18 11.5 -30.5t31.5 -12.5h60z" />
<glyph unicode="I" horiz-adv-x="493" d="M414 20q10 0 10 -10t-10 -10h-334q-10 0 -10 10t10 10h59q20 0 31.5 12.5t11.5 30.5v1223q0 18 -11.5 30.5t-31.5 12.5h-59q-10 0 -10 10q0 11 10 11h334q10 0 10 -11q0 -10 -10 -10h-60q-20 0 -31.5 -12.5t-11.5 -30.5v-1223q0 -18 11.5 -30.5t31.5 -12.5h60z" />
<glyph unicode="J" horiz-adv-x="491" d="M412 1350q10 0 10 -11q0 -10 -10 -10h-60q-20 0 -31.5 -12.5t-11.5 -30.5v-1552q0 -102 -71.5 -159.5t-186.5 -57.5q-98 0 -173 49t-75 131q0 55 22 82.5t60 27.5q34 0 52 -18.5t18 -48.5q0 -27 -29.5 -59.5t-29.5 -55.5q0 -33 39 -59.5t96 -26.5q48 0 79 18.5t45.5 54 t19.5 72t5 87.5v270v1245q0 18 -11.5 30.5t-31.5 12.5h-59q-10 0 -10 10q0 11 10 11h334z" />
<glyph unicode="K" horiz-adv-x="1173" d="M414 20q10 0 10 -10t-10 -10h-334q-10 0 -10 10t10 10h59q20 0 31.5 12.5t11.5 30.5v1223q0 18 -11.5 30.5t-31.5 12.5h-59q-10 0 -10 10q0 11 10 11h334q10 0 10 -11q0 -10 -10 -10h-60q-20 0 -31.5 -12.5t-11.5 -30.5v-1223q0 -18 11.5 -30.5t31.5 -12.5h60zM1153 20 q10 0 10 -10t-10 -10h-362q-11 0 -11 10t11 10h49q29 0 36 15.5t-8 32.5l-503 594l604 624q15 12 10 27.5t-33 15.5h-117q-10 0 -10 10q0 11 10 11h318q10 0 10 -11q0 -10 -10 -10h-23q-50 0 -76.5 -9.5t-48.5 -33.5l-534 -553l565 -665q39 -48 92 -48h31z" />
<glyph unicode="L" horiz-adv-x="940" d="M899 344q10 0 10 -10v-334h-829q-10 0 -10 10t10 10h59q20 0 31.5 12.5t11.5 30.5v1223q0 18 -11.5 30.5t-31.5 12.5h-59q-10 0 -10 10q0 11 10 11h334q10 0 10 -11q0 -10 -10 -10h-60q-20 0 -31.5 -12.5t-11.5 -30.5v-1223q0 -18 11.5 -30.5t31.5 -12.5h283 q120 0 186 80t66 193v41q0 10 10 10z" />
<glyph unicode="M" horiz-adv-x="1568" d="M756 -6h-21l-532 1276v-1207q0 -18 11.5 -30.5t31.5 -12.5h59q10 0 10 -10t-10 -10h-225q-10 0 -10 10t10 10h59q20 0 31.5 12.5t11.5 30.5v1223q0 18 -11.5 30.5t-31.5 12.5h-59q-10 0 -10 10q0 11 10 11h229l492 -1180l459 1180h229q10 0 10 -11q0 -10 -10 -10h-59 q-20 0 -32 -12.5t-12 -30.5v-1223q0 -18 12 -30.5t32 -12.5h59q10 0 10 -10t-10 -10h-334q-10 0 -10 10t10 10h59q20 0 31.5 12.5t11.5 30.5v1223z" />
<glyph unicode="N" horiz-adv-x="1351" d="M1272 20q10 0 10 -10t-10 -10h-334q-10 0 -10 10t10 10h59q20 0 31.5 12.5t11.5 30.5v938q0 330 -258 330q-137 0 -245.5 -80t-167 -216t-58.5 -302v-670q0 -18 11.5 -30.5t31.5 -12.5h60q10 0 10 -10t-10 -10h-334q-10 0 -10 10t10 10h59q20 0 31.5 12.5t11.5 30.5v1223 q0 18 -11.5 30.5t-31.5 12.5h-59q-10 0 -10 10q0 11 10 11h227v-448q42 207 177.5 332.5t326.5 125.5q170 0 264 -89.5t94 -299.5v-908q0 -18 11.5 -30.5t31.5 -12.5h60z" />
<glyph unicode="O" d="M707 1360q183 0 316.5 -88t200 -239.5t66.5 -348.5q0 -198 -66.5 -353.5t-200.5 -248t-316 -92.5q-137 0 -248.5 53.5t-184.5 147t-112 220t-39 273.5q0 197 67 348.5t200.5 239.5t316.5 88zM707 14q119 0 208.5 55.5t141 151.5t76 212t24.5 251q0 134 -24.5 247.5 t-76 206t-141 145t-208.5 52.5t-208.5 -52.5t-141 -145t-76.5 -206t-25 -247.5q0 -107 15 -202t49 -182t85 -149.5t128.5 -99.5t173.5 -37z" />
<glyph unicode="P" horiz-adv-x="1083" d="M977 983q0 -182 -132.5 -298t-334.5 -116h-199v-506q0 -18 11.5 -30.5t31.5 -12.5h109q10 0 10 -10t-10 -10h-383q-10 0 -10 10t10 10h59q20 0 31.5 12.5t11.5 30.5v1223q0 18 -11.5 30.5t-31.5 12.5h-59q-10 0 -10 10q0 11 10 11h430q204 0 335.5 -101t131.5 -266z M311 590h172q168 0 264.5 111t96.5 282q0 150 -91 248t-270 98h-129q-20 0 -31.5 -12.5t-11.5 -30.5v-696z" />
<glyph unicode="Q" d="M707 1360q183 0 316.5 -88t200 -239.5t66.5 -348.5q0 -198 -66.5 -353.5t-200.5 -248t-316 -92.5q-137 0 -248.5 53.5t-184.5 147t-112 220t-39 273.5q0 197 67 348.5t200.5 239.5t316.5 88zM707 14q119 0 208.5 55.5t141 151.5t76 212t24.5 251q0 134 -24.5 247.5 t-76 206t-141 145t-208.5 52.5t-208.5 -52.5t-141 -145t-76.5 -206t-25 -247.5q0 -107 15 -202t49 -182t85 -149.5t128.5 -99.5t173.5 -37zM1194 -494q-67 0 -134.5 21.5t-125 55.5t-113 75.5t-106.5 83t-98 75.5t-94.5 55.5t-88.5 21.5q-69 0 -118.5 -51.5t-49.5 -129.5 q0 -10 -10 -10t-10 10q0 94 72.5 159t173.5 65q64 0 144.5 -40.5t158 -98.5t154 -116t154.5 -98.5t138 -40.5q46 0 81.5 15t54 38.5t27.5 46t9 42.5q0 34 -13.5 57t-30.5 33.5t-30.5 29t-13.5 43.5q0 32 19.5 50t50.5 18q75 0 75 -115q0 -40 -7.5 -78t-27 -78.5t-49.5 -70.5 t-79.5 -49t-112.5 -19z" />
<glyph unicode="R" horiz-adv-x="1097" d="M1087 82q11 0 11 -10q0 -9 -20 -28t-58.5 -36.5t-79.5 -17.5q-57 0 -94 23t-54 62t-26 89.5t-15 106.5t-15 112t-31.5 106.5t-59 89.5t-104 62t-160.5 23h-70v-601q0 -18 11.5 -30.5t31.5 -12.5h60q10 0 10 -10t-10 -10h-334q-10 0 -10 10t10 10h59q20 0 31.5 12.5 t11.5 30.5v1223q0 18 -11.5 30.5t-31.5 12.5h-59q-10 0 -10 10q0 11 10 11h389q128 0 224.5 -33.5t154 -106.5t57.5 -178q0 -148 -108.5 -242t-302.5 -116q88 -11 154.5 -40t105 -69t65 -88.5t37.5 -99.5t18 -101.5t12.5 -94.5t14.5 -78t29 -54t53 -20q30 0 52 13.5 t34.5 26.5t17.5 13zM311 684h105q95 0 167 31t111.5 83t58.5 110.5t19 123.5q0 149 -76.5 223t-249.5 74h-92q-20 0 -31.5 -12.5t-11.5 -30.5v-602z" />
<glyph unicode="S" horiz-adv-x="1058" d="M492 -10q-165 0 -280.5 79.5t-115.5 186.5q0 49 20.5 79t53.5 30q26 0 48 -17.5t22 -48.5q0 -21 -11.5 -38t-25.5 -27t-25.5 -24.5t-11.5 -31.5q0 -44 52 -83t124 -60t137 -21q165 0 269 83t104 225q0 63 -25 113.5t-67 84.5t-96.5 62.5t-114.5 52t-120.5 48.5t-115 57 t-96.5 71t-67 97.5t-25 131.5q0 59 22.5 114t68 102t125 75.5t181.5 28.5q166 0 281 -77.5t115 -184.5q0 -49 -20.5 -79t-53.5 -30q-26 0 -48 17.5t-22 48.5q0 21 11.5 38t25.5 27t25.5 24.5t11.5 31.5q0 44 -52.5 82t-123.5 57.5t-137 19.5q-64 0 -118.5 -12t-105 -40.5 t-79.5 -83t-29 -130.5q0 -56 25.5 -101t68 -76.5t98 -58t116.5 -51t122.5 -50.5t117 -60.5t98 -77t68 -105t25.5 -139.5q0 -47 -15 -95t-50 -96.5t-85.5 -85.5t-128 -60t-171.5 -23z" />
<glyph unicode="T" horiz-adv-x="1083" d="M1042 1350v-355q0 -10 -10 -10t-10 10v103q0 108 -64.5 169.5t-187.5 61.5h-121q-20 0 -31.5 -12.5t-11.5 -30.5v-1223q0 -18 11.5 -30.5t31.5 -12.5h60q10 0 10 -10t-10 -10h-334q-10 0 -10 10t10 10h59q20 0 31.5 12.5t11.5 30.5v1223q0 18 -11.5 30.5t-31.5 12.5h-80 q-147 0 -220 -62.5t-73 -209.5v-62q0 -10 -10 -10t-10 10v355h1001z" />
<glyph unicode="U" horiz-adv-x="1351" d="M1272 20q10 0 10 -10t-10 -10h-228v448q-42 -207 -177 -332.5t-326 -125.5q-82 0 -145 19.5t-112.5 63t-75.5 121t-26 185.5v907q0 18 -11.5 30.5t-31.5 12.5h-59q-10 0 -10 10q0 11 10 11h231v-1002q0 -330 258 -330q137 0 245.5 80t167 216t58.5 302v670 q0 18 -11.5 30.5t-31.5 12.5h-59q-10 0 -10 10q0 11 10 11h231v-1287q0 -18 11.5 -30.5t31.5 -12.5h60z" />
<glyph unicode="V" horiz-adv-x="1302" d="M1282 1350q10 0 10 -11q0 -10 -10 -10h-49q-38 0 -59.5 -18t-34.5 -54l-484 -1263h-20l-469 1266q-26 69 -100 69h-46q-10 0 -10 10q0 11 10 11h414q10 0 10 -11q0 -10 -10 -10h-74q-31 0 -45 -20.5t-4 -51.5l396 -1071l409 1071q11 28 -4 50t-45 22h-74q-10 0 -10 10 q0 11 10 11h289z" />
<glyph unicode="W" horiz-adv-x="1824" d="M1804 1350q11 0 11 -11q0 -10 -11 -10h-59q-61 0 -72 -43l-381 -1286h-20l-367 1108l-301 -1108h-20l-441 1286q-16 43 -67 43h-56q-10 0 -10 10q0 11 10 11h398q10 0 10 -11q0 -10 -10 -10h-96q-23 0 -33 -12t-4 -31l362 -1055l303 1119h21l366 -1123l314 1059 q6 19 -2.5 31t-28.5 12h-100q-11 0 -11 10q0 11 11 11h284z" />
<glyph unicode="X" horiz-adv-x="1226" d="M1206 20q11 0 11 -10t-11 -10h-403q-10 0 -10 10t10 10h88q22 0 30.5 13t-1.5 30l-340 564l-355 -564q-10 -20 -0.5 -31.5t31.5 -11.5h78q10 0 10 -10t-10 -10h-293q-10 0 -10 10t10 10h70q31 0 52 8t38 35l366 584l-387 639q-12 20 -37.5 31.5t-52.5 11.5h-37 q-10 0 -10 10q0 11 10 11h357q10 0 10 -11q0 -10 -10 -10h-41q-21 0 -30 -12t1 -31l317 -526l326 526q11 19 0.5 31t-31.5 12h-57q-10 0 -10 10q0 11 10 11h240q10 0 10 -11q0 -10 -10 -10h-37q-65 0 -90 -43l-338 -547l409 -676q25 -43 95 -43h32z" />
<glyph unicode="Y" horiz-adv-x="1105" d="M1085 1350q11 0 11 -11q0 -10 -11 -10h-45q-45 0 -63 -43l-352 -694v-529q0 -18 11.5 -30.5t31.5 -12.5h59q10 0 10 -10t-10 -10h-334q-10 0 -10 10t10 10h60q20 0 31.5 12.5t11.5 30.5v502l-371 721q-22 43 -72 43h-33q-10 0 -10 10q0 11 10 11h345q10 0 10 -11 q0 -10 -10 -10h-64q-22 0 -28 -14t3 -29l336 -674l340 674q9 15 1.5 29t-33.5 14h-50q-10 0 -10 10q0 11 10 11h215z" />
<glyph unicode="Z" horiz-adv-x="1183" d="M1061 365q10 0 10 -11v-354h-958v20l796 1309h-454q-147 0 -220 -62.5t-73 -209.5v-62q0 -10 -10 -10q-11 0 -11 10v355h920v-21l-799 -1309h537q123 0 187.5 62t64.5 170v102q0 11 10 11z" />
<glyph unicode="[" horiz-adv-x="430" d="M358 -535q11 0 11 -10t-11 -10h-276v2048h276q11 0 11 -10t-11 -10h-104q-20 0 -31.5 -12.5t-11.5 -30.5v-1922q0 -18 11.5 -30.5t31.5 -12.5h104z" />
<glyph unicode="\" horiz-adv-x="417" d="M358 0h23l-322 1493h-22z" />
<glyph unicode="]" horiz-adv-x="430" d="M72 -535h104q20 0 31.5 12.5t11.5 30.5v1922q0 18 -11.5 30.5t-31.5 12.5h-104q-11 0 -11 10t11 10h276v-2048h-276q-11 0 -11 10t11 10z" />
<glyph unicode="^" horiz-adv-x="872" d="M766 1026q4 -8 1 -13.5t-10 -5.5t-12 7l-307 389l-309 -389q-6 -8 -13 -8t-9 6t2 14l276 451q17 29 52 29t52 -29z" />
<glyph unicode="_" horiz-adv-x="1257" d="M1083 20q11 0 11 -10t-11 -10h-909q-10 0 -10 10t10 10h909z" />
<glyph unicode="`" horiz-adv-x="626" d="M473 1157l-313 250q-33 27 -16 59q15 28 46 26q23 -2 41 -22l258 -294q11 -11 3.5 -19.5t-19.5 0.5z" />
<glyph unicode="a" horiz-adv-x="1013" d="M711 479v199q0 106 -71 170.5t-171 64.5q-102 0 -173 -40.5t-71 -102.5q0 -20 18.5 -37.5t37 -37t18.5 -44.5q0 -30 -20.5 -48.5t-47.5 -18.5q-31 0 -53 26.5t-22 79.5q0 117 92 182.5t237 65.5q184 0 266.5 -78t82.5 -211v-543q0 -75 59 -75q45 0 72 45q5 8 14 8 q10 0 10 -12q0 -23 -42.5 -52.5t-100.5 -29.5q-60 0 -97.5 37t-37.5 110v142q-31 -131 -110.5 -210t-217.5 -79q-120 0 -193 66t-73 159q0 114 83.5 175.5t282.5 74.5zM711 459l-228 -15q-231 -15 -231 -204q0 -105 47 -153t139 -48q87 0 150 57.5t93 151t30 211.5z" />
<glyph unicode="b" horiz-adv-x="985" d="M578 481q168 -5 262 -60t94 -165q0 -127 -110 -191.5t-292 -64.5h-440q-10 0 -10 10t10 10h60q20 0 31.5 12.5t11.5 30.5v797q0 18 -11.5 30.5t-31.5 12.5h-60q-10 0 -10 10q0 11 10 11h408q366 0 366 -207q0 -91 -77 -157t-211 -79zM367 903q-20 0 -31.5 -12.5 t-11.5 -30.5v-375h168q93 0 162 65t69 161q0 92 -61.5 142t-172.5 50h-122zM522 20q122 0 195.5 65t73.5 169q0 96 -75 153.5t-194 57.5h-198v-402q0 -18 11.5 -30.5t31.5 -12.5h155z" />
<glyph unicode="c" horiz-adv-x="1067" d="M934 670q0 -53 -22.5 -80t-53.5 -27q-27 0 -47 19t-20 49q0 25 18.5 44.5t36.5 37t18 37.5q0 64 -85 113.5t-199 49.5q-53 0 -99 -13.5t-88.5 -46.5t-72.5 -83t-48 -128t-18 -177q0 -212 86.5 -326t251.5 -114q65 0 121.5 22.5t94.5 59t63 74t40 75.5q3 8 11 8 q14 0 10 -14q-14 -43 -42 -85.5t-71 -83t-107 -66t-137 -25.5q-224 0 -341 129t-117 346q0 99 24.5 179.5t66.5 134.5t100 90.5t121.5 52.5t133.5 16q159 0 265 -75t106 -193z" />
<glyph unicode="d" horiz-adv-x="1167" d="M502 924q97 0 175.5 -12.5t150 -44t119.5 -82.5t76 -131t28 -185q0 -214 -148.5 -341.5t-400.5 -127.5h-410q-10 0 -10 10t10 10h60q20 0 31.5 12.5t11.5 30.5v797q0 18 -11.5 30.5t-31.5 12.5h-60q-10 0 -10 10q0 11 10 11h410zM502 20q79 0 150 27.5t129 80.5t92 141 t34 200q0 113 -32 198.5t-88.5 136t-127.5 75t-157 24.5h-135q-20 0 -31.5 -12.5t-11.5 -30.5v-797q0 -18 11.5 -30.5t31.5 -12.5h135z" />
<glyph unicode="e" horiz-adv-x="1124" d="M563 938q91 0 168 -29t135.5 -85.5t91.5 -146.5t33 -204q0 -10 -10 -10h-727q0 -72 12.5 -137t40.5 -122t68.5 -98.5t100 -65.5t132.5 -24q71 0 133 23.5t103.5 61.5t68 77.5t39.5 77.5q3 8 11 8q13 0 10 -14q-7 -24 -22 -53t-46.5 -67t-71.5 -68t-102.5 -51t-134.5 -21 q-80 0 -150.5 17.5t-131 55.5t-104.5 93t-68.5 134t-24.5 175q0 152 60.5 260.5t160 160.5t225.5 52zM254 483h604q0 213 -78.5 322.5t-212.5 109.5q-137 0 -223.5 -112.5t-89.5 -319.5z" />
<glyph unicode="f" horiz-adv-x="890" d="M784 924v-273q0 -10 -10 -10t-10 10v62q0 190 -211 190h-186q-20 0 -31.5 -12.5t-11.5 -30.5v-371h131q88 0 114.5 26t26.5 87v12q0 13 12 13q13 0 13 -13v-270q0 -14 -13 -14q-12 0 -12 14v14q0 29 -4 46.5t-18 34t-43 23.5t-76 7h-131v-406q0 -18 11.5 -30.5 t31.5 -12.5h96q10 0 10 -10t-10 -10h-371q-10 0 -10 10t10 10h60q20 0 31.5 12.5t11.5 30.5v797q0 18 -11.5 30.5t-31.5 12.5h-60q-10 0 -10 10q0 11 10 11h692z" />
<glyph unicode="g" horiz-adv-x="1124" d="M989 82q-182 -92 -360 -92q-109 0 -201.5 30t-162 88t-109 150t-39.5 209q0 99 28.5 180t76.5 134t113 89t135.5 52t147.5 16q151 0 258 -69t107 -173q0 -52 -23.5 -78t-56.5 -26q-28 0 -48.5 19.5t-20.5 50.5q0 22 16 40t32.5 34t16.5 34q0 54 -80 96.5t-184 42.5 q-57 0 -106.5 -10.5t-100.5 -40.5t-86.5 -77.5t-58.5 -128t-23 -185.5q0 -222 108.5 -338.5t284.5 -116.5q117 0 201 37v293q0 16 -10 26.5t-27 10.5h-110q-11 0 -11 10t11 10h282v-317z" />
<glyph unicode="h" horiz-adv-x="1183" d="M1092 20q10 0 10 -10t-10 -10h-334q-10 0 -10 10t10 10h59q20 0 31.5 12.5t11.5 30.5v400h-536v-400q0 -18 11.5 -30.5t31.5 -12.5h59q10 0 10 -10t-10 -10h-334q-10 0 -10 10t10 10h60q20 0 31.5 12.5t11.5 30.5v797q0 18 -11.5 30.5t-31.5 12.5h-60q-10 0 -10 10 q0 11 10 11h334q10 0 10 -11q0 -10 -10 -10h-59q-20 0 -31.5 -12.5t-11.5 -30.5v-377h536v377q0 18 -11.5 30.5t-31.5 12.5h-59q-10 0 -10 10q0 11 10 11h334q10 0 10 -11q0 -10 -10 -10h-60q-20 0 -31.5 -12.5t-11.5 -30.5v-797q0 -18 11.5 -30.5t31.5 -12.5h60z" />
<glyph unicode="i" horiz-adv-x="497" d="M178 1247q0 31 23 53.5t55 22.5q31 0 53.5 -22.5t22.5 -53.5t-22.5 -53.5t-53.5 -22.5q-32 0 -55 22.5t-23 53.5zM420 20q10 0 10 -10t-10 -10h-328q-10 0 -10 10t10 10h60q20 0 31.5 12.5t11.5 30.5v797q0 18 -11.5 30.5t-31.5 12.5h-60q-10 0 -10 10q0 11 10 11h225 v-861q0 -18 11.5 -30.5t31.5 -12.5h60z" />
<glyph unicode="j" horiz-adv-x="491" d="M166 1247q0 31 23 53.5t55 22.5q31 0 53 -22.5t22 -53.5t-22 -53.5t-53 -22.5q-32 0 -55 22.5t-23 53.5zM78 924h225v-1088q0 -107 -74.5 -162t-179.5 -55q-100 0 -176 49t-76 131q0 54 22 82.5t60 28.5q29 0 49.5 -17t20.5 -51q0 -26 -30 -60t-30 -54q0 -36 41 -61 t95 -25q64 0 109.5 40t45.5 121v1057q0 18 -11.5 30.5t-31.5 12.5h-59q-10 0 -10 10q0 11 10 11z" />
<glyph unicode="k" horiz-adv-x="999" d="M426 0h-334q-10 0 -10 10t10 10h60q20 0 31.5 12.5t11.5 30.5v797q0 18 -11.5 30.5t-31.5 12.5h-60q-10 0 -10 10q0 11 10 11h334q10 0 10 -11q0 -10 -10 -10h-59q-20 0 -31.5 -12.5t-11.5 -30.5v-797q0 -18 11.5 -30.5t31.5 -12.5h59q12 0 12 -10t-12 -10zM979 20 q10 0 10 -10t-10 -10h-348q-10 0 -10 10t10 10h65q11 0 18 6t7 15q0 12 -12 27l-363 430l455 362q12 9 12 23q0 20 -35 20h-76q-10 0 -10 10q0 11 10 11h271q10 0 10 -11q0 -10 -10 -10h-15q-69 0 -124 -43l-379 -301l413 -491q39 -48 93 -48h18z" />
<glyph unicode="l" horiz-adv-x="845" d="M324 860v-797q0 -18 11.5 -30.5t31.5 -12.5h206q211 0 211 191v61q0 11 11 11q10 0 10 -11v-272h-713q-10 0 -10 10t10 10h60q20 0 31.5 12.5t11.5 30.5v797q0 18 -11.5 30.5t-31.5 12.5h-60q-10 0 -10 10q0 11 10 11h334q10 0 10 -11q0 -10 -10 -10h-59 q-20 0 -31.5 -12.5t-11.5 -30.5z" />
<glyph unicode="m" horiz-adv-x="1759" d="M1681 20q11 0 11 -10t-11 -10h-327q-11 0 -11 10t11 10h59q20 0 31.5 12.5t11.5 30.5v545q0 82 -17 142t-46 91t-60.5 44.5t-66.5 13.5q-142 0 -230 -129t-88 -313v-394q0 -18 11.5 -30.5t31.5 -12.5h60q10 0 10 -10t-10 -10h-328q-10 0 -10 10t10 10h59q20 0 31.5 12.5 t11.5 30.5v545q0 82 -17 142t-46 91t-60.5 44.5t-66.5 13.5q-142 0 -230 -129t-88 -313v-394q0 -18 11.5 -30.5t31.5 -12.5h60q10 0 10 -10t-10 -10h-328q-10 0 -10 10t10 10h60q20 0 31.5 12.5t11.5 30.5v797q0 18 -11.5 30.5t-31.5 12.5h-60q-10 0 -10 10q0 11 10 11h225 v-299q35 140 127 224.5t228 84.5q143 0 209.5 -78t66.5 -231q35 140 127 224.5t228 84.5q132 0 204 -73.5t72 -205.5v-592q0 -18 11.5 -30.5t31.5 -12.5h59z" />
<glyph unicode="n" horiz-adv-x="1153" d="M1075 20q10 0 10 -10t-10 -10h-327q-11 0 -11 10t11 10h59q20 0 31.5 12.5t11.5 30.5v545q0 82 -19 142t-50.5 91t-64.5 44.5t-69 13.5q-143 0 -236.5 -129.5t-93.5 -312.5v-394q0 -18 11.5 -30.5t31.5 -12.5h60q10 0 10 -10t-10 -10h-328q-10 0 -10 10t10 10h60 q20 0 31.5 12.5t11.5 30.5v797q0 18 -11.5 30.5t-31.5 12.5h-60q-10 0 -10 10q0 11 10 11h225v-306q37 141 133 228.5t234 87.5q133 0 211 -74t78 -205v-592q0 -18 11.5 -30.5t31.5 -12.5h59z" />
<glyph unicode="o" horiz-adv-x="1171" d="M586 -8q-88 0 -170.5 30.5t-149.5 88t-108 149.5t-41 205t41 205t108 149.5t149.5 88t170.5 30.5t170.5 -30.5t149.5 -88t108 -149.5t41 -205t-41 -205t-108 -149.5t-149.5 -88t-170.5 -30.5zM586 12q141 2 236.5 121.5t95.5 331.5q0 214 -95.5 333.5t-236.5 119.5 t-236.5 -119.5t-95.5 -333.5q0 -212 95.5 -331.5t236.5 -121.5z" />
<glyph unicode="p" horiz-adv-x="983" d="M866 649q0 -135 -98 -211t-283 -76h-161v-299q0 -18 11.5 -30.5t31.5 -12.5h96q10 0 10 -10t-10 -10h-371q-10 0 -10 10t10 10h60q20 0 31.5 12.5t11.5 30.5v797q0 18 -11.5 30.5t-31.5 12.5h-60q-10 0 -10 10q0 11 10 11h393q183 0 282 -75t99 -200zM723 649 q0 112 -63.5 183t-202.5 71h-90q-20 0 -31.5 -12.5t-11.5 -30.5v-477h133q133 0 199.5 70.5t66.5 195.5z" />
<glyph unicode="q" horiz-adv-x="1089" d="M586 -8q-88 0 -170.5 30.5t-149.5 88t-108 149.5t-41 205t41 205t108 149.5t149.5 88t170.5 30.5t170.5 -30.5t149.5 -88t108 -149.5t41 -205t-41 -205t-108 -149.5t-149.5 -88t-170.5 -30.5zM586 12q141 2 236.5 121.5t95.5 331.5q0 214 -95.5 333.5t-236.5 119.5 t-236.5 -119.5t-95.5 -333.5q0 -212 95.5 -331.5t236.5 -121.5zM911 -410q-60 0 -119 20.5t-105.5 51.5t-94.5 67.5t-87 67.5t-82 51.5t-81 20.5q-53 0 -88 -31t-35 -92q0 -10 -10 -10t-10 10q0 82 61 135t146 53q54 0 115.5 -30.5t117 -74t110 -87t112 -74t106.5 -30.5 q63 0 90.5 27.5t27.5 62.5q0 23 -12 40t-26.5 25t-26.5 22.5t-12 34.5q0 27 19 45.5t46 18.5q31 0 49.5 -25t18.5 -69q0 -30 -7 -60t-23.5 -61.5t-42 -55t-66 -38.5t-91.5 -15z" />
<glyph unicode="r" horiz-adv-x="811" d="M623 934q48 0 82.5 -14.5t52.5 -39.5t25.5 -51.5t7.5 -56.5q0 -46 -20.5 -76t-61.5 -30q-30 0 -50 17t-20 50q0 26 29.5 60.5t29.5 52.5q0 28 -23 44.5t-65 16.5q-53 0 -104 -34t-93.5 -97.5t-69 -166.5t-26.5 -228v-318q0 -18 11.5 -30.5t31.5 -12.5h117q10 0 10 -10 t-10 -10h-385q-10 0 -10 10t10 10h60q20 0 31.5 12.5t11.5 30.5v797q0 18 -11.5 30.5t-31.5 12.5h-60q-10 0 -10 10q0 11 10 11h225v-334q19 91 55 161t79.5 108t86.5 56.5t85 18.5z" />
<glyph unicode="s" horiz-adv-x="993" d="M504 860q0 -43 20.5 -86t53.5 -79t72.5 -72.5t79.5 -74.5t73 -77t53.5 -87t20.5 -99q0 -141 -110 -218t-290 -77q-158 0 -259 74.5t-101 193.5q0 42 17 68t42 34l262 494q13 66 56 135q15 24 32 42t25 18q6 0 8.5 -5.5t-0.5 -9.5q-55 -88 -55 -174zM461 14q84 0 144 20.5 t91.5 56.5t45.5 76.5t14 88.5q0 43 -25.5 90t-63 86t-81 85t-79.5 87t-58 93t-17 102l-231 -434q25 -2 42 -19.5t17 -48.5q0 -20 -11.5 -36.5t-25.5 -26.5t-25.5 -25t-11.5 -31q0 -64 81 -114t194 -50z" />
<glyph unicode="t" horiz-adv-x="763" d="M713 197q10 0 10 -11t-8 -32q-9 -26 -25 -50.5t-44 -52t-74 -44.5t-103 -17q-136 0 -205 71t-69 175v667h-103q-10 0 -10 10q0 11 10 11h25q180 0 180 243q0 11 10 11t10 -11v-243h334q11 0 11 -11q0 -10 -11 -10h-334v-667q0 -101 47 -160.5t125 -59.5q156 0 207 152 q1 4 3 9t3 8t2.5 6t3.5 4.5t5 1.5z" />
<glyph unicode="u" horiz-adv-x="1128" d="M1051 20q10 0 10 -10t-10 -10h-226v297q-35 -139 -126.5 -224t-227.5 -85q-132 0 -204 73t-72 205v594q0 18 -11.5 30.5t-31.5 12.5h-60q-10 0 -10 10q0 11 10 11h225v-611q0 -82 17 -142t46.5 -90.5t61 -44t66.5 -13.5q95 0 168 61t111 161t38 220v395q0 18 -11.5 30.5 t-31.5 12.5h-59q-10 0 -10 10q0 11 10 11h225v-861q0 -18 11.5 -30.5t31.5 -12.5h60z" />
<glyph unicode="v" horiz-adv-x="1028" d="M1008 924q10 0 10 -11q0 -10 -10 -10h-41q-46 0 -64 -43l-364 -860h-21l-395 860q-19 43 -66 43h-37q-10 0 -10 10q0 11 10 11h357q10 0 10 -11q0 -10 -10 -10h-88q-31 0 -31 -24q0 -5 4 -17l318 -715l301 713q4 8 4 19q0 24 -33 24h-80q-10 0 -10 10q0 11 10 11h236z " />
<glyph unicode="w" horiz-adv-x="1411" d="M1391 924q10 0 10 -11q0 -10 -10 -10h-60q-57 0 -71 -43l-283 -860h-21l-254 725l-217 -725h-20l-322 860q-16 43 -67 43h-56q-10 0 -10 10q0 11 10 11h390q10 0 10 -11q0 -10 -10 -10h-97q-18 0 -28.5 -8.5t-10.5 -20.5q0 -8 2 -14l248 -663l219 727h21l256 -729 l217 665q2 6 2 14q0 12 -9 20.5t-24 8.5h-100q-10 0 -10 10q0 11 10 11h285z" />
<glyph unicode="x" horiz-adv-x="989" d="M969 20q10 0 10 -10t-10 -10h-389q-11 0 -11 10t11 10h88q22 0 31 14t-3 29l-243 361l-301 -361q-13 -19 -2.5 -31t32.5 -12h58q10 0 10 -10t-10 -10h-220q-10 0 -10 10t10 10h17q54 0 90 43l313 379l-280 418q-29 43 -90 43h-37q-10 0 -10 10q0 11 10 11h342 q10 0 10 -11q0 -10 -10 -10h-41q-21 0 -30.5 -12t1.5 -31l234 -348l278 348q12 19 1.5 31t-32.5 12h-57q-10 0 -10 10q0 11 10 11h240q10 0 10 -11q0 -10 -10 -10h-37q-58 0 -90 -43l-291 -366l291 -431q30 -43 94 -43h33z" />
<glyph unicode="y" horiz-adv-x="933" d="M535 383l249 477q9 25 0.5 34t-28.5 9h-78q-10 0 -10 10q0 11 10 11h235q11 0 11 -11q0 -10 -11 -10h-41q-42 0 -63 -43l-266 -508v-289q0 -18 11.5 -30.5t31.5 -12.5h59q10 0 10 -10t-10 -10h-334q-10 0 -10 10t10 10h60q20 0 31.5 12.5t11.5 30.5v285l-291 512 q-12 22 -26 32.5t-40 10.5h-37q-10 0 -10 10q0 11 10 11h357q10 0 10 -11q0 -10 -10 -10h-88q-21 0 -28.5 -12t1.5 -29z" />
<glyph unicode="z" horiz-adv-x="1075" d="M907 924v-21l-633 -883h361q120 0 186 80t66 193v41q0 10 10 10t10 -10v-334h-784v20l633 883h-342q-120 0 -186 -79.5t-66 -192.5v-41q0 -10 -10 -10q-11 0 -11 10v334h766z" />
<glyph unicode="{" horiz-adv-x="641" d="M567 -535q13 0 13 -10t-13 -10h-20q-172 0 -243 66t-71 235v533q0 89 -45 151t-118 62h-25q-10 0 -10 10t10 10h25q72 0 117.5 58.5t45.5 134.5v485q0 169 71.5 236t242.5 67h20q13 0 13 -10t-13 -10q-59 0 -101 -22.5t-65.5 -63t-34 -89t-10.5 -108.5v-326 q0 -89 -8 -147.5t-30 -106.5t-63 -73.5t-104 -34.5q63 -9 104 -34.5t63 -73.5t30 -107t8 -148v-393q0 -58 10.5 -106.5t34 -89t65.5 -63t101 -22.5z" />
<glyph unicode="|" horiz-adv-x="323" d="M201 -555h-21v2048h21v-2048z" />
<glyph unicode="}" horiz-adv-x="651" d="M606 512q10 0 10 -10t-10 -10h-24q-73 0 -118.5 -62t-45.5 -151v-533q0 -169 -71 -235t-243 -66h-20q-12 0 -12 10t12 10q59 0 101 22.5t65.5 63t34 89t10.5 106.5v393q0 89 8 148t30 107t63 73.5t104 34.5q-63 9 -104 34.5t-63 73.5t-30 106.5t-8 147.5v326 q0 60 -10.5 108.5t-34 89t-65.5 63t-101 22.5q-12 0 -12 10t12 10h20q171 0 242.5 -67t71.5 -236v-485q0 -76 46 -134.5t118 -58.5h24z" />
<glyph unicode="~" horiz-adv-x="1126" d="M782 279q-64 0 -121.5 23.5t-100.5 57.5t-84 67.5t-90.5 57t-102.5 23.5q-61 0 -110.5 -37.5t-49.5 -99.5q0 -7 -5.5 -10t-10.5 0t-5 10q0 89 62.5 148t159.5 59q58 0 111 -23.5t94.5 -57.5t83.5 -68t96 -57.5t114 -23.5q66 0 122 44t56 114q0 9 5.5 12.5t11.5 0t6 -12.5 q0 -94 -69.5 -160.5t-172.5 -66.5z" />
<glyph unicode="&#xa1;" horiz-adv-x="471" d="M149 1131q0 30 20.5 51t49.5 21q30 0 51 -21t21 -51q0 -29 -21 -49.5t-51 -20.5q-29 0 -49.5 20.5t-20.5 49.5zM221 -608q-28 0 -48 21t-20 59q0 41 25.5 372.5t25.5 632.5q0 6 4 10.5t9 4.5t8.5 -4.5t3.5 -10.5q0 -225 14.5 -439t28.5 -360.5t14 -205.5q0 -38 -19 -59 t-46 -21z" />
<glyph unicode="&#xa2;" horiz-adv-x="1046" d="M922 264q14 0 10 -14q-14 -43 -42 -85t-70.5 -83t-106.5 -66.5t-137 -25.5q-65 0 -128 13l-75 -359q-4 -11 -10 -11q-12 0 -9 15l75 359q-153 40 -232.5 160.5t-79.5 297.5q0 99 24.5 179.5t66.5 134.5t100 90.5t121.5 52.5t133.5 16q31 0 60 -3l67 318q4 11 12 11 q4 0 7 -4t2 -11l-69 -316q129 -18 210.5 -89.5t81.5 -173.5q0 -53 -22.5 -80t-53.5 -27q-27 0 -47 19t-20 49q0 25 18.5 44.5t36.5 37t18 37.5q0 64 -85 113.5t-199 49.5q-53 0 -99 -13.5t-88.5 -46.5t-72.5 -83t-48 -128t-18 -177q0 -212 86.5 -326t251.5 -114 q65 0 121.5 22.5t94.5 59t63 74t40 75.5q3 8 11 8z" />
<glyph unicode="&#xa3;" horiz-adv-x="1284" d="M1202 371q10 0 10 -11q0 -95 -24.5 -168t-66 -116t-92 -64.5t-107.5 -21.5q-38 0 -76.5 8.5t-64.5 16.5t-65.5 30.5t-54 31.5t-58 40t-51.5 37q-40 -81 -114.5 -122.5t-158.5 -41.5q-59 0 -105.5 35.5t-46.5 103.5q0 73 49.5 108t122.5 35q75 0 153 -21q3 34 3 73 q0 104 -34 346h-173q-10 0 -10 10t10 10h170q-29 213 -29 332q0 109 58.5 187.5t151.5 114.5t210 36q97 0 179.5 -33t135 -99t52.5 -153q0 -59 -25.5 -92t-63.5 -33q-32 0 -55.5 22.5t-23.5 57.5q0 23 13.5 42t29.5 30t29.5 29t13.5 38q0 72 -80.5 119t-204.5 47 q-143 0 -215 -86t-72 -227q0 -88 34 -332h284q10 0 10 -10t-10 -10h-281q29 -215 29 -346q0 -57 -15 -114q12 -5 56.5 -22.5t61.5 -24t56.5 -19.5t65 -18t61.5 -10t70 -5q51 0 92 11t66.5 27t43.5 41t27 45t13.5 48t5 40.5t0.5 31.5v5q0 11 10 11zM278 10q147 0 171 206 q-74 36 -150 36q-62 0 -107 -30t-45 -93q0 -60 42 -89.5t89 -29.5z" />
<glyph unicode="&#xa4;" horiz-adv-x="1384" d="M1143 461q0 -179 -123 -307l156 -156l-17 -16l-156 155q-127 -119 -303 -119q-179 0 -309 125l-164 -161l-16 16l164 162q-117 127 -117 301t118 302l-165 165l16 16l165 -165q127 124 308 124q174 0 301 -117l158 158l17 -16l-158 -158q125 -130 125 -309zM279 461 q0 -175 123 -298.5t298 -123.5t298.5 123.5t123.5 298.5t-123.5 298.5t-298.5 123.5t-298 -123.5t-123 -298.5z" />
<glyph unicode="&#xa5;" horiz-adv-x="1105" d="M1085 1350q11 0 11 -11q0 -10 -11 -10h-45q-45 0 -63 -43l-342 -674h237q11 0 11 -10t-11 -10h-247v-152h247q11 0 11 -10t-11 -10h-247v-357q0 -18 11.5 -30.5t31.5 -12.5h59q10 0 10 -10t-10 -10h-334q-10 0 -10 10t10 10h60q20 0 31.5 12.5t11.5 30.5v357h-260 q-11 0 -11 10t11 10h260v125l-14 27h-246q-11 0 -11 10t11 10h235l-346 674q-22 43 -72 43h-33q-10 0 -10 10q0 11 10 11h345q10 0 10 -11q0 -10 -10 -10h-64q-22 0 -28 -14t3 -29l336 -674l340 674q9 15 1.5 29t-33.5 14h-50q-10 0 -10 10q0 11 10 11h215z" />
<glyph unicode="&#xa6;" horiz-adv-x="323" d="M180 780v713h21v-713h-21zM201 190v-745h-21v745h21z" />
<glyph unicode="&#xa7;" horiz-adv-x="862" d="M745 385q0 -54 -18.5 -105.5t-33.5 -73.5t-41 -55q122 -127 122 -282q0 -83 -29 -149t-77 -105.5t-106.5 -60.5t-121.5 -21q-124 0 -213.5 71.5t-89.5 196.5q0 51 25 79t57 28q26 0 44 -18.5t18 -49.5q0 -20 -11.5 -36.5t-25.5 -26.5t-25.5 -25t-11.5 -31 q0 -70 69 -116.5t160 -46.5q49 0 92.5 15.5t80 48t58 88.5t21.5 130q0 59 -29 113.5t-75 99t-101.5 88t-111 89t-101.5 93t-75 108.5t-29 128q0 54 18.5 105.5t33.5 74.5t41 55q-122 127 -122 281q0 83 29 148.5t77 105.5t107 61t123 21q123 0 212 -72t89 -196 q0 -51 -25 -79t-57 -28q-26 0 -43.5 18.5t-17.5 49.5q0 20 11.5 36.5t25.5 26.5t25.5 25t11.5 31q0 70 -69.5 116.5t-160.5 46.5q-49 0 -92.5 -15.5t-80 -48t-58 -88.5t-21.5 -130q0 -59 29 -113.5t75 -99t101.5 -88t111 -89t101.5 -93t75 -108.5t29 -128zM236 631 q0 -60 25 -112.5t70.5 -97.5t92.5 -81.5t109.5 -85t101.5 -86.5q41 79 41 145q0 60 -25 112.5t-70.5 97.5t-92.5 81.5t-109.5 85t-101.5 86.5q-41 -79 -41 -145z" />
<glyph unicode="&#xa8;" horiz-adv-x="1034" d="M311 1329q0 26 18 44t44 18t43.5 -18t17.5 -44t-17.5 -43.5t-43.5 -17.5t-44 17.5t-18 43.5zM610 1329q0 26 18 44t44 18t43.5 -18t17.5 -44t-17.5 -43.5t-43.5 -17.5t-44 17.5t-18 43.5z" />
<glyph unicode="&#xa9;" horiz-adv-x="1073" d="M537 584q-189 0 -322 132.5t-133 321.5t133 322t322 133t321.5 -132.5t132.5 -322.5q0 -189 -132 -321.5t-322 -132.5zM537 608q179 0 304.5 126t125.5 304t-125.5 304t-304.5 126t-305 -126t-126 -304t126 -304t305 -126zM555 752q-132 0 -207.5 81t-75.5 211 q0 73 24 130t64 90t88 50t101 17q89 0 154 -45t65 -117q0 -35 -16 -58.5t-43 -23.5q-24 0 -42 16.5t-18 41.5q0 22 20.5 45t20.5 43q0 33 -34.5 54.5t-84.5 21.5q-84 0 -142 -64.5t-58 -200.5q0 -122 61 -191t150 -69q54 0 96 31t67 82q6 12 15 12q16 0 10 -18 q-6 -15 -18.5 -34t-37 -45t-66.5 -43t-93 -17z" />
<glyph unicode="&#xaa;" horiz-adv-x="886" d="M360 797q-103 0 -175 74t-72 214q0 136 72 212.5t175 76.5q74 0 126.5 -43.5t82.5 -116.5v150h117v-494q0 -14 10 -24t25 -10h27q14 0 14 -13q0 -14 -14 -14h-179v147q-63 -159 -209 -159zM395 1335q-151 0 -151 -250q0 -249 151 -249q71 0 123.5 74.5t52.5 174.5 t-54 175t-122 75zM805 684q10 0 10 -10t-10 -10h-723q-10 0 -10 10t10 10h723z" />
<glyph unicode="&#xab;" horiz-adv-x="940" d="M139 457q190 182 318 377q6 9 -2.5 14.5t-14.5 -2.5q-83 -104 -188.5 -204t-175.5 -146q-33 -25 -31 -41t31 -37q70 -46 175.5 -146t188.5 -204q6 -8 14.5 -2.5t2.5 14.5q-128 195 -318 377zM518 457q190 182 318 377q6 9 -2.5 14.5t-14.5 -2.5q-83 -104 -188.5 -204 t-175.5 -146q-33 -25 -31 -41t31 -37q70 -46 175.5 -146t188.5 -204q6 -8 14.5 -2.5t2.5 14.5q-128 195 -318 377z" />
<glyph unicode="&#xad;" horiz-adv-x="602" d="M541 487q10 0 10 -10t-10 -10h-480q-10 0 -10 10t10 10h480z" />
<glyph unicode="&#xae;" horiz-adv-x="1073" d="M537 1493q189 0 321.5 -132.5t132.5 -322.5q0 -189 -132 -321.5t-322 -132.5q-189 0 -322 132.5t-133 321.5t133 322t322 133zM537 608q179 0 304.5 126t125.5 304t-125.5 304t-304.5 126t-305 -126t-126 -304t126 -304t305 -126zM766 809q10 0 10 -8q0 -10 -18.5 -18.5 t-36.5 -8.5q-47 0 -73.5 19.5t-32.5 48.5t-12.5 63t-13 63t-33.5 48.5t-75 19.5h-22v-215q0 -11 5 -15.5t23 -4.5q11 0 11 -10q0 -11 -11 -11h-153q-10 0 -10 11q0 10 10 10q19 0 25 4.5t6 15.5v453q0 20 -31 20q-10 0 -10 11q0 10 10 10h186q91 0 143 -31t52 -96 q0 -51 -45 -90t-113 -51q51 -7 85 -28.5t47 -48.5t20 -57t7.5 -55t6 -41t18.5 -16q8 0 15 4t10 4zM459 1057h37q118 0 118 127q0 63 -33 86.5t-102 23.5q-20 0 -20 -20v-217z" />
<glyph unicode="&#xaf;" horiz-adv-x="733" d="M96 1292q-14 0 -14 15q0 14 14 14h574q14 0 14 -14q0 -15 -14 -15h-574z" />
<glyph unicode="&#xb0;" horiz-adv-x="710" d="M356 926q-82 0 -142 59t-60 143q0 80 60 140.5t142 60.5t141.5 -60.5t59.5 -140.5q0 -82 -60.5 -142t-140.5 -60zM356 958q70 0 119 49t49 121q0 69 -49 118.5t-119 49.5q-72 0 -121 -49t-49 -119q0 -72 49.5 -121t120.5 -49z" />
<glyph unicode="&#xb1;" horiz-adv-x="741" d="M666 614q10 0 10 -10t-10 -10h-279v-277q0 -10 -10 -10t-10 10v277h-277q-10 0 -10 10t10 10h277v279q0 10 10 10t10 -10v-279h279zM651 164q11 0 11 -10q0 -11 -11 -11h-575q-10 0 -10 11q0 10 10 10h575z" />
<glyph unicode="&#xb4;" horiz-adv-x="626" d="M162 1157q-12 -9 -20 -0.5t3 19.5l258 294q30 34 66 17q29 -14 27 -44q-1 -20 -21 -36z" />
<glyph unicode="&#xb6;" horiz-adv-x="819" d="M512 758h-76q-145 0 -239.5 79t-94.5 224q0 139 95.5 214t244.5 75h297q12 0 12 -10.5t-12 -10.5h-26q-27 0 -27 -26v-1303h-20v1329h-134v-1329h-20v758z" />
<glyph unicode="&#xb7;" horiz-adv-x="540" d="M193 518q0 31 22.5 53.5t54.5 22.5q31 0 53.5 -22.5t22.5 -53.5t-22.5 -53.5t-53.5 -22.5q-32 0 -54.5 22.5t-22.5 53.5z" />
<glyph unicode="&#xb8;" horiz-adv-x="1228" d="M168 -158l35 172h20l-30 -155q104 0 162.5 -41t58.5 -113q0 -81 -68.5 -129.5t-159.5 -48.5q-83 0 -131 37q-30 23 -30 41q0 10 10 10q5 0 20.5 -14.5t45 -28.5t69.5 -14q59 0 100 37t41 102q0 57 -37 99t-106 46z" />
<glyph unicode="&#xba;" horiz-adv-x="757" d="M379 799q-127 0 -204 77t-77 211q0 127 75.5 207t205.5 80q127 0 203.5 -75t76.5 -212q0 -134 -75 -211t-205 -77zM379 1346q-72 0 -117 -67t-45 -194q0 -117 44 -188.5t118 -71.5q74 2 118 69.5t44 190.5q0 127 -45 194t-117 67zM676 684q10 0 10 -10t-10 -10h-594 q-10 0 -10 10t10 10h594z" />
<glyph unicode="&#xbb;" horiz-adv-x="940" d="M422 457q-190 -182 -318 -377q-6 -9 2.5 -14.5t14.5 2.5q83 104 188.5 204t175.5 146q29 21 31 37t-31 41q-70 46 -175.5 146t-188.5 204q-6 8 -14.5 2.5t-2.5 -14.5q128 -195 318 -377zM801 457q-190 -182 -318 -377q-6 -9 2.5 -14.5t14.5 2.5q83 104 188.5 204 t175.5 146q29 21 31 37t-31 41q-70 46 -175.5 146t-188.5 204q-6 8 -14.5 2.5t-2.5 -14.5q128 -195 318 -377z" />
<glyph unicode="&#xbc;" horiz-adv-x="1236" d="M1050 1493h25l-822 -1645h-24zM455 616q0 -4 -4 -8t-9 -4h-266q-12 0 -12 12q0 13 12 13h53q13 0 22 9t9 21v625h-84q-12 0 -12 12q0 13 12 13h10q83 0 152 37q7 4 13.5 9t10 7t7.5 2q12 0 12 -14v-691q0 -12 9 -21t24 -9h28q4 0 8.5 -4.5t4.5 -8.5zM1192 168 q12 0 12 -12q0 -13 -12 -13h-90v-88q0 -12 8.5 -21t21.5 -9h31q10 0 10 -13q0 -12 -10 -12h-244q-5 0 -8.5 4t-3.5 8q0 5 4 9t8 4h29q15 0 24 9t9 21v88h-365v23q88 61 152 133.5t98 142t49 130.5t15 118q0 33 19 51.5t46 18.5q26 0 45 -18.5t19 -51.5q0 -78 -40.5 -166 t-133.5 -184.5t-226 -171.5h322v215q61 58 96 131q6 12 14 12q11 0 11 -12v-346h90z" />
<glyph unicode="&#xbd;" horiz-adv-x="1400" d="M253 -152h-24l821 1645h25zM442 629q4 0 8.5 -4.5t4.5 -8.5t-4 -8t-9 -4h-266q-12 0 -12 12q0 13 12 13h53q13 0 22 9t9 21v625h-84q-12 0 -12 12q0 13 12 13h10q83 0 152 37q7 4 13.5 9t10 7t7.5 2q12 0 12 -14v-691q0 -12 9 -21t24 -9h28zM1345 199v-35 q0 -172 -161 -172q-52 0 -145.5 24.5t-133.5 24.5q-21 0 -35.5 -7.5t-19.5 -17t-11.5 -17t-13.5 -7.5q-12 0 -12 12v41q0 69 22 124.5t57 91.5t77.5 66t84.5 55t77 50.5t57 61t22 79.5q0 73 -45 116.5t-125 43.5q-71 0 -114.5 -26.5t-43.5 -61.5q0 -20 26 -45.5t26 -48.5 q0 -26 -18.5 -41.5t-43.5 -15.5q-29 0 -49 22t-20 62q0 73 69 127.5t191 54.5q121 0 197.5 -52.5t76.5 -146.5q0 -51 -21 -91t-56 -65t-79 -47.5t-90.5 -39.5t-91 -40.5t-80 -50t-57.5 -68.5t-23 -96q34 74 121 74q36 0 119 -16.5t125 -16.5q58 0 88.5 25t30.5 70 q0 10 10 10q12 0 12 -10z" />
<glyph unicode="&#xbe;" horiz-adv-x="1533" d="M1277 1493h24l-821 -1645h-25zM707 821q0 -94 -74 -156.5t-205 -62.5q-122 0 -193 52t-71 130q0 39 19.5 60.5t47.5 21.5q26 0 45 -16t19 -43q0 -21 -24.5 -44t-24.5 -40q0 -37 43.5 -64.5t118.5 -27.5q86 0 130 51t44 135q0 90 -51.5 137t-114.5 47h-4q-8 0 -13.5 5 t-5.5 12q0 12 17 20q75 44 147 99q76 59 103 126q-33 -38 -103 -38q-36 0 -117 16t-123 16q-118 0 -118 -92q0 -12 -11 -12q-12 0 -12 12v35q0 170 162 170q52 0 141.5 -23.5t130.5 -23.5q21 0 35.5 8.5t19.5 18t11.5 18t13.5 8.5q12 0 12 -12v-21q0 -97 -68.5 -171.5 t-203.5 -147.5q80 -4 137 -23t86 -49t41.5 -61.5t12.5 -69.5zM1418 168q13 0 13 -12q0 -13 -13 -13h-90v-88q0 -12 9 -21t22 -9h31q10 0 10 -13q0 -12 -10 -12h-244q-4 0 -8 4t-4 8q0 5 4 9t8 4h29q15 0 24 9t9 21v88h-365v23q88 61 152 133.5t97.5 142t48.5 130.5t15 118 q0 33 19.5 51.5t46.5 18.5q25 0 44 -18.5t19 -51.5q0 -58 -24 -123t-70.5 -134t-125.5 -138.5t-179 -126.5h321v215q63 60 97 131q6 12 14 12q10 0 10 -12v-346h90z" />
<glyph unicode="&#xbf;" horiz-adv-x="901" d="M606 1182q0 -31 -23 -53.5t-55 -22.5q-31 0 -53 22.5t-22 53.5t22 53t53 22q32 0 55 -22t23 -53zM496 -557q93 0 162 54.5t69 131.5q0 29 -15 51.5t-33 35t-33 32t-15 41.5q0 35 24 57.5t56 22.5q39 0 63.5 -34.5t24.5 -100.5q0 -101 -48 -174.5t-121 -107.5t-159 -34 q-94 0 -175.5 27.5t-137.5 89.5t-56 148q0 67 23 126t59.5 106t81 95t89 103.5t81 119t59.5 154.5t23 199v106q0 10 10 10q11 0 11 -10v-106q0 -115 -22.5 -218t-56 -173t-73 -139.5t-73 -123t-56 -119t-22.5 -130.5q0 -123 72.5 -181.5t187.5 -58.5z" />
<glyph unicode="&#xc0;" horiz-adv-x="1175" d="M305 1683q-34 27 -15 60q16 28 48 25q22 -2 39 -21l258 -295q11 -11 3 -19t-20 1zM1135 84q10 0 10 -12q0 -23 -43 -52.5t-101 -29.5q-61 0 -101 37t-40 110v182q-14 -62 -45 -118.5t-77.5 -104.5t-113.5 -77t-145 -29q-176 0 -276.5 93.5t-100.5 235.5t112.5 232.5 t315.5 99.5l330 12v396q0 58 -18 105.5t-56 87t-105.5 61.5t-158.5 22q-126 0 -226.5 -59.5t-100.5 -124.5q0 -16 11.5 -31t25 -25t25 -26.5t11.5 -36.5q0 -30 -20 -48.5t-47 -18.5q-31 0 -53.5 26.5t-22.5 79.5q0 120 121 204.5t293 84.5q230 0 340 -90t110 -240v-924 q0 -75 60 -75q44 0 71 45q5 8 15 8zM514 27q148 0 247 129t99 309v178l-330 -12q-130 -6 -211 -90.5t-81 -196.5q0 -150 77.5 -233.5t198.5 -83.5z" />
<glyph unicode="&#xc1;" horiz-adv-x="1175" d="M485 1452q-12 -9 -19.5 -1t3.5 19l258 295q30 34 66 17q29 -14 27 -44q-1 -20 -21 -36zM1135 84q10 0 10 -12q0 -23 -43 -52.5t-101 -29.5q-61 0 -101 37t-40 110v182q-14 -62 -45 -118.5t-77.5 -104.5t-113.5 -77t-145 -29q-176 0 -276.5 93.5t-100.5 235.5t112.5 232.5 t315.5 99.5l330 12v396q0 58 -18 105.5t-56 87t-105.5 61.5t-158.5 22q-126 0 -226.5 -59.5t-100.5 -124.5q0 -16 11.5 -31t25 -25t25 -26.5t11.5 -36.5q0 -30 -20 -48.5t-47 -18.5q-31 0 -53.5 26.5t-22.5 79.5q0 120 121 204.5t293 84.5q230 0 340 -90t110 -240v-924 q0 -75 60 -75q44 0 71 45q5 8 15 8zM514 27q148 0 247 129t99 309v178l-330 -12q-130 -6 -211 -90.5t-81 -196.5q0 -150 77.5 -233.5t198.5 -83.5z" />
<glyph unicode="&#xc2;" horiz-adv-x="1175" d="M354 1438q-6 -7 -13 -7t-9 5.5t2 13.5l174 297q19 31 52 31t52 -31l174 -297q4 -8 2 -13.5t-9 -5.5t-13 7l-205 235zM1135 84q10 0 10 -12q0 -23 -43 -52.5t-101 -29.5q-61 0 -101 37t-40 110v182q-14 -62 -45 -118.5t-77.5 -104.5t-113.5 -77t-145 -29 q-176 0 -276.5 93.5t-100.5 235.5t112.5 232.5t315.5 99.5l330 12v396q0 58 -18 105.5t-56 87t-105.5 61.5t-158.5 22q-126 0 -226.5 -59.5t-100.5 -124.5q0 -16 11.5 -31t25 -25t25 -26.5t11.5 -36.5q0 -30 -20 -48.5t-47 -18.5q-31 0 -53.5 26.5t-22.5 79.5 q0 120 121 204.5t293 84.5q230 0 340 -90t110 -240v-924q0 -75 60 -75q44 0 71 45q5 8 15 8zM514 27q148 0 247 129t99 309v178l-330 -12q-130 -6 -211 -90.5t-81 -196.5q0 -150 77.5 -233.5t198.5 -83.5z" />
<glyph unicode="&#xc3;" horiz-adv-x="1175" d="M170 1445q-10 0 -10 12q0 90 62.5 148.5t158.5 58.5q50 0 103 -23t91 -51t88 -51t95 -23q24 0 50 8t50.5 23.5t40.5 43.5t16 63q0 14 11 14q12 0 12 -14q0 -90 -65 -148.5t-156 -58.5q-51 0 -104.5 23t-92 50.5t-88 50.5t-92.5 23q-61 0 -110.5 -37.5t-49.5 -99.5 q0 -12 -10 -12zM1135 84q10 0 10 -12q0 -23 -43 -52.5t-101 -29.5q-61 0 -101 37t-40 110v182q-14 -62 -45 -118.5t-77.5 -104.5t-113.5 -77t-145 -29q-176 0 -276.5 93.5t-100.5 235.5t112.5 232.5t315.5 99.5l330 12v396q0 58 -18 105.5t-56 87t-105.5 61.5t-158.5 22 q-126 0 -226.5 -59.5t-100.5 -124.5q0 -16 11.5 -31t25 -25t25 -26.5t11.5 -36.5q0 -30 -20 -48.5t-47 -18.5q-31 0 -53.5 26.5t-22.5 79.5q0 120 121 204.5t293 84.5q230 0 340 -90t110 -240v-924q0 -75 60 -75q44 0 71 45q5 8 15 8zM514 27q148 0 247 129t99 309v178 l-330 -12q-130 -6 -211 -90.5t-81 -196.5q0 -150 77.5 -233.5t198.5 -83.5z" />
<glyph unicode="&#xc4;" horiz-adv-x="1175" d="M397 1427q-26 0 -43.5 18t-17.5 44t17.5 43.5t43.5 17.5t44 -17.5t18 -43.5t-18 -44t-44 -18zM696 1427q-26 0 -43.5 18t-17.5 44t17.5 43.5t43.5 17.5t44 -17.5t18 -43.5t-18 -44t-44 -18zM1135 84q10 0 10 -12q0 -23 -43 -52.5t-101 -29.5q-61 0 -101 37t-40 110v182 q-14 -62 -45 -118.5t-77.5 -104.5t-113.5 -77t-145 -29q-176 0 -276.5 93.5t-100.5 235.5t112.5 232.5t315.5 99.5l330 12v396q0 58 -18 105.5t-56 87t-105.5 61.5t-158.5 22q-126 0 -226.5 -59.5t-100.5 -124.5q0 -16 11.5 -31t25 -25t25 -26.5t11.5 -36.5q0 -30 -20 -48.5 t-47 -18.5q-31 0 -53.5 26.5t-22.5 79.5q0 120 121 204.5t293 84.5q230 0 340 -90t110 -240v-924q0 -75 60 -75q44 0 71 45q5 8 15 8zM514 27q148 0 247 129t99 309v178l-330 -12q-130 -6 -211 -90.5t-81 -196.5q0 -150 77.5 -233.5t198.5 -83.5z" />
<glyph unicode="&#xc5;" horiz-adv-x="1175" d="M550 1434q-82 0 -141.5 58.5t-59.5 141.5q0 80 59 139.5t142 59.5q81 0 140 -59.5t59 -139.5q0 -82 -59.5 -141t-139.5 -59zM550 1804q-72 0 -122 -50t-50 -120q0 -72 50.5 -122t121.5 -50q70 0 120 50t50 122q0 69 -50 119.5t-120 50.5zM1135 84q10 0 10 -12 q0 -23 -43 -52.5t-101 -29.5q-61 0 -101 37t-40 110v182q-14 -62 -45 -118.5t-77.5 -104.5t-113.5 -77t-145 -29q-176 0 -276.5 93.5t-100.5 235.5t112.5 232.5t315.5 99.5l330 12v396q0 58 -18 105.5t-56 87t-105.5 61.5t-158.5 22q-126 0 -226.5 -59.5t-100.5 -124.5 q0 -16 11.5 -31t25 -25t25 -26.5t11.5 -36.5q0 -30 -20 -48.5t-47 -18.5q-31 0 -53.5 26.5t-22.5 79.5q0 120 121 204.5t293 84.5q230 0 340 -90t110 -240v-924q0 -75 60 -75q44 0 71 45q5 8 15 8zM514 27q148 0 247 129t99 309v178l-330 -12q-130 -6 -211 -90.5t-81 -196.5 q0 -150 77.5 -233.5t198.5 -83.5z" />
<glyph unicode="&#xc6;" horiz-adv-x="1853" d="M1016 1350h704v-355q0 -10 -10 -10t-10 10v103q0 108 -64.5 169.5t-187.5 61.5h-320q-20 0 -31.5 -12.5t-11.5 -30.5v-571h199q62 0 99.5 9.5t53.5 31.5t19.5 42t3.5 58v23q0 10 10 10q11 0 11 -10v-349q0 -10 -11 -10q-10 0 -10 10v25q0 30 -1.5 46t-11 37t-27.5 31 t-52 17.5t-84 7.5h-199v-631q0 -18 11.5 -30.5t31.5 -12.5h330q120 0 186 80t66 193v41q0 10 10 10q11 0 11 -10v-334h-877q-10 0 -10 10t10 10h59q20 0 31.5 12.5t11.5 30.5v383h-532l-244 -354q-17 -26 0 -49t49 -23h74q10 0 10 -10t-10 -10h-293q-10 0 -10 10t10 10h49 q10 0 18.5 1.5t14.5 3.5t13 7l10.5 7.5t10 11t9 12t9.5 14.5t10 15zM956 467v758l-518 -758h518z" />
<glyph unicode="&#xc7;" horiz-adv-x="1314" d="M1184 291q14 0 10 -14q-13 -41 -51.5 -90.5t-93.5 -90.5q-144 -106 -322 -106h-9l-26 -131q104 0 162.5 -41t58.5 -113q0 -81 -68.5 -129.5t-158.5 -48.5q-83 0 -131 37q-31 24 -31 41q0 10 11 10q5 0 20.5 -14.5t45 -28.5t69.5 -14q59 0 100 37t41 102q0 57 -37 99 t-106 46l30 148q-180 7 -311.5 97.5t-197.5 241.5t-66 345q0 169 47 302t129 215.5t189 125.5t231 43q110 0 202.5 -28.5t152 -75t92 -104t32.5 -118.5q0 -62 -26 -93.5t-62 -31.5q-32 0 -56 22.5t-24 57.5q0 23 13.5 43t29.5 31.5t29.5 28.5t13.5 36q0 72 -103.5 139.5 t-273.5 67.5q-108 0 -195 -39t-152 -117.5t-100.5 -206.5t-35.5 -298q0 -306 122.5 -478.5t360.5 -172.5q86 0 164.5 27t132 69t89 84.5t49.5 79.5q3 8 10 8z" />
<glyph unicode="&#xc8;" horiz-adv-x="1372" d="M442 1683q-34 27 -15 60q16 28 48 25q22 -2 39 -21l258 -295q11 -11 3.5 -19t-19.5 1zM686 1360q177 0 305.5 -88.5t193 -240.5t64.5 -349q0 -10 -10 -10h-983q1 -133 26 -246t75.5 -206t137.5 -146.5t203 -53.5q83 0 160 24t131.5 60t98.5 80.5t68.5 83t35.5 70.5 q3 8 10 8q10 0 10 -12q0 -10 -13.5 -37.5t-39.5 -67t-70 -81t-98 -77t-131 -58.5t-162 -23q-113 0 -207 34.5t-161.5 97t-114.5 149.5t-69.5 191t-22.5 222q0 197 64.5 348.5t193 239.5t305.5 88zM256 692h860q0 104 -14 196t-46.5 175t-81 142.5t-122.5 94.5t-166 35 t-165.5 -34.5t-122 -93.5t-81 -142t-46.5 -175t-15 -198z" />
<glyph unicode="&#xc9;" horiz-adv-x="1372" d="M623 1452q-12 -9 -20 -1t3 19l258 295q30 34 66 17q29 -14 27 -44q-1 -20 -21 -36zM686 1360q177 0 305.5 -88.5t193 -240.5t64.5 -349q0 -10 -10 -10h-983q1 -133 26 -246t75.5 -206t137.5 -146.5t203 -53.5q83 0 160 24t131.5 60t98.5 80.5t68.5 83t35.5 70.5q3 8 10 8 q10 0 10 -12q0 -10 -13.5 -37.5t-39.5 -67t-70 -81t-98 -77t-131 -58.5t-162 -23q-113 0 -207 34.5t-161.5 97t-114.5 149.5t-69.5 191t-22.5 222q0 197 64.5 348.5t193 239.5t305.5 88zM256 692h860q0 104 -14 196t-46.5 175t-81 142.5t-122.5 94.5t-166 35t-165.5 -34.5 t-122 -93.5t-81 -142t-46.5 -175t-15 -198z" />
<glyph unicode="&#xca;" horiz-adv-x="1372" d="M492 1438q-6 -7 -13 -7t-9.5 5.5t1.5 13.5l174 297q19 31 52.5 31t52.5 -31l174 -297q4 -8 1.5 -13.5t-9.5 -5.5t-13 7l-205 235zM686 1360q177 0 305.5 -88.5t193 -240.5t64.5 -349q0 -10 -10 -10h-983q1 -133 26 -246t75.5 -206t137.5 -146.5t203 -53.5q83 0 160 24 t131.5 60t98.5 80.5t68.5 83t35.5 70.5q3 8 10 8q10 0 10 -12q0 -10 -13.5 -37.5t-39.5 -67t-70 -81t-98 -77t-131 -58.5t-162 -23q-113 0 -207 34.5t-161.5 97t-114.5 149.5t-69.5 191t-22.5 222q0 197 64.5 348.5t193 239.5t305.5 88zM256 692h860q0 104 -14 196 t-46.5 175t-81 142.5t-122.5 94.5t-166 35t-165.5 -34.5t-122 -93.5t-81 -142t-46.5 -175t-15 -198z" />
<glyph unicode="&#xcb;" horiz-adv-x="1372" d="M535 1427q-26 0 -44 18t-18 44t18 43.5t44 17.5t43.5 -17.5t17.5 -43.5t-17.5 -44t-43.5 -18zM834 1427q-26 0 -44 18t-18 44t18 43.5t44 17.5t43.5 -17.5t17.5 -43.5t-17.5 -44t-43.5 -18zM686 1360q177 0 305.5 -88.5t193 -240.5t64.5 -349q0 -10 -10 -10h-983 q1 -133 26 -246t75.5 -206t137.5 -146.5t203 -53.5q83 0 160 24t131.5 60t98.5 80.5t68.5 83t35.5 70.5q3 8 10 8q10 0 10 -12q0 -10 -13.5 -37.5t-39.5 -67t-70 -81t-98 -77t-131 -58.5t-162 -23q-113 0 -207 34.5t-161.5 97t-114.5 149.5t-69.5 191t-22.5 222 q0 197 64.5 348.5t193 239.5t305.5 88zM256 692h860q0 104 -14 196t-46.5 175t-81 142.5t-122.5 94.5t-166 35t-165.5 -34.5t-122 -93.5t-81 -142t-46.5 -175t-15 -198z" />
<glyph unicode="&#xcc;" horiz-adv-x="493" d="M319 1434l-313 249q-34 27 -15 60q16 28 48 25q22 -2 39 -21l258 -295q11 -11 3 -19t-20 1zM414 20q10 0 10 -10t-10 -10h-334q-10 0 -10 10t10 10h59q20 0 31.5 12.5t11.5 30.5v1223q0 18 -11.5 30.5t-31.5 12.5h-59q-10 0 -10 10q0 11 10 11h334q10 0 10 -11 q0 -10 -10 -10h-60q-20 0 -31.5 -12.5t-11.5 -30.5v-1223q0 -18 11.5 -30.5t31.5 -12.5h60z" />
<glyph unicode="&#xcd;" horiz-adv-x="493" d="M186 1452q-12 -9 -19.5 -1t3.5 19l258 295q30 34 66 17q29 -14 27 -44q-1 -20 -21 -36zM414 20q10 0 10 -10t-10 -10h-334q-10 0 -10 10t10 10h59q20 0 31.5 12.5t11.5 30.5v1223q0 18 -11.5 30.5t-31.5 12.5h-59q-10 0 -10 10q0 11 10 11h334q10 0 10 -11q0 -10 -10 -10 h-60q-20 0 -31.5 -12.5t-11.5 -30.5v-1223q0 -18 11.5 -30.5t31.5 -12.5h60z" />
<glyph unicode="&#xce;" horiz-adv-x="493" d="M487 1450q4 -8 2 -13.5t-9 -5.5t-13 7l-205 235l-207 -235q-6 -7 -13 -7t-9 5.5t2 13.5l174 297q19 31 52 31t52 -31zM414 20q10 0 10 -10t-10 -10h-334q-10 0 -10 10t10 10h59q20 0 31.5 12.5t11.5 30.5v1223q0 18 -11.5 30.5t-31.5 12.5h-59q-10 0 -10 10q0 11 10 11 h334q10 0 10 -11q0 -10 -10 -10h-60q-20 0 -31.5 -12.5t-11.5 -30.5v-1223q0 -18 11.5 -30.5t31.5 -12.5h60z" />
<glyph unicode="&#xcf;" horiz-adv-x="493" d="M37 1489q0 26 17.5 43.5t43.5 17.5t44 -17.5t18 -43.5t-18 -44t-44 -18t-43.5 18t-17.5 44zM336 1489q0 26 17.5 43.5t43.5 17.5t44 -17.5t18 -43.5t-18 -44t-44 -18t-43.5 18t-17.5 44zM414 20q10 0 10 -10t-10 -10h-334q-10 0 -10 10t10 10h59q20 0 31.5 12.5 t11.5 30.5v1223q0 18 -11.5 30.5t-31.5 12.5h-59q-10 0 -10 10q0 11 10 11h334q10 0 10 -11q0 -10 -10 -10h-60q-20 0 -31.5 -12.5t-11.5 -30.5v-1223q0 -18 11.5 -30.5t31.5 -12.5h60z" />
<glyph unicode="&#xd0;" horiz-adv-x="1366" d="M508 1350q126 0 233 -21.5t201 -70.5t159.5 -124.5t103.5 -190t38 -259.5t-53 -271t-148 -217t-233 -143.5t-301 -52.5h-428q-10 0 -10 10t10 10h59q20 0 31.5 12.5t11.5 30.5v631h-102q-10 0 -10 11q0 10 10 10h102v571q0 18 -11.5 30.5t-31.5 12.5h-59q-10 0 -10 10 q0 11 10 11h428zM508 20q114 0 221 45t192.5 127t137 210t51.5 282q0 156 -48 280.5t-131.5 203t-191.5 120t-231 41.5h-154q-20 0 -31.5 -12.5t-11.5 -30.5v-571h406q10 0 10 -10q0 -11 -10 -11h-406v-631q0 -18 11.5 -30.5t31.5 -12.5h154z" />
<glyph unicode="&#xd1;" horiz-adv-x="1351" d="M373 1445q-11 0 -11 12q0 89 62.5 148t159.5 59q50 0 103 -23t91 -51t88 -51t95 -23q24 0 50 8t50.5 23.5t40.5 43.5t16 63q0 14 10 14q13 0 13 -14q0 -90 -65 -148.5t-156 -58.5q-51 0 -104.5 23t-92 50.5t-88 50.5t-92.5 23q-61 0 -110.5 -37.5t-49.5 -99.5 q0 -12 -10 -12zM1272 20q10 0 10 -10t-10 -10h-334q-10 0 -10 10t10 10h59q20 0 31.5 12.5t11.5 30.5v938q0 330 -258 330q-137 0 -245.5 -80t-167 -216t-58.5 -302v-670q0 -18 11.5 -30.5t31.5 -12.5h60q10 0 10 -10t-10 -10h-334q-10 0 -10 10t10 10h59q20 0 31.5 12.5 t11.5 30.5v1223q0 18 -11.5 30.5t-31.5 12.5h-59q-10 0 -10 10q0 11 10 11h227v-448q42 207 177.5 332.5t326.5 125.5q170 0 264 -89.5t94 -299.5v-908q0 -18 11.5 -30.5t31.5 -12.5h60z" />
<glyph unicode="&#xd2;" d="M776 1434l-313 249q-34 27 -15 60q16 28 48 25q22 -2 39 -21l258 -295q11 -11 3 -19t-20 1zM707 1360q183 0 316.5 -88t200 -239.5t66.5 -348.5q0 -198 -66.5 -353.5t-200.5 -248t-316 -92.5q-137 0 -248.5 53.5t-184.5 147t-112 220t-39 273.5q0 197 67 348.5 t200.5 239.5t316.5 88zM707 14q119 0 208.5 55.5t141 151.5t76 212t24.5 251q0 134 -24.5 247.5t-76 206t-141 145t-208.5 52.5t-208.5 -52.5t-141 -145t-76.5 -206t-25 -247.5q0 -107 15 -202t49 -182t85 -149.5t128.5 -99.5t173.5 -37z" />
<glyph unicode="&#xd3;" d="M643 1452q-12 -9 -19.5 -1t3.5 19l258 295q31 34 66 16q28 -14 26 -43q-1 -20 -21 -36zM707 1360q183 0 316.5 -88t200 -239.5t66.5 -348.5q0 -198 -66.5 -353.5t-200.5 -248t-316 -92.5q-137 0 -248.5 53.5t-184.5 147t-112 220t-39 273.5q0 197 67 348.5t200.5 239.5 t316.5 88zM707 14q119 0 208.5 55.5t141 151.5t76 212t24.5 251q0 134 -24.5 247.5t-76 206t-141 145t-208.5 52.5t-208.5 -52.5t-141 -145t-76.5 -206t-25 -247.5q0 -107 15 -202t49 -182t85 -149.5t128.5 -99.5t173.5 -37z" />
<glyph unicode="&#xd4;" d="M944 1450q4 -8 2 -13.5t-9 -5.5t-13 7l-205 235l-207 -235q-6 -7 -13 -7t-9 5.5t2 13.5l174 297q19 31 52 31t52 -31zM707 1360q183 0 316.5 -88t200 -239.5t66.5 -348.5q0 -198 -66.5 -353.5t-200.5 -248t-316 -92.5q-137 0 -248.5 53.5t-184.5 147t-112 220t-39 273.5 q0 197 67 348.5t200.5 239.5t316.5 88zM707 14q119 0 208.5 55.5t141 151.5t76 212t24.5 251q0 134 -24.5 247.5t-76 206t-141 145t-208.5 52.5t-208.5 -52.5t-141 -145t-76.5 -206t-25 -247.5q0 -107 15 -202t49 -182t85 -149.5t128.5 -99.5t173.5 -37z" />
<glyph unicode="&#xd5;" d="M874 1447q-51 0 -104.5 23t-91.5 50.5t-87.5 50.5t-92.5 23q-61 0 -110.5 -37.5t-49.5 -99.5q0 -12 -10 -12q-11 0 -11 12q0 89 62.5 148t159.5 59q50 0 103 -23t91 -51t87.5 -51t94.5 -23q33 0 67.5 13t62.5 46t28 79q0 14 10 14q13 0 13 -14q0 -90 -65 -148.5 t-157 -58.5zM707 1360q183 0 316.5 -88t200 -239.5t66.5 -348.5q0 -198 -66.5 -353.5t-200.5 -248t-316 -92.5q-137 0 -248.5 53.5t-184.5 147t-112 220t-39 273.5q0 197 67 348.5t200.5 239.5t316.5 88zM707 14q119 0 208.5 55.5t141 151.5t76 212t24.5 251 q0 134 -24.5 247.5t-76 206t-141 145t-208.5 52.5t-208.5 -52.5t-141 -145t-76.5 -206t-25 -247.5q0 -107 15 -202t49 -182t85 -149.5t128.5 -99.5t173.5 -37z" />
<glyph unicode="&#xd6;" d="M494 1489q0 26 17.5 43.5t43.5 17.5t43.5 -17.5t17.5 -43.5t-17.5 -44t-43.5 -18t-43.5 18t-17.5 44zM793 1489q0 26 17.5 43.5t43.5 17.5t43.5 -17.5t17.5 -43.5t-17.5 -44t-43.5 -18t-43.5 18t-17.5 44zM707 1360q183 0 316.5 -88t200 -239.5t66.5 -348.5 q0 -198 -66.5 -353.5t-200.5 -248t-316 -92.5q-137 0 -248.5 53.5t-184.5 147t-112 220t-39 273.5q0 197 67 348.5t200.5 239.5t316.5 88zM707 14q119 0 208.5 55.5t141 151.5t76 212t24.5 251q0 134 -24.5 247.5t-76 206t-141 145t-208.5 52.5t-208.5 -52.5t-141 -145 t-76.5 -206t-25 -247.5q0 -107 15 -202t49 -182t85 -149.5t128.5 -99.5t173.5 -37z" />
<glyph unicode="&#xd7;" horiz-adv-x="720" d="M572 293q7 -7 0 -14t-14 0l-198 197l-128 -128l-37 -38l-74 -74q-7 -8 -15 0t0 15l240 239l-127 128l-38 37l-74 74q-7 7 0 15t15 0l238 -239l197 196q7 7 14 0t0 -14l-196 -197z" />
<glyph unicode="&#xd8;" d="M836 1347q216 -44 335 -222.5t119 -440.5q0 -198 -66.5 -353.5t-200.5 -248t-316 -92.5q-83 0 -153 18l-28 -129h-20l28 135q-130 39 -224 136t-140.5 233.5t-46.5 300.5q0 197 67 348.5t200.5 239.5t316.5 88q57 0 108 -9l29 138h22zM256 684q0 -108 16 -205t49 -183 t89 -151t131 -98l268 1277q-50 11 -102 11q-119 0 -208.5 -52.5t-141 -145t-76.5 -206t-25 -247.5zM707 14q119 0 208.5 55.5t141 151.5t76 212t24.5 251q0 115 -18 215.5t-56 187t-102.5 147t-150.5 85.5l-270 -1280q67 -25 147 -25z" />
<glyph unicode="&#xd9;" horiz-adv-x="1351" d="M467 1683q-34 27 -15 60q16 28 48 25q22 -2 39 -21l258 -295q11 -11 3 -19t-20 1zM1272 20q10 0 10 -10t-10 -10h-228v448q-42 -207 -177 -332.5t-326 -125.5q-82 0 -145 19.5t-112.5 63t-75.5 121t-26 185.5v907q0 18 -11.5 30.5t-31.5 12.5h-59q-10 0 -10 10 q0 11 10 11h231v-1002q0 -330 258 -330q137 0 245.5 80t167 216t58.5 302v670q0 18 -11.5 30.5t-31.5 12.5h-59q-10 0 -10 10q0 11 10 11h231v-1287q0 -18 11.5 -30.5t31.5 -12.5h60z" />
<glyph unicode="&#xda;" horiz-adv-x="1351" d="M647 1452q-12 -9 -19.5 -1t3.5 19l258 295q30 34 66 17q29 -14 27 -44q-1 -20 -21 -36zM1272 20q10 0 10 -10t-10 -10h-228v448q-42 -207 -177 -332.5t-326 -125.5q-82 0 -145 19.5t-112.5 63t-75.5 121t-26 185.5v907q0 18 -11.5 30.5t-31.5 12.5h-59q-10 0 -10 10 q0 11 10 11h231v-1002q0 -330 258 -330q137 0 245.5 80t167 216t58.5 302v670q0 18 -11.5 30.5t-31.5 12.5h-59q-10 0 -10 10q0 11 10 11h231v-1287q0 -18 11.5 -30.5t31.5 -12.5h60z" />
<glyph unicode="&#xdb;" horiz-adv-x="1351" d="M516 1438q-6 -7 -13 -7t-9 5.5t2 13.5l174 297q19 31 52 31t52 -31l174 -297q4 -8 2 -13.5t-9 -5.5t-13 7l-205 235zM1272 20q10 0 10 -10t-10 -10h-228v448q-42 -207 -177 -332.5t-326 -125.5q-82 0 -145 19.5t-112.5 63t-75.5 121t-26 185.5v907q0 18 -11.5 30.5 t-31.5 12.5h-59q-10 0 -10 10q0 11 10 11h231v-1002q0 -330 258 -330q137 0 245.5 80t167 216t58.5 302v670q0 18 -11.5 30.5t-31.5 12.5h-59q-10 0 -10 10q0 11 10 11h231v-1287q0 -18 11.5 -30.5t31.5 -12.5h60z" />
<glyph unicode="&#xdc;" horiz-adv-x="1351" d="M559 1427q-26 0 -43.5 18t-17.5 44t17.5 43.5t43.5 17.5t44 -17.5t18 -43.5t-18 -44t-44 -18zM858 1427q-26 0 -43.5 18t-17.5 44t17.5 43.5t43.5 17.5t44 -17.5t18 -43.5t-18 -44t-44 -18zM1272 20q10 0 10 -10t-10 -10h-228v448q-42 -207 -177 -332.5t-326 -125.5 q-82 0 -145 19.5t-112.5 63t-75.5 121t-26 185.5v907q0 18 -11.5 30.5t-31.5 12.5h-59q-10 0 -10 10q0 11 10 11h231v-1002q0 -330 258 -330q137 0 245.5 80t167 216t58.5 302v670q0 18 -11.5 30.5t-31.5 12.5h-59q-10 0 -10 10q0 11 10 11h231v-1287q0 -18 11.5 -30.5 t31.5 -12.5h60z" />
<glyph unicode="&#xdd;" horiz-adv-x="1105" d="M522 1452q-12 -9 -19.5 -1t3.5 19l258 295q30 34 66 17q29 -14 27 -44q-1 -20 -21 -36zM1085 1350q11 0 11 -11q0 -10 -11 -10h-45q-45 0 -63 -43l-352 -694v-529q0 -18 11.5 -30.5t31.5 -12.5h59q10 0 10 -10t-10 -10h-334q-10 0 -10 10t10 10h60q20 0 31.5 12.5 t11.5 30.5v502l-371 721q-22 43 -72 43h-33q-10 0 -10 10q0 11 10 11h345q10 0 10 -11q0 -10 -10 -10h-64q-22 0 -28 -14t3 -29l336 -674l340 674q9 15 1.5 29t-33.5 14h-50q-10 0 -10 10q0 11 10 11h215z" />
<glyph unicode="&#xde;" horiz-adv-x="1083" d="M510 1067q204 0 335.5 -101t131.5 -266q0 -182 -132.5 -297.5t-334.5 -115.5h-199v-224q0 -18 11.5 -30.5t31.5 -12.5h60q10 0 10 -10t-10 -10h-334q-10 0 -10 10t10 10h59q20 0 31.5 12.5t11.5 30.5v1223q0 18 -11.5 30.5t-31.5 12.5h-59q-10 0 -10 10q0 11 10 11h334 q10 0 10 -11q0 -10 -10 -10h-60q-20 0 -31.5 -12.5t-11.5 -30.5v-219h199zM483 307q168 0 264.5 111t96.5 282q0 150 -91 248.5t-270 98.5h-172v-740h172z" />
<glyph unicode="&#xdf;" horiz-adv-x="1202" d="M664 782q0 -56 43.5 -101t105.5 -80t123.5 -73.5t105 -100.5t43.5 -142q0 -93 -46 -161.5t-117 -101t-154 -32.5q-131 0 -205 73t-74 195q0 51 25 80t57 29q24 0 41 -18.5t17 -49.5q0 -23 -13.5 -41.5t-30.5 -29.5t-30.5 -27.5t-13.5 -36.5q0 -62 62.5 -106t148.5 -44 q58 0 101 20.5t66.5 56t34.5 77t11 88.5q0 46 -20 86t-52.5 70.5t-71.5 58.5t-77.5 56t-71 57.5t-52.5 68t-20 82.5q0 61 28 113.5t67.5 93.5t79 83t67.5 100t28 126q0 62 -23.5 111t-63 77t-85 42t-94.5 14q-56 0 -104 -17t-91 -53.5t-67.5 -104t-24.5 -159.5v-1098 q0 -18 11.5 -30.5t31.5 -12.5h60q10 0 10 -10t-10 -10h-328q-10 0 -10 10t10 10h60q20 0 31.5 12.5t11.5 30.5v840h-103q-10 0 -10 10q0 11 10 11h103v202q0 82 23 149t61.5 111t89.5 74t105.5 43t111.5 13q59 0 111.5 -14t97 -44t70.5 -83t26 -124q0 -69 -23.5 -124 t-56.5 -91.5t-66.5 -71.5t-57 -80.5t-23.5 -101.5z" />
<glyph unicode="&#xe0;" horiz-adv-x="1013" d="M557 1157l-313 250q-33 27 -16 59q15 28 46 26q23 -2 41 -22l258 -294q11 -11 3.5 -19.5t-19.5 0.5zM711 479v199q0 106 -71 170.5t-171 64.5q-102 0 -173 -40.5t-71 -102.5q0 -20 18.5 -37.5t37 -37t18.5 -44.5q0 -30 -20.5 -48.5t-47.5 -18.5q-31 0 -53 26.5t-22 79.5 q0 117 92 182.5t237 65.5q184 0 266.5 -78t82.5 -211v-543q0 -75 59 -75q45 0 72 45q5 8 14 8q10 0 10 -12q0 -23 -42.5 -52.5t-100.5 -29.5q-60 0 -97.5 37t-37.5 110v142q-31 -131 -110.5 -210t-217.5 -79q-120 0 -193 66t-73 159q0 114 83.5 175.5t282.5 74.5zM711 459 l-228 -15q-231 -15 -231 -204q0 -105 47 -153t139 -48q87 0 150 57.5t93 151t30 211.5z" />
<glyph unicode="&#xe1;" horiz-adv-x="1013" d="M393 1157q-12 -9 -19.5 -0.5t3.5 19.5l258 294q30 34 66 17q29 -14 27 -44q-1 -20 -21 -36zM711 479v199q0 106 -71 170.5t-171 64.5q-102 0 -173 -40.5t-71 -102.5q0 -20 18.5 -37.5t37 -37t18.5 -44.5q0 -30 -20.5 -48.5t-47.5 -18.5q-31 0 -53 26.5t-22 79.5 q0 117 92 182.5t237 65.5q184 0 266.5 -78t82.5 -211v-543q0 -75 59 -75q45 0 72 45q5 8 14 8q10 0 10 -12q0 -23 -42.5 -52.5t-100.5 -29.5q-60 0 -97.5 37t-37.5 110v142q-31 -131 -110.5 -210t-217.5 -79q-120 0 -193 66t-73 159q0 114 83.5 175.5t282.5 74.5zM711 459 l-228 -15q-231 -15 -231 -204q0 -105 47 -153t139 -48q87 0 150 57.5t93 151t30 211.5z" />
<glyph unicode="&#xe2;" horiz-adv-x="1013" d="M707 1167q4 -8 1.5 -13.5t-9.5 -5.5t-13 7l-205 236l-207 -236q-6 -7 -13 -7t-9 5.5t2 13.5l174 297q19 31 52 31t52 -31zM711 479v199q0 106 -71 170.5t-171 64.5q-102 0 -173 -40.5t-71 -102.5q0 -20 18.5 -37.5t37 -37t18.5 -44.5q0 -30 -20.5 -48.5t-47.5 -18.5 q-31 0 -53 26.5t-22 79.5q0 117 92 182.5t237 65.5q184 0 266.5 -78t82.5 -211v-543q0 -75 59 -75q45 0 72 45q5 8 14 8q10 0 10 -12q0 -23 -42.5 -52.5t-100.5 -29.5q-60 0 -97.5 37t-37.5 110v142q-31 -131 -110.5 -210t-217.5 -79q-120 0 -193 66t-73 159 q0 114 83.5 175.5t282.5 74.5zM711 459l-228 -15q-231 -15 -231 -204q0 -105 47 -153t139 -48q87 0 150 57.5t93 151t30 211.5z" />
<glyph unicode="&#xe3;" horiz-adv-x="1013" d="M649 1169q-51 0 -104.5 23t-92 51t-88 51t-92.5 23q-61 0 -110 -37.5t-49 -99.5q0 -13 -11 -13q-10 0 -10 13q0 89 62 147.5t159 58.5q50 0 103 -23t91 -50.5t88 -50.5t95 -23q55 0 106.5 35t51.5 102q0 15 10 15q12 0 12 -15q0 -90 -65 -148.5t-156 -58.5zM711 479v199 q0 106 -71 170.5t-171 64.5q-102 0 -173 -40.5t-71 -102.5q0 -20 18.5 -37.5t37 -37t18.5 -44.5q0 -30 -20.5 -48.5t-47.5 -18.5q-31 0 -53 26.5t-22 79.5q0 117 92 182.5t237 65.5q184 0 266.5 -78t82.5 -211v-543q0 -75 59 -75q45 0 72 45q5 8 14 8q10 0 10 -12 q0 -23 -42.5 -52.5t-100.5 -29.5q-60 0 -97.5 37t-37.5 110v142q-31 -131 -110.5 -210t-217.5 -79q-120 0 -193 66t-73 159q0 114 83.5 175.5t282.5 74.5zM711 459l-228 -15q-231 -15 -231 -204q0 -105 47 -153t139 -48q87 0 150 57.5t93 151t30 211.5z" />
<glyph unicode="&#xe4;" horiz-adv-x="1013" d="M270 1227q0 26 18 43.5t44 17.5t43.5 -17.5t17.5 -43.5t-17.5 -44t-43.5 -18t-44 18t-18 44zM569 1227q0 26 18 43.5t44 17.5t43.5 -17.5t17.5 -43.5t-17.5 -44t-43.5 -18t-44 18t-18 44zM711 479v199q0 106 -71 170.5t-171 64.5q-102 0 -173 -40.5t-71 -102.5 q0 -20 18.5 -37.5t37 -37t18.5 -44.5q0 -30 -20.5 -48.5t-47.5 -18.5q-31 0 -53 26.5t-22 79.5q0 117 92 182.5t237 65.5q184 0 266.5 -78t82.5 -211v-543q0 -75 59 -75q45 0 72 45q5 8 14 8q10 0 10 -12q0 -23 -42.5 -52.5t-100.5 -29.5q-60 0 -97.5 37t-37.5 110v142 q-31 -131 -110.5 -210t-217.5 -79q-120 0 -193 66t-73 159q0 114 83.5 175.5t282.5 74.5zM711 459l-228 -15q-231 -15 -231 -204q0 -105 47 -153t139 -48q87 0 150 57.5t93 151t30 211.5z" />
<glyph unicode="&#xe5;" horiz-adv-x="1013" d="M481 1133q-82 0 -141 58.5t-59 141.5q0 80 59 139.5t141 59.5q81 0 140 -59.5t59 -139.5q0 -82 -59.5 -141t-139.5 -59zM481 1161q69 0 119.5 50.5t50.5 121.5q0 69 -50 119.5t-120 50.5q-71 0 -121.5 -50.5t-50.5 -119.5q0 -72 50.5 -122t121.5 -50zM711 479v199 q0 106 -71 170.5t-171 64.5q-102 0 -173 -40.5t-71 -102.5q0 -20 18.5 -37.5t37 -37t18.5 -44.5q0 -30 -20.5 -48.5t-47.5 -18.5q-31 0 -53 26.5t-22 79.5q0 117 92 182.5t237 65.5q184 0 266.5 -78t82.5 -211v-543q0 -75 59 -75q45 0 72 45q5 8 14 8q10 0 10 -12 q0 -23 -42.5 -52.5t-100.5 -29.5q-60 0 -97.5 37t-37.5 110v142q-31 -131 -110.5 -210t-217.5 -79q-120 0 -193 66t-73 159q0 114 83.5 175.5t282.5 74.5zM711 459l-228 -15q-231 -15 -231 -204q0 -105 47 -153t139 -48q87 0 150 57.5t93 151t30 211.5z" />
<glyph unicode="&#xe6;" horiz-adv-x="1646" d="M1116 938q173 0 285 -120t112 -345q0 -10 -10 -10h-665q0 -123 32.5 -219t108 -157.5t186.5 -61.5q64 0 119 22.5t92 58.5t61 73.5t38 76.5q3 8 10 8q13 0 10 -14q-7 -24 -21 -52.5t-43 -67t-65.5 -68.5t-93.5 -51t-123 -21q-166 0 -285 88t-151 260q-11 -72 -34 -131.5 t-62.5 -110t-101.5 -78.5t-142 -28q-119 0 -193 70.5t-74 164.5q0 101 86 175.5t252 84.5l256 15v178q0 106 -70.5 170.5t-170.5 64.5q-112 0 -188 -49t-76 -114q0 -16 11.5 -31t25 -25t25 -26.5t11.5 -36.5q0 -30 -20 -49t-47 -19q-31 0 -53.5 27t-22.5 80q0 120 96.5 194 t253.5 74q250 0 322 -150q56 73 139.5 111.5t179.5 38.5zM838 483h542q0 213 -70.5 322.5t-189.5 109.5q-121 0 -199.5 -112.5t-82.5 -319.5zM428 39q133 0 202.5 116t69.5 324l-256 -14q-202 -12 -202 -215q0 -211 186 -211z" />
<glyph unicode="&#xe7;" horiz-adv-x="1067" d="M922 264q14 0 10 -14q-14 -43 -42 -85.5t-71 -83t-107 -66t-137 -25.5h-17l-26 -131q104 0 163 -41t59 -113q0 -81 -68.5 -129.5t-159.5 -48.5q-83 0 -131 37q-30 23 -30 41q0 10 10 10q5 0 20.5 -14.5t45 -28.5t69.5 -14q59 0 100 37t41 102q0 57 -37 99t-106 46l30 149 q-206 11 -313.5 139t-107.5 335q0 99 24.5 179.5t66.5 134.5t100 90.5t121.5 52.5t133.5 16q159 0 265 -75t106 -193q0 -53 -22.5 -80t-53.5 -27q-27 0 -47 19t-20 49q0 25 18.5 44.5t36.5 37t18 37.5q0 64 -85 113.5t-199 49.5q-53 0 -99 -13.5t-88.5 -46.5t-72.5 -83 t-48 -128t-18 -177q0 -212 86.5 -326t251.5 -114q65 0 121.5 22.5t94.5 59t63 74t40 75.5q3 8 11 8z" />
<glyph unicode="&#xe8;" horiz-adv-x="1124" d="M629 1157l-314 250q-34 27 -15 60q16 28 48 24q22 -2 39 -21l258 -294q11 -11 3.5 -19.5t-19.5 0.5zM563 938q91 0 168 -29t135.5 -85.5t91.5 -146.5t33 -204q0 -10 -10 -10h-727q0 -72 12.5 -137t40.5 -122t68.5 -98.5t100 -65.5t132.5 -24q71 0 133 23.5t103.5 61.5 t68 77.5t39.5 77.5q3 8 11 8q13 0 10 -14q-7 -24 -22 -53t-46.5 -67t-71.5 -68t-102.5 -51t-134.5 -21q-80 0 -150.5 17.5t-131 55.5t-104.5 93t-68.5 134t-24.5 175q0 152 60.5 260.5t160 160.5t225.5 52zM254 483h604q0 213 -78.5 322.5t-212.5 109.5 q-137 0 -223.5 -112.5t-89.5 -319.5z" />
<glyph unicode="&#xe9;" horiz-adv-x="1124" d="M465 1157q-12 -9 -19.5 -0.5t3.5 19.5l258 294q31 34 66 16q28 -14 26 -43q-1 -20 -21 -36zM563 938q91 0 168 -29t135.5 -85.5t91.5 -146.5t33 -204q0 -10 -10 -10h-727q0 -72 12.5 -137t40.5 -122t68.5 -98.5t100 -65.5t132.5 -24q71 0 133 23.5t103.5 61.5t68 77.5 t39.5 77.5q3 8 11 8q13 0 10 -14q-7 -24 -22 -53t-46.5 -67t-71.5 -68t-102.5 -51t-134.5 -21q-80 0 -150.5 17.5t-131 55.5t-104.5 93t-68.5 134t-24.5 175q0 152 60.5 260.5t160 160.5t225.5 52zM254 483h604q0 213 -78.5 322.5t-212.5 109.5q-137 0 -223.5 -112.5 t-89.5 -319.5z" />
<glyph unicode="&#xea;" horiz-adv-x="1124" d="M778 1167q4 -8 2 -13.5t-9 -5.5t-13 7l-205 236l-207 -236q-6 -7 -13 -7t-9 5.5t2 13.5l174 297q19 31 52 31t52 -31zM563 938q91 0 168 -29t135.5 -85.5t91.5 -146.5t33 -204q0 -10 -10 -10h-727q0 -72 12.5 -137t40.5 -122t68.5 -98.5t100 -65.5t132.5 -24 q71 0 133 23.5t103.5 61.5t68 77.5t39.5 77.5q3 8 11 8q13 0 10 -14q-7 -24 -22 -53t-46.5 -67t-71.5 -68t-102.5 -51t-134.5 -21q-80 0 -150.5 17.5t-131 55.5t-104.5 93t-68.5 134t-24.5 175q0 152 60.5 260.5t160 160.5t225.5 52zM254 483h604q0 213 -78.5 322.5 t-212.5 109.5q-137 0 -223.5 -112.5t-89.5 -319.5z" />
<glyph unicode="&#xeb;" horiz-adv-x="1124" d="M342 1227q0 26 17.5 43.5t43.5 17.5t44 -17.5t18 -43.5t-18 -44t-44 -18t-43.5 18t-17.5 44zM641 1227q0 26 17.5 43.5t43.5 17.5t44 -17.5t18 -43.5t-18 -44t-44 -18t-43.5 18t-17.5 44zM563 938q91 0 168 -29t135.5 -85.5t91.5 -146.5t33 -204q0 -10 -10 -10h-727 q0 -72 12.5 -137t40.5 -122t68.5 -98.5t100 -65.5t132.5 -24q71 0 133 23.5t103.5 61.5t68 77.5t39.5 77.5q3 8 11 8q13 0 10 -14q-7 -24 -22 -53t-46.5 -67t-71.5 -68t-102.5 -51t-134.5 -21q-80 0 -150.5 17.5t-131 55.5t-104.5 93t-68.5 134t-24.5 175q0 152 60.5 260.5 t160 160.5t225.5 52zM254 483h604q0 213 -78.5 322.5t-212.5 109.5q-137 0 -223.5 -112.5t-89.5 -319.5z" />
<glyph unicode="&#xec;" horiz-adv-x="497" d="M324 1157l-314 250q-34 27 -15 60q16 28 48 24q22 -2 39 -21l258 -294q11 -11 3.5 -19.5t-19.5 0.5zM420 20q10 0 10 -10t-10 -10h-328q-10 0 -10 10t10 10h60q20 0 31.5 12.5t11.5 30.5v797q0 18 -11.5 30.5t-31.5 12.5h-60q-10 0 -10 10q0 11 10 11h225v-861 q0 -18 11.5 -30.5t31.5 -12.5h60z" />
<glyph unicode="&#xed;" horiz-adv-x="497" d="M160 1157q-12 -9 -20 -0.5t3 19.5l258 294q30 34 66 17q29 -14 27 -44q-1 -20 -21 -36zM420 20q10 0 10 -10t-10 -10h-328q-10 0 -10 10t10 10h60q20 0 31.5 12.5t11.5 30.5v797q0 18 -11.5 30.5t-31.5 12.5h-60q-10 0 -10 10q0 11 10 11h225v-861q0 -18 11.5 -30.5 t31.5 -12.5h60z" />
<glyph unicode="&#xee;" horiz-adv-x="497" d="M473 1167q4 -8 2 -13.5t-9 -5.5t-13 7l-205 236l-207 -236q-6 -7 -13 -7t-9.5 5.5t1.5 13.5l175 297q19 31 52 31t52 -31zM420 20q10 0 10 -10t-10 -10h-328q-10 0 -10 10t10 10h60q20 0 31.5 12.5t11.5 30.5v797q0 18 -11.5 30.5t-31.5 12.5h-60q-10 0 -10 10 q0 11 10 11h225v-861q0 -18 11.5 -30.5t31.5 -12.5h60z" />
<glyph unicode="&#xef;" horiz-adv-x="497" d="M37 1227q0 26 17.5 43.5t43.5 17.5t44 -17.5t18 -43.5t-18 -44t-44 -18t-43.5 18t-17.5 44zM336 1227q0 26 17.5 43.5t43.5 17.5t44 -17.5t18 -43.5t-18 -44t-44 -18t-43.5 18t-17.5 44zM420 20q10 0 10 -10t-10 -10h-328q-10 0 -10 10t10 10h60q20 0 31.5 12.5 t11.5 30.5v797q0 18 -11.5 30.5t-31.5 12.5h-60q-10 0 -10 10q0 11 10 11h225v-861q0 -18 11.5 -30.5t31.5 -12.5h60z" />
<glyph unicode="&#xf0;" horiz-adv-x="1085" d="M615 1368q94 -62 164.5 -151.5t110.5 -193.5t59.5 -212.5t19.5 -222.5q0 -124 -23.5 -228t-72 -189t-132 -133t-194.5 -48q-91 0 -168 29t-136 86t-92.5 147.5t-33.5 206.5q0 112 36.5 204.5t96 151.5t132.5 91t150 32q103 0 181 -49.5t116 -153.5q-48 398 -261 586 l-76 -77l-74 -74q-8 -8 -15 0t0 15l150 149q-164 134 -408 134q-6 0 -10 4t-4 9q0 12 14 12q265 0 453 -114l144 145q8 8 15 0t0 -15l-74 -74zM547 14q295 0 295 512q0 190 -82 287.5t-205 97.5q-48 0 -90.5 -13t-82.5 -45t-68.5 -82t-46 -130t-17.5 -182q0 -83 12 -151 t31 -113t46 -79.5t53.5 -53t57 -30t53 -15t44.5 -3.5z" />
<glyph unicode="&#xf1;" horiz-adv-x="1153" d="M733 1169q-51 0 -104.5 23t-92 51t-88 51t-92.5 23q-61 0 -110 -37.5t-49 -99.5q0 -13 -11 -13q-10 0 -10 13q0 89 62 147.5t159 58.5q50 0 103 -23t91 -50.5t88 -50.5t95 -23q55 0 106.5 35t51.5 102q0 15 10 15q12 0 12 -15q0 -90 -65 -148.5t-156 -58.5zM1075 20 q10 0 10 -10t-10 -10h-327q-11 0 -11 10t11 10h59q20 0 31.5 12.5t11.5 30.5v545q0 82 -19 142t-50.5 91t-64.5 44.5t-69 13.5q-143 0 -236.5 -129.5t-93.5 -312.5v-394q0 -18 11.5 -30.5t31.5 -12.5h60q10 0 10 -10t-10 -10h-328q-10 0 -10 10t10 10h60q20 0 31.5 12.5 t11.5 30.5v797q0 18 -11.5 30.5t-31.5 12.5h-60q-10 0 -10 10q0 11 10 11h225v-306q37 141 133 228.5t234 87.5q133 0 211 -74t78 -205v-592q0 -18 11.5 -30.5t31.5 -12.5h59z" />
<glyph unicode="&#xf2;" horiz-adv-x="1171" d="M662 1157l-314 250q-34 27 -15 60q16 28 48 24q22 -2 39 -21l258 -294q11 -11 3.5 -19.5t-19.5 0.5zM586 -8q-88 0 -170.5 30.5t-149.5 88t-108 149.5t-41 205t41 205t108 149.5t149.5 88t170.5 30.5t170.5 -30.5t149.5 -88t108 -149.5t41 -205t-41 -205t-108 -149.5 t-149.5 -88t-170.5 -30.5zM586 12q141 2 236.5 121.5t95.5 331.5q0 214 -95.5 333.5t-236.5 119.5t-236.5 -119.5t-95.5 -333.5q0 -212 95.5 -331.5t236.5 -121.5z" />
<glyph unicode="&#xf3;" horiz-adv-x="1171" d="M498 1157q-12 -9 -20 -0.5t3 19.5l258 294q30 34 66 17q29 -14 27 -44q-1 -20 -21 -36zM586 -8q-88 0 -170.5 30.5t-149.5 88t-108 149.5t-41 205t41 205t108 149.5t149.5 88t170.5 30.5t170.5 -30.5t149.5 -88t108 -149.5t41 -205t-41 -205t-108 -149.5t-149.5 -88 t-170.5 -30.5zM586 12q141 2 236.5 121.5t95.5 331.5q0 214 -95.5 333.5t-236.5 119.5t-236.5 -119.5t-95.5 -333.5q0 -212 95.5 -331.5t236.5 -121.5z" />
<glyph unicode="&#xf4;" horiz-adv-x="1171" d="M811 1167q4 -8 2 -13.5t-9 -5.5t-13 7l-205 236l-207 -236q-6 -7 -13 -7t-9.5 5.5t1.5 13.5l174 297q19 31 52.5 31t52.5 -31zM586 -8q-88 0 -170.5 30.5t-149.5 88t-108 149.5t-41 205t41 205t108 149.5t149.5 88t170.5 30.5t170.5 -30.5t149.5 -88t108 -149.5t41 -205 t-41 -205t-108 -149.5t-149.5 -88t-170.5 -30.5zM586 12q141 2 236.5 121.5t95.5 331.5q0 214 -95.5 333.5t-236.5 119.5t-236.5 -119.5t-95.5 -333.5q0 -212 95.5 -331.5t236.5 -121.5z" />
<glyph unicode="&#xf5;" horiz-adv-x="1171" d="M754 1169q-51 0 -104.5 23t-92 51t-88 51t-92.5 23q-61 0 -110.5 -37.5t-49.5 -99.5q0 -13 -10 -13t-10 13q0 89 62 147.5t159 58.5q50 0 103 -23t91 -50.5t88 -50.5t95 -23q33 0 67 12.5t62 45.5t28 79q0 15 11 15q12 0 12 -15q0 -90 -65 -148.5t-156 -58.5zM586 -8 q-88 0 -170.5 30.5t-149.5 88t-108 149.5t-41 205t41 205t108 149.5t149.5 88t170.5 30.5t170.5 -30.5t149.5 -88t108 -149.5t41 -205t-41 -205t-108 -149.5t-149.5 -88t-170.5 -30.5zM586 12q141 2 236.5 121.5t95.5 331.5q0 214 -95.5 333.5t-236.5 119.5t-236.5 -119.5 t-95.5 -333.5q0 -212 95.5 -331.5t236.5 -121.5z" />
<glyph unicode="&#xf6;" horiz-adv-x="1171" d="M375 1227q0 26 17.5 43.5t43.5 17.5t44 -17.5t18 -43.5t-18 -44t-44 -18t-43.5 18t-17.5 44zM674 1227q0 26 17.5 43.5t43.5 17.5t44 -17.5t18 -43.5t-18 -44t-44 -18t-43.5 18t-17.5 44zM586 -8q-88 0 -170.5 30.5t-149.5 88t-108 149.5t-41 205t41 205t108 149.5 t149.5 88t170.5 30.5t170.5 -30.5t149.5 -88t108 -149.5t41 -205t-41 -205t-108 -149.5t-149.5 -88t-170.5 -30.5zM586 12q141 2 236.5 121.5t95.5 331.5q0 214 -95.5 333.5t-236.5 119.5t-236.5 -119.5t-95.5 -333.5q0 -212 95.5 -331.5t236.5 -121.5z" />
<glyph unicode="&#xf7;" horiz-adv-x="841" d="M421 701q-25 0 -43 18t-18 42t18 42t43 18q24 0 42 -18t18 -42t-18 -42t-42 -18zM709 487q10 0 10 -10t-10 -10h-637q-11 0 -11 10t11 10h637zM421 251q24 0 42 -18t18 -42t-18 -41.5t-42 -17.5q-25 0 -43 17.5t-18 41.5t18 42t43 18z" />
<glyph unicode="&#xf8;" horiz-adv-x="1089" d="M711 922q149 -39 246.5 -157t97.5 -300q0 -113 -41 -205t-108 -149.5t-149.5 -88t-170.5 -30.5q-92 0 -175 31l-49 -144h-22l51 153q-122 52 -198 163t-76 270q0 113 41 205t108 149.5t149.5 88t170.5 30.5q50 0 103 -11l38 115h25zM254 465q0 -135 40.5 -234.5 t110.5 -154.5l275 826q-48 16 -94 16q-141 0 -236.5 -119.5t-95.5 -333.5zM586 12q141 2 236 121.5t95 331.5q0 166 -59 276.5t-156 152.5l-278 -831q72 -49 162 -51z" />
<glyph unicode="&#xf9;" horiz-adv-x="1128" d="M637 1157l-313 250q-33 27 -16 59q15 28 46 26q23 -2 41 -22l258 -294q11 -11 3.5 -19.5t-19.5 0.5zM1051 20q10 0 10 -10t-10 -10h-226v297q-35 -139 -126.5 -224t-227.5 -85q-132 0 -204 73t-72 205v594q0 18 -11.5 30.5t-31.5 12.5h-60q-10 0 -10 10q0 11 10 11h225 v-611q0 -82 17 -142t46.5 -90.5t61 -44t66.5 -13.5q95 0 168 61t111 161t38 220v395q0 18 -11.5 30.5t-31.5 12.5h-59q-10 0 -10 10q0 11 10 11h225v-861q0 -18 11.5 -30.5t31.5 -12.5h60z" />
<glyph unicode="&#xfa;" horiz-adv-x="1128" d="M473 1157q-12 -9 -19.5 -0.5t3.5 19.5l258 294q31 34 66 16q28 -14 26 -43q-1 -20 -21 -36zM1051 20q10 0 10 -10t-10 -10h-226v297q-35 -139 -126.5 -224t-227.5 -85q-132 0 -204 73t-72 205v594q0 18 -11.5 30.5t-31.5 12.5h-60q-10 0 -10 10q0 11 10 11h225v-611 q0 -82 17 -142t46.5 -90.5t61 -44t66.5 -13.5q95 0 168 61t111 161t38 220v395q0 18 -11.5 30.5t-31.5 12.5h-59q-10 0 -10 10q0 11 10 11h225v-861q0 -18 11.5 -30.5t31.5 -12.5h60z" />
<glyph unicode="&#xfb;" horiz-adv-x="1128" d="M786 1167q4 -8 2 -13.5t-9 -5.5t-13 7l-205 236l-207 -236q-6 -7 -13 -7t-9 5.5t2 13.5l174 297q19 31 52 31t52 -31zM1051 20q10 0 10 -10t-10 -10h-226v297q-35 -139 -126.5 -224t-227.5 -85q-132 0 -204 73t-72 205v594q0 18 -11.5 30.5t-31.5 12.5h-60q-10 0 -10 10 q0 11 10 11h225v-611q0 -82 17 -142t46.5 -90.5t61 -44t66.5 -13.5q95 0 168 61t111 161t38 220v395q0 18 -11.5 30.5t-31.5 12.5h-59q-10 0 -10 10q0 11 10 11h225v-861q0 -18 11.5 -30.5t31.5 -12.5h60z" />
<glyph unicode="&#xfc;" horiz-adv-x="1128" d="M350 1227q0 26 18 43.5t44 17.5t43.5 -17.5t17.5 -43.5t-17.5 -44t-43.5 -18t-44 18t-18 44zM649 1227q0 26 18 43.5t44 17.5t43.5 -17.5t17.5 -43.5t-17.5 -44t-43.5 -18t-44 18t-18 44zM1051 20q10 0 10 -10t-10 -10h-226v297q-35 -139 -126.5 -224t-227.5 -85 q-132 0 -204 73t-72 205v594q0 18 -11.5 30.5t-31.5 12.5h-60q-10 0 -10 10q0 11 10 11h225v-611q0 -82 17 -142t46.5 -90.5t61 -44t66.5 -13.5q95 0 168 61t111 161t38 220v395q0 18 -11.5 30.5t-31.5 12.5h-59q-10 0 -10 10q0 11 10 11h225v-861q0 -18 11.5 -30.5 t31.5 -12.5h60z" />
<glyph unicode="&#xfd;" horiz-adv-x="933" d="M424 1157q-12 -9 -19.5 -0.5t3.5 19.5l258 294q31 34 66 16q28 -14 26 -43q-1 -20 -21 -36zM535 383l249 477q9 25 0.5 34t-28.5 9h-78q-10 0 -10 10q0 11 10 11h235q11 0 11 -11q0 -10 -11 -10h-41q-42 0 -63 -43l-266 -508v-289q0 -18 11.5 -30.5t31.5 -12.5h59 q10 0 10 -10t-10 -10h-334q-10 0 -10 10t10 10h60q20 0 31.5 12.5t11.5 30.5v285l-291 512q-12 22 -26 32.5t-40 10.5h-37q-10 0 -10 10q0 11 10 11h357q10 0 10 -11q0 -10 -10 -10h-88q-21 0 -28.5 -12t1.5 -29z" />
<glyph unicode="&#xfe;" horiz-adv-x="929" d="M827 479q0 -135 -104 -221t-274 -86h-125v-109q0 -18 11.5 -30.5t31.5 -12.5h59q10 0 10 -10t-10 -10h-334q-10 0 -10 10t10 10h60q20 0 31.5 12.5t11.5 30.5v797q0 18 -11.5 30.5t-31.5 12.5h-60q-10 0 -10 10q0 11 10 11h334q10 0 10 -11q0 -10 -10 -10h-59 q-20 0 -31.5 -12.5t-11.5 -30.5v-106h125q171 0 274.5 -76.5t103.5 -198.5zM686 479q0 109 -66.5 179.5t-199.5 70.5h-96v-530h96q126 0 196 77.5t70 202.5z" />
<glyph unicode="&#xff;" horiz-adv-x="933" d="M301 1227q0 26 17.5 43.5t43.5 17.5t44 -17.5t18 -43.5t-18 -44t-44 -18t-43.5 18t-17.5 44zM600 1227q0 26 18 43.5t44 17.5t43.5 -17.5t17.5 -43.5t-17.5 -44t-43.5 -18t-44 18t-18 44zM535 383l249 477q9 25 0.5 34t-28.5 9h-78q-10 0 -10 10q0 11 10 11h235 q11 0 11 -11q0 -10 -11 -10h-41q-42 0 -63 -43l-266 -508v-289q0 -18 11.5 -30.5t31.5 -12.5h59q10 0 10 -10t-10 -10h-334q-10 0 -10 10t10 10h60q20 0 31.5 12.5t11.5 30.5v285l-291 512q-12 22 -26 32.5t-40 10.5h-37q-10 0 -10 10q0 11 10 11h357q10 0 10 -11 q0 -10 -10 -10h-88q-21 0 -28.5 -12t1.5 -29z" />
<glyph unicode="&#x152;" horiz-adv-x="2050" d="M1870 999q-3 0 -7 -4q-3 -3 -3 0v103q0 108 -64.5 169.5t-187.5 61.5h-320q-20 0 -31.5 -12.5t-11.5 -30.5v-571h199q62 0 99.5 9.5t53.5 31.5t19.5 42t3.5 58v23q0 10 10 10t10 -10v-349q0 -10 -10 -10t-10 10v25q0 30 -1.5 46t-11 37t-27.5 31t-52 17.5t-84 7.5h-199 v-631q0 -18 11.5 -30.5t31.5 -12.5h330q120 0 186 80t66 193v41q0 10 10 10t10 -10v-334h-774v203q-151 -213 -430 -213q-137 0 -245.5 53t-177 147.5t-104.5 220t-36 273.5q0 199 61.5 349t190 238.5t311.5 88.5q280 0 430 -203v193h764v-355q0 -3 -4 1q-3 3 -6 3zM686 14 q96 0 171 38.5t123 102t79.5 151.5t44 181t12.5 197q0 108 -12.5 200.5t-44 177t-79.5 144t-123 94.5t-171 35t-171 -35t-123 -94.5t-79.5 -144t-44 -177t-12.5 -200.5t12.5 -202t44 -182t79.5 -150t123 -99t171 -37z" />
<glyph unicode="&#x153;" horiz-adv-x="1781" d="M1251 938q173 0 285.5 -120t112.5 -345q0 -10 -11 -10h-665q0 -123 32.5 -219t108 -157.5t186.5 -61.5q64 0 119 22.5t92 58.5t61 73.5t38 76.5q3 8 10 8q14 0 10 -14q-7 -24 -21 -52.5t-43 -67t-65.5 -68.5t-93.5 -51t-123 -21q-122 0 -222.5 49.5t-158.5 146.5 q-57 -95 -151 -144.5t-207 -49.5q-87 0 -163.5 30.5t-136 88t-94 149t-34.5 205.5t34.5 205.5t94 149t136 88t163.5 30.5q111 0 206 -50t152 -143q55 94 146 143.5t202 49.5zM545 14q125 2 208 120.5t83 330.5q0 214 -83 332t-208 118t-208 -118t-83 -332q0 -212 83 -330.5 t208 -120.5zM1516 483q0 212 -71 322t-190 110q-121 0 -199.5 -112.5t-82.5 -319.5h543z" />
<glyph unicode="&#x178;" horiz-adv-x="1105" d="M373 1489q0 26 17.5 43.5t43.5 17.5t44 -17.5t18 -43.5t-18 -44t-44 -18t-43.5 18t-17.5 44zM672 1489q0 26 17.5 43.5t43.5 17.5t44 -17.5t18 -43.5t-18 -44t-44 -18t-43.5 18t-17.5 44zM1085 1350q11 0 11 -11q0 -10 -11 -10h-45q-45 0 -63 -43l-352 -694v-529 q0 -18 11.5 -30.5t31.5 -12.5h59q10 0 10 -10t-10 -10h-334q-10 0 -10 10t10 10h60q20 0 31.5 12.5t11.5 30.5v502l-371 721q-22 43 -72 43h-33q-10 0 -10 10q0 11 10 11h345q10 0 10 -11q0 -10 -10 -10h-64q-22 0 -28 -14t3 -29l336 -674l340 674q9 15 1.5 29t-33.5 14h-50 q-10 0 -10 10q0 11 10 11h215z" />
<glyph unicode="&#x2c6;" horiz-adv-x="872" d="M659 1180q7 -12 -2 -18t-18 5l-205 236l-207 -236q-9 -11 -18 -5t-2 18l174 297q19 31 52 31t52 -31z" />
<glyph unicode="&#x2dc;" horiz-adv-x="1021" d="M647 1169q-51 0 -104.5 23t-92 51t-88 51t-92.5 23q-61 0 -110 -37.5t-49 -99.5q0 -13 -11 -13q-10 0 -10 13q0 89 62 147.5t159 58.5q50 0 103 -23t91 -50.5t88 -50.5t95 -23q55 0 106.5 35t51.5 102q0 15 10 15q12 0 12 -15q0 -90 -65 -148.5t-156 -58.5z" />
<glyph unicode="&#x2000;" horiz-adv-x="916" />
<glyph unicode="&#x2001;" horiz-adv-x="1833" />
<glyph unicode="&#x2002;" horiz-adv-x="916" />
<glyph unicode="&#x2003;" horiz-adv-x="1833" />
<glyph unicode="&#x2004;" horiz-adv-x="611" />
<glyph unicode="&#x2005;" horiz-adv-x="458" />
<glyph unicode="&#x2006;" horiz-adv-x="305" />
<glyph unicode="&#x2007;" horiz-adv-x="305" />
<glyph unicode="&#x2008;" horiz-adv-x="229" />
<glyph unicode="&#x2009;" horiz-adv-x="366" />
<glyph unicode="&#x200a;" horiz-adv-x="101" />
<glyph unicode="&#x2010;" horiz-adv-x="602" d="M541 487q10 0 10 -10t-10 -10h-480q-10 0 -10 10t10 10h480z" />
<glyph unicode="&#x2011;" horiz-adv-x="602" d="M541 487q10 0 10 -10t-10 -10h-480q-10 0 -10 10t10 10h480z" />
<glyph unicode="&#x2012;" horiz-adv-x="602" d="M541 487q10 0 10 -10t-10 -10h-480q-10 0 -10 10t10 10h480z" />
<glyph unicode="&#x2013;" horiz-adv-x="759" d="M698 487q11 0 11 -10t-11 -10h-637q-10 0 -10 10t10 10h637z" />
<glyph unicode="&#x2014;" horiz-adv-x="1032" d="M971 487q10 0 10 -10t-10 -10h-910q-10 0 -10 10t10 10h910z" />
<glyph unicode="&#x2018;" horiz-adv-x="397" d="M158 922q-54 0 -96 48.5t-42 133.5q0 119 72 212t162 140q7 3 12 0.5t5 -8.5t-7 -10q-97 -56 -158 -141.5t-61 -192.5q0 -79 43 -119q-4 44 19 69t55 25q36 0 58 -23.5t22 -54.5q0 -30 -22.5 -54.5t-61.5 -24.5z" />
<glyph unicode="&#x2019;" horiz-adv-x="397" d="M238 1458q54 0 95.5 -48.5t41.5 -133.5q0 -119 -72 -212t-162 -140q-7 -3 -12 -0.5t-5 8.5t7 10q97 56 158 141.5t61 192.5q0 79 -43 119q4 -44 -19 -69.5t-55 -25.5q-36 0 -57.5 23.5t-21.5 54.5t22.5 55.5t61.5 24.5z" />
<glyph unicode="&#x201a;" horiz-adv-x="397" d="M238 219q54 0 95.5 -48.5t41.5 -133.5q0 -119 -72 -212t-162 -140q-7 -3 -12 -0.5t-5 8.5t7 10q97 56 158 141.5t61 192.5q0 79 -43 119q4 -44 -19 -69.5t-55 -25.5q-36 0 -57.5 23.5t-21.5 54.5t22.5 55.5t61.5 24.5z" />
<glyph unicode="&#x201c;" horiz-adv-x="669" d="M158 922q-54 0 -96 48.5t-42 133.5q0 119 72 212t162 140q7 3 12 0.5t5 -8.5t-7 -10q-97 -56 -158 -141.5t-61 -192.5q0 -79 43 -119q-4 44 19 69t55 25q36 0 58 -23.5t22 -54.5q0 -30 -22.5 -54.5t-61.5 -24.5zM430 922q-54 0 -95.5 48.5t-41.5 133.5q0 63 22 121.5 t58 102.5t74.5 75.5t78.5 52.5q7 4 12.5 1t5 -9t-6.5 -10q-97 -56 -158.5 -141.5t-61.5 -192.5q0 -79 43 -119q-4 44 19 69t55 25q36 0 58 -23.5t22 -54.5q0 -30 -22.5 -54.5t-61.5 -24.5z" />
<glyph unicode="&#x201d;" horiz-adv-x="669" d="M238 1438q54 0 95.5 -49t41.5 -134q0 -119 -72 -212t-162 -140q-7 -3 -12 -0.5t-5 9t7 10.5q97 56 158 141t61 192q0 79 -43 119q4 -44 -19 -69t-55 -25q-36 0 -57.5 23.5t-21.5 54.5t22.5 55.5t61.5 24.5zM510 1438q54 0 95.5 -49t41.5 -134q0 -63 -22 -121.5 t-58 -102.5t-74.5 -75.5t-78.5 -52.5q-7 -4 -12.5 -0.5t-5 9.5t6.5 10q98 56 159 141t61 192q0 79 -43 119q4 -44 -19 -69t-55 -25q-36 0 -58 23.5t-22 54.5t22.5 55.5t61.5 24.5z" />
<glyph unicode="&#x201e;" horiz-adv-x="649" d="M217 158q54 0 95.5 -49t41.5 -134q0 -63 -22 -121.5t-58 -102.5t-74.5 -75.5t-78.5 -52.5q-7 -3 -12 -0.5t-5 9t7 10.5q97 56 158 141t61 192q0 79 -43 119q4 -44 -19 -69t-55 -25q-36 0 -58 23.5t-22 54.5t22.5 55.5t61.5 24.5zM489 158q54 0 96 -49t42 -134 q0 -119 -72 -212t-162 -140q-7 -3 -12 -0.5t-5 9t7 10.5q97 56 158 141t61 192q0 79 -43 119q4 -44 -19 -69t-55 -25q-36 0 -57.5 23.5t-21.5 54.5t22 55.5t61 24.5z" />
<glyph unicode="&#x2022;" horiz-adv-x="661" d="M146 517q0 73 54.5 126.5t130.5 53.5q73 0 126 -53.5t53 -126.5t-53 -126t-126 -53q-76 0 -130.5 53t-54.5 126z" />
<glyph unicode="&#x2026;" horiz-adv-x="1103" d="M143 59q0 31 22.5 53.5t53.5 22.5q32 0 55 -22.5t23 -53.5q0 -32 -23 -54.5t-55 -22.5q-31 0 -53.5 22.5t-22.5 54.5zM475 59q0 31 22.5 53.5t53.5 22.5q32 0 55 -22.5t23 -53.5q0 -32 -23 -54.5t-55 -22.5q-31 0 -53.5 22.5t-22.5 54.5zM807 59q0 31 22.5 53.5 t53.5 22.5q32 0 55 -22.5t23 -53.5q0 -32 -23 -54.5t-55 -22.5q-31 0 -53.5 22.5t-22.5 54.5z" />
<glyph unicode="&#x202f;" horiz-adv-x="366" />
<glyph unicode="&#x2039;" horiz-adv-x="561" d="M139 457q190 182 318 377q6 9 -2.5 14.5t-14.5 -2.5q-83 -104 -188.5 -204t-175.5 -146q-33 -25 -31 -41t31 -37q70 -46 175.5 -146t188.5 -204q6 -8 14.5 -2.5t2.5 14.5q-128 195 -318 377z" />
<glyph unicode="&#x203a;" horiz-adv-x="561" d="M422 457q-190 -182 -318 -377q-6 -9 2.5 -14.5t14.5 2.5q83 104 188.5 204t175.5 146q29 21 31 37t-31 41q-70 46 -175.5 146t-188.5 204q-6 8 -14.5 2.5t-2.5 -14.5q128 -195 318 -377z" />
<glyph unicode="&#x205f;" horiz-adv-x="458" />
<glyph unicode="&#x20ac;" horiz-adv-x="1304" d="M1178 291q14 0 10 -15q-9 -40 -44 -88.5t-87 -91.5q-129 -106 -289 -106q-233 0 -374.5 155t-168.5 414h-112q-11 0 -11 10q0 11 11 11h110q-4 41 -4 94q0 32 4 90h-110q-11 0 -11 10t11 10h111q26 260 168.5 417t375.5 157q150 0 289 -107q53 -41 87 -90t44 -90 q4 -14 -10 -14q-10 0 -13 8q-14 38 -45.5 80t-79 84t-115.5 69t-143 27q-190 0 -297 -142t-125 -399h439q10 0 10 -10t-10 -10h-440q-3 -44 -3 -90q0 -49 3 -94h440q10 0 10 -11q0 -10 -10 -10h-439q19 -255 125.5 -395.5t296.5 -140.5q75 0 143.5 27t115.5 69t79 84t45 80 q3 8 13 8z" />
<glyph unicode="&#x2122;" horiz-adv-x="1417" d="M559 1350v-181q0 -10 -10 -10t-10 10v33q0 57 -32 92t-93 35h-45q-12 0 -19.5 -9t-7.5 -20v-579q0 -11 7.5 -19t19.5 -8h24q10 0 10 -10t-10 -10h-207q-12 0 -12 10t12 10h23q12 0 20.5 8t8.5 19v579q0 11 -8.5 20t-20.5 9h-31q-68 0 -103.5 -35.5t-35.5 -103.5v-21 q0 -10 -10 -10q-11 0 -11 10v181h541zM1378 694q11 0 11 -10t-11 -10h-207q-10 0 -10 10t10 10h25q12 0 19.5 8t7.5 19v580l-244 -631h-27l-260 627v-576q0 -11 7.5 -19t19.5 -8h24q11 0 11 -10t-11 -10h-125q-10 0 -10 10t10 10h23q13 0 21 8t8 19v579q0 11 -8 20t-21 9 h-23q-10 0 -10 10q0 11 10 11h164l225 -542l212 542h159q11 0 11 -13q0 -8 -11 -8h-24q-12 0 -19.5 -9t-7.5 -20v-579q0 -11 7.5 -19t19.5 -8h24z" />
<glyph unicode="&#x25fc;" horiz-adv-x="921" d="M0 922h922v-922h-922v922z" />
</font>
</defs>
</svg>
