<?xml version="1.0" standalone="no"?>
<!DOCTYPE svg PUBLIC "-//W3C//DTD SVG 1.1//EN" "http://www.w3.org/Graphics/SVG/1.1/DTD/svg11.dtd" >
<svg xmlns="http://www.w3.org/2000/svg">
<metadata></metadata>
<defs>
<font id="isabellight-italic" horiz-adv-x="1136" >
<font-face units-per-em="2048" ascent="1493" descent="-555" />
<missing-glyph horiz-adv-x="466" />
<glyph unicode="&#xfb01;" horiz-adv-x="1056" d="M1008 265q14 0 14 -16q0 -25 -15 -66.5t-42 -86.5t-74.5 -77t-102.5 -32q-65 0 -99 33t-34 96q0 14 4 50l121 676q2 21 -8.5 35.5t-32.5 14.5h-316l-218 -1234h-159l217 1234h-103q-16 0 -16 16t16 16h109l46 263q13 72 47 128.5t77 91t97 57t103.5 31t98.5 8.5 q138 0 215.5 -50.5t77.5 -140.5q0 -62 -34.5 -108.5t-88.5 -46.5q-29 0 -49.5 15.5t-20.5 44.5q0 25 13.5 47t30 35t30 31.5t13.5 37.5q0 102 -169 102q-29 0 -59.5 -6.5t-65.5 -24t-64 -45t-53 -74t-34 -105.5l-51 -291h524l-143 -814q-3 -16 -3 -28q0 -38 34 -38 q41 0 86 56t63 148q5 17 18 17z" />
<glyph unicode="&#xfb02;" horiz-adv-x="1058" d="M1010 265q14 0 14 -16q0 -19 -9 -50t-28.5 -68t-46 -69t-66.5 -53.5t-85 -21.5q-132 0 -132 128q0 27 4 51l214 1213q7 42 -5.5 61.5t-66.5 25.5q-37 4 -79 4q-99 0 -156.5 -42.5t-74.5 -140.5l-64 -363h135q16 0 16 -16t-16 -16h-141l-218 -1234h-159l217 1234h-103 q-16 0 -16 16t16 16h109l54 305q25 138 127 205t264 67q143 0 331 -53l-234 -1338q-2 -11 -2 -28q0 -38 34 -38q41 0 86 56t63 148q5 17 18 17z" />
<glyph horiz-adv-x="0" />
<glyph horiz-adv-x="682" />
<glyph unicode=" "  horiz-adv-x="466" />
<glyph unicode="&#x09;" horiz-adv-x="466" />
<glyph unicode="&#xa0;" horiz-adv-x="466" />
<glyph unicode="!" horiz-adv-x="446" d="M413 1518q33 0 52 -25.5t12 -67.5q-11 -61 -51 -199.5t-90.5 -332.5t-84.5 -391q-5 -23 -26 -23q-8 0 -13 6.5t-3 16.5q34 196 53.5 390.5t29.5 332t21 200.5q6 42 35.5 67.5t64.5 25.5zM65 40q0 39 31.5 69.5t70.5 30.5q31 0 51.5 -20.5t20.5 -50.5q0 -40 -32 -70.5 t-72 -30.5q-30 0 -50 21t-20 51z" />
<glyph unicode="&#x22;" horiz-adv-x="573" d="M376 1476q4 22 -7.5 35.5t-31.5 13.5t-35.5 -13.5t-19.5 -35.5l-79 -575q-3 -24 19 -24t29 24zM637 1476q4 22 -7.5 35.5t-31.5 13.5t-36 -13.5t-20 -35.5l-78 -575q-3 -24 19 -24q21 0 29 24z" />
<glyph unicode="#" horiz-adv-x="1060" d="M1078 670h-241l-123 -388h240l-10 -32h-240l-79 -250h-37l79 250h-383l-79 -250h-37l79 250h-259l10 32h259l123 388h-259l10 32h259l81 254h37l-81 -254h383l81 254h37l-81 -254h240zM677 282l123 388h-383l-123 -388h383z" />
<glyph unicode="$" horiz-adv-x="1058" d="M851 1029q0 28 15.5 51t34 35t34 30.5t15.5 39.5q0 62 -78.5 102t-174.5 40q-157 0 -254 -80t-97 -216q0 -55 32.5 -99t85 -74t115.5 -58t126 -60t115.5 -70.5t85 -99t32.5 -136.5q0 -164 -111 -282t-289 -153l-34 -193q-3 -17 -21 -17q-17 0 -14 17l33 187 q-46 -6 -96 -6q-32 0 -61 3l-33 -184q-3 -17 -20 -17q-18 0 -15 17l33 189q-118 21 -185.5 86.5t-67.5 153.5q0 69 34.5 113t79.5 44q29 0 49.5 -16.5t20.5 -46.5q0 -28 -15.5 -50.5t-34.5 -35t-34.5 -31.5t-15.5 -41q0 -44 41 -79t98.5 -52.5t114.5 -17.5q171 0 282.5 97 t111.5 246q0 60 -31.5 106.5t-82 77.5t-112 58.5t-122.5 57.5t-111.5 66t-82 92.5t-31.5 129.5q0 163 102.5 269.5t271.5 132.5l32 183q5 18 21 18q8 0 12.5 -5.5t2.5 -12.5l-32 -178q31 3 64 3q50 0 91 -7l33 182q5 18 21 18q8 0 12 -5.5t2 -12.5l-34 -189 q102 -25 161.5 -86t59.5 -140q0 -69 -34 -113t-80 -44q-28 0 -49.5 16.5t-21.5 46.5z" />
<glyph unicode="%" horiz-adv-x="1736" d="M439 -165h-40l828 1658h40zM379 590q-115 0 -180.5 69t-65.5 201q0 130 43 242.5t132 186t208 73.5q116 0 182 -68t66 -199q0 -96 -26 -186t-73.5 -161.5t-122 -114.5t-163.5 -43zM384 620q79 0 126 84.5t81 274.5q23 129 23 200q0 78 -25 115.5t-79 37.5 q-79 0 -124.5 -81.5t-79.5 -271.5q-24 -138 -24 -205q0 -79 24.5 -116.5t77.5 -37.5zM1214 -12q-115 0 -180.5 69t-65.5 201q0 130 43 242.5t132 185.5t208 73q116 0 182 -67.5t66 -198.5q0 -96 -26 -186t-73.5 -161.5t-122 -114.5t-163.5 -43zM1219 18q79 0 126 84.5 t81 274.5q23 129 23 200q0 78 -25 115.5t-79 37.5q-79 0 -124.5 -81.5t-79.5 -271.5q-24 -138 -24 -205q0 -79 24.5 -116.5t77.5 -37.5z" />
<glyph unicode="&#x26;" horiz-adv-x="1243" d="M1272 715q7 0 11.5 -5.5t4.5 -11.5q0 -15 -16 -15h-66q-22 0 -38 -15t-20 -35l-44 -252q-31 -172 -182 -283t-371 -111q-228 0 -338.5 88t-110.5 229q0 107 57.5 193t147.5 136t199 66q-114 22 -183.5 92.5t-69.5 177.5q0 123 75 214.5t192 135.5t257 44q179 0 277 -78.5 t98 -197.5q0 -85 -40 -135.5t-96 -50.5q-33 0 -55.5 19.5t-22.5 53.5q0 32 18 56.5t39 37.5t39 37.5t18 56.5q0 68 -67 116t-192 48q-164 0 -263 -102t-99 -262q0 -113 69.5 -180t190.5 -67q16 0 16 -16t-16 -16h-14q-177 0 -282 -112.5t-105 -292.5q0 -121 68 -187t198 -66 q319 0 384 356l43 252q4 23 -8.5 36.5t-31.5 13.5h-91q-18 0 -18 15q0 17 18 17h420z" />
<glyph unicode="'" horiz-adv-x="282" d="M371 1476q4 22 -7.5 35.5t-31.5 13.5t-35.5 -13.5t-19.5 -35.5l-79 -575q-3 -24 20 -24q22 0 29 24z" />
<glyph unicode="(" horiz-adv-x="942" d="M258 152q0 -116 19 -217.5t49 -172.5t68.5 -129t76.5 -93.5t74 -59.5t60.5 -33.5t36.5 -9.5q18 0 21 17q1 7 -12 17.5t-34.5 27.5t-47.5 42t-52 68.5t-47.5 100.5t-35 144.5t-13.5 193.5q0 285 77.5 588t159.5 453q48 94 103.5 167t99.5 110.5t81.5 62.5t58 37.5 t20.5 21.5q0 13 -16 13q-18 0 -57 -15.5t-100 -54.5t-125 -95t-136.5 -149.5t-129.5 -205.5q-86 -168 -142.5 -388.5t-56.5 -440.5z" />
<glyph unicode=")" horiz-adv-x="911" d="M657 785q0 116 -19 217.5t-49 172.5t-68.5 129.5t-76.5 94t-74 59.5t-60.5 33.5t-36.5 9.5q-17 0 -20 -18q-1 -7 12 -17.5t34.5 -27.5t47.5 -42t52 -68.5t47.5 -100.5t35 -144.5t13.5 -193.5q0 -284 -77.5 -587t-160.5 -454q-48 -94 -103.5 -167t-99.5 -110.5 t-81.5 -62.5t-58 -37.5t-20.5 -21.5q0 -13 16 -13q18 0 57 15.5t100 54.5t125 95t136.5 149.5t129.5 205.5q86 168 142.5 388.5t56.5 440.5z" />
<glyph unicode="*" horiz-adv-x="802" d="M523 999l-194 -267q-7 -10 -17 -10q-17 0 -17 18q0 10 5 15l194 264l-313 101q-13 4 -13 17q0 9 7.5 15t17.5 2l313 -102v328q0 20 17 20t17 -20v-328l311 102q2 0 5 1t4 1q8 0 13.5 -5t5.5 -12q0 -15 -16 -19l-312 -101l193 -264q6 -6 6 -16q0 -7 -4.5 -12t-11.5 -5 q-13 0 -19 10z" />
<glyph unicode="+" horiz-adv-x="733" d="M688 694q16 0 16 -16t-16 -16h-270l-48 -266q-2 -16 -17 -13q-16 2 -13 17l45 262h-265q-16 0 -16 16t16 16h272l45 266q3 16 19 13q7 0 11 -5.5t2 -13.5l-46 -260h265z" />
<glyph unicode="," horiz-adv-x="417" d="M181 162q39 0 61.5 -23.5t22.5 -67.5q0 -99 -67 -213.5t-194 -213.5q-5 -4 -12 -4q-10 0 -10 9t10 16q172 155 206 328q-23 -15 -53 -15q-34 0 -54 21t-20 53q0 44 31 77t79 33z" />
<glyph unicode="-" horiz-adv-x="610" d="M543 499q16 0 16 -16t-16 -16h-472q-16 0 -16 16t16 16h472z" />
<glyph unicode="." horiz-adv-x="372" d="M37 58q0 42 34 75t76 33q33 0 55.5 -22.5t22.5 -54.5q0 -43 -34.5 -75.5t-77.5 -32.5q-32 0 -54 22.5t-22 54.5z" />
<glyph unicode="/" horiz-adv-x="448" d="M10 -90l-32 3l626 1545l34 -3z" />
<glyph unicode="0" horiz-adv-x="1167" d="M499 -13q-172 0 -267 117t-95 340q0 135 24 266t74 249t120.5 208t170.5 143t216 53q174 0 269.5 -112.5t95.5 -334.5q0 -134 -24.5 -265.5t-75.5 -251.5t-122 -211.5t-171 -146t-215 -54.5zM505 21q284 0 400 661q34 204 34 329q0 318 -203 318q-146 0 -241 -162 t-152 -485q-36 -201 -36 -338q0 -323 198 -323z" />
<glyph unicode="1" horiz-adv-x="579" d="M319 81q-4 -20 7 -34.5t33 -14.5h53q16 0 16 -16t-16 -16h-420q-16 0 -16 16t16 16h94q22 0 38 14.5t20 34.5l205 1160h-140q-16 0 -16 16t16 16h55q64 0 109 12.5t96 42.5q13 8 26 17.5t19.5 14t13.5 4.5q16 0 13 -18z" />
<glyph unicode="2" horiz-adv-x="1095" d="M973 345l-8 -48q-56 -309 -319 -309q-84 0 -230 44t-214 44q-35 0 -62 -14t-39.5 -30t-25 -30t-22.5 -14q-15 0 -12 16l12 74q18 102 59 187.5t94 145.5t117.5 111.5t130.5 91t131.5 77.5t122.5 78.5t100.5 86.5t69 108.5t25.5 137.5q0 106 -64 165t-187 59 q-129 0 -222 -60.5t-93 -127.5q0 -29 30.5 -67t30.5 -68q0 -47 -34.5 -77t-77.5 -30q-38 0 -61.5 26t-23.5 74q0 69 34.5 134t96 117t155.5 83.5t204 31.5q180 0 287.5 -70.5t107.5 -205.5q0 -91 -30.5 -164t-83.5 -123.5t-121.5 -92t-146 -76.5t-156.5 -69.5t-153.5 -77.5 t-135.5 -94t-105 -126.5t-60 -168.5q73 130 215 130q58 0 191.5 -34.5t205.5 -34.5q98 0 158 49.5t77 141.5q2 16 17 16q7 0 11.5 -5t3.5 -12z" />
<glyph unicode="3" horiz-adv-x="1107" d="M1126 1378q16 0 13 -18l-9 -44q-21 -123 -93 -225.5t-181 -184t-281 -174.5q107 -2 187 -27t126 -67t68 -91.5t22 -107.5q0 -123 -69 -226.5t-191 -164.5t-269 -61q-181 0 -279 79t-98 198q0 85 38.5 137t94.5 52q35 0 58.5 -21t23.5 -56q0 -26 -11.5 -45.5t-28 -33 t-33.5 -27t-28.5 -33t-11.5 -44.5q0 -68 65.5 -118t187.5 -50q109 0 195 62.5t130.5 160t44.5 209.5q0 65 -22.5 114.5t-59.5 76.5t-79 40t-87 13h-7q-22 0 -22 19q0 16 27 33q188 101 277 171q181 135 245 302q-70 -100 -199 -100q-58 0 -186.5 34t-200.5 34 q-199 0 -233 -191q-5 -16 -18 -16q-17 0 -14 17l9 48q53 310 316 310q84 0 223.5 -44t207.5 -44q35 0 62.5 16t40.5 36t26 36t23 16z" />
<glyph unicode="4" horiz-adv-x="1024" d="M891 292q16 0 16 -16t-16 -16h-126l-31 -179q-4 -20 7 -34.5t33 -14.5h53q16 0 16 -16t-16 -16h-379q-16 0 -16 16t16 16h53q22 0 38 14.5t20 34.5l32 179h-606l5 30q138 92 252.5 197.5t192 205t135.5 203.5t89.5 192.5t46.5 174.5q8 48 39.5 74t69.5 26q33 0 56 -21 t23 -58q0 -64 -32.5 -150t-102 -192.5t-167 -214.5t-240 -223t-307.5 -212h550l75 420q108 92 172 192q9 17 24 17q13 0 13 -17l-109 -612h121z" />
<glyph unicode="5" horiz-adv-x="1144" d="M467 -13q-180 0 -278.5 79t-98.5 198q0 86 38.5 137.5t94.5 51.5q34 0 58 -21t24 -56q0 -32 -18 -56t-39 -37t-39 -36.5t-18 -53.5q0 -68 66 -118t188 -50q108 0 193.5 62.5t129 160.5t43.5 209q0 132 -81.5 196t-215.5 64q-66 0 -128 -13.5t-99.5 -26.5t-44.5 -13 q-20 0 -15 19l186 640q94 38 198 38q86 0 206 -28.5t184 -28.5q37 0 64.5 12.5t40 27.5t25 27.5t22.5 12.5q17 0 13 -18q-19 -109 -87.5 -164.5t-166.5 -55.5q-64 0 -176 24t-183 24q-80 0 -155 -36l-133 -454q155 58 298 58q119 0 214.5 -35.5t155 -109.5t59.5 -175 q0 -129 -71.5 -234t-191.5 -163t-262 -58z" />
<glyph unicode="6" d="M498 -13q-169 0 -264.5 115.5t-95.5 339.5q0 142 26.5 275.5t81.5 251t132.5 205t186 138.5t235.5 51q122 0 211 -67.5t89 -171.5q0 -85 -38.5 -136.5t-93.5 -51.5q-34 0 -57.5 20.5t-23.5 55.5q0 25 11 44.5t27.5 32.5t32.5 26t28 32t13 43q1 60 -58.5 101t-146.5 41 q-102 0 -184 -60t-139 -170t-94.5 -250t-59.5 -316q28 70 75.5 123.5t101 82t102 42t90.5 13.5q64 0 119 -18t99.5 -54t70 -96t25.5 -137q0 -139 -68 -255.5t-183.5 -183t-250.5 -66.5zM502 21q82 0 146 44.5t102 119t57.5 163.5t19.5 185q0 114 -44.5 170.5t-122.5 56.5 q-141 0 -252 -137.5t-111 -324.5q0 -121 56.5 -199t148.5 -78z" />
<glyph unicode="7" horiz-adv-x="942" d="M149 1005l8 48q53 309 317 309q84 0 210.5 -44t194.5 -44q35 0 62 14t38.5 30t24 30t22.5 14q16 0 13 -16l-13 -74q-18 -103 -55.5 -194.5t-84 -162.5t-100 -140t-107.5 -141t-102.5 -149.5t-89.5 -181t-64 -221.5q-9 -46 -38.5 -71t-68.5 -25q-36 0 -58 23.5t-18 65.5 q16 109 49 202.5t75.5 163.5t93 131t104.5 112t107.5 99t103.5 98t91.5 104t73.5 123t47 148q-39 -69 -91 -99.5t-123 -30.5q-58 0 -171.5 34.5t-185.5 34.5q-98 0 -158 -49.5t-75 -141.5q-3 -15 -19 -15t-13 16z" />
<glyph unicode="8" horiz-adv-x="1062" d="M720 717q102 -31 157.5 -106t55.5 -176q0 -188 -142.5 -318t-342.5 -130q-163 0 -257.5 85t-94.5 224q0 150 94 264.5t242 155.5q-100 25 -152.5 91t-52.5 162q0 117 62.5 207.5t167.5 138.5t234 48q165 0 256.5 -73t91.5 -196q0 -141 -88 -241.5t-231 -135.5zM403 924 q0 -188 177 -188q71 0 126 33t88 89.5t50 126t17 148.5q0 192 -176 192q-91 0 -157 -59t-95.5 -147.5t-29.5 -194.5zM455 24q97 0 167.5 69.5t102.5 171t32 217.5q0 216 -183 216q-74 0 -133 -40t-95 -106t-55 -146t-19 -165q0 -217 183 -217z" />
<glyph unicode="9" horiz-adv-x="1138" d="M717 1363q169 0 264.5 -115.5t95.5 -339.5q0 -142 -26.5 -275.5t-81.5 -251t-132.5 -205t-186 -138.5t-235.5 -51q-122 0 -211 67.5t-89 171.5q0 85 38.5 137t93.5 52q33 0 56.5 -21t23.5 -56q0 -30 -17 -53.5t-37.5 -36.5t-38 -36t-18.5 -52q-1 -60 58 -101t146 -41 q102 0 184 60t139 170t94.5 250t59.5 316q-28 -70 -75.5 -123.5t-101 -82t-102 -42t-90.5 -13.5q-64 0 -119 18t-99 54t-69.5 96t-25.5 137q0 139 68 255.5t183.5 183t250.5 66.5zM712 1329q-82 0 -146 -44.5t-101.5 -119t-57 -163.5t-19.5 -185q0 -114 44.5 -170.5 t122.5 -56.5q141 0 252 138t111 325q0 121 -56.5 198.5t-149.5 77.5z" />
<glyph unicode=":" horiz-adv-x="509" d="M228 729q0 42 34 75t76 33q33 0 55.5 -22.5t22.5 -54.5q0 -43 -34.5 -75.5t-77.5 -32.5q-32 0 -54 22.5t-22 54.5zM114 74q0 42 33.5 75t75.5 33q33 0 56 -22t23 -54q0 -43 -34.5 -76t-77.5 -33q-32 0 -54 22.5t-22 54.5z" />
<glyph unicode=";" horiz-adv-x="485" d="M349 842q33 0 56 -22.5t23 -54.5q0 -43 -34.5 -75.5t-77.5 -32.5q-32 0 -54 22.5t-22 54.5q0 42 33.5 75t75.5 33zM233 162q39 0 61.5 -23.5t22.5 -67.5q0 -98 -67.5 -213t-194.5 -214q-5 -4 -12 -4q-9 0 -9 9q0 10 9 16q172 155 206 328q-23 -15 -53 -15q-34 0 -54 21 t-20 53q0 44 31.5 77t79.5 33z" />
<glyph unicode="&#x3c;" horiz-adv-x="692" d="M610 948q18 10 26 -3t-9 -24l-450 -269l356 -271q11 -8 10 -17.5t-10 -12t-20 4.5l-393 299z" />
<glyph unicode="=" horiz-adv-x="882" d="M849 791q17 0 17 -16t-17 -16h-696q-16 0 -16 17q0 15 16 15h696zM805 543q16 0 16 -16t-16 -16h-697q-16 0 -16 16t16 16h697z" />
<glyph unicode="&#x3e;" horiz-adv-x="692" d="M133 361q-18 -10 -26 3t9 24l450 269l-356 271q-11 8 -10 17.5t10 12t20 -4.5l393 -299z" />
<glyph unicode="?" horiz-adv-x="1048" d="M689 1479q-93 0 -172 -57t-79 -130q0 -31 33.5 -68t33.5 -63q0 -46 -34 -76t-77 -30q-38 0 -60.5 26t-22.5 74q0 151 123.5 256.5t287.5 105.5q143 0 243.5 -61t100.5 -173q0 -71 -27.5 -133.5t-73.5 -113t-102 -100.5t-116 -107.5t-113 -121.5t-95.5 -154.5 t-61.5 -195.5l-18 -105q-5 -18 -21 -18q-8 0 -12.5 5.5t-2.5 12.5l22 125q24 137 80.5 255.5t118.5 198.5t120.5 152.5t97 152t38.5 163.5q0 92 -58.5 136t-152.5 44zM254 -263q0 43 35 76t79 33q33 0 55 -22.5t22 -55.5q0 -42 -34 -75.5t-76 -33.5q-35 0 -58 22.5t-23 55.5 z" />
<glyph unicode="@" horiz-adv-x="1855" d="M1317 39q-119 0 -187 75t-47 190q-56 -114 -145.5 -182.5t-193.5 -68.5q-123 0 -203 74.5t-80 224.5q0 137 53.5 255.5t152.5 191t221 72.5q104 0 169.5 -69.5t80.5 -181.5l43 238h134l-98 -556q-19 -103 8.5 -167t107.5 -64q69 0 129 40.5t101 106t70.5 147.5t43 165 t13.5 160q0 262 -168.5 415t-453.5 153q-153 0 -292 -49.5t-247.5 -138.5t-188.5 -207.5t-122.5 -262t-42.5 -296.5q0 -280 166.5 -444t450.5 -164q16 0 14 -15q-3 -15 -19 -16q-203 0 -368 80.5t-263 234t-98 352.5q0 130 39 255t107.5 229.5t164.5 193t207.5 150t239.5 96 t258 34.5q204 0 370 -75.5t265.5 -219.5t99.5 -331q0 -93 -21 -183t-63 -170t-100 -140.5t-137.5 -96t-170.5 -35.5zM788 94q85 0 163 71t122.5 175t44.5 205q0 121 -57 203t-143 82q-77 0 -139 -46.5t-98.5 -121t-56 -160.5t-19.5 -173q0 -118 48.5 -176.5t134.5 -58.5z " />
<glyph unicode="A" horiz-adv-x="1290" d="M1186 32q16 0 16 -16t-16 -16h-438q-16 0 -16 16t16 16h72q31 0 49.5 21t11.5 51l-62 332h-502l-183 -332q-15 -28 -4 -50t41 -22h76q16 0 16 -16t-16 -16h-300q-7 0 -12 4.5t-5 11.5q0 16 17 16h42q38 0 62.5 18t44.5 54l688 1253h36l239 -1255q13 -70 89 -70h38z M334 468h479l-122 650z" />
<glyph unicode="B" horiz-adv-x="1177" d="M659 699q193 -10 291 -82t98 -185q0 -181 -172 -306.5t-446 -125.5h-428q-16 0 -16 16t16 16h53q22 0 38 13.5t20 32.5l209 1192q4 19 -7 33.5t-33 14.5h-56q-16 0 -16 15q0 17 16 17h423q122 0 214 -25.5t151.5 -88t59.5 -157.5q0 -103 -58 -185t-150 -129.5t-207 -65.5 zM555 1318q-22 0 -38.5 -13.5t-18.5 -32.5l-100 -565h133q152 0 255 113.5t103 270.5q0 106 -62.5 166.5t-185.5 60.5h-86zM423 32q104 0 188.5 33t138.5 88t83 126t29 149q0 108 -75.5 177t-219.5 69h-175l-105 -595q-4 -19 7 -33t33 -14h96z" />
<glyph unicode="C" horiz-adv-x="1290" d="M1192 1151q0 68 -77.5 121.5t-222.5 53.5q-115 0 -212 -51t-163.5 -136.5t-113.5 -198.5t-69 -236.5t-22 -251.5q0 -201 87.5 -309.5t267.5 -108.5q79 0 153.5 24t129 62t94.5 78.5t63 81.5q12 17 23 17q8 0 12 -5.5t2 -12.5q-35 -75 -133 -151q-80 -64 -178.5 -102.5 t-199.5 -38.5q-247 0 -373.5 138t-126.5 374q0 173 52.5 329.5t146.5 275.5t234 189t305 70q198 0 305.5 -83t107.5 -202q0 -86 -40 -135t-91 -49q-33 0 -55.5 20t-22.5 54q0 32 18.5 57t40 38.5t40 36t18.5 51.5z" />
<glyph unicode="D" horiz-adv-x="1382" d="M678 1350q647 0 647 -497q0 -185 -67 -344t-183.5 -270.5t-280 -175t-351.5 -63.5h-441q-16 0 -16 16t16 16h53q22 0 37.5 13.5t20.5 33.5l209 1190q4 20 -7 34.5t-33 14.5h-56q-16 0 -16 15q0 17 16 17h452zM555 1318q-22 0 -37.5 -13.5t-19.5 -33.5l-210 -1190 q-4 -20 7 -34.5t33 -14.5h114q151 0 282.5 68.5t221.5 182t141.5 263t51.5 310.5q0 226 -126.5 343.5t-344.5 118.5h-113z" />
<glyph unicode="E" horiz-adv-x="1083" d="M1095 1350l-62 -352q-1 -13 -16 -13q-16 0 -15 17l13 78q6 27 6 52q0 87 -54.5 136.5t-160.5 49.5h-251q-22 0 -37.5 -13.5t-19.5 -33.5l-97 -547h127q106 0 148 29.5t54 94.5l8 47q4 13 16 13q19 0 16 -19l-67 -376q-2 -15 -16 -15q-7 0 -11.5 5.5t-3.5 13.5l7 43 q4 28 4 38q0 47 -35.5 70.5t-125.5 23.5h-127l-107 -611q-4 -20 6.5 -34.5t32.5 -14.5h261q123 0 198 65t95 174l15 85q3 13 16 13q7 0 12 -5.5t4 -13.5l-62 -350h-864q-16 0 -16 16t16 16h52q22 0 38 13.5t21 33.5l209 1190q4 20 -7 34.5t-33 14.5h-57q-16 0 -16 15 q0 17 16 17h870z" />
<glyph unicode="F" horiz-adv-x="1007" d="M1059 1350l-62 -352q-1 -13 -17 -13t-15 17l13 78q6 27 6 52q0 87 -54.5 136.5t-160.5 49.5h-214q-22 0 -38 -13.5t-18 -32.5l-98 -548h125q106 0 148 29.5t54 94.5l8 47q4 13 16 13q18 0 15 -19l-66 -376q-2 -15 -16 -15q-7 0 -12 5.5t-4 13.5l8 43q4 28 4 38 q0 47 -35.5 70.5t-125.5 23.5h-125l-108 -613q-4 -19 7.5 -33t33.5 -14h106q16 0 16 -16t-16 -16h-432q-16 0 -16 16t16 16h53q22 0 38 13.5t20 32.5l209 1192q4 19 -7 33.5t-33 14.5h-56q-16 0 -16 15q0 17 16 17h833z" />
<glyph unicode="G" horiz-adv-x="1343" d="M633 -13q-227 0 -363 129t-136 383q0 173 52.5 329.5t146.5 275.5t234 189t305 70q198 0 305 -83t107 -202q0 -86 -40 -135t-91 -49q-33 0 -55.5 20t-22.5 54q0 32 18.5 57t40 38.5t40 36.5t18.5 51q0 68 -77.5 121.5t-222.5 53.5q-115 0 -212 -51t-163.5 -136.5 t-113.5 -199t-68.5 -237t-21.5 -252.5q0 -216 94 -318t261 -102q128 0 272 49l77 434q4 22 -9.5 35.5t-31.5 13.5h-178q-17 0 -17 16t17 16h407l-85 -484q-260 -123 -487 -123z" />
<glyph unicode="H" horiz-adv-x="1339" d="M1026 697h-628l-110 -616q-4 -21 7.5 -35t33.5 -14h55q16 0 16 -16t-16 -16h-380q-18 0 -18 16t18 16h52q21 0 37 13.5t20 33.5l211 1190q2 20 -9 34.5t-33 14.5h-55q-16 0 -16 15q0 17 16 17h380q16 0 16 -17q0 -15 -16 -15h-52q-21 0 -37 -14t-20 -33l-96 -542h630 l95 540q4 20 -7 34.5t-33 14.5h-57q-16 0 -16 15q0 17 16 17h382q16 0 16 -17q0 -15 -16 -15h-52q-22 0 -38.5 -14t-18.5 -33l-211 -1190q-4 -21 7 -35t33 -14h57q16 0 16 -16t-16 -16h-382q-16 0 -16 16t16 16h52q22 0 38.5 13.5t20.5 33.5z" />
<glyph unicode="I" horiz-adv-x="534" d="M287 81q-4 -19 7.5 -34t33.5 -15h56q16 0 16 -16t-16 -16h-382q-16 0 -16 16t16 16h53q22 0 38 14t20 33l209 1190q4 20 -7 34.5t-33 14.5h-56q-16 0 -16 15q0 17 16 17h381q16 0 16 -17q0 -15 -16 -15h-52q-22 0 -38.5 -14t-18.5 -33z" />
<glyph unicode="J" horiz-adv-x="528" d="M608 1350q16 0 16 -17q0 -15 -16 -15h-52q-22 0 -38.5 -14.5t-20.5 -34.5l-265 -1508q-21 -116 -105 -180t-204 -64q-93 0 -153.5 43.5t-60.5 120.5q0 64 32 107.5t86 43.5q33 0 51.5 -16.5t18.5 -46.5q0 -25 -12.5 -46t-28 -33.5t-28 -31.5t-12.5 -40q0 -30 23.5 -48.5 t66.5 -18.5q42 0 72 18t47.5 53.5t26.5 71.5t16 89q27 189 39 258l216 1228q4 19 -7.5 34t-33.5 15h-53q-16 0 -16 15q0 17 16 17h379z" />
<glyph unicode="K" horiz-adv-x="1165" d="M287 81q-4 -19 7.5 -34t33.5 -15h56q16 0 16 -16t-16 -16h-382q-16 0 -16 16t16 16h53q22 0 38 14t20 33l209 1190q4 20 -7 34.5t-33 14.5h-56q-16 0 -16 15q0 17 16 17h381q16 0 16 -17q0 -15 -16 -15h-52q-22 0 -38.5 -14t-18.5 -33zM1286 1350q16 0 16 -16t-16 -16 h-26q-48 0 -76 -10.5t-58 -37.5l-566 -517l386 -674q27 -47 84 -47h30q16 0 16 -16t-16 -16h-412q-16 0 -16 16t16 16h51q45 0 45 31q0 11 -7 21l-329 578l667 608q15 15 15 28q0 20 -32 20h-105q-17 0 -17 16t17 16h333z" />
<glyph unicode="L" horiz-adv-x="935" d="M872 357q7 0 12 -5t4 -14l-60 -338h-826q-16 0 -16 16t16 16h53q22 0 38 14t20 33l209 1190q4 20 -7 34.5t-33 14.5h-56q-16 0 -16 15q0 17 16 17h381q16 0 16 -17q0 -15 -16 -15h-52q-22 0 -38.5 -14t-18.5 -33l-210 -1190q-4 -20 7 -34.5t33 -14.5h222q118 0 198 76.5 t99 183.5l9 52q1 13 16 13z" />
<glyph unicode="M" horiz-adv-x="1591" d="M1662 1350q16 0 16 -17q0 -15 -16 -15h-52q-22 0 -38 -14.5t-20 -34.5l-209 -1188q-4 -20 7 -34.5t33 -14.5h56q16 0 16 -16t-16 -16h-382q-16 0 -16 16t16 16h53q22 0 38 14t20 33l212 1201l-703 -1287h-39l-280 1290l-211 -1202q-4 -20 7 -34.5t33 -14.5h53 q16 0 16 -16t-16 -16h-240q-16 0 -16 16t16 16h53q22 0 38 14t20 33l209 1190q4 20 -7 34.5t-33 14.5h-53q-16 0 -16 16t16 16h304l239 -1118l611 1118h281z" />
<glyph unicode="N" horiz-adv-x="1216" d="M1296 1350q16 0 16 -16t-16 -16h-53q-21 0 -37 -14t-20 -33l-224 -1271h-81l-541 1171l-193 -1090q-4 -20 7 -34.5t33 -14.5h53q16 0 16 -16t-16 -16h-240q-16 0 -16 16t16 16h53q22 0 38.5 14t20.5 33l209 1190q4 19 -7.5 34t-33.5 15h-53q-16 0 -16 16t16 16h227 l515 -1114l182 1033q4 19 -8 34t-34 15h-53q-16 0 -16 16t16 16h240z" />
<glyph unicode="O" horiz-adv-x="1390" d="M611 -13q-158 0 -267 66t-159.5 179t-50.5 265q0 175 51 332t142.5 275.5t228 188t298.5 69.5q237 0 358 -134t121 -364q0 -174 -52 -333t-144 -279.5t-229 -192.5t-297 -72zM617 22q397 0 514 660q26 151 26 262q0 383 -309 383q-400 0 -512 -645q-26 -142 -26 -265 q0 -395 307 -395z" />
<glyph unicode="P" horiz-adv-x="1087" d="M648 1350q205 0 312.5 -95.5t107.5 -236.5q0 -66 -23.5 -131.5t-71.5 -125t-113.5 -105t-157 -72.5t-195.5 -27h-135l-85 -476q-4 -19 7.5 -34t33.5 -15h101q16 0 16 -16t-16 -16h-427q-16 0 -16 16t16 16h53q22 0 38 14t20 33l209 1190q4 20 -7 34.5t-33 14.5h-56 q-16 0 -16 15q0 17 16 17h422zM476 589q93 0 172 40t130 104.5t79.5 142.5t28.5 156q0 122 -72 204t-209 82h-50q-22 0 -38.5 -14t-18.5 -33l-122 -682h100z" />
<glyph unicode="Q" horiz-adv-x="1406" d="M611 -13q-158 0 -267 66t-159.5 179t-50.5 265q0 175 51 332t142.5 275.5t228 188t298.5 69.5q237 0 358 -134t121 -364q0 -174 -52 -333t-144 -279.5t-229 -192.5t-297 -72zM617 22q397 0 514 660q26 151 26 262q0 383 -309 383q-400 0 -512 -645q-26 -142 -26 -265 q0 -395 307 -395zM1077 -503q-91 0 -177.5 39.5t-153 95.5t-128 112t-125 95.5t-120.5 39.5q-65 0 -111 -48t-46 -122q0 -16 -15 -16q-16 0 -16 16q0 99 76.5 165.5t182.5 66.5q60 0 125.5 -29t120.5 -73t116 -95t112.5 -95t109.5 -73t108 -29q80 0 121 44t41 92 q0 32 -14.5 55.5t-31.5 35.5t-31.5 32t-14.5 46q0 37 23 58t59 21q41 0 64.5 -32t23.5 -92q0 -52 -15 -102.5t-47 -99t-93.5 -78.5t-143.5 -30z" />
<glyph unicode="R" horiz-adv-x="1120" d="M1082 86q12 0 12 -14q-3 -22 -60.5 -53.5t-118.5 -31.5q-59 0 -98.5 18.5t-56.5 50.5t-26 74.5t-7 90.5t1 98.5t-2.5 98.5t-18 90.5t-44 74.5t-81.5 50.5t-131 18.5h-63l-101 -571q-4 -19 7.5 -34t33.5 -15h56q16 0 16 -16t-16 -16h-382q-16 0 -16 16t16 16h53 q22 0 38 14t20 33l209 1190q4 20 -7 34.5t-33 14.5h-56q-16 0 -16 15q0 17 16 17h456q182 0 281 -82.5t76 -231.5q-21 -143 -138 -241t-301 -125q90 -13 151.5 -48t89.5 -81.5t43 -102t14 -111.5t-0.5 -108t2 -92.5t19 -64.5t53.5 -24q27 0 50.5 12t38 24t21.5 12zM395 684 h98q78 0 144.5 31.5t110.5 83.5t71.5 112.5t36.5 124.5q21 136 -34 209t-190 73h-78q-22 0 -38 -14t-18 -33z" />
<glyph unicode="S" horiz-adv-x="1058" d="M406 -13q-159 0 -254 71t-95 177q0 69 34.5 113t79.5 44q29 0 49.5 -16.5t20.5 -46.5q0 -28 -15.5 -50.5t-34.5 -35t-34.5 -31.5t-15.5 -41q0 -44 41 -79t98.5 -52.5t114.5 -17.5q171 0 282.5 97t111.5 246q0 60 -31.5 106.5t-82 77.5t-112 58.5t-122.5 57.5t-111.5 66 t-82 92.5t-31.5 129.5q0 187 133 298.5t341 111.5q155 0 250.5 -68.5t95.5 -171.5q0 -69 -34 -113t-80 -44q-28 0 -49.5 16.5t-21.5 46.5q0 28 15.5 51t34 35t34 30.5t15.5 39.5q0 62 -78.5 102t-174.5 40q-157 0 -254 -80t-97 -216q0 -55 32.5 -99t85 -74t115.5 -58 t126 -60t115.5 -70.5t85 -99t32.5 -136.5q0 -129 -70 -231.5t-191.5 -159t-270.5 -56.5z" />
<glyph unicode="T" horiz-adv-x="1079" d="M566 81q-4 -20 7 -34.5t33 -14.5h56q16 0 16 -16t-16 -16h-381q-16 0 -16 16t16 16h52q22 0 38.5 14t18.5 33l211 1190q4 19 -7.5 34t-33.5 15h-56q-280 0 -330 -268l-10 -61q-3 -16 -17 -14q-17 2 -14 19l62 356h1003l-63 -352q-1 -13 -15 -13q-17 0 -16 17l13 78 q6 27 6 52q0 87 -54.5 136.5t-160.5 49.5h-75q-22 0 -38 -14t-20 -33z" />
<glyph unicode="U" horiz-adv-x="1267" d="M1349 1350q16 0 16 -16t-16 -16h-53q-22 0 -38 -14t-20 -33l-143 -810q-22 -121 -72.5 -213t-122.5 -148.5t-158 -84.5t-184 -28q-55 0 -105.5 9.5t-100.5 32t-87 58.5t-64 89.5t-31.5 125.5t9.5 166l142 801q4 19 -7.5 34t-33.5 15h-53q-16 0 -16 15q0 17 16 17h379 q17 0 17 -17q0 -15 -17 -15h-53q-22 0 -38 -14.5t-20 -34.5l-147 -830q-36 -206 36 -305.5t225 -99.5q166 0 290 108.5t160 313.5l143 813q4 20 -7 34.5t-33 14.5h-53q-16 0 -16 16t16 16h240z" />
<glyph unicode="V" horiz-adv-x="1292" d="M1420 1350q16 0 16 -16t-16 -16h-43q-38 0 -62.5 -18t-44.5 -54l-688 -1253h-36l-239 1255q-13 70 -88 70h-39q-16 0 -16 16t16 16h438q7 0 12 -4.5t5 -11.5q0 -16 -17 -16h-72q-31 0 -49.5 -21t-11.5 -51l190 -1014l557 1014q15 28 4 50t-41 22h-75q-17 0 -17 16 q0 7 5 11.5t12 4.5h300z" />
<glyph unicode="W" horiz-adv-x="1789" d="M1917 1350q17 0 17 -17q0 -15 -17 -15h-57q-60 0 -83 -49l-592 -1271h-39l-145 1059l-477 -1059h-39l-196 1271q-9 49 -62 49h-47q-16 0 -16 16t16 16h421q17 0 17 -17q0 -15 -17 -15h-89q-25 0 -38 -14t-9 -35l150 -996l486 1077h35l144 -1074l461 993q10 22 2 35.5 t-30 13.5h-82q-17 0 -17 16t17 16h286z" />
<glyph unicode="X" horiz-adv-x="1214" d="M1288 1350q16 0 16 -16t-16 -16h-58q-50 0 -89 -49l-408 -536l250 -652q19 -49 90 -49h37q16 0 16 -16t-16 -16h-448q-16 0 -16 16t16 16h73q24 0 37 14.5t4 34.5l-203 526l-405 -526q-16 -20 -7.5 -34.5t33.5 -14.5h69q16 0 16 -16t-16 -16h-299q-17 0 -17 16t17 16h59 q67 0 105 49l432 560l-241 628q-18 49 -70 49h-45q-16 0 -16 16t16 16h407q17 0 17 -17q0 -15 -17 -15h-43q-24 0 -37 -14t-4 -35l193 -501l380 501q15 21 7 35t-32 14h-48q-16 0 -16 16t16 16h261z" />
<glyph unicode="Y" horiz-adv-x="1110" d="M1236 1350q16 0 16 -16t-16 -16h-40q-44 0 -77 -48l-449 -681l-89 -508q-4 -20 7 -34.5t33 -14.5h53q17 0 17 -16t-17 -16h-379q-16 0 -16 16t16 16h53q22 0 38 14.5t20 34.5l89 503l-218 686q-13 48 -67 48h-29q-16 0 -16 16t16 16h374q15 0 15 -16t-15 -16h-57 q-26 0 -35 -14t-3 -34l200 -636l419 636q14 16 7.5 32t-33.5 16h-45q-16 0 -16 16t16 16h228z" />
<glyph unicode="Z" horiz-adv-x="1200" d="M1174 1350l-5 -32l-966 -1286h471q123 0 198 65t95 174l15 85q3 13 16 13q19 0 16 -19l-62 -350h-955l7 37l960 1281h-395q-281 0 -331 -268l-10 -61q-3 -15 -18 -15q-6 0 -10.5 6t-3.5 14l63 356h915z" />
<glyph unicode="[" horiz-adv-x="450" d="M547 1493q16 0 16 -16t-16 -16h-110q-22 0 -38.5 -15t-18.5 -34l-333 -1886q-4 -20 7 -34.5t33 -14.5h103q17 0 17 -16t-17 -16h-323l360 2048h320z" />
<glyph unicode="\" horiz-adv-x="428" d="M358 0h34l-322 1493h-33z" />
<glyph unicode="]" horiz-adv-x="452" d="M-93 -555q-16 0 -16 16t16 16h110q22 0 38.5 15t18.5 34l333 1886q4 20 -7 34.5t-33 14.5h-104q-16 0 -16 16t16 16h324l-361 -2048h-319z" />
<glyph unicode="^" horiz-adv-x="800" d="M834 1034q3 -9 3 -10q0 -19 -20 -19q-10 0 -17 10l-234 372l-365 -372q-12 -12 -24 -12t-16 14q0 10 7 17l348 436q28 36 69 36q39 0 56 -36z" />
<glyph unicode="_" horiz-adv-x="1269" d="M1032 32q16 0 16 -16t-16 -16h-952q-16 0 -16 16t16 16h952z" />
<glyph unicode="`" horiz-adv-x="600" d="M484 1157l-306 239q-37 28 -19 65q15 31 49 31q27 1 50 -25l248 -286q13 -14 3.5 -24.5t-25.5 0.5z" />
<glyph unicode="a" d="M1088 265q14 0 14 -16q0 -25 -15 -66.5t-42 -86.5t-74.5 -77t-102.5 -32q-77 0 -110 45.5t-19 130.5l13 72q-59 -113 -147.5 -180t-195.5 -67q-141 0 -224.5 98.5t-83.5 259.5q0 148 59.5 283.5t169.5 222.5t243 87q110 0 175.5 -70.5t81.5 -190.5l42 246h160l-143 -814 q-5 -32 1.5 -49t30.5 -17q41 0 86 56t63 148q2 17 18 17zM446 34q79 0 147.5 51.5t113 133t70 181t25.5 198.5q0 134 -51.5 214t-154.5 80q-106 0 -177.5 -91.5t-111.5 -250.5q-37 -139 -37 -271q0 -245 176 -245z" />
<glyph unicode="b" d="M103 0l248 1412q4 20 -7.5 34.5t-33.5 14.5h-54q-16 0 -16 16t16 16h269l-142 -815q57 117 146.5 187t198.5 70q141 0 224.5 -98.5t83.5 -258.5q0 -110 -35.5 -217t-97 -190.5t-151 -135t-190.5 -51.5q-109 0 -174 71t-81 191l-45 -246h-159zM829 373q36 142 36 272 q0 245 -174 245q-105 0 -189 -87.5t-126.5 -215t-42.5 -261.5t52 -214.5t154 -80.5q204 0 290 342z" />
<glyph unicode="c" horiz-adv-x="970" d="M458 -13q-175 0 -266 96t-91 261q0 119 37 227t102.5 189.5t163 130t211.5 48.5q146 0 229.5 -65t83.5 -168q0 -80 -36.5 -125t-85.5 -45q-30 0 -50.5 19.5t-20.5 49.5t16.5 52.5t36.5 34.5t36.5 32.5t16.5 46.5q0 57 -59.5 96.5t-152.5 39.5q-57 0 -107.5 -22.5 t-97 -71.5t-83 -137.5t-57.5 -210.5q-15 -92 -15 -150q0 -138 57 -210.5t162 -72.5q207 0 332 232q8 12 19 12q12 0 12 -12q0 -6 -1 -9q-14 -32 -34 -64.5t-55 -70.5t-76.5 -66.5t-101 -47.5t-125.5 -19z" />
<glyph unicode="d" d="M1089 269q14 0 14 -16q0 -25 -15 -66.5t-42.5 -86.5t-75 -77t-103.5 -32q-76 0 -109 46.5t-18 131.5l11 62q-60 -111 -149 -174.5t-193 -63.5q-141 0 -224.5 98.5t-83.5 258.5q0 110 35.5 217t97 190.5t151 134.5t190.5 51q108 0 173.5 -70.5t81.5 -190.5l130 731 q4 20 -8 35t-34 15h-53q-16 0 -16 16t16 16h268l-244 -1381q-3 -16 -3 -27q0 -38 36 -38q41 0 85.5 55.5t62.5 147.5q3 17 19 17zM446 38q80 0 149.5 52.5t114 135t69.5 181.5t25 195q0 134 -52.5 214t-155.5 80q-106 0 -177.5 -91.5t-111.5 -250.5q-35 -137 -35 -271 q0 -245 174 -245z" />
<glyph unicode="e" horiz-adv-x="993" d="M862 277q13 0 13 -13v-7q-11 -24 -29 -52.5t-53.5 -69t-78 -72t-105 -54t-130.5 -22.5q-176 0 -277 92.5t-101 264.5q0 115 36 221t102 190t170.5 134t232.5 50q142 0 221 -53.5t79 -140.5q0 -75 -38 -134t-100.5 -97t-150.5 -63.5t-180.5 -36.5t-197.5 -13 q-5 -48 -5 -84q0 -131 57 -208t182 -77q110 0 201 72t133 160q8 13 19 13zM618 907q-69 0 -129.5 -42t-102 -112t-69 -152.5t-39.5 -170.5q244 5 376 79t132 235q0 71 -41.5 117t-126.5 46z" />
<glyph unicode="f" horiz-adv-x="528" d="M654 1503q97 0 165.5 -43.5t68.5 -118.5q0 -60 -34 -105.5t-87 -45.5q-28 0 -47.5 15t-19.5 43q0 25 13.5 46t29 34t29 31.5t13.5 36.5q0 32 -33 53t-80 21q-60 0 -110 -39t-65 -118l-68 -389h135q16 0 16 -17q0 -15 -16 -15h-141l-218 -1234h-159l217 1234h-103 q-16 0 -16 16t16 16h109l59 331q14 82 66.5 140t119 83t140.5 25z" />
<glyph unicode="g" horiz-adv-x="1097" d="M1036 924l-178 -1015q-41 -236 -186.5 -359t-366.5 -123q-153 0 -240.5 75.5t-87.5 183.5q0 76 37 117.5t82 41.5q27 0 45.5 -16.5t18.5 -45.5q0 -30 -15 -51.5t-33 -32t-33 -30.5t-15 -47q0 -57 62 -109t174 -52q81 0 149 31.5t115 86t78.5 122.5t44.5 146l69 395 q-57 -115 -147 -184.5t-197 -69.5q-141 0 -224 98.5t-83 259.5q0 148 59.5 283.5t169.5 222.5t243 87q110 0 175 -70.5t81 -190.5l43 246h160zM449 34q104 0 188 87.5t126.5 215t42.5 261.5t-51.5 214t-154.5 80q-106 0 -177.5 -91.5t-111.5 -250.5q-37 -139 -37 -271 q0 -245 175 -245z" />
<glyph unicode="h" horiz-adv-x="1107" d="M1059 265q14 0 14 -16q0 -25 -15 -66.5t-42 -86.5t-74.5 -77t-103.5 -32q-64 0 -98 33t-34 96q0 14 4 50l80 451q25 144 -4 203t-99 59q-119 0 -217.5 -126t-129.5 -301l-80 -452h-159l250 1412q2 21 -8.5 35t-32.5 14h-54q-16 0 -16 16t16 16h269l-148 -839 q60 128 158 205t220 77q251 0 202 -281l-96 -545q-3 -16 -3 -28q0 -38 34 -38q41 0 86 56t63 148q5 17 18 17z" />
<glyph unicode="i" horiz-adv-x="528" d="M306 1230q0 43 35 76t79 33q33 0 55 -22.5t22 -55.5q0 -42 -34 -75.5t-76 -33.5q-35 0 -58 22.5t-23 55.5zM479 265q14 0 14 -16q0 -25 -15 -66.5t-42.5 -86.5t-75 -77t-102.5 -32q-65 0 -99 33t-34 96q0 5 5 50l121 676q2 20 -9 35t-33 15h-53q-16 0 -16 16t16 16h268 l-143 -814q-3 -16 -3 -28q0 -38 34 -38q41 0 85.5 56t62.5 148q5 17 19 17z" />
<glyph unicode="j" horiz-adv-x="483" d="M416 1339q33 0 55.5 -22.5t22.5 -55.5q0 -42 -34.5 -75.5t-76.5 -33.5q-35 0 -58 22.5t-23 55.5q0 43 35 76t79 33zM140 908q0 16 16 16h268l-83 -472h-1l-136 -771q-14 -82 -67 -139.5t-120 -82.5t-141 -25q-96 0 -163.5 43.5t-67.5 118.5q0 60 33 105.5t86 45.5 q28 0 47.5 -15.5t19.5 -43.5q0 -31 -21.5 -56t-43 -47t-21.5 -45q0 -32 33.5 -52.5t80.5 -20.5q61 0 111 39t64 118l161 909l54 309q4 20 -7.5 35t-33.5 15h-52q-16 0 -16 16z" />
<glyph unicode="k" horiz-adv-x="1091" d="M525 1493l-265 -1493h-159l250 1412q2 21 -8.5 35t-32.5 14h-54q-16 0 -16 16t16 16h269zM738 -13q49 0 90 23t67 56.5t44 72t25.5 67.5t7.5 44t-14 15q-13 0 -18 -17q-17 -91 -55 -135t-79 -44q-49 0 -76.5 38.5t-44 101.5t-35.5 132t-66.5 142t-121.5 120 q48 81 104.5 142t110 94.5t100.5 50t88 16.5q42 0 66 -15t24 -42q0 -22 -12.5 -40t-27 -29t-27 -30.5t-12.5 -42.5q0 -32 21 -52.5t52 -20.5q41 0 70.5 38.5t29.5 105.5q0 66 -45 113.5t-123 47.5q-56 0 -118.5 -23t-131.5 -72t-138.5 -139.5t-124.5 -212.5 q54 -36 90 -102.5t55 -133t42 -129t67.5 -101.5t115.5 -39z" />
<glyph unicode="l" horiz-adv-x="530" d="M480 265q14 0 14 -16q0 -25 -15 -66.5t-42 -86.5t-74 -77t-103 -32q-65 0 -99 32.5t-34 95.5q0 6 5 51l219 1246q4 20 -8 34.5t-34 14.5h-53q-16 0 -16 16t16 16h268l-243 -1383q-2 -11 -2 -28q0 -38 34 -38q41 0 86 56t63 148q5 17 18 17z" />
<glyph unicode="m" horiz-adv-x="1634" d="M1585 265q14 0 14 -16q0 -19 -9 -50t-28.5 -68t-46 -69t-66.5 -53.5t-85 -21.5q-64 0 -98 33t-34 96q0 32 4 50l80 451q25 145 -1.5 203.5t-95.5 58.5q-111 0 -201.5 -123t-122.5 -301l-81 -455h-160l109 617q25 145 -1.5 203.5t-95.5 58.5q-111 0 -202 -122.5 t-122 -298.5l-80 -458h-160l148 842q4 20 -7.5 35t-33.5 15h-54q-16 0 -16 16t16 16h269l-46 -262q58 125 148.5 199.5t206.5 74.5q125 0 171.5 -68.5t25.5 -207.5q57 127 148 201.5t209 74.5q129 0 174 -72t20 -209l-96 -545q-1 -6 -1 -28q0 -38 34 -38q41 0 86 56t63 148 q3 17 18 17z" />
<glyph unicode="n" horiz-adv-x="1110" d="M1060 265q14 0 14 -16q0 -20 -8.5 -50.5t-28 -67.5t-45.5 -69t-66.5 -53.5t-85.5 -21.5q-65 0 -99 33t-34 96q0 5 5 50l80 451q25 144 -4 203t-99 59q-117 0 -216.5 -124t-130.5 -297l-80 -458h-160l148 842q4 20 -7.5 35t-33.5 15h-53q-17 0 -17 16t17 16h268l-48 -272 q60 129 158.5 206.5t222.5 77.5q251 0 202 -281l-96 -545q-4 -22 -4 -28q0 -38 35 -38q41 0 85.5 56t62.5 148q5 17 18 17z" />
<glyph unicode="o" horiz-adv-x="1046" d="M439 -13q-161 0 -250 90t-89 257q0 163 60 299.5t177.5 221t270.5 84.5q160 0 249.5 -88t89.5 -255q0 -165 -59.5 -302.5t-177 -222t-271.5 -84.5zM444 19q119 1 200 114.5t120 330.5q20 109 20 185q0 128 -46.5 193t-135.5 65q-118 0 -200 -112t-120 -331 q-19 -108 -19 -184q0 -126 46 -193t135 -68z" />
<glyph unicode="p" horiz-adv-x="1134" d="M726 941q141 0 224.5 -98.5t83.5 -258.5q0 -110 -36 -217t-97 -190t-150.5 -134.5t-189.5 -51.5q-110 0 -175 70t-81 190l-128 -724q-4 -20 8 -35t34 -15h53q16 0 16 -16t-16 -16h-268l245 1397q4 20 -8 35t-34 15h-51q-17 0 -17 16t17 16h268l-41 -236q57 115 146 184 t197 69zM829 379q36 141 36 272q0 245 -176 245q-79 0 -147.5 -51.5t-113 -133t-70 -181t-25.5 -198.5q0 -134 51.5 -214t154.5 -80q201 0 290 341z" />
<glyph unicode="q" horiz-adv-x="1112" d="M788 -474q-4 -20 7.5 -34.5t33.5 -14.5h54q16 0 16 -16t-16 -16h-269l139 797q-57 -115 -147 -184.5t-197 -69.5q-141 0 -224.5 98.5t-83.5 259.5q0 110 36 217t97 190t150.5 134.5t189.5 51.5q110 0 175 -70.5t81 -190.5l43 246h160zM446 34q79 0 147.5 51.5t113 133 t70 181t25.5 198.5q0 134 -51.5 214t-154.5 80q-106 0 -177.5 -91.5t-111.5 -250.5q-37 -133 -37 -271q0 -245 176 -245z" />
<glyph unicode="r" horiz-adv-x="780" d="M656 936q72 0 117.5 -44t45.5 -113q0 -70 -35 -115.5t-85 -45.5q-32 0 -54.5 19.5t-22.5 54.5q0 27 14 47.5t30.5 31t30.5 27.5t14 36q0 27 -21 42.5t-54 15.5q-105 0 -184 -139.5t-129 -406.5l-61 -346h-159l148 842q4 20 -8 35t-34 15h-53q-16 0 -16 16t16 16h268 l-46 -259q52 141 124 206t154 65z" />
<glyph unicode="s" horiz-adv-x="868" d="M541 840q0 -52 26 -103.5t63.5 -95.5t74.5 -89.5t63 -101.5t26 -114q0 -163 -125 -256t-320 -93q-142 0 -223.5 60.5t-81.5 167.5q0 69 28.5 111t67.5 52l312 459q32 84 94 156q16 21 34 36t27 15q8 0 11 -5.5t-1 -11.5q-76 -113 -76 -187zM337 21q144 0 221.5 69 t77.5 189q0 42 -23.5 88.5t-55.5 90t-63 89.5t-48.5 102t-10.5 113l-260 -385q20 -2 33.5 -17t13.5 -39q0 -28 -16 -49.5t-34.5 -33.5t-34.5 -32.5t-16 -47.5q0 -58 58.5 -97.5t157.5 -39.5z" />
<glyph unicode="t" horiz-adv-x="673" d="M401 892l-116 -653q-7 -46 -7 -69q0 -133 117 -133q67 0 112.5 33t87.5 103q3 4 6.5 10.5t5.5 9t5 5t7 2.5q13 0 13 -14q0 -7 -21 -40q-98 -159 -262 -159q-115 0 -171.5 53t-56.5 144q0 36 6 62l115 646h-103q-16 0 -16 16t16 16h25q91 0 161.5 64t94.5 196q5 17 19 17 q16 0 13 -15l-46 -262h293q16 0 16 -16t-18 -16h-296z" />
<glyph unicode="u" horiz-adv-x="1107" d="M1061 265q14 0 14 -16q0 -19 -9 -50t-28.5 -68t-46 -69t-66.5 -53.5t-85 -21.5q-77 0 -110 46.5t-18 132.5l18 101q-61 -127 -159 -203t-221 -76q-251 0 -202 281l101 573q4 20 -8 35t-34 15h-52q-16 0 -16 16t16 16h269l-109 -618q-25 -144 3.5 -203t98.5 -59 q78 0 152 59.5t125.5 158.5t72.5 217l64 363q4 20 -7.5 35t-33.5 15h-52q-16 0 -16 16t16 16h268l-145 -814q-1 -6 -1 -28q0 -38 34 -38q41 0 85.5 56t62.5 148q3 17 19 17z" />
<glyph unicode="v" horiz-adv-x="944" d="M779 1013q50 0 82.5 -64.5t32.5 -205.5q0 -93 -24.5 -196.5t-73 -202.5t-113 -178.5t-151.5 -128.5t-182 -49q-252 0 -202 281l101 573q4 20 -8 35t-34 15h-51q-17 0 -17 16t17 16h268l-109 -618q-13 -79 -11.5 -137t30 -91t83.5 -33q109 0 212 106t163 257.5t60 288.5 q0 38 -15.5 66t-37 45.5t-43.5 34t-37.5 40t-15.5 54.5q0 32 22.5 54t53.5 22z" />
<glyph unicode="w" horiz-adv-x="1466" d="M1298 1013q50 0 83.5 -65t33.5 -205q0 -119 -34.5 -248.5t-96 -244t-161.5 -189t-217 -74.5q-129 0 -169 73t-15 212l2 8q-63 -133 -163 -213t-227 -80q-128 0 -169 72.5t-17 209.5l101 573q4 20 -7.5 35t-33.5 15h-52q-16 0 -16 16t16 16h268l-109 -618 q-13 -79 -15 -137t22.5 -91t79.5 -33q83 0 159 65t127 165t72 215l77 434h159l-109 -618q-13 -79 -15 -137t22.5 -91t78.5 -33q82 0 159 64.5t129 163t83 213.5t31 216q0 38 -15.5 65.5t-38 44t-45 32.5t-38 39t-15.5 54q0 32 22.5 54t52.5 22z" />
<glyph unicode="x" horiz-adv-x="1071" d="M973 939q48 0 76 -24t28 -58q0 -35 -23 -58.5t-56 -23.5q-21 0 -36 12t-22 27t-22.5 27t-37.5 12q-68 0 -132 -74.5t-136 -244.5l93 -392q7 -37 28.5 -60.5t54.5 -23.5q45 0 87.5 49.5t59.5 140.5q5 17 18 17q8 0 12 -5.5t2 -14.5q-22 -127 -91 -192.5t-158 -65.5 q-67 0 -117 32.5t-66 98.5l-56 219q-88 -188 -177.5 -269t-189.5 -81q-48 0 -76 24t-28 58q0 35 23.5 58.5t56.5 23.5q21 0 36 -11.5t22 -26t22 -26t37 -11.5q68 0 131.5 73.5t132.5 238.5l-97 397q-7 37 -29 60.5t-56 23.5q-43 0 -86 -50t-59 -140q-5 -17 -18 -17 q-7 0 -11 5t-3 12q17 117 84.5 188.5t160.5 71.5q69 0 120.5 -32t66.5 -100l57 -225q92 193 183 275t191 82z" />
<glyph unicode="y" horiz-adv-x="1064" d="M350 -12q-251 0 -202 281l101 573q4 20 -7.5 35t-33.5 15h-52q-16 0 -16 16t16 16h268l-109 -618q-11 -72 -11 -130t28.5 -95t85.5 -37q118 0 217 125t131 304l65 369q4 20 -7.5 35t-33.5 15h-52q-16 0 -16 16t16 16h268l-185 -1046q-39 -220 -165.5 -335t-323.5 -115 q-140 0 -215.5 71t-75.5 173q0 82 37.5 127.5t86.5 45.5q28 0 46.5 -17t18.5 -47q0 -22 -10.5 -40.5t-26 -31.5l-31 -26t-26 -31.5t-10.5 -40.5q0 -25 10 -49.5t31.5 -48t62 -38t94.5 -14.5q263 0 326 355l80 455q-60 -129 -158 -206t-222 -77z" />
<glyph unicode="z" horiz-adv-x="892" d="M899 939q5 0 9.5 -4.5t4.5 -9.5q0 -8 -7 -13l-711 -719q28 7 51 7q57 0 116.5 -22.5t101 -49t92 -49t92.5 -22.5q61 0 61 60q0 20 -12 37t-26 27.5t-26 30t-12 43.5q0 42 22.5 66t52.5 24q35 0 60.5 -30t25.5 -85q0 -90 -68 -175t-175 -85q-89 0 -226.5 43.5t-192.5 43.5 q-71 0 -117 -44l-17 -18q-8 -8 -15 -8q-16 0 -16 15q0 8 7 14l719 723q-28 -7 -54 -7q-59 0 -130 32.5t-131 65t-92 32.5q-31 0 -47.5 -16t-16.5 -44q0 -20 12.5 -36.5t28 -26.5t28 -29t12.5 -42q0 -41 -21.5 -65t-51.5 -24q-35 0 -61.5 30.5t-26.5 85.5q0 32 10 67.5 t31 69.5t49 61t68.5 43.5t85.5 16.5q68 0 187.5 -39.5t176.5 -39.5q75 0 134 58q7 7 15 7z" />
<glyph unicode="{" horiz-adv-x="686" d="M756 1493q19 0 19 -16t-19 -16q-60 0 -105.5 -22.5t-74.5 -64.5t-46 -89t-28 -108l-55 -313q-31 -172 -95 -258t-192 -103q122 -17 155.5 -104.5t2.5 -259.5l-66 -380q-12 -55 -9 -106t18 -90t52.5 -62.5t94.5 -23.5q18 0 18 -16t-18 -16h-46q-183 0 -241.5 70.5 t-27.5 243.5l90 520q15 87 -19 147t-107 60h-21q-17 0 -17 16t17 16h25q72 0 128.5 56t69.5 131l83 472q30 172 114 244t266 72h34z" />
<glyph unicode="|" horiz-adv-x="299" d="M-13 -555h-32l360 2048h33z" />
<glyph unicode="}" horiz-adv-x="686" d="M-68 -555q-18 0 -18 16t18 16q60 0 105.5 22.5t74.5 64.5t46 89t28 108l56 313q31 172 95 258t192 103q-122 17 -156 104.5t-3 259.5l66 380q12 55 9 106t-17.5 90t-52 62.5t-94.5 23.5q-19 0 -19 16t19 16h45q183 0 241.5 -70.5t27.5 -243.5l-90 -520q-15 -87 19.5 -147 t107.5 -60h21q16 0 16 -16t-16 -16h-26q-72 0 -128 -56t-69 -131l-84 -472q-30 -172 -114 -244t-266 -72h-34z" />
<glyph unicode="~" horiz-adv-x="1130" d="M778 273q-65 0 -123 24.5t-101 59t-83.5 69t-88.5 59t-98 24.5q-58 0 -102.5 -36.5t-47.5 -99.5q-2 -18 -18 -18q-15 0 -14 18q5 98 69.5 158.5t163.5 60.5q62 0 117.5 -24.5t97.5 -59t82.5 -69.5t91.5 -59.5t106 -24.5q61 0 111.5 41t52.5 108q1 20 17 20q17 0 16 -21 q-5 -100 -75.5 -165t-173.5 -65z" />
<glyph unicode="&#xa1;" horiz-adv-x="456" d="M388 870q0 -39 -31 -69.5t-70 -30.5q-31 0 -51.5 20t-20.5 50q0 40 31.5 70.5t71.5 30.5q30 0 50 -20.5t20 -50.5zM41 -608q-33 0 -52.5 25t-12.5 67q11 61 51.5 199.5t91 332.5t84.5 391q5 24 26 24q8 0 13 -7t3 -17q-34 -196 -54 -390.5t-30 -332t-21 -200.5 q-6 -42 -35 -67t-64 -25z" />
<glyph unicode="&#xa2;" horiz-adv-x="1114" d="M735 605q0 30 16.5 52.5t36.5 34.5t36.5 32.5t16.5 46.5q0 57 -59.5 96.5t-152.5 39.5q-57 0 -107.5 -22.5t-97 -71.5t-83 -137.5t-57.5 -210.5q-15 -92 -15 -150q0 -138 57 -210.5t162 -72.5q207 0 332 232q8 12 19 12q12 0 12 -12q0 -6 -1 -9q-14 -32 -34 -64.5 t-55 -70.5t-76.5 -66.5t-101 -47.5t-125.5 -19q-48 0 -78 5l-125 -310q-5 -15 -17 -11q-8 0 -12 6.5t0 15.5l123 305q-123 28 -185.5 118.5t-62.5 227.5q0 119 37 227t102.5 189.5t163 130t211.5 48.5q57 0 107 -11l114 288q5 15 18 11q8 0 11.5 -6.5t-0.5 -15.5l-114 -284 q85 -26 131 -82.5t46 -132.5q0 -80 -37 -124.5t-86 -44.5q-30 0 -50 19t-20 49z" />
<glyph unicode="&#xa3;" horiz-adv-x="1333" d="M1089 1008q0 26 11.5 46t28 33.5t33 26.5t28 32.5t11.5 45.5q0 61 -58.5 98t-162.5 37q-135 0 -215 -83t-105 -228q-16 -93 -22 -319h243q16 0 16 -16t-16 -16h-244q-6 -187 -28 -316q-13 -79 -44 -142q57 -27 91.5 -41.5t93 -28.5t116.5 -14q51 0 94 10t72.5 24 t53.5 36.5t38 41.5t26 45t16.5 40.5t9.5 33.5q2 8 3 11q8 15 19 15q17 0 13 -16q-33 -181 -140.5 -280t-236.5 -99q-40 0 -79 10.5t-63 20.5t-63 38.5t-51 38.5t-54 46q-56 -76 -137 -114.5t-170 -38.5q-85 0 -130 37t-45 96q0 71 58.5 125t163.5 54q73 0 153 -26 q7 32 11 53q18 105 26 340h-165q-16 0 -16 16t16 16h166q8 205 26 311q32 175 164.5 264.5t321.5 89.5q143 0 235.5 -66.5t92.5 -178.5q0 -85 -39 -133.5t-90 -48.5q-33 0 -55 20t-22 53zM216 20q75 0 119 53t71 153q-72 40 -147 40q-87 0 -134.5 -42.5t-47.5 -98.5 q0 -45 35.5 -75t103.5 -30z" />
<glyph unicode="&#xa4;" horiz-adv-x="1384" d="M699 13q-179 0 -308 124l-159 -159l-24 26l159 157q-117 127 -117 301q0 175 117 303l-159 159l24 25l159 -161q128 122 308 122q173 0 301 -117l155 156l24 -25l-155 -154q124 -126 124 -308q0 -178 -122 -306l153 -154l-24 -24l-153 154q-127 -119 -303 -119zM699 46 q172 0 293 121.5t121 294.5q0 172 -121 293.5t-293 121.5t-293.5 -121.5t-121.5 -293.5q0 -173 121.5 -294.5t293.5 -121.5z" />
<glyph unicode="&#xa5;" horiz-adv-x="1120" d="M1236 1350q16 0 16 -16t-16 -16h-40q-44 0 -77 -48l-424 -643h281q16 0 16 -16t-16 -16h-302l-4 -6l-24 -140h299q16 0 16 -16t-16 -16h-305l-59 -336q-4 -20 7 -34.5t33 -14.5h53q17 0 17 -16t-17 -16h-379q-16 0 -16 16t16 16h53q22 0 38 14.5t20 34.5l59 336h-284 q-16 0 -16 16t16 16h290l24 135l-4 11h-278q-16 0 -16 16t16 16h268l-204 643q-13 48 -67 48h-29q-16 0 -16 16t16 16h374q15 0 15 -16t-15 -16h-57q-26 0 -35 -14t-3 -34l200 -636l419 636q14 16 7.5 32t-33.5 16h-45q-16 0 -16 16t16 16h228z" />
<glyph unicode="&#xa6;" horiz-adv-x="280" d="M180 779l124 703l32 -2l-125 -705zM108 192l-129 -736l-33 2l131 737z" />
<glyph unicode="&#xa7;" horiz-adv-x="884" d="M649 1411q112 0 190 -60t78 -164q0 -74 -35 -120t-80 -46q-25 0 -41 16t-16 43t15.5 47.5t34 32t34 31.5t15.5 46q0 61 -58.5 100.5t-138.5 39.5q-124 0 -207 -92t-83 -213q0 -49 22.5 -95t58 -83.5t78.5 -75t86 -77t78.5 -81t58 -95t22.5 -112.5q0 -64 -23 -123t-49 -94 t-68 -81q75 -97 75 -207q0 -174 -121 -294.5t-295 -120.5q-115 0 -193.5 59t-78.5 164q0 74 35 120.5t80 46.5q25 0 40.5 -15.5t15.5 -42.5t-15 -47.5t-33 -31.5t-33 -31.5t-15 -47.5q0 -62 57 -101t138 -39q126 0 211 91.5t85 214.5q0 49 -22.5 95t-58.5 84t-79.5 75 t-87 76.5t-79.5 81t-58.5 95t-22.5 112.5q0 64 23.5 123.5t49.5 94t69 81.5q-73 97 -73 205q0 173 120.5 294t293.5 121zM653 359q0 61 -34 118t-76.5 94.5t-107 92.5t-100.5 94q-61 -92 -61 -173q0 -50 20.5 -94.5t57 -83t75 -71t87.5 -74t80 -75.5q59 90 59 172z" />
<glyph unicode="&#xa8;" horiz-adv-x="972" d="M284 1329q5 32 31.5 54.5t58.5 22.5q31 0 49 -22.5t13 -54.5t-31 -54t-57 -22q-32 0 -50.5 22t-13.5 54zM608 1329q5 32 31.5 54.5t58.5 22.5q31 0 49 -22.5t13 -54.5t-31 -54t-57 -22q-32 0 -50.5 22t-13.5 54z" />
<glyph unicode="&#xa9;" horiz-adv-x="1093" d="M562 580q-168 0 -277.5 108t-109.5 272q0 138 76.5 262.5t203 199.5t265.5 75q168 0 277.5 -108t109.5 -272q0 -138 -76.5 -262.5t-203 -199.5t-265.5 -75zM565 612q129 0 247 71t189 188t71 245q0 151 -99.5 250t-254.5 99q-130 0 -247.5 -70t-189 -187t-71.5 -246 q0 -151 100 -250.5t255 -99.5zM609 752q-118 0 -180 61t-62 166q0 151 97.5 252t240.5 101q86 0 144 -40.5t58 -104.5q0 -45 -25 -78.5t-61 -33.5q-24 0 -39 15t-15 38q0 30 31 59t31 54q0 28 -31 46.5t-75 18.5q-76 0 -132.5 -52.5t-82.5 -126.5t-26 -154q0 -89 44 -137 t116 -48q56 0 106.5 32.5t85.5 85.5q9 13 18 13q18 0 8 -20q-7 -12 -17 -26t-33 -37t-49.5 -40.5t-67 -30.5t-84.5 -13z" />
<glyph unicode="&#xaa;" horiz-adv-x="854" d="M404 796q-93 0 -143.5 61.5t-50.5 157.5q0 86 35.5 167.5t105 136.5t155.5 55q75 0 115 -39.5t59 -111.5l25 141h134l-86 -483q-2 -16 7 -27.5t25 -11.5h23q17 0 17 -16q0 -17 -17 -17h-201l25 139q-93 -152 -228 -152zM539 1330q-47 0 -83.5 -35.5t-56 -92.5t-29.5 -118 t-10 -121q0 -65 22.5 -93.5t68.5 -28.5q56 0 106 48.5t78 118.5t28 138q0 79 -34.5 131.5t-89.5 52.5zM819 695q16 0 16 -16q0 -15 -16 -15h-688q-16 0 -16 16q0 15 16 15h688z" />
<glyph unicode="&#xab;" horiz-adv-x="946" d="M41 455q0 -17 23 -34q69 -56 154.5 -153.5t148.5 -201.5q1 -7 11 -7q7 0 12 4.5t5 12.5v6q-37 85 -100 185.5t-140 189.5q214 160 372 373q4 5 4 11q0 14 -13 14q-8 0 -13 -7q-92 -99 -210 -192.5t-218 -156.5q-36 -22 -36 -44zM419 455q0 -16 24 -34 q69 -56 154.5 -153.5t148.5 -201.5q1 -7 11 -7q7 0 12 4.5t5 12.5v6q-37 85 -100 185.5t-140 189.5q214 160 372 373q4 5 4 11q0 14 -13 14q-8 0 -13 -7q-92 -99 -210 -192.5t-219 -156.5q-36 -22 -36 -44z" />
<glyph unicode="&#xad;" horiz-adv-x="610" d="M543 499q16 0 16 -16t-16 -16h-472q-16 0 -16 16t16 16h472z" />
<glyph unicode="&#xae;" horiz-adv-x="1095" d="M704 1497q172 0 287.5 -113.5t115.5 -283.5q0 -135 -73.5 -255.5t-195.5 -192.5t-257 -72q-174 0 -289.5 113.5t-115.5 283.5q0 101 44 197t116 166.5t169 113.5t199 43zM581 612q126 0 240 68t182.5 181t68.5 239q0 156 -104.5 260.5t-263.5 104.5q-127 0 -241.5 -67.5 t-183.5 -181t-69 -239.5q0 -156 106 -260.5t265 -104.5zM860 1206q0 -57 -49 -100.5t-124 -59.5q25 -5 44 -15t31.5 -20t20.5 -27t12 -28.5t5 -32.5t1 -30t-1.5 -29.5t-1.5 -24.5q-2 -32 18 -32q8 0 15.5 4t10.5 4q10 0 10 -10q-1 -12 -23.5 -21.5t-44.5 -9.5 q-42 0 -65.5 14t-29.5 37t-6 50.5t0.5 55t-5 50.5t-27 37t-61.5 14h-16l-35 -201q-3 -13 4 -19t24 -6q13 0 13 -13t-13 -13h-173q-13 0 -13 13t13 13q33 0 37 25l76 433q3 25 -25 25q-13 0 -13 13t13 13h199q85 0 132 -27.5t47 -81.5zM610 1057q67 0 103 45t36 110 q0 43 -26 60t-78 17q-26 0 -30 -25l-36 -207h31z" />
<glyph unicode="&#xaf;" horiz-adv-x="735" d="M125 1285q-9 0 -15 5.5t-6 13.5t6 13.5t15 5.5h573q19 0 19 -19t-19 -19h-573z" />
<glyph unicode="&#xb0;" horiz-adv-x="616" d="M383 916q-77 0 -128 50.5t-51 125.5q0 96 77.5 171t174.5 75q77 0 128 -50.5t51 -124.5q0 -97 -78.5 -172t-173.5 -75zM391 958q75 0 136 60t61 140q0 59 -38.5 98.5t-99.5 39.5q-79 0 -140 -60t-61 -138q0 -60 39.5 -100t102.5 -40z" />
<glyph unicode="&#xb1;" horiz-adv-x="757" d="M718 857q16 0 16 -16t-16 -16h-271l-47 -266q-2 -16 -17 -13q-16 2 -13 18l45 261h-265q-17 0 -17 17q0 15 17 15h271l46 266q3 16 19 13q7 0 11 -5.5t2 -13.5l-46 -260h265zM656 370q16 0 16 -16t-16 -16h-568q-17 0 -17 16t17 16h568z" />
<glyph unicode="&#xb4;" horiz-adv-x="581" d="M158 1157q-16 -11 -25.5 -0.5t3.5 24.5l248 286q34 38 73 20q31 -15 32 -46q1 -26 -24 -45z" />
<glyph unicode="&#xb6;" horiz-adv-x="800" d="M563 706h-88q-165 0 -250.5 87.5t-58.5 242.5q27 148 143 231t287 83h342q13 0 17.5 -8t-1 -16t-16.5 -8h-30q-35 0 -43 -37l-226 -1281h-33l231 1317h-134l-232 -1317h-32z" />
<glyph unicode="&#xb7;" horiz-adv-x="512" d="M159 502q0 43 35 76.5t79 33.5q33 0 55.5 -22.5t22.5 -55.5q0 -42 -34.5 -75.5t-76.5 -33.5q-36 0 -58.5 22t-22.5 55z" />
<glyph unicode="&#xb8;" horiz-adv-x="1081" d="M69 -161l67 175h35l-55 -147q96 -4 144 -42.5t48 -94.5q0 -79 -76 -144t-192 -65q-83 0 -131 38q-26 19 -26 38q0 8 6 14t15 6q6 0 20.5 -12.5t41 -25.5t64.5 -13q71 0 116 48.5t45 108.5q0 47 -31 79.5t-91 36.5z" />
<glyph unicode="&#xba;" horiz-adv-x="739" d="M428 797q-111 0 -170 57t-59 159q0 153 91.5 257t239.5 104q110 0 170 -54t60 -157q0 -159 -89.5 -262.5t-242.5 -103.5zM525 1340q-49 0 -88 -39t-59.5 -98.5t-31 -120t-10.5 -113.5q0 -139 96 -139q49 1 88 40t60 98.5t32 120.5t11 116q0 135 -98 135zM703 695 q16 0 16 -16q0 -15 -16 -15h-582q-16 0 -16 16q0 15 16 15h582z" />
<glyph unicode="&#xbb;" horiz-adv-x="946" d="M525 458q0 17 -23 34q-69 56 -154.5 153.5t-148.5 201.5q-1 7 -11 7q-17 0 -17 -16v-6q37 -85 100 -185.5t140 -189.5q-108 -80 -205 -180t-167 -194q-4 -5 -4 -11q0 -13 13 -13q8 0 13 7q92 99 209.5 192t218.5 156q36 22 36 44zM904 458q0 17 -23 34 q-69 56 -154.5 153.5t-148.5 201.5q-1 7 -11 7q-17 0 -17 -16v-6q37 -85 100 -185.5t140 -189.5q-108 -80 -205 -180t-167 -194q-4 -5 -4 -11q0 -13 12 -13q9 0 14 7q92 99 209.5 192t218.5 156q36 22 36 44z" />
<glyph unicode="&#xbc;" horiz-adv-x="1349" d="M335 -165h-39l828 1658h39zM518 635q6 0 10.5 -4.5t4.5 -10.5t-4.5 -11t-10.5 -5h-308q-15 0 -15 16q0 15 15 15h50q16 0 27.5 10t13.5 24l107 603h-83q-15 0 -15 16q0 15 15 15h14q109 0 194 44q7 4 15 8.5t12 6.5t9 2q16 0 13 -16l-121 -679q-2 -14 5.5 -24t24.5 -10 h27zM1259 174q15 0 15 -16q0 -15 -15 -15h-87l-14 -79q-2 -14 5.5 -24t23.5 -10h28q15 0 15 -14q0 -16 -15 -16h-286q-15 0 -15 16q0 14 15 14h25q16 0 28 10t14 24l13 79h-362l5 29q98 59 172.5 129.5t117.5 138t66.5 125t33.5 112.5q7 39 34 61t58 22q30 0 48.5 -20.5 t14.5 -56.5q-8 -55 -43 -119.5t-94.5 -132.5t-150.5 -136t-200 -121h306l34 191q97 58 161 166q7 13 20 13t10 -14l-63 -356h82z" />
<glyph unicode="&#xbd;" horiz-adv-x="1486" d="M335 -165h-39l828 1658h39zM518 635q6 0 10.5 -4.5t4.5 -10.5t-4.5 -11t-10.5 -5h-308q-16 0 -16 16q0 15 16 15h50q16 0 27.5 10t13.5 24l107 603h-83q-15 0 -15 16q0 15 15 15h14q109 0 194 44q7 4 15 8.5t12 6.5t9 2q16 0 13 -16l-121 -679q-2 -14 5.5 -24t24.5 -10 h27zM1339 211l-8 -47q-30 -173 -197 -173q-55 0 -149.5 24.5t-133.5 24.5q-21 0 -36.5 -7.5t-22 -17t-14.5 -17t-17 -7.5q-7 0 -10.5 4.5t-1.5 10.5l9 42q13 74 46.5 132.5t76.5 95.5t92 67.5t96 56.5t85 54t61 67.5t23 90.5q0 53 -35 83.5t-97 30.5q-69 0 -113.5 -27.5 t-44.5 -61.5q0 -15 18.5 -37.5t18.5 -41.5q0 -33 -25 -53.5t-57 -20.5q-28 0 -47 17.5t-19 50.5q0 80 83.5 143.5t217.5 63.5q118 0 187 -44.5t69 -124.5q0 -65 -29.5 -113t-78.5 -77t-108 -52t-121 -45.5t-115.5 -49t-93 -70.5t-51.5 -103q45 73 144 73q35 0 119.5 -15.5 t125.5 -15.5q109 0 124 88q4 14 18 14t11 -13z" />
<glyph unicode="&#xbe;" horiz-adv-x="1513" d="M1288 1493h39l-828 -1658h-39zM800 862q0 -112 -93 -187t-244 -75q-116 0 -180 43.5t-64 116.5q0 54 27.5 84.5t66.5 30.5q26 0 44 -15.5t18 -40.5t-16.5 -42.5t-32.5 -32.5t-16 -34q0 -31 34.5 -54t95.5 -23q97 0 152 69t55 165q0 63 -39 96.5t-88 33.5h-4q-18 0 -18 15 q0 13 26 28q82 45 170 103q64 43 103 96q-39 -29 -107 -29q-41 0 -120 16.5t-122 16.5q-103 0 -121 -87q0 -7 -5.5 -11.5t-11.5 -4.5q-14 0 -12 16l7 42q30 172 198 172q55 0 147 -23.5t131 -23.5q27 0 44 13t27 26t20 13q12 0 12 -16l-3 -17q-7 -49 -36.5 -95t-78 -86 t-99 -71.5t-117.5 -65.5q250 -10 250 -162zM1423 173q15 0 15 -15t-15 -15h-87l-14 -79q-2 -14 6 -24t24 -10h27q15 0 15 -15t-15 -15h-285q-16 0 -16 15q0 6 4.5 10.5t11.5 4.5h25q16 0 27.5 10t13.5 24l14 79h-362l5 29q79 48 143 104t105.5 108t72 107t45.5 99t23 87 q7 39 33.5 60.5t58.5 21.5q30 0 48.5 -20t14.5 -56q-8 -55 -43 -120t-94 -133t-150 -136t-200 -121h305l34 192q98 59 161 165q8 14 20 14q14 0 11 -14l-63 -357h81z" />
<glyph unicode="&#xbf;" horiz-adv-x="1048" d="M796 1199q0 -43 -35 -76t-79 -33q-33 0 -55.5 22.5t-22.5 55.5q0 42 34.5 75.5t76.5 33.5q35 0 58 -22.5t23 -55.5zM361 -543q93 0 172 57t79 130q0 31 -33.5 68t-33.5 63q0 46 33.5 76t76.5 30q38 0 60.5 -26t22.5 -74q0 -151 -123.5 -256.5t-287.5 -105.5 q-143 0 -243.5 61t-100.5 173q0 71 27.5 133.5t73.5 113t102 100.5t116 107.5t113.5 121.5t96 154.5t61.5 195.5l18 105q5 18 21 18q8 0 12 -5.5t2 -12.5l-22 -125q-24 -137 -80.5 -255.5t-118.5 -198.5t-120.5 -152.5t-97 -152t-38.5 -163.5q0 -91 59 -135.5t153 -44.5z " />
<glyph unicode="&#xc0;" horiz-adv-x="1290" d="M574 1691q-37 28 -19 65q15 31 49 31q27 1 50 -25l249 -286q13 -14 3 -24.5t-26 0.5zM1186 32q16 0 16 -16t-16 -16h-438q-16 0 -16 16t16 16h72q31 0 49.5 21t11.5 51l-62 332h-502l-183 -332q-15 -28 -4 -50t41 -22h76q16 0 16 -16t-16 -16h-300q-7 0 -12 4.5t-5 11.5 q0 16 17 16h42q38 0 62.5 18t44.5 54l688 1253h36l239 -1255q13 -70 88 -70h39zM334 468h479l-122 650z" />
<glyph unicode="&#xc1;" horiz-adv-x="1290" d="M751 1420q-17 -8 -25.5 3.5t7.5 23.5l294 239q40 32 75 7q29 -20 24 -52q-5 -25 -32 -39zM1186 32q16 0 16 -16t-16 -16h-438q-16 0 -16 16t16 16h72q31 0 49.5 21t11.5 51l-62 332h-502l-183 -332q-15 -28 -4 -50t41 -22h76q16 0 16 -16t-16 -16h-300q-7 0 -12 4.5 t-5 11.5q0 16 17 16h42q38 0 62.5 18t44.5 54l688 1253h36l239 -1255q13 -70 89 -70h38zM334 468h479l-122 650z" />
<glyph unicode="&#xc2;" horiz-adv-x="1290" d="M623 1439q-20 -19 -34 -7q-11 10 2 26l215 283q30 38 69.5 38t54.5 -38l117 -283q7 -19 -9.5 -27.5t-26.5 8.5l-154 225zM1186 32q16 0 16 -16t-16 -16h-438q-16 0 -16 16t16 16h72q31 0 49.5 21t11.5 51l-62 332h-502l-183 -332q-15 -28 -4 -50t41 -22h76q16 0 16 -16 t-16 -16h-300q-7 0 -12 4.5t-5 11.5q0 16 17 16h42q38 0 62.5 18t44.5 54l688 1253h36l239 -1255q13 -70 89 -70h38zM334 468h479l-122 650z" />
<glyph unicode="&#xc3;" horiz-adv-x="1290" d="M1249 1666q15 0 13 -19q-13 -95 -79 -157.5t-168 -62.5q-51 0 -96 16t-77 39.5t-62 46.5t-65.5 39t-72.5 16q-67 0 -110 -36.5t-54 -100.5q-4 -18 -19 -18q-7 0 -11 5t-3 11q13 96 78.5 158t182.5 62q45 0 86 -16t72.5 -39.5t62 -46.5t66.5 -39t74 -16q64 0 107 33.5 t54 103.5q3 21 21 21zM1186 32q16 0 16 -16t-16 -16h-438q-16 0 -16 16t16 16h72q31 0 49.5 21t11.5 51l-62 332h-502l-183 -332q-15 -28 -4 -50t41 -22h76q16 0 16 -16t-16 -16h-300q-7 0 -12 4.5t-5 11.5q0 16 17 16h42q38 0 62.5 18t44.5 54l688 1253h36l239 -1255 q13 -70 88 -70h39zM334 468h479l-122 650z" />
<glyph unicode="&#xc4;" horiz-adv-x="1290" d="M657 1443q-32 0 -50.5 22t-13.5 54t31.5 54.5t58.5 22.5t50 -22.5t13 -54.5q-5 -31 -31 -53.5t-58 -22.5zM981 1443q-32 0 -50 22t-13 54t31 54.5t58 22.5t50 -22.5t13 -54.5q-5 -31 -31 -53.5t-58 -22.5zM1186 32q16 0 16 -16t-16 -16h-438q-16 0 -16 16t16 16h72 q31 0 49.5 21t11.5 51l-62 332h-502l-183 -332q-15 -28 -4 -50t41 -22h76q16 0 16 -16t-16 -16h-300q-7 0 -12 4.5t-5 11.5q0 16 17 16h42q38 0 62.5 18t44.5 54l688 1253h36l239 -1255q13 -70 89 -70h38zM334 468h479l-122 650z" />
<glyph unicode="&#xc5;" horiz-adv-x="1290" d="M815 1443q-78 0 -127.5 51t-45.5 127q4 96 78 164t167 68q78 0 127.5 -51.5t45.5 -126.5q-4 -95 -78.5 -163.5t-166.5 -68.5zM683 1625q-2 -60 37 -101.5t101 -41.5q75 0 134.5 55.5t61.5 134.5q2 61 -36 101.5t-100 40.5q-77 0 -136.5 -55.5t-61.5 -133.5zM1186 32 q16 0 16 -16t-16 -16h-438q-16 0 -16 16t16 16h72q31 0 49.5 21t11.5 51l-62 332h-502l-183 -332q-15 -28 -4 -50t41 -22h76q16 0 16 -16t-16 -16h-301q-16 0 -16 16t16 16h43q38 0 62.5 18t44.5 54l688 1253h36l239 -1255q13 -70 88 -70h39zM334 468h479l-122 650z" />
<glyph unicode="&#xc6;" horiz-adv-x="1855" d="M1868 1350l-62 -352q-3 -13 -17 -13q-18 0 -15 17l13 78q5 22 5 52q0 87 -54 136.5t-160 49.5h-251q-22 0 -38 -14.5t-20 -34.5l-96 -545h124q105 0 147.5 29.5t54.5 94.5l7 47q4 13 16 13q8 0 13 -5t3 -14l-66 -376q-3 -15 -16 -15q-8 0 -12.5 6t-3.5 13l7 43q5 35 5 38 q0 47 -35.5 70.5t-125.5 23.5h-124l-107 -611q-4 -20 7 -34.5t33 -14.5h261q122 0 196.5 65t95.5 174l16 85q1 13 15 13q7 0 12 -5t4 -14l-62 -350h-864q-16 0 -16 16t16 16h53q22 0 38.5 14.5t20.5 34.5l62 355h-513l-288 -332q-21 -26 -8 -49t45 -23h71q16 0 16 -16 t-16 -16h-308q-7 0 -12 4.5t-5 11.5q0 16 17 16h31q65 0 127 72l1078 1246h685zM463 468h489l127 713z" />
<glyph unicode="&#xc7;" horiz-adv-x="1290" d="M871 1363q198 0 305.5 -83t107.5 -202q0 -86 -40 -135t-91 -49q-33 0 -55.5 20t-22.5 54q0 32 18.5 57t40 38.5t40 36t18.5 51.5q0 68 -77.5 121.5t-222.5 53.5q-115 0 -212 -51t-163.5 -136.5t-113.5 -198.5t-69 -236.5t-22 -251.5q0 -201 87.5 -309.5t267.5 -108.5 q79 0 153.5 24t129 62t94.5 78.5t63 81.5q12 17 23 17q8 0 12 -5.5t2 -12.5q-35 -75 -133 -151q-78 -62 -173 -100.5t-193 -40.5l-45 -120q96 -4 144 -42.5t48 -94.5q0 -79 -76 -144t-192 -65q-83 0 -131 38q-26 19 -26 38q0 8 6 14t15 6q6 0 20.5 -12.5t41 -25.5t64.5 -13 q71 0 116 48.5t45 108.5q0 47 -31 79.5t-91 36.5l56 148q-235 7 -355.5 144.5t-120.5 367.5q0 173 52.5 329.5t146.5 275.5t234 189t305 70z" />
<glyph unicode="&#xc8;" horiz-adv-x="1083" d="M784 1452l-307 239q-37 28 -19 64q14 31 48 32q29 1 52 -25l248 -286q13 -14 3.5 -24.5t-25.5 0.5zM1095 1350l-62 -352q-1 -13 -16 -13q-16 0 -15 17l13 78q6 27 6 52q0 87 -54.5 136.5t-160.5 49.5h-251q-22 0 -37.5 -13.5t-19.5 -33.5l-97 -547h127q106 0 148 29.5 t54 94.5l8 47q4 13 16 13q19 0 16 -19l-66 -376q-2 -15 -17 -15q-7 0 -11.5 5.5t-3.5 13.5l7 43q4 28 4 38q0 47 -35.5 70.5t-125.5 23.5h-127l-107 -611q-4 -20 6.5 -34.5t32.5 -14.5h261q123 0 198 65t95 174l15 85q3 13 16 13q7 0 12 -5.5t4 -13.5l-62 -350h-864 q-16 0 -16 16t16 16h52q22 0 38 13.5t21 33.5l209 1190q4 20 -7 34.5t-33 14.5h-57q-16 0 -16 15q0 17 16 17h870z" />
<glyph unicode="&#xc9;" horiz-adv-x="1083" d="M654 1420q-17 -8 -25.5 3.5t7.5 23.5l294 239q40 32 75 7q29 -20 24 -52q-5 -25 -32 -39zM1095 1350l-62 -352q-1 -13 -16 -13q-16 0 -15 17l13 78q6 27 6 52q0 87 -54.5 136.5t-160.5 49.5h-251q-22 0 -37.5 -13.5t-19.5 -33.5l-97 -547h127q106 0 148 29.5t54 94.5 l8 47q4 13 16 13q19 0 16 -19l-66 -376q-2 -15 -17 -15q-7 0 -11.5 5.5t-3.5 13.5l7 43q4 28 4 38q0 47 -35.5 70.5t-125.5 23.5h-127l-107 -611q-4 -20 6.5 -34.5t32.5 -14.5h261q123 0 198 65t95 174l15 85q3 13 16 13q7 0 12 -5.5t4 -13.5l-62 -350h-864q-16 0 -16 16 t16 16h52q22 0 38 13.5t21 33.5l209 1190q4 20 -7 34.5t-33 14.5h-57q-16 0 -16 15q0 17 16 17h870z" />
<glyph unicode="&#xca;" horiz-adv-x="1083" d="M950 1458q7 -19 -9.5 -27.5t-26.5 8.5l-154 225l-234 -225q-20 -19 -34 -7q-11 10 2 26l215 283q30 38 69.5 38t54.5 -38zM1095 1350l-62 -352q-1 -13 -16 -13q-16 0 -15 17l13 78q6 27 6 52q0 87 -54.5 136.5t-160.5 49.5h-251q-22 0 -37.5 -13.5t-19.5 -33.5l-97 -547 h127q106 0 148 29.5t54 94.5l8 47q4 13 16 13q19 0 16 -19l-67 -376q-2 -15 -16 -15q-7 0 -11.5 5.5t-3.5 13.5l7 43q4 28 4 38q0 47 -35.5 70.5t-125.5 23.5h-127l-107 -611q-4 -20 6.5 -34.5t32.5 -14.5h261q123 0 198 65t95 174l15 85q3 13 16 13q7 0 12 -5.5t4 -13.5 l-62 -350h-864q-16 0 -16 16t16 16h52q22 0 38 13.5t21 33.5l209 1190q4 20 -7 34.5t-33 14.5h-57q-16 0 -16 15q0 17 16 17h870z" />
<glyph unicode="&#xcb;" horiz-adv-x="1083" d="M497 1519q5 32 31.5 54.5t58.5 22.5q31 0 49 -22.5t13 -54.5t-31 -54t-57 -22q-32 0 -50.5 22t-13.5 54zM821 1519q5 32 31.5 54.5t58.5 22.5q31 0 49 -22.5t13 -54.5t-31 -54t-57 -22q-32 0 -50.5 22t-13.5 54zM1095 1350l-62 -352q-1 -13 -16 -13q-17 0 -16 17l14 78 q6 27 6 52q0 87 -54.5 136.5t-160.5 49.5h-251q-22 0 -37.5 -13.5t-19.5 -33.5l-97 -547h127q106 0 148 29.5t54 94.5l8 47q4 13 16 13q19 0 16 -19l-67 -376q-2 -15 -16 -15q-7 0 -11.5 5.5t-3.5 13.5l7 43q4 28 4 38q0 47 -35.5 70.5t-125.5 23.5h-127l-108 -611 q-4 -20 7 -34.5t33 -14.5h261q123 0 198 65t95 174l15 85q3 13 16 13q7 0 12 -5.5t4 -13.5l-62 -350h-864q-16 0 -16 16t16 16h52q22 0 38 13.5t21 33.5l209 1190q4 20 -7 34.5t-33 14.5h-57q-16 0 -16 15q0 17 16 17h870z" />
<glyph unicode="&#xcc;" horiz-adv-x="534" d="M506 1452l-307 239q-37 28 -19 64q14 31 48 32q29 1 52 -25l248 -286q13 -14 3.5 -24.5t-25.5 0.5zM287 81q-4 -19 7.5 -34t33.5 -15h56q16 0 16 -16t-16 -16h-382q-16 0 -16 16t16 16h53q22 0 38 14t20 33l209 1190q4 20 -7 34.5t-33 14.5h-56q-16 0 -16 15q0 17 16 17 h381q16 0 16 -17q0 -15 -16 -15h-52q-22 0 -38.5 -14t-18.5 -33z" />
<glyph unicode="&#xcd;" horiz-adv-x="534" d="M376 1420q-17 -8 -25 3.5t8 23.5l294 239q40 32 75 7q29 -20 24 -52q-5 -25 -32 -39zM288 81q-4 -20 7 -34.5t33 -14.5h56q16 0 16 -16t-16 -16h-381q-17 0 -17 16t17 16h52q22 0 38 14t20 33l209 1190q4 20 -7 34.5t-33 14.5h-56q-16 0 -16 15q0 17 16 17h381 q16 0 16 -17q0 -15 -16 -15h-52q-22 0 -38.5 -14t-18.5 -33z" />
<glyph unicode="&#xce;" horiz-adv-x="534" d="M672 1458q7 -19 -9 -27.5t-26 8.5l-154 225l-235 -225q-20 -19 -34 -7q-11 10 2 26l215 283q30 38 70 38t55 -38zM287 81q-4 -19 7.5 -34t33.5 -15h56q16 0 16 -16t-16 -16h-382q-16 0 -16 16t16 16h53q22 0 38 14t20 33l209 1190q4 20 -7 34.5t-33 14.5h-56 q-16 0 -16 15q0 17 16 17h381q16 0 16 -17q0 -15 -16 -15h-52q-22 0 -38.5 -14t-18.5 -33z" />
<glyph unicode="&#xcf;" horiz-adv-x="534" d="M219 1519q5 32 31.5 54.5t58.5 22.5t50 -22.5t13 -54.5q-5 -31 -31 -53.5t-58 -22.5t-50.5 22t-13.5 54zM543 1519q5 32 31.5 54.5t58.5 22.5t50 -22.5t13 -54.5q-5 -31 -31 -53.5t-58 -22.5t-50.5 22t-13.5 54zM287 81q-4 -19 7.5 -34t33.5 -15h56q16 0 16 -16t-16 -16 h-382q-16 0 -16 16t16 16h53q22 0 38 14t20 33l209 1190q4 20 -7 34.5t-33 14.5h-56q-16 0 -16 15q0 17 16 17h381q16 0 16 -17q0 -15 -16 -15h-52q-22 0 -38.5 -14t-18.5 -33z" />
<glyph unicode="&#xd0;" horiz-adv-x="1382" d="M678 1350q647 0 647 -497q0 -185 -67 -344t-183.5 -270.5t-280 -175t-351.5 -63.5h-441q-16 0 -16 16t16 16h53q22 0 37.5 13.5t20.5 33.5l107 608h-100q-16 0 -16 17q0 15 16 15h106l96 550q4 20 -7 34.5t-33 14.5h-56q-16 0 -16 15q0 17 16 17h452zM442 32 q151 0 282.5 68.5t221.5 182t141.5 263t51.5 310.5q0 226 -126.5 343.5t-344.5 118.5h-113q-22 0 -37.5 -13.5t-19.5 -33.5l-97 -552h416q16 0 16 -16q0 -15 -16 -15h-422l-107 -607q-4 -20 7 -34.5t33 -14.5h114z" />
<glyph unicode="&#xd1;" horiz-adv-x="1216" d="M983 1427q-51 0 -96 16t-77 39.5t-62 46.5t-65.5 39t-72.5 16q-67 0 -110 -36.5t-54 -100.5q-4 -18 -19 -18q-7 0 -11 5t-3 11q13 96 78.5 158t182.5 62q45 0 86 -16t72.5 -39.5t62 -46.5t66.5 -39t74 -16q64 0 107 33.5t54 103.5q3 21 21 21q15 0 13 -19 q-13 -95 -79 -157.5t-168 -62.5zM1296 1350q16 0 16 -16t-16 -16h-53q-21 0 -37 -14t-20 -33l-224 -1271h-81l-541 1171l-193 -1090q-4 -20 7 -34.5t33 -14.5h53q16 0 16 -16t-16 -16h-240q-16 0 -16 16t16 16h53q22 0 38.5 14t20.5 33l209 1190q4 19 -7.5 34t-33.5 15h-53 q-16 0 -16 16t16 16h227l515 -1114l182 1033q4 19 -8 34t-34 15h-53q-16 0 -16 16t16 16h240z" />
<glyph unicode="&#xd2;" horiz-adv-x="1390" d="M934 1452l-307 239q-37 28 -19 64q14 31 48 32q29 1 52 -25l248 -286q13 -14 3.5 -24.5t-25.5 0.5zM611 -13q-158 0 -267 66t-159.5 179t-50.5 265q0 175 51 332t142.5 275.5t228 188t298.5 69.5q237 0 358 -134t121 -364q0 -174 -52 -333t-144 -279.5t-229 -192.5 t-297 -72zM617 22q397 0 514 660q26 151 26 262q0 383 -309 383q-400 0 -512 -645q-26 -142 -26 -265q0 -395 307 -395z" />
<glyph unicode="&#xd3;" horiz-adv-x="1390" d="M804 1420q-17 -8 -25 3.5t8 23.5l294 239q40 32 75 7q29 -20 24 -52q-5 -25 -32 -39zM611 -13q-158 0 -267 66t-159.5 179t-50.5 265q0 175 51 332t142.5 275.5t228 188t298.5 69.5q237 0 358 -134t121 -364q0 -174 -52 -333t-144 -279.5t-229 -192.5t-297 -72zM617 22 q397 0 514 660q26 151 26 262q0 383 -309 383q-400 0 -512 -645q-26 -142 -26 -265q0 -395 307 -395z" />
<glyph unicode="&#xd4;" horiz-adv-x="1390" d="M1100 1458q7 -19 -9 -27.5t-26 8.5l-154 225l-235 -225q-20 -19 -34 -7q-11 10 2 26l215 283q30 38 70 38t55 -38zM611 -13q-158 0 -267 66t-159.5 179t-50.5 265q0 175 51 332t142.5 275.5t228 188t298.5 69.5q237 0 358 -134t121 -364q0 -174 -52 -333t-144 -279.5 t-229 -192.5t-297 -72zM617 22q397 0 514 660q26 151 26 262q0 383 -309 383q-400 0 -512 -645q-26 -142 -26 -265q0 -395 307 -395z" />
<glyph unicode="&#xd5;" horiz-adv-x="1390" d="M1069 1427q-51 0 -96 16t-77.5 39.5t-62.5 46.5t-65.5 39t-72.5 16q-67 0 -110 -36.5t-54 -100.5q-4 -18 -19 -18t-13 16q13 96 78.5 158t182.5 62q45 0 86 -16t72.5 -39.5t62 -46.5t66.5 -39t74 -16q64 0 107 33.5t54 103.5q3 21 21 21q15 0 13 -19q-13 -95 -79 -157.5 t-168 -62.5zM611 -13q-235 0 -356 139t-121 372q0 175 51 332t142.5 275t228 187.5t298.5 69.5q237 0 358 -134t121 -364q0 -174 -52 -333t-144 -279.5t-229 -192.5t-297 -72zM617 22q397 0 514 660q26 151 26 262q0 383 -309 383q-400 0 -512 -645q-26 -142 -26 -265 q0 -395 307 -395z" />
<glyph unicode="&#xd6;" horiz-adv-x="1390" d="M647 1519q5 32 31.5 54.5t58.5 22.5t50 -22.5t13 -54.5q-5 -31 -31 -53.5t-58 -22.5t-50.5 22t-13.5 54zM971 1519q5 32 31.5 54.5t58.5 22.5t50 -22.5t13 -54.5q-5 -31 -31 -53.5t-58 -22.5t-50.5 22t-13.5 54zM611 -13q-158 0 -267 66t-159.5 179t-50.5 265 q0 175 51 332t142.5 275.5t228 188t298.5 69.5q237 0 358 -134t121 -364q0 -174 -52 -333t-144 -279.5t-229 -192.5t-297 -72zM617 22q397 0 514 660q26 151 26 262q0 383 -309 383q-400 0 -512 -645q-26 -142 -26 -265q0 -395 307 -395z" />
<glyph unicode="&#xd7;" horiz-adv-x="737" d="M412 714l300 256q13 10 23 -3q10 -12 -2 -22l-301 -256l193 -235q11 -13 -3 -23q-13 -11 -22 3l-193 233l-275 -233q-13 -11 -23 1q-9 12 3 22l275 235l-209 255q-11 12 2 23t23 -3z" />
<glyph unicode="&#xd8;" horiz-adv-x="1390" d="M1017 1342q157 -43 236.5 -168t79.5 -310q0 -174 -52 -333t-144 -279.5t-229 -192.5t-297 -72q-76 0 -139 15l-38 -92l-32 3l40 97q-153 46 -230.5 174t-77.5 314q0 175 51 332t142.5 275t228 187.5t298.5 69.5q71 0 131 -12l44 108l34 -3zM310 417q0 -277 151 -360 l507 1252q-51 18 -120 18q-400 0 -512 -645q-26 -142 -26 -265zM1131 682q26 151 26 262q0 275 -159 352l-509 -1252q57 -22 128 -22q397 0 514 660z" />
<glyph unicode="&#xd9;" horiz-adv-x="1267" d="M909 1452l-307 239q-37 28 -19 64q14 31 48 32q29 1 52 -25l248 -286q13 -14 3.5 -24.5t-25.5 0.5zM1349 1350q16 0 16 -16t-16 -16h-53q-22 0 -38 -14t-20 -33l-143 -810q-22 -121 -72.5 -213t-122.5 -148.5t-158 -84.5t-184 -28q-55 0 -105.5 9.5t-100.5 32t-87 58.5 t-64 89.5t-31.5 125.5t9.5 166l142 801q4 19 -7.5 34t-33.5 15h-53q-16 0 -16 15q0 17 16 17h379q17 0 17 -17q0 -15 -17 -15h-53q-22 0 -38 -14.5t-20 -34.5l-147 -830q-36 -206 36 -305.5t225 -99.5q166 0 290 108.5t160 313.5l143 813q4 20 -7 34.5t-33 14.5h-53 q-16 0 -16 16t16 16h240z" />
<glyph unicode="&#xda;" horiz-adv-x="1267" d="M779 1420q-17 -8 -25.5 3.5t7.5 23.5l295 239q40 32 75 7q29 -20 24 -52q-5 -25 -32 -39zM1349 1350q16 0 16 -16t-16 -16h-53q-22 0 -38 -14t-20 -33l-143 -810q-22 -121 -72.5 -213t-122.5 -148.5t-158 -84.5t-184 -28q-47 0 -90.5 7t-87.5 23t-79.5 41.5t-65.5 63 t-45.5 87.5t-20.5 114.5t11 144.5l141 801q4 19 -7.5 34t-33.5 15h-53q-16 0 -16 15q0 17 16 17h380q16 0 16 -17q0 -15 -16 -15h-54q-22 0 -38 -14.5t-20 -34.5l-147 -830q-36 -206 36 -305.5t225 -99.5q166 0 290 108.5t160 313.5l143 813q4 20 -7 34.5t-33 14.5h-53 q-16 0 -16 16t16 16h240z" />
<glyph unicode="&#xdb;" horiz-adv-x="1267" d="M1075 1458q7 -19 -9 -27.5t-26 8.5l-154 225l-235 -225q-20 -19 -34 -7q-11 10 2 26l215 283q30 38 69.5 38t54.5 -38zM1349 1350q16 0 16 -16t-16 -16h-53q-22 0 -38 -14t-20 -33l-143 -810q-22 -121 -72.5 -213t-122.5 -148.5t-158 -84.5t-184 -28q-47 0 -90.5 7 t-87.5 23t-79.5 41.5t-65.5 63t-45.5 87.5t-20.5 114.5t11 144.5l141 801q4 19 -7.5 34t-33.5 15h-53q-16 0 -16 15q0 17 16 17h379q17 0 17 -17q0 -15 -17 -15h-53q-22 0 -38 -14.5t-20 -34.5l-147 -830q-36 -206 36 -305.5t225 -99.5q166 0 290 108.5t160 313.5l143 813 q4 20 -7 34.5t-33 14.5h-53q-16 0 -16 16t16 16h240z" />
<glyph unicode="&#xdc;" horiz-adv-x="1267" d="M622 1519q5 32 31.5 54.5t58.5 22.5q31 0 49 -22.5t13 -54.5t-31 -54t-57 -22q-32 0 -50.5 22t-13.5 54zM946 1519q5 32 31.5 54.5t58.5 22.5q31 0 49 -22.5t13 -54.5t-31 -54t-57 -22q-32 0 -50.5 22t-13.5 54zM1349 1350q16 0 16 -16t-16 -16h-53q-22 0 -38 -14 t-20 -33l-143 -810q-22 -121 -72.5 -213t-122.5 -148.5t-158 -84.5t-184 -28q-47 0 -90.5 7t-87.5 23t-79.5 41.5t-65.5 63t-45.5 87.5t-20.5 114.5t11 144.5l141 801q4 19 -7.5 34t-33.5 15h-53q-16 0 -16 15q0 17 16 17h379q17 0 17 -17q0 -15 -17 -15h-53 q-22 0 -38 -14.5t-20 -34.5l-147 -830q-36 -206 36 -305.5t225 -99.5q166 0 290 108.5t160 313.5l143 813q4 20 -7 34.5t-33 14.5h-53q-16 0 -16 16t16 16h240z" />
<glyph unicode="&#xdd;" horiz-adv-x="1110" d="M741 1420q-17 -8 -25.5 3.5t7.5 23.5l294 239q40 32 75 7q29 -20 24 -52q-5 -25 -32 -39zM1236 1350q16 0 16 -16t-16 -16h-40q-44 0 -77 -48l-449 -681l-89 -508q-4 -20 7 -34.5t33 -14.5h54q16 0 16 -16t-16 -16h-380q-16 0 -16 16t16 16h53q22 0 38 14.5t20 34.5 l89 503l-218 686q-13 48 -67 48h-29q-16 0 -16 16t16 16h374q15 0 15 -16t-15 -16h-57q-26 0 -34.5 -14t-2.5 -34l199 -636l419 636q14 16 7.5 32t-33.5 16h-45q-16 0 -16 16t16 16h228z" />
<glyph unicode="&#xde;" horiz-adv-x="1112" d="M624 1076q105 0 187 -27t131.5 -73.5t75 -105.5t25.5 -126q0 -66 -23.5 -131.5t-71.5 -125t-113.5 -105t-157 -72.5t-195.5 -27h-159l-36 -202q-4 -19 7.5 -34t33.5 -15h56q16 0 16 -16t-16 -16h-382q-16 0 -16 16t16 16h53q22 0 38 14t20 33l209 1190q4 20 -7 34.5 t-33 14.5h-56q-16 0 -16 15q0 17 16 17h381q16 0 16 -17q0 -15 -16 -15h-52q-22 0 -38.5 -14t-18.5 -33l-36 -195h162zM451 315q92 0 171.5 40.5t130.5 105t79.5 142.5t28.5 156q0 122 -71.5 203.5t-209.5 81.5h-122l-129 -729h122z" />
<glyph unicode="&#xdf;" horiz-adv-x="1134" d="M754 773q0 -39 24 -74.5t59.5 -61t77.5 -57.5t77.5 -63t59.5 -78.5t24 -103.5q0 -149 -109.5 -248.5t-267.5 -99.5q-109 0 -173 58t-64 159q0 74 31.5 124.5t85.5 50.5q25 0 41 -15.5t16 -43.5q0 -30 -18 -54t-39 -37.5t-39 -36t-18 -49.5q0 -53 49 -87.5t114 -34.5 q49 0 89 15.5t67 41t45 59.5t26 70t8 73q0 49 -28 93t-67.5 78.5l-79 69t-67.5 81t-28 98.5q0 51 21 97.5t54 83t73.5 72t81 72t73.5 74.5t54 88t21 105q0 92 -64.5 141t-161.5 49q-119 0 -212 -77.5t-122 -239.5l-189 -1084q-4 -21 7.5 -35t33.5 -14h49q16 0 16 -16 t-16 -16h-365q-16 0 -16 16t16 16h56q22 0 37.5 14.5t19.5 34.5l144 811h-100q-16 0 -16 16t16 16h104l35 190q17 100 65 178.5t115.5 126.5t146 72.5t164.5 24.5q122 0 199 -54t77 -159q0 -58 -17.5 -108t-45 -86.5t-61 -69t-66.5 -62.5t-60.5 -59.5t-45 -66.5t-17.5 -78z " />
<glyph unicode="&#xe0;" d="M362 1396q-37 28 -19 65q15 31 49 31q27 1 50 -25l249 -286q13 -14 3 -24.5t-26 0.5zM1088 265q14 0 14 -16q0 -25 -15 -66.5t-42 -86.5t-74.5 -77t-102.5 -32q-77 0 -110 45.5t-19 130.5l13 72q-59 -113 -147.5 -180t-195.5 -67q-141 0 -224.5 98.5t-83.5 259.5 q0 148 59.5 283.5t169.5 222.5t243 87q110 0 175.5 -70.5t81.5 -190.5l42 246h160l-143 -814q-5 -32 1.5 -49t30.5 -17q41 0 86 56t63 148q2 17 18 17zM446 34q79 0 147.5 51.5t113 133t70 181t25.5 198.5q0 134 -51.5 214t-154.5 80q-106 0 -177.5 -91.5t-111.5 -250.5 q-37 -139 -37 -271q0 -245 176 -245z" />
<glyph unicode="&#xe1;" d="M557 1157q-16 -11 -26 -0.5t3 24.5l249 286q34 39 74 20q30 -16 30 -47q0 -25 -24 -44zM1088 265q14 0 14 -16q0 -25 -15 -66.5t-42 -86.5t-74.5 -77t-102.5 -32q-77 0 -110 45.5t-19 130.5l13 72q-59 -113 -147.5 -180t-195.5 -67q-141 0 -224.5 98.5t-83.5 259.5 q0 148 59.5 283.5t169.5 222.5t243 87q110 0 175.5 -70.5t81.5 -190.5l42 246h160l-143 -814q-5 -32 1.5 -49t30.5 -17q41 0 86 56t63 148q2 17 18 17zM446 34q79 0 147.5 51.5t113 133t70 181t25.5 198.5q0 134 -51.5 214t-154.5 80q-106 0 -177.5 -91.5t-111.5 -250.5 q-37 -139 -37 -271q0 -245 176 -245z" />
<glyph unicode="&#xe2;" d="M437 1156q-20 -19 -34 -7q-11 10 2 26l215 283q30 38 69.5 38t54.5 -38l117 -283q7 -19 -9 -27.5t-26 8.5l-155 225zM1088 265q14 0 14 -16q0 -25 -15 -66.5t-42 -86.5t-74.5 -77t-102.5 -32q-77 0 -110 45.5t-19 130.5l13 72q-59 -113 -147.5 -180t-195.5 -67 q-141 0 -224.5 98.5t-83.5 259.5q0 148 59.5 283.5t169.5 222.5t243 87q110 0 175.5 -70.5t81.5 -190.5l42 246h160l-143 -814q-5 -32 1.5 -49t30.5 -17q41 0 86 56t63 148q2 17 18 17zM446 34q79 0 147.5 51.5t113 133t70 181t25.5 198.5q0 134 -51.5 214t-154.5 80 q-106 0 -177.5 -91.5t-111.5 -250.5q-37 -139 -37 -271q0 -245 176 -245z" />
<glyph unicode="&#xe3;" d="M251 1153q-6 0 -10 5.5t-3 11.5q13 96 78.5 158t182.5 62q45 0 86 -16t72.5 -39t62 -46.5t66.5 -39.5t74 -16q64 0 107 33.5t54 103.5q3 20 21 20q14 0 13 -18q-13 -95 -79 -157.5t-168 -62.5q-51 0 -96 16t-77.5 39t-62.5 46.5t-65.5 39.5t-72.5 16q-67 0 -110 -36.5 t-54 -100.5q-4 -19 -19 -19zM1088 265q14 0 14 -16q0 -25 -15 -66.5t-42 -86.5t-74.5 -77t-102.5 -32q-77 0 -110 45.5t-19 130.5l13 72q-59 -113 -147.5 -180t-195.5 -67q-141 0 -224.5 98.5t-83.5 259.5q0 148 59.5 283.5t169.5 222.5t243 87q110 0 175.5 -70.5 t81.5 -190.5l42 246h160l-143 -814q-5 -32 1.5 -49t30.5 -17q41 0 86 56t63 148q2 17 18 17zM446 34q79 0 147.5 51.5t113 133t70 181t25.5 198.5q0 134 -51.5 214t-154.5 80q-106 0 -177.5 -91.5t-111.5 -250.5q-37 -139 -37 -271q0 -245 176 -245z" />
<glyph unicode="&#xe4;" d="M470 1159q-32 0 -50.5 22t-13.5 54t31.5 54t58.5 22t49.5 -22t12.5 -54t-31 -54t-57 -22zM794 1159q-32 0 -50.5 22t-13.5 54t31.5 54t58.5 22t49.5 -22t12.5 -54t-31 -54t-57 -22zM1088 265q14 0 14 -16q0 -25 -15 -66.5t-42 -86.5t-74.5 -77t-102.5 -32 q-77 0 -110 45.5t-19 130.5l13 72q-59 -113 -147.5 -180t-195.5 -67q-141 0 -224.5 98.5t-83.5 259.5q0 148 59.5 283.5t169.5 222.5t243 87q110 0 175.5 -70.5t81.5 -190.5l42 246h160l-143 -814q-5 -32 1.5 -49t30.5 -17q41 0 86 56t63 148q2 17 18 17zM446 34 q79 0 147.5 51.5t113 133t70 181t25.5 198.5q0 134 -51.5 214t-154.5 80q-106 0 -177.5 -91.5t-111.5 -250.5q-37 -139 -37 -271q0 -245 176 -245z" />
<glyph unicode="&#xe5;" d="M626 1127q-78 0 -127.5 51.5t-45.5 127.5q4 96 78 164t167 68q77 0 126.5 -51.5t45.5 -126.5q-4 -95 -78.5 -164t-165.5 -69zM494 1309q-2 -60 37 -101.5t101 -41.5q75 0 134 55.5t61 134.5q2 61 -36 102t-99 41q-77 0 -136.5 -56t-61.5 -134zM1088 265q14 0 14 -16 q0 -25 -15 -66.5t-42 -86.5t-74.5 -77t-102.5 -32q-77 0 -110 45.5t-19 130.5l13 72q-59 -113 -147.5 -180t-195.5 -67q-141 0 -224.5 98.5t-83.5 259.5q0 148 59.5 283.5t169.5 222.5t243 87q110 0 175.5 -70.5t81.5 -190.5l42 246h160l-143 -814q-5 -32 1.5 -49t30.5 -17 q41 0 86 56t63 148q2 17 18 17zM446 34q79 0 147.5 51.5t113 133t70 181t25.5 198.5q0 134 -51.5 214t-154.5 80q-106 0 -177.5 -91.5t-111.5 -250.5q-37 -139 -37 -271q0 -245 176 -245z" />
<glyph unicode="&#xe6;" horiz-adv-x="1591" d="M1460 277q14 0 14 -13q0 -1 -0.5 -3.5t-0.5 -3.5q-11 -24 -29 -52.5t-53.5 -69t-78 -72t-105 -54t-130.5 -22.5q-170 0 -270.5 86.5t-106.5 251.5q-47 -153 -142.5 -245.5t-244.5 -92.5q-101 0 -160.5 59t-59.5 143q0 119 106.5 205.5t286.5 96.5l224 13l30 174 q19 104 -32 165.5t-149 61.5q-97 0 -175.5 -49t-78.5 -105q0 -22 25.5 -49t25.5 -53q0 -39 -26.5 -64.5t-60.5 -25.5q-31 0 -53 21t-22 62q0 85 55.5 154t145 106t190.5 37q246 0 296 -137q144 137 359 137q142 0 221 -53.5t79 -140.5q0 -92 -56 -160t-154 -106t-211 -57 t-246 -21q-4 -39 -4 -84q0 -131 56.5 -208t181.5 -77q110 0 201 72t133 160q8 13 19 13zM1217 907q-69 0 -129.5 -42t-102 -112t-69 -152.5t-39.5 -170.5q245 6 376 79.5t131 234.5q0 71 -41 117t-126 46zM392 53q55 0 99.5 21t76.5 56t58 91t44 115t35 138l-218 -12 q-107 -6 -164.5 -82t-57.5 -188q0 -70 34 -104.5t93 -34.5z" />
<glyph unicode="&#xe7;" horiz-adv-x="970" d="M735 605q0 30 16.5 52.5t36.5 34.5t36.5 32.5t16.5 46.5q0 57 -59.5 96.5t-152.5 39.5q-57 0 -107.5 -22.5t-97 -71.5t-83 -137.5t-57.5 -210.5q-15 -92 -15 -150q0 -138 57 -210.5t162 -72.5q207 0 332 232q8 12 19 12q12 0 12 -12q0 -6 -1 -9q-14 -31 -33.5 -62.5 t-53.5 -69t-74 -66t-97.5 -48.5t-120.5 -22l-44 -120q96 -4 144 -42t48 -94q0 -79 -76.5 -144.5t-191.5 -65.5q-84 0 -132 38q-26 19 -26 38q0 8 6 14.5t15 6.5q7 0 21 -13t40.5 -26t64.5 -13q71 0 116 48.5t45 108.5q0 47 -31 79.5t-91 36.5l57 148q-164 6 -249.5 101.5 t-85.5 255.5q0 119 37 227t102.5 189.5t163 130t211.5 48.5q146 0 229.5 -65t83.5 -168q0 -80 -37 -124.5t-86 -44.5q-30 0 -50 19t-20 49z" />
<glyph unicode="&#xe8;" horiz-adv-x="993" d="M402 1396q-37 28 -19 64q14 31 48 32q29 1 52 -25l248 -286q13 -14 3.5 -24.5t-25.5 0.5zM862 277q13 0 13 -13v-7q-11 -24 -29 -52.5t-53.5 -69t-78 -72t-105 -54t-130.5 -22.5q-176 0 -277 92.5t-101 264.5q0 115 36 221t102 190t170.5 134t232.5 50q142 0 221 -53.5 t79 -140.5q0 -75 -38 -134t-100.5 -97t-150.5 -63.5t-180.5 -36.5t-197.5 -13q-5 -48 -5 -84q0 -131 57 -208t182 -77q110 0 201 72t133 160q8 13 19 13zM618 907q-69 0 -129.5 -42t-102 -112t-69 -152.5t-39.5 -170.5q244 5 376 79t132 235q0 71 -41.5 117t-126.5 46z" />
<glyph unicode="&#xe9;" horiz-adv-x="993" d="M597 1157q-16 -11 -25.5 -0.5t3.5 24.5l248 286q34 39 74 20q30 -16 30 -47q0 -25 -24 -44zM862 277q13 0 13 -13v-7q-11 -24 -29 -52.5t-53.5 -69t-78 -72t-105 -54t-130.5 -22.5q-176 0 -277 92.5t-101 264.5q0 115 36 221t102 190t170.5 134t232.5 50q142 0 221 -53.5 t79 -140.5q0 -75 -38 -134t-100.5 -97t-150.5 -63.5t-180.5 -36.5t-197.5 -13q-5 -48 -5 -84q0 -131 57 -208t182 -77q110 0 201 72t133 160q8 13 19 13zM618 907q-69 0 -129.5 -42t-102 -112t-69 -152.5t-39.5 -170.5q244 5 376 79t132 235q0 71 -41.5 117t-126.5 46z" />
<glyph unicode="&#xea;" horiz-adv-x="993" d="M477 1156q-20 -19 -34 -7q-11 10 2 26l215 283q30 38 69.5 38t54.5 -38l117 -283q7 -19 -9 -27.5t-26 8.5l-154 225zM862 277q13 0 13 -13v-7q-11 -24 -29 -52.5t-53.5 -69t-78 -72t-105 -54t-130.5 -22.5q-176 0 -277 92.5t-101 264.5q0 115 36 221t102 190t170.5 134 t232.5 50q142 0 221 -53.5t79 -140.5q0 -75 -38 -134t-100.5 -97t-150.5 -63.5t-180.5 -36.5t-197.5 -13q-5 -48 -5 -84q0 -131 57 -208t182 -77q110 0 201 72t133 160q8 13 19 13zM618 907q-69 0 -129.5 -42t-102 -112t-69 -152.5t-39.5 -170.5q244 5 376 79t132 235 q0 71 -41.5 117t-126.5 46z" />
<glyph unicode="&#xeb;" horiz-adv-x="993" d="M510 1159q-32 0 -50.5 22t-13.5 54t31.5 54t58.5 22t50 -22t13 -54q-5 -31 -31 -53.5t-58 -22.5zM834 1159q-32 0 -50.5 22t-13.5 54t31.5 54t58.5 22t50 -22t13 -54q-5 -31 -31 -53.5t-58 -22.5zM862 277q13 0 13 -13v-7q-11 -24 -29 -52.5t-53.5 -69t-78 -72t-105 -54 t-130.5 -22.5q-176 0 -277 92.5t-101 264.5q0 115 36 221t102 190t170.5 134t232.5 50q142 0 221 -53.5t79 -140.5q0 -75 -38 -134t-100.5 -97t-150.5 -63.5t-180.5 -36.5t-197.5 -13q-5 -48 -5 -84q0 -131 57 -208t182 -77q110 0 201 72t133 160q8 13 19 13zM618 907 q-69 0 -129.5 -42t-102 -112t-69 -152.5t-39.5 -170.5q244 5 376 79t132 235q0 71 -41.5 117t-126.5 46z" />
<glyph unicode="&#xec;" horiz-adv-x="528" d="M424 1157l-306 239q-37 28 -19 65q15 31 49 31q27 1 50 -25l249 -286q13 -14 3 -24.5t-26 0.5zM479 265q14 0 14 -16q0 -25 -15 -66.5t-42.5 -86.5t-75 -77t-102.5 -32q-65 0 -99 33t-34 96q0 5 5 50l121 676q2 20 -9 35t-33 15h-53q-16 0 -16 16t16 16h268l-143 -814 q-3 -16 -3 -28q0 -38 34 -38q41 0 85.5 56t62.5 148q5 17 19 17z" />
<glyph unicode="&#xed;" horiz-adv-x="528" d="M313 1157q-16 -11 -26 -0.5t3 24.5l248 286q34 38 73 20q31 -15 32 -46q1 -26 -24 -45zM479 265q14 0 14 -16q0 -25 -15 -66.5t-42.5 -86.5t-75 -77t-102.5 -32q-65 0 -99 33t-34 96q0 5 5 50l121 676q2 20 -9 35t-33 15h-53q-16 0 -16 16t16 16h268l-143 -814 q-3 -16 -3 -28q0 -38 34 -38q41 0 85.5 56t62.5 148q5 17 19 17z" />
<glyph unicode="&#xee;" horiz-adv-x="528" d="M617 1175q7 -19 -9.5 -27.5t-26.5 8.5l-154 225l-234 -225q-20 -19 -34 -7q-11 10 2 26l215 283q30 38 69.5 38t54.5 -38zM479 265q14 0 14 -16q0 -25 -15 -66.5t-42.5 -86.5t-75 -77t-102.5 -32q-65 0 -99 33t-34 96q0 5 5 50l121 676q2 20 -9 35t-33 15h-53 q-16 0 -16 16t16 16h268l-143 -814q-3 -16 -3 -28q0 -38 34 -38q41 0 85.5 56t62.5 148q5 17 19 17z" />
<glyph unicode="&#xef;" horiz-adv-x="528" d="M162 1235q5 32 31 54t58 22t50 -22t13 -54t-31 -54t-57 -22q-32 0 -50.5 22t-13.5 54zM486 1235q5 32 31.5 54t58.5 22t49.5 -22t12.5 -54t-31 -54t-57 -22q-32 0 -50.5 22t-13.5 54zM479 265q14 0 14 -16q0 -25 -15 -66.5t-42.5 -86.5t-75 -77t-102.5 -32q-65 0 -99 33 t-34 96q0 5 5 50l121 676q2 20 -9 35t-33 15h-53q-16 0 -16 16t16 16h268l-143 -814q-3 -16 -3 -28q0 -38 34 -38q41 0 85.5 56t62.5 148q5 17 19 17z" />
<glyph unicode="&#xf0;" horiz-adv-x="1120" d="M807 1375q249 -165 249 -532q0 -121 -21.5 -240t-68.5 -231t-113.5 -197t-165 -136.5t-214.5 -51.5q-75 0 -141 23t-118.5 67.5t-83 115.5t-30.5 161q0 149 69 284t188 218t256 83q219 0 271 -199q3 87 1 142q-12 276 -147 423l-139 -138q-11 -11 -22 0t0 22l138 138 q-139 130 -385 130q-19 0 -19 16q0 20 22 20q275 0 447 -101l131 131q11 11 22 0t0 -23zM481 20q62 0 117.5 28t96.5 76t74 109t53.5 128.5t31.5 134t11 126.5q0 132 -63 204.5t-159 72.5q-133 0 -218.5 -98.5t-126.5 -273.5q-29 -110 -29 -235q0 -69 15.5 -120.5 t37.5 -79.5t53 -45t55.5 -22t50.5 -5z" />
<glyph unicode="&#xf1;" horiz-adv-x="1110" d="M860 1152q-51 0 -96 16t-77.5 39t-62.5 46.5t-65.5 39.5t-72.5 16q-67 0 -110 -36.5t-54 -100.5q-4 -19 -19 -19q-6 0 -10 5.5t-3 11.5q13 96 78.5 158t182.5 62q45 0 86 -16t72.5 -39t62 -46.5t66.5 -39.5t74 -16q64 0 107 33.5t54 103.5q3 20 21 20q14 0 13 -18 q-13 -95 -79 -157.5t-168 -62.5zM1060 265q14 0 14 -16q0 -20 -8.5 -50.5t-28 -67.5t-45.5 -69t-66.5 -53.5t-85.5 -21.5q-65 0 -99 33t-34 96q0 5 5 50l80 451q25 144 -4 203t-99 59q-117 0 -216.5 -124t-130.5 -297l-80 -458h-160l148 842q4 20 -7.5 35t-33.5 15h-53 q-17 0 -17 16t17 16h268l-48 -272q60 129 158.5 206.5t222.5 77.5q251 0 202 -282l-96 -544q-4 -22 -4 -28q0 -38 35 -38q41 0 85.5 56t62.5 148q5 17 18 17z" />
<glyph unicode="&#xf2;" horiz-adv-x="1046" d="M684 1157l-306 239q-37 28 -19 65q15 31 49 31q27 1 50 -25l249 -286q13 -14 3 -24.5t-26 0.5zM439 -13q-161 0 -250 90t-89 257q0 163 60 299.5t177.5 221t270.5 84.5q160 0 249.5 -88t89.5 -255q0 -165 -59.5 -302.5t-177 -222t-271.5 -84.5zM444 19q119 1 200 114.5 t120 330.5q20 109 20 185q0 128 -46.5 193t-135.5 65q-118 0 -200 -112t-120 -331q-19 -108 -19 -184q0 -126 46 -193t135 -68z" />
<glyph unicode="&#xf3;" horiz-adv-x="1046" d="M573 1157q-16 -11 -26 -0.5t3 24.5l249 286q34 39 74 20q30 -16 30 -47q0 -25 -24 -44zM439 -13q-161 0 -250 90t-89 257q0 163 60 299.5t177.5 221t270.5 84.5q160 0 249.5 -88t89.5 -255q0 -165 -59.5 -302.5t-177 -222t-271.5 -84.5zM444 19q119 1 200 114.5 t120 330.5q20 109 20 185q0 128 -46.5 193t-135.5 65q-118 0 -200 -112t-120 -331q-19 -108 -19 -184q0 -126 46 -193t135 -68z" />
<glyph unicode="&#xf4;" horiz-adv-x="1046" d="M877 1175q7 -19 -9 -27.5t-26 8.5l-155 225l-234 -225q-20 -19 -34 -7q-11 10 2 26l215 283q30 38 69.5 38t54.5 -38zM439 -13q-161 0 -250 90t-89 257q0 163 60 299.5t177.5 221t270.5 84.5q160 0 249.5 -88t89.5 -255q0 -165 -59.5 -302.5t-177 -222t-271.5 -84.5z M444 19q119 1 200 114.5t120 330.5q20 109 20 185q0 128 -46.5 193t-135.5 65q-118 0 -200 -112t-120 -331q-19 -108 -19 -184q0 -126 46 -193t135 -68z" />
<glyph unicode="&#xf5;" horiz-adv-x="1046" d="M824 1152q-51 0 -96 16t-77.5 39t-62.5 46.5t-65.5 39.5t-72.5 16q-67 0 -110 -36.5t-54 -100.5q-4 -19 -19 -19q-6 0 -10 5.5t-3 11.5q13 96 78.5 158t182.5 62q45 0 86 -16t72.5 -39t62 -46.5t66.5 -39.5t74 -16q64 0 107 33.5t54 103.5q3 20 21 20q14 0 13 -18 q-13 -95 -79 -157.5t-168 -62.5zM439 -13q-161 0 -250 90t-89 257q0 163 60 299.5t177.5 221t270.5 84.5q160 0 249.5 -88t89.5 -255q0 -165 -59.5 -302.5t-177 -222t-271.5 -84.5zM444 19q119 1 200 114.5t120 330.5q20 109 20 185q0 128 -46.5 193t-135.5 65 q-118 0 -200 -112t-120 -331q-19 -108 -19 -184q0 -126 46 -193t135 -68z" />
<glyph unicode="&#xf6;" horiz-adv-x="1046" d="M422 1235q5 32 31.5 54t58.5 22t49.5 -22t12.5 -54t-31 -54t-57 -22q-32 0 -50.5 22t-13.5 54zM746 1235q5 32 31.5 54t58.5 22t49.5 -22t12.5 -54t-31 -54t-57 -22q-32 0 -50.5 22t-13.5 54zM439 -13q-161 0 -250 90t-89 257q0 163 60 299.5t177.5 221t270.5 84.5 q160 0 249.5 -88t89.5 -255q0 -165 -59.5 -302.5t-177 -222t-271.5 -84.5zM444 19q119 1 200 114.5t120 330.5q20 109 20 185q0 128 -46.5 193t-135.5 65q-118 0 -200 -112t-120 -331q-19 -108 -19 -184q0 -126 46 -193t135 -68z" />
<glyph unicode="&#xf7;" horiz-adv-x="858" d="M498 848q-28 0 -45.5 17.5t-17.5 43.5q0 34 27 60.5t62 26.5q27 0 44.5 -18t17.5 -44q0 -33 -27.5 -59.5t-60.5 -26.5zM811 654q16 0 16 -16t-16 -16h-697q-16 0 -16 16t16 16h697zM425 426q28 0 46 -17.5t18 -43.5q0 -34 -27.5 -60.5t-62.5 -26.5q-27 0 -44 18t-17 44 q0 33 27 59.5t60 26.5z" />
<glyph unicode="&#xf8;" horiz-adv-x="1112" d="M697 931q120 -23 185 -108t65 -227q0 -165 -59.5 -302.5t-177 -222t-271.5 -84.5q-30 0 -57 3l-37 -111h-34l39 116q-120 23 -185 110t-65 229q0 163 60 299.5t177.5 221t270.5 84.5q28 0 55 -3l35 106h36zM263 280q0 -189 101 -242l287 863q-23 6 -49 6 q-118 0 -200 -112t-120 -331q-19 -108 -19 -184zM764 464q20 109 20 185q0 189 -101 240l-289 -863q26 -7 50 -7q119 1 200 114.5t120 330.5z" />
<glyph unicode="&#xf9;" horiz-adv-x="1107" d="M397 1396q-37 28 -19 65q15 31 49 31q27 1 50 -25l248 -286q13 -14 3.5 -24.5t-25.5 0.5zM1061 265q14 0 14 -16q0 -19 -9 -50t-28.5 -68t-46 -69t-66.5 -53.5t-85 -21.5q-77 0 -110 46.5t-18 132.5l18 101q-61 -127 -159 -203t-221 -76q-251 0 -202 281l101 573 q4 20 -8 35t-34 15h-52q-16 0 -16 16t16 16h269l-109 -618q-25 -144 3.5 -203t98.5 -59q78 0 152 59.5t125.5 158.5t72.5 217l64 363q4 20 -7.5 35t-33.5 15h-52q-16 0 -16 16t16 16h268l-145 -814q-1 -6 -1 -28q0 -38 34 -38q41 0 85.5 56t62.5 148q3 17 19 17z" />
<glyph unicode="&#xfa;" horiz-adv-x="1107" d="M591 1157q-16 -11 -25.5 -0.5t3.5 24.5l248 286q34 38 73 20q31 -15 32 -46q1 -26 -24 -45zM1061 265q14 0 14 -16q0 -19 -9 -50t-28.5 -68t-46 -69t-66.5 -53.5t-85 -21.5q-77 0 -110 46.5t-18 132.5l18 101q-61 -127 -159 -203t-221 -76q-251 0 -202 281l101 573 q4 20 -8 35t-34 15h-52q-16 0 -16 16t16 16h269l-109 -618q-25 -144 3.5 -203t98.5 -59q78 0 152 59.5t125.5 158.5t72.5 217l64 363q4 20 -7.5 35t-33.5 15h-52q-16 0 -16 16t16 16h268l-145 -814q-1 -6 -1 -28q0 -38 34 -38q41 0 85.5 56t62.5 148q3 17 19 17z" />
<glyph unicode="&#xfb;" horiz-adv-x="1107" d="M472 1156q-20 -19 -34 -7q-11 10 2 26l215 283q30 38 69.5 38t54.5 -38l117 -283q7 -19 -9.5 -27.5t-26.5 8.5l-154 225zM1061 265q14 0 14 -16q0 -19 -9 -50t-28.5 -68t-46 -69t-66.5 -53.5t-85 -21.5q-77 0 -110 46.5t-18 132.5l18 101q-61 -127 -159 -203t-221 -76 q-251 0 -202 281l101 573q4 20 -8 35t-34 15h-52q-16 0 -16 16t16 16h269l-109 -618q-25 -144 3.5 -203t98.5 -59q78 0 152 59.5t125.5 158.5t72.5 217l64 363q4 20 -7.5 35t-33.5 15h-52q-16 0 -16 16t16 16h268l-145 -814q-1 -6 -1 -28q0 -38 34 -38q41 0 85.5 56 t62.5 148q3 17 19 17z" />
<glyph unicode="&#xfc;" horiz-adv-x="1107" d="M504 1159q-32 0 -50 22t-13 54t31 54t58 22t50 -22t13 -54q-5 -31 -31 -53.5t-58 -22.5zM828 1159q-32 0 -50 22t-13 54t31 54t58 22t50 -22t13 -54q-5 -31 -31 -53.5t-58 -22.5zM1061 265q14 0 14 -16q0 -19 -9 -50t-28.5 -68t-46 -69t-66.5 -53.5t-85 -21.5 q-77 0 -110 46.5t-18 132.5l18 101q-61 -127 -159 -203t-221 -76q-251 0 -202 281l101 573q4 20 -8 35t-34 15h-51q-17 0 -17 16t17 16h268l-109 -618q-25 -144 3.5 -203t98.5 -59q78 0 152 59.5t125.5 158.5t72.5 217l64 363q4 20 -7.5 35t-33.5 15h-52q-16 0 -16 16t16 16 h268l-145 -814q-1 -6 -1 -28q0 -38 34 -38q41 0 85.5 56t62.5 148q3 17 19 17z" />
<glyph unicode="&#xfd;" horiz-adv-x="1064" d="M596 1157q-16 -11 -26 -0.5t3 24.5l249 286q34 39 74 20q30 -16 30 -47q0 -25 -24 -44zM350 -12q-251 0 -202 281l101 573q4 20 -7.5 35t-33.5 15h-52q-16 0 -16 16t16 16h268l-109 -618q-11 -72 -11 -130t28.5 -95t85.5 -37q118 0 217 125t131 304l65 369q4 20 -7.5 35 t-33.5 15h-52q-16 0 -16 16t16 16h268l-185 -1046q-39 -220 -165.5 -335t-323.5 -115q-140 0 -215.5 71t-75.5 173q0 82 37.5 127.5t86.5 45.5q28 0 46.5 -17t18.5 -47q0 -22 -10.5 -40.5t-26 -31.5l-31 -26t-26 -31.5t-10.5 -40.5q0 -25 10 -49.5t31.5 -48t62 -38 t94.5 -14.5q263 0 326 355l80 455q-60 -129 -158 -206t-222 -77z" />
<glyph unicode="&#xfe;" d="M728 941q141 0 224.5 -98.5t83.5 -258.5q0 -110 -36 -217t-97 -190t-150.5 -134.5t-189.5 -51.5q-110 0 -175 70t-81 190l-128 -725q-4 -20 8 -35t34 -15h53q16 0 16 -16q0 -15 -16 -15h-268l320 1823q4 20 -7.5 35t-33.5 15h-54q-16 0 -16 16t16 16h269l-117 -664 q59 116 148 185.5t197 69.5zM831 379q36 141 36 272q0 245 -176 245q-79 0 -147.5 -51.5t-113 -133t-70 -181t-25.5 -198.5q0 -134 51.5 -214t154.5 -80q201 0 290 341z" />
<glyph unicode="&#xff;" horiz-adv-x="1064" d="M445 1235q5 32 31.5 54t58.5 22t49.5 -22t12.5 -54t-31 -54t-57 -22q-32 0 -50.5 22t-13.5 54zM769 1235q5 32 31.5 54t58.5 22t49.5 -22t12.5 -54t-31 -54t-57 -22q-32 0 -50.5 22t-13.5 54zM350 -12q-251 0 -202 281l101 573q4 20 -7.5 35t-33.5 15h-52q-16 0 -16 16 t16 16h268l-109 -618q-11 -72 -11 -130t28.5 -95t85.5 -37q118 0 217 125t131 304l65 369q4 20 -7.5 35t-33.5 15h-52q-16 0 -16 16t16 16h268l-185 -1046q-39 -220 -165.5 -335t-323.5 -115q-140 0 -215.5 71t-75.5 173q0 82 37.5 127.5t86.5 45.5q28 0 46.5 -17t18.5 -47 q0 -22 -10.5 -40.5t-26 -31.5l-31 -26t-26 -31.5t-10.5 -40.5q0 -25 10 -49.5t31.5 -48t62 -38t94.5 -14.5q76 0 135 29.5t96.5 82t60 111.5t35.5 132l79 455q-60 -129 -158 -206t-222 -77z" />
<glyph unicode="&#x152;" horiz-adv-x="1990" d="M1039 183q-170 -196 -431 -196q-119 0 -211 37.5t-150 106t-87.5 161t-29.5 205.5q0 175 51 332t142.5 275.5t228 188t298.5 69.5q264 0 364 -188l31 176h758l-61 -352q-3 -13 -17 -13q-18 0 -14 17l13 78q4 36 4 52q0 87 -53.5 136.5t-159.5 49.5h-253 q-22 0 -37.5 -14.5t-19.5 -34.5l-95 -545h124q105 0 146.5 29.5t53.5 94.5l9 47q2 13 16 13q18 0 16 -19l-67 -376q-3 -15 -17 -15q-6 0 -10.5 6t-3.5 13l7 43q2 14 2 38q0 46 -35 70t-124 24h-123l-108 -611q-4 -23 8.5 -36t32.5 -13h258q124 0 199 65t96 174l15 85 q1 13 16 13q8 0 12 -5t2 -14l-60 -350h-768zM613 22q397 0 514 660q26 151 26 262q0 383 -309 383q-400 0 -512 -645q-26 -142 -26 -265q0 -395 307 -395z" />
<glyph unicode="&#x153;" horiz-adv-x="1638" d="M1135 -13q-118 0 -204 43.5t-129 129.5q-141 -172 -363 -172q-162 0 -250.5 89.5t-88.5 256.5q0 163 60 299.5t177.5 221t270.5 84.5q227 0 304 -170q149 170 387 170q142 0 221 -53.5t79 -140.5q0 -92 -56 -160t-154 -106t-211 -57t-247 -21q-4 -58 -4 -84 q0 -131 57 -208t182 -77q110 0 199.5 71.5t133.5 160.5q5 13 20 13q13 0 13 -13q0 -5 -2 -7q-10 -23 -28 -52.5t-53.5 -69t-78 -71.5t-105 -54.5t-130.5 -22.5zM1275 907q-69 0 -129.5 -42t-102 -111.5t-69.5 -152.5t-39 -171q245 6 377 79.5t132 234.5q0 71 -42 117 t-127 46zM444 21q119 1 200 113.5t120 329.5q20 109 20 185q0 128 -46.5 193t-135.5 65q-118 0 -200 -112t-120 -331q-19 -108 -19 -184q0 -256 181 -259z" />
<glyph unicode="&#x178;" horiz-adv-x="1110" d="M583 1519q5 32 31.5 54.5t58.5 22.5t50 -22.5t13 -54.5q-5 -31 -31 -53.5t-58 -22.5t-50.5 22t-13.5 54zM907 1519q5 32 31.5 54.5t58.5 22.5t50 -22.5t13 -54.5q-5 -31 -31 -53.5t-58 -22.5t-50.5 22t-13.5 54zM1236 1350q16 0 16 -16t-16 -16h-40q-44 0 -77 -48 l-449 -681l-89 -508q-4 -20 7 -34.5t33 -14.5h53q17 0 17 -16t-17 -16h-379q-16 0 -16 16t16 16h53q22 0 38 14.5t20 34.5l89 503l-218 686q-13 48 -67 48h-29q-16 0 -16 16t16 16h374q15 0 15 -16t-15 -16h-57q-26 0 -35 -14t-3 -34l200 -636l419 636q14 16 7.5 32 t-33.5 16h-45q-16 0 -16 16t16 16h228z" />
<glyph unicode="&#x2c6;" horiz-adv-x="540" d="M627 1186q7 -19 -9 -27t-26 9l-154 224l-235 -225q-20 -19 -34 -7q-11 10 2 26l215 284q30 38 69.5 38t54.5 -38z" />
<glyph unicode="&#x2dc;" horiz-adv-x="1056" d="M703 1152q-51 0 -96 16t-77.5 39t-62.5 46.5t-65.5 39.5t-72.5 16q-67 0 -110 -36.5t-54 -100.5q-4 -19 -19 -19q-6 0 -10 5.5t-3 11.5q13 96 78.5 158t182.5 62q45 0 86 -16t72.5 -39t62 -46.5t66.5 -39.5t74 -16q64 0 107 33.5t54 103.5q2 20 21 20q15 0 13 -18 q-13 -95 -79 -157.5t-168 -62.5z" />
<glyph unicode="&#x2000;" horiz-adv-x="926" />
<glyph unicode="&#x2001;" horiz-adv-x="1853" />
<glyph unicode="&#x2002;" horiz-adv-x="926" />
<glyph unicode="&#x2003;" horiz-adv-x="1853" />
<glyph unicode="&#x2004;" horiz-adv-x="617" />
<glyph unicode="&#x2005;" horiz-adv-x="463" />
<glyph unicode="&#x2006;" horiz-adv-x="308" />
<glyph unicode="&#x2007;" horiz-adv-x="308" />
<glyph unicode="&#x2008;" horiz-adv-x="231" />
<glyph unicode="&#x2009;" horiz-adv-x="370" />
<glyph unicode="&#x200a;" horiz-adv-x="102" />
<glyph unicode="&#x2010;" horiz-adv-x="610" d="M543 499q16 0 16 -16t-16 -16h-472q-16 0 -16 16t16 16h472z" />
<glyph unicode="&#x2011;" horiz-adv-x="610" d="M543 499q16 0 16 -16t-16 -16h-472q-16 0 -16 16t16 16h472z" />
<glyph unicode="&#x2012;" horiz-adv-x="610" d="M543 499q16 0 16 -16t-16 -16h-472q-16 0 -16 16t16 16h472z" />
<glyph unicode="&#x2013;" horiz-adv-x="835" d="M772 499q16 0 16 -16t-16 -16h-697q-16 0 -16 16t16 16h697z" />
<glyph unicode="&#x2014;" horiz-adv-x="1091" d="M1023 499q16 0 16 -16t-16 -16h-952q-16 0 -16 16t16 16h952z" />
<glyph unicode="&#x2018;" horiz-adv-x="471" d="M298 909q-52 0 -89 39t-37 109q0 72 33 140.5t86 120t106 88t107 60.5q7 2 13 -1.5t6 -8.5q0 -11 -13 -17q-122 -56 -205 -153.5t-89 -204.5q-3 -49 19 -80q8 46 39.5 71.5t65.5 25.5q37 0 58.5 -22t21.5 -55q0 -42 -35.5 -77t-86.5 -35z" />
<glyph unicode="&#x2019;" horiz-adv-x="438" d="M399 1466q52 0 88.5 -38.5t36.5 -108.5q0 -72 -33 -140.5t-85.5 -120t-106 -88t-106.5 -60.5q-7 -2 -13 1t-6 8q0 11 13 17q121 56 204.5 154t89.5 205q3 48 -19 79q-8 -46 -39.5 -71t-66.5 -25q-37 0 -58 21.5t-21 54.5q0 42 35.5 77t86.5 35z" />
<glyph unicode="&#x201a;" horiz-adv-x="438" d="M180 231q52 0 89 -38.5t37 -108.5q0 -72 -33 -140.5t-85.5 -120t-106 -88t-106.5 -60.5q-7 -2 -13 1t-6 8q0 12 12 17q121 56 204.5 154t89.5 205q3 50 -18 80q-8 -46 -39.5 -71.5t-66.5 -25.5q-37 0 -58.5 21.5t-21.5 54.5q0 42 35.5 77t86.5 35z" />
<glyph unicode="&#x201c;" horiz-adv-x="839" d="M298 909q-52 0 -89 39t-37 109q0 72 33 140.5t86 120t106 88t107 60.5q7 2 13 -1.5t6 -8.5q0 -11 -13 -17q-122 -56 -205 -153.5t-89 -204.5q-3 -49 19 -80q8 46 39.5 71.5t65.5 25.5q37 0 58.5 -22t21.5 -55q0 -42 -35.5 -77t-86.5 -35zM668 909q-52 0 -89 39t-37 109 q0 72 33 140.5t85.5 120t106 88t106.5 60.5q7 2 13 -1.5t6 -8.5q0 -12 -12 -17q-122 -56 -205 -153.5t-89 -204.5q-3 -50 18 -80q8 46 39.5 71.5t66.5 25.5q37 0 58.5 -22t21.5 -55q0 -42 -35.5 -77t-86.5 -35z" />
<glyph unicode="&#x201d;" horiz-adv-x="806" d="M395 1450q52 0 89 -38.5t37 -108.5q0 -72 -33 -140.5t-85.5 -120t-106 -88.5t-106.5 -61q-7 -2 -13 1.5t-6 8.5q0 12 12 17q122 56 205.5 154t89.5 205q3 48 -19 79q-8 -46 -39.5 -71.5t-66.5 -25.5q-37 0 -58.5 22t-21.5 55q0 42 35.5 77t86.5 35zM765 1450q52 0 89 -39 t37 -109q0 -72 -33 -140.5t-86 -120t-106 -88t-107 -60.5q-7 -2 -13 1.5t-6 8.5q0 11 13 17q121 56 204.5 154t89.5 205q3 48 -19 79q-8 -46 -39.5 -71.5t-65.5 -25.5q-37 0 -58.5 22t-21.5 55q0 42 35.5 77t86.5 35z" />
<glyph unicode="&#x201e;" horiz-adv-x="806" d="M172 183q52 0 89 -39t37 -109q0 -72 -33 -140.5t-85.5 -120t-106 -88t-106.5 -60.5q-7 -2 -13.5 1.5t-6.5 8.5q0 11 13 17q122 56 205 153.5t89 204.5q3 49 -19 80q-8 -46 -39.5 -71.5t-65.5 -25.5q-37 0 -58.5 22t-21.5 55q0 42 35.5 77t86.5 35zM542 183q52 0 88.5 -39 t36.5 -109q0 -72 -33 -140.5t-85.5 -120t-106 -88t-106.5 -60.5q-7 -2 -13 1.5t-6 8.5q0 11 13 17q122 56 205 153.5t89 204.5q3 49 -19 80q-8 -46 -39.5 -71.5t-66.5 -25.5q-37 0 -58 22t-21 55q0 42 35.5 77t86.5 35z" />
<glyph unicode="&#x2022;" horiz-adv-x="677" d="M134 483q0 94 77.5 168.5t175.5 74.5q75 0 124 -50.5t49 -123.5q0 -95 -76.5 -169t-170.5 -74q-78 0 -128.5 50.5t-50.5 123.5z" />
<glyph unicode="&#x2026;" horiz-adv-x="1191" d="M37 56q0 42 34 75t76 33q33 0 55.5 -22.5t22.5 -54.5q0 -43 -34.5 -75.5t-77.5 -32.5q-32 0 -54 22.5t-22 54.5zM402 56q0 42 34 75t76 33q33 0 55.5 -22.5t22.5 -54.5q0 -43 -34.5 -75.5t-77.5 -32.5q-32 0 -54 22.5t-22 54.5zM769 56q0 42 34 75t76 33q33 0 55.5 -22.5 t22.5 -54.5q0 -43 -34.5 -75.5t-77.5 -32.5q-32 0 -54 22.5t-22 54.5z" />
<glyph unicode="&#x202f;" horiz-adv-x="370" />
<glyph unicode="&#x2039;" horiz-adv-x="567" d="M41 455q0 -17 23 -34q69 -56 154.5 -153.5t148.5 -201.5q1 -7 11 -7q7 0 12 4.5t5 12.5v6q-37 85 -100 185.5t-140 189.5q214 160 372 373q4 5 4 11q0 14 -13 14q-8 0 -13 -7q-92 -99 -210 -192.5t-218 -156.5q-36 -22 -36 -44z" />
<glyph unicode="&#x203a;" horiz-adv-x="567" d="M525 458q0 17 -23 34q-69 56 -154.5 153.5t-148.5 201.5q-1 7 -11 7q-17 0 -17 -16v-6q37 -85 100 -185.5t140 -189.5q-108 -80 -205 -180t-167 -194q-4 -5 -4 -11q0 -13 13 -13q8 0 13 7q92 99 209.5 192t218.5 156q36 22 36 44z" />
<glyph unicode="&#x205f;" horiz-adv-x="463" />
<glyph unicode="&#x20ac;" horiz-adv-x="1296" d="M1292 1070q1 -8 -5 -13.5t-14 -5.5q-13 0 -18 17q-11 40 -35 80.5t-63 79t-99 62.5t-130 24q-95 0 -177.5 -40.5t-144 -113t-106.5 -165.5t-73 -205h486q16 0 16 -16t-16 -16h-493q-19 -81 -28 -172h485q16 0 16 -17q0 -15 -16 -15h-487q-2 -21 -4 -63 q-10 -218 68.5 -337.5t248.5 -119.5q70 0 138.5 24t120.5 62.5t90.5 79t62.5 80.5q12 17 25 17q19 0 12 -19q-15 -38 -60 -89.5t-109 -96.5q-146 -105 -315 -105q-239 0 -357.5 147t-107.5 394q0 5 0.5 13.5t0.5 12.5h-109q-16 0 -16 16t16 16h111q7 85 29 172h-103 q-16 0 -16 17q0 15 16 15h112q35 122 96.5 225t145 180.5t192.5 121.5t232 44q160 0 279 -104q50 -43 76.5 -95t26.5 -92z" />
<glyph unicode="&#x2122;" horiz-adv-x="1513" d="M753 1350l-33 -192q-3 -16 -19 -16t-12 16l5 28q10 57 -14 95t-82 38h-37q-13 0 -24 -10.5t-13 -24.5l-96 -544q-2 -15 6 -24.5t23 -9.5h22q17 0 14 -15q-4 -16 -17 -16h-246q-16 0 -16 16q2 15 19 15h21q15 0 27 10t14 24l96 544q4 35 -24 35h-26q-62 0 -104 -40 t-52 -101l-4 -20q-3 -16 -19 -16t-12 16l33 192h570zM1510 706q17 0 14 -15q-4 -16 -17 -16h-246q-14 0 -14 16q2 15 17 15h22q15 0 26.5 10t13.5 24l96 545l-345 -615h-28l-144 611l-96 -541q-2 -14 6 -24t23 -10h22q17 0 14 -16q-2 -15 -18 -15h-144q-14 0 -14 15 q4 16 17 16h21q16 0 27 10t13 24l96 544q2 15 -4.5 25t-22.5 10h-19q-15 0 -15 15q5 16 17 16h203l116 -491l280 491h195q7 0 11.5 -5.5t2.5 -12.5q0 -13 -16 -13h-23q-15 0 -27.5 -10.5t-14.5 -24.5l-96 -544q-2 -15 6 -24.5t23 -9.5h22z" />
<glyph unicode="&#x25fc;" horiz-adv-x="942" d="M0 942h942v-942h-942v942z" />
</font>
</defs>
</svg>
