<?xml version="1.0" standalone="no"?>
<!DOCTYPE svg PUBLIC "-//W3C//DTD SVG 1.1//EN" "http://www.w3.org/Graphics/SVG/1.1/DTD/svg11.dtd" >
<svg xmlns="http://www.w3.org/2000/svg">
<metadata></metadata>
<defs>
<font id="isabelbold" horiz-adv-x="1261" >
<font-face units-per-em="2048" ascent="1493" descent="-555" />
<missing-glyph horiz-adv-x="485" />
<glyph unicode="&#xfb01;" horiz-adv-x="1226" d="M1156 61q13 0 22 -8.5t9 -21.5t-8.5 -22t-22.5 -9h-457q-13 0 -22 9t-9 22t8.5 21t22.5 8h37q27 0 46 19.5t19 46.5v672q0 27 -18.5 46t-46.5 19h-295v-737q0 -27 19 -46.5t46 -19.5h36q14 0 22.5 -9t8.5 -22t-8.5 -21t-22.5 -8h-456q-14 0 -22.5 9t-8.5 22t8.5 21 t22.5 8h37q28 0 47 19.5t19 46.5v737h-103q-14 0 -22.5 8.5t-8.5 22.5q0 13 9 21.5t22 8.5h103v129q0 218 123 337.5t360 119.5q190 0 290.5 -78t100.5 -184q0 -78 -43.5 -127t-110.5 -49q-50 0 -85.5 29.5t-35.5 81.5q0 33 17.5 60.5t38 43t38 36t17.5 41.5q0 36 -51.5 62 t-141.5 26q-136 0 -200.5 -89t-64.5 -250v-189h612v-798q0 -27 19 -46t47 -19h37z" />
<glyph unicode="&#xfb02;" horiz-adv-x="1243" d="M1171 61q13 0 22 -8.5t9 -21.5t-9 -22t-22 -9h-457q-14 0 -22.5 9t-8.5 22t9 21.5t22 8.5h37q28 0 46.5 19t18.5 46v1233q0 48 -28.5 70.5t-109.5 22.5q-122 0 -179.5 -70t-57.5 -211v-247h183q14 0 22.5 -9t8.5 -22t-9 -21.5t-22 -8.5h-183v-737q0 -27 18.5 -46 t46.5 -19h51q13 0 22 -8.5t9 -22.5q0 -13 -9 -21.5t-22 -8.5h-471q-14 0 -22.5 9t-8.5 22t9 21.5t22 8.5h37q28 0 47 19t19 46v737h-103q-14 0 -22.5 8.5t-8.5 22.5q0 13 9 21.5t22 8.5h103v181q0 110 38 190.5t105 126t148 67t179 21.5q103 0 212 -25.5t197 -64.5v-1294 q0 -27 18.5 -46t46.5 -19h38z" />
<glyph horiz-adv-x="0" />
<glyph horiz-adv-x="682" />
<glyph unicode=" "  horiz-adv-x="485" />
<glyph unicode="&#x09;" horiz-adv-x="485" />
<glyph unicode="&#xa0;" horiz-adv-x="485" />
<glyph unicode="!" horiz-adv-x="458" d="M235 1518q49 0 84.5 -36t35.5 -89q0 -67 -40.5 -387t-40.5 -483q0 -21 -13 -33t-31 -12q-17 0 -30 12t-13 33q0 163 -36.5 482.5t-36.5 387.5q0 53 35 89t86 36zM108 85q0 49 35 83.5t84 34.5q48 0 83 -34.5t35 -83.5q0 -48 -35 -83.5t-83 -35.5q-49 0 -84 35.5t-35 83.5 z" />
<glyph unicode="&#x22;" horiz-adv-x="573" d="M226 1444q3 33 -21 56.5t-57 23.5q-32 0 -56 -23.5t-22 -56.5l32 -523q2 -21 15 -32.5t31 -11.5t32 12t15 34zM487 1444q3 33 -21 56.5t-57 23.5q-32 0 -55.5 -23.5t-21.5 -56.5l31 -523q2 -21 15 -32.5t31 -11.5t32 12t15 34z" />
<glyph unicode="#" horiz-adv-x="1075" d="M1042 655h-213l-51 -359h212l-8 -61h-213l-33 -235h-62l33 235h-358l-33 -235h-62l33 235h-261l8 61h262l51 359h-262l8 61h262l34 240h62l-34 -240h358l34 240h62l-34 -240h212zM716 296l51 359h-358l-51 -359h358z" />
<glyph unicode="$" horiz-adv-x="1206" d="M1116 386q0 -138 -109 -250t-302 -145v-172q0 -14 -11 -24.5t-25 -10.5q-16 0 -26.5 10.5t-10.5 24.5v163q-36 -3 -74 -3q-4 0 -12 0.5t-12 0.5v-161q0 -14 -10.5 -24.5t-24.5 -10.5q-16 0 -26.5 10.5t-10.5 24.5v167q-166 24 -271 117.5t-105 214.5q0 68 38 106t91 38 q46 0 80 -29t34 -81q0 -40 -36.5 -85t-36.5 -68q0 -43 43.5 -80t106 -56.5t124.5 -19.5q64 0 121 15.5t103.5 46.5t74 82.5t27.5 116.5q0 51 -25 91.5t-68 67.5t-98 50t-116 44.5t-122.5 45t-116.5 57t-98 75.5t-68 105t-25 141q0 157 101 254t270 125v158q0 14 11 25t26 11 q14 0 24.5 -11t10.5 -25v-150q42 2 64 2q23 0 34 -1v149q0 14 11 25t26 11q14 0 25 -11t11 -25v-157q151 -25 251.5 -109t100.5 -194q0 -71 -37.5 -110.5t-89.5 -39.5q-46 0 -81 29.5t-35 81.5q0 27 11 49.5t24.5 35.5t24.5 29.5t11 33.5q0 61 -86.5 100.5t-185.5 39.5 q-61 0 -113.5 -12.5t-96 -39.5t-68.5 -74.5t-25 -111.5q0 -48 26.5 -86t71.5 -65t103.5 -50.5t123 -46t129 -47.5t123 -60t103.5 -78.5t71.5 -107.5t26.5 -142z" />
<glyph unicode="%" horiz-adv-x="1798" d="M501 -199h-77l845 1692h77zM400 586q-167 0 -261 102t-94 286t94 285.5t261 101.5q166 0 260 -101.5t94 -285.5t-94 -286t-260 -102zM400 630q64 0 83 68t19 276q0 207 -19 275t-83 68t-83.5 -68.5t-19.5 -274.5q0 -207 19.5 -275.5t83.5 -68.5zM1399 -15 q-167 0 -261 101.5t-94 285.5t94 286t261 102q166 0 260 -102t94 -286t-94 -285.5t-260 -101.5zM1399 28q64 0 83.5 68.5t19.5 275.5q0 206 -19.5 275t-83.5 69t-83.5 -69t-19.5 -275q0 -207 19.5 -275.5t83.5 -68.5z" />
<glyph unicode="&#x26;" horiz-adv-x="1429" d="M1357 729q13 0 22 -8.5t9 -22.5q0 -13 -8.5 -21t-22.5 -8h-71q-28 0 -46.5 -19t-18.5 -46v-223q0 -177 -141 -289.5t-400 -112.5q-278 0 -428.5 109t-150.5 290q0 132 92 213t236 109q-138 29 -224 111.5t-86 214.5q0 74 30.5 133.5t81.5 98.5t121 64.5t145 36.5t157 11 q199 0 326 -92t127 -236q0 -75 -47 -118.5t-109 -43.5q-50 0 -85.5 29.5t-35.5 82.5q0 31 12 57t26.5 40.5t26.5 35t12 42.5q0 62 -56 99t-156 37q-135 0 -210 -69.5t-75 -206.5q0 -131 67.5 -213.5t190.5 -82.5h10q14 0 22.5 -8.5t8.5 -22.5q0 -13 -9 -21.5t-22 -8.5h-10 q-117 0 -189.5 -72t-72.5 -229q0 -316 273 -316q288 0 288 328v223q0 27 -18.5 46t-46.5 19h-83q-14 0 -22.5 8t-8.5 21q0 14 9 22.5t22 8.5h538z" />
<glyph unicode="'" horiz-adv-x="286" d="M221 1444q3 33 -21 56.5t-57 23.5q-32 0 -56 -23.5t-22 -56.5l32 -523q2 -21 15 -32.5t31 -11.5t32 12t15 34z" />
<glyph unicode="(" horiz-adv-x="784" d="M28 469q0 -154 29 -294t76 -243t107 -190.5t121 -145.5t119 -98.5t100.5 -58.5t65.5 -18q14 0 24.5 8.5t10.5 23.5q0 12 -21 31t-54.5 48.5t-73.5 73.5t-80.5 119t-74 172t-54.5 245.5t-21 326.5t21 326.5t54.5 245.5t74 172t80.5 119t73.5 73.5t54.5 48.5t21 31 q0 15 -10.5 23.5t-24.5 8.5q-23 0 -65.5 -18t-100.5 -58.5t-119 -98.5t-121 -145.5t-107 -190.5t-76 -243t-29 -294z" />
<glyph unicode=")" horiz-adv-x="841" d="M738 469q0 154 -29 294t-76 243t-106.5 190.5t-120.5 145.5t-119 98.5t-100.5 58.5t-65.5 18q-15 0 -25.5 -8.5t-10.5 -23.5q0 -12 21 -31t54.5 -48.5t73.5 -73.5t80.5 -119t74 -172t54.5 -245.5t21 -326.5t-21 -326.5t-54.5 -245.5t-74 -172t-80.5 -119t-73.5 -73.5 t-54.5 -48.5t-21 -31q0 -15 10.5 -23.5t25.5 -8.5q23 0 65.5 18t100.5 58.5t119 98.5t120.5 145.5t106.5 190.5t76 243t29 294z" />
<glyph unicode="*" horiz-adv-x="849" d="M424 976l-184 -251q-11 -14 -26 -14q-12 0 -21.5 8.5t-9.5 20.5q0 14 7 22l185 251l-297 95q-23 8 -23 30q0 15 12.5 24t30.5 3l296 -95v310q0 16 9 24.5t21 8.5t21 -8.5t9 -24.5v-310l294 95q1 0 6.5 1.5t7.5 1.5q14 0 22.5 -8.5t8.5 -20.5q0 -23 -25 -31l-296 -95 l184 -251q8 -11 8 -24t-8.5 -21.5t-20.5 -8.5q-16 0 -29 17z" />
<glyph unicode="+" horiz-adv-x="751" d="M665 535q13 0 22 -8.5t9 -22.5q0 -13 -8.5 -21t-22.5 -8h-260v-259q0 -14 -8.5 -22.5t-22.5 -8.5q-13 0 -21 8.5t-8 22.5v259h-259q-14 0 -22.5 8.5t-8.5 22.5q0 13 8.5 21t22.5 8h259v260q0 13 8.5 22t22.5 9q13 0 21 -8.5t8 -22.5v-260h260z" />
<glyph unicode="," horiz-adv-x="460" d="M242 230q78 0 120 -56.5t42 -150.5q0 -114 -59.5 -214t-155.5 -165q-10 -7 -20 -2.5t-10.5 14.5t9.5 22q70 70 106 155.5t26 156.5q-25 -20 -69 -20q-52 0 -89 35t-37 90q0 59 39.5 97t97.5 38z" />
<glyph unicode="-" horiz-adv-x="647" d="M564 527q14 0 22.5 -8.5t8.5 -22.5q0 -13 -8.5 -21t-22.5 -8h-482q-14 0 -22.5 8.5t-8.5 22.5q0 13 8.5 21t22.5 8h482z" />
<glyph unicode="." horiz-adv-x="454" d="M99 105q0 53 38 90.5t91 37.5t90 -37.5t37 -90.5t-37.5 -90.5t-89.5 -37.5q-53 0 -91 37.5t-38 90.5z" />
<glyph unicode="/" horiz-adv-x="448" d="M153 -121h-61l338 1610h63z" />
<glyph unicode="0" horiz-adv-x="1187" d="M593 -21q-233 0 -373 178t-140 521q0 173 38 306t107 217t161.5 126.5t206.5 42.5q235 0 374.5 -175.5t139.5 -516.5q0 -343 -140 -521t-374 -178zM593 38q121 0 166 143.5t45 496.5q0 351 -45 492.5t-166 141.5q-120 0 -164.5 -141.5t-44.5 -492.5q0 -353 44.5 -496.5 t164.5 -143.5z" />
<glyph unicode="1" horiz-adv-x="698" d="M626 61q13 0 22 -8.5t9 -21.5t-8.5 -22t-22.5 -9h-540q-14 0 -22.5 9t-8.5 22t8.5 21t22.5 8h85q29 0 47 19t18 45v1072h-150q-14 0 -22.5 9t-8.5 22t8.5 21t22.5 8h37q120 0 187.5 21.5t126.5 61.5q43 29 57 29q13 0 21.5 -9t8.5 -23v-1212q0 -26 18 -44.5t47 -18.5h37z " />
<glyph unicode="2" horiz-adv-x="1157" d="M1054 379v-82q0 -170 -77 -242.5t-213 -72.5q-97 0 -256.5 44t-224.5 44q-38 0 -60.5 -14t-28.5 -30t-17.5 -30t-29.5 -14q-13 0 -21 8.5t-8 22.5v76q0 102 21 187t57 145.5t83 111.5t98.5 90t102.5 75t98 72.5t83 76.5t57 93.5t21 117.5q0 123 -67.5 184t-176.5 61 q-88 0 -144.5 -37t-56.5 -87q0 -27 13.5 -52t29.5 -42t29.5 -44t13.5 -58q0 -55 -37.5 -87.5t-91.5 -32.5q-61 0 -105 44.5t-44 126.5q0 64 30 123.5t85.5 107t143.5 76t195 28.5q142 0 249 -36.5t172 -117.5t65 -198q0 -83 -28.5 -150t-77 -112.5t-111.5 -83t-133.5 -68 t-140.5 -60t-134.5 -66t-115 -80t-82 -108t-34.5 -143.5q36 77 93.5 108.5t140.5 31.5q59 0 192.5 -23.5t198.5 -23.5q87 0 135.5 38t48.5 104q0 13 8.5 21t22.5 8q13 0 21 -8.5t8 -22.5z" />
<glyph unicode="3" horiz-adv-x="1181" d="M620 739q135 -9 228.5 -40t142 -80t68.5 -103.5t20 -123.5q0 -86 -32.5 -160t-95 -131t-161.5 -89.5t-224 -32.5q-205 0 -334.5 94.5t-129.5 240.5q0 83 42.5 127t103.5 44q55 0 96.5 -35t41.5 -92q0 -28 -12.5 -52t-27 -38t-27 -34.5t-12.5 -43.5q0 -55 56 -96t155 -41 q115 0 186.5 85.5t71.5 245.5q0 80 -18.5 140t-50 93t-67 49t-74.5 16h-7q-18 0 -29 10.5t-11 26.5q0 14 9 24t33 28q169 118 238 189q65 59 109 126q-54 -24 -141 -24q-59 0 -191 23.5t-198 23.5q-87 0 -135 -38t-48 -104q0 -13 -8.5 -21t-22.5 -8q-13 0 -21.5 9t-8.5 22 v82q0 170 77 242.5t214 72.5q77 0 164 -22t165.5 -44t136.5 -22q38 0 60.5 14.5t29 32t18 32t29.5 14.5q13 0 21 -8.5t8 -22.5v-28q0 -71 -26 -141t-66 -126t-101 -114.5t-116.5 -101t-127.5 -90.5z" />
<glyph unicode="4" horiz-adv-x="1142" d="M1054 321q14 0 22.5 -8.5t8.5 -22.5q0 -13 -9 -21.5t-22 -8.5h-129v-136q0 -26 18 -45t47 -19h38q14 0 22.5 -8t8.5 -21t-8.5 -22t-22.5 -9h-493q-13 0 -22 9t-9 22t8.5 21t22.5 8h37q29 0 47 19t18 45v136h-614v59q109 88 192 188t131.5 190.5t79.5 186.5t41.5 172.5 t10.5 153.5q0 76 45.5 118.5t107.5 42.5t107 -42.5t45 -118.5q0 -77 -22 -162t-72 -183t-123.5 -190.5t-185 -185.5t-247.5 -168h504v346q163 153 226 311q12 28 36 28q11 0 18.5 -7.5t7.5 -21.5v-656h129z" />
<glyph unicode="5" horiz-adv-x="1171" d="M563 -21q-205 0 -334 94.5t-129 240.5q0 83 42.5 127t102.5 44q55 0 96.5 -35.5t41.5 -92.5q0 -28 -12 -51.5t-27 -37.5t-27 -34.5t-12 -43.5q0 -55 56 -96t154 -41q114 0 178.5 84t64.5 246q0 155 -81 231.5t-219 76.5q-64 0 -121.5 -13.5t-93.5 -26.5t-47 -13 q-35 0 -31 38l73 656q111 31 206 31q107 0 238.5 -30.5t180.5 -30.5q35 0 58.5 9t34.5 21t18 24.5t16 21.5t23 9q29 0 29 -37q0 -150 -64.5 -223.5t-183.5 -73.5q-81 0 -204.5 28t-183.5 28q-73 0 -135 -34l-41 -361q147 52 311 52q81 0 155.5 -13.5t141.5 -43t116.5 -72 t78.5 -105.5t29 -140q0 -86 -30.5 -160t-90 -131t-156.5 -89.5t-222 -32.5z" />
<glyph unicode="6" horiz-adv-x="1144" d="M593 -21q-246 0 -379.5 176t-133.5 512q0 339 141 521t423 182q99 0 188 -33.5t148.5 -104t59.5 -162.5q0 -81 -41 -123.5t-100 -42.5q-52 0 -92.5 34t-40.5 89q0 28 12 51t27 36t27 33t12 44q0 52 -56 87.5t-144 35.5q-153 0 -217 -161t-58 -533q31 95 116.5 144 t182.5 49q74 0 143.5 -24.5t126.5 -72t91 -125t34 -174.5q0 -195 -134.5 -316.5t-335.5 -121.5zM587 38q99 0 145.5 91.5t46.5 252.5q0 352 -179 352q-95 0 -153 -95t-59 -252q0 -159 51 -254t148 -95z" />
<glyph unicode="7" horiz-adv-x="1009" d="M69 972v82q0 170 77 242.5t213 72.5q77 0 157.5 -22t152.5 -44t130 -22q31 0 51.5 9t29 22t15 26t16 22t24.5 9q13 0 21 -8.5t8 -22.5v-75q0 -112 -18.5 -207.5t-48.5 -165.5t-66.5 -135t-74.5 -129t-70.5 -131.5t-56 -159t-30.5 -196.5q-6 -75 -49.5 -116t-103.5 -41 q-62 0 -107.5 43t-45.5 119q0 93 20 173.5t54 141t78 114t93 98.5t98.5 89t95 91t81 97.5t58.5 116t26 140.5q-36 -77 -93.5 -108.5t-140.5 -31.5q-59 0 -172 23.5t-179 23.5q-87 0 -135 -37t-48 -105q0 -13 -8.5 -21t-22.5 -8q-13 0 -21 8.5t-8 22.5z" />
<glyph unicode="8" horiz-adv-x="1120" d="M770 710q126 -41 198 -130.5t72 -203.5q0 -181 -132.5 -289t-347.5 -108t-347.5 108t-132.5 289q0 114 72 203.5t198 130.5q-122 34 -187 116.5t-65 208.5q0 155 124.5 245t337.5 90t337.5 -90t124.5 -245q0 -126 -65 -208.5t-187 -116.5zM560 1310q-169 0 -169 -282 q0 -138 36.5 -211t132.5 -73q51 0 85 20.5t52 60.5t25.5 88t7.5 115q0 282 -170 282zM560 39q102 0 145 78.5t43 244.5q0 320 -188 320q-187 0 -187 -320q0 -166 43 -244.5t144 -78.5z" />
<glyph unicode="9" horiz-adv-x="1144" d="M552 1370q246 0 379.5 -176t133.5 -512q0 -339 -141 -521t-423 -182q-99 0 -188 33.5t-148.5 104t-59.5 162.5q0 81 41 124t100 43q52 0 92.5 -34t40.5 -89q0 -28 -12 -51t-27 -36t-27 -33t-12 -44q0 -52 56 -88t144 -36q153 0 217 161t58 533q-21 -65 -71.5 -109.5 t-108.5 -63.5t-119 -19q-59 0 -115 15t-107 47t-89.5 77.5t-61 111.5t-22.5 144q0 195 134.5 316.5t335.5 121.5zM558 1312q-99 0 -145.5 -91.5t-46.5 -252.5q0 -353 179 -353q95 0 153 95t59 252q0 160 -51 255t-148 95z" />
<glyph unicode=":" horiz-adv-x="512" d="M99 779q0 53 38 90.5t91 37.5t90 -37.5t37 -90.5t-37.5 -90.5t-89.5 -37.5q-53 0 -91 37.5t-38 90.5zM99 111q0 53 38 90.5t91 37.5t90 -37.5t37 -90.5t-37.5 -90.5t-89.5 -37.5q-53 0 -91 37.5t-38 90.5z" />
<glyph unicode=";" horiz-adv-x="512" d="M268 653q-53 0 -91 37.5t-38 90.5t38 90.5t91 37.5t90 -37.5t37 -90.5t-37.5 -90.5t-89.5 -37.5zM247 230q78 0 120 -56.5t42 -150.5q0 -114 -59 -214t-155 -165q-10 -7 -20 -2.5t-11 14.5t9 22q70 71 106.5 156t26.5 156q-25 -20 -69 -20q-52 0 -89 35t-37 90 q0 59 39 97t97 38z" />
<glyph unicode="&#x3c;" horiz-adv-x="690" d="M59 548l477 309q19 13 35.5 5.5t15.5 -23.5t-18 -30l-406 -261l406 -261q18 -12 17.5 -29.5t-15 -23t-35.5 5.5z" />
<glyph unicode="=" horiz-adv-x="940" d="M103 627q-13 0 -22 8.5t-9 22.5q0 13 8.5 21t22.5 8h236h482q13 0 22 -8.5t9 -22.5q0 -13 -8.5 -21t-22.5 -8h-83h-153h-84h-398zM821 447q13 0 22 -8.5t9 -22.5q0 -13 -8.5 -21t-22.5 -8h-236h-482q-13 0 -22 8.5t-9 22.5q0 13 8.5 21t22.5 8h83h153h84h398z" />
<glyph unicode="&#x3e;" horiz-adv-x="690" d="M631 548l-478 -308q-19 -13 -35.5 -5.5t-15.5 23t18 29.5l406 261l-406 261q-18 12 -17.5 30t15 23.5t35.5 -5.5z" />
<glyph unicode="?" horiz-adv-x="1007" d="M449 1443q-74 0 -131.5 -38.5t-57.5 -90.5q0 -29 20.5 -54t41 -52t20.5 -61q0 -57 -36.5 -90t-86.5 -33q-68 0 -107 46t-39 119q0 80 34.5 143.5t92.5 103t130 60t151 20.5q116 0 213.5 -33.5t161.5 -105.5t64 -170q0 -69 -26 -130.5t-67 -109.5t-91 -95t-99.5 -97.5 t-90.5 -106t-67 -131.5t-26 -163v-101q0 -15 -10.5 -26t-25.5 -11q-16 0 -26.5 10.5t-10.5 26.5v172q0 115 29.5 211.5t71.5 163t84 125.5t71.5 126t29.5 138q0 62 -18 109t-49.5 73.5t-69 39t-80.5 12.5zM286 -209q0 55 38.5 93.5t94.5 38.5q53 0 91 -38.5t38 -93.5 q0 -53 -38 -91t-91 -38q-55 0 -94 38t-39 91z" />
<glyph unicode="@" horiz-adv-x="1947" d="M1432 10q-122 0 -209 65t-87 174q-101 -201 -300 -201q-153 0 -255.5 109t-102.5 303q0 192 102 302.5t256 110.5q200 0 300 -199v183h203v-604q0 -87 35.5 -135t91.5 -48q87 0 153.5 107t66.5 321q0 338 -195.5 542t-515.5 204q-158 0 -290.5 -55t-226 -154t-145 -242.5 t-51.5 -315.5t51.5 -315.5t145 -242.5t226 -154t290.5 -55q19 0 27.5 -15t0.5 -29.5t-28 -14.5q-137 0 -268 37.5t-242 110.5t-195 172t-131.5 229.5t-47.5 276.5t47.5 276.5t131.5 229.5t195 172t242 110.5t268 37.5q171 0 330.5 -58.5t282 -161.5t196 -255.5t73.5 -329.5 q0 -104 -25.5 -188.5t-67.5 -139t-98 -91.5t-114.5 -53t-119.5 -16zM898 116q96 0 169.5 105t73.5 238q0 137 -74.5 242t-168.5 105q-203 0 -203 -346q0 -344 203 -344z" />
<glyph unicode="A" horiz-adv-x="1458" d="M1421 61q13 0 22 -9t9 -22t-9 -21.5t-22 -8.5h-579q-13 0 -22 8.5t-9 21.5t9 22t22 9h73q32 0 47.5 20.5t2.5 50.5l-117 279h-483l-112 -279q-11 -28 3.5 -49.5t45.5 -21.5h74q13 0 22 -9t9 -22t-9 -21.5t-22 -8.5h-339q-13 0 -22 8.5t-9 21.5t9 22t22 9h49 q38 0 58.5 17.5t35.5 53.5l498 1228h85l513 -1230q30 -69 100 -69h45zM390 470h433l-221 529z" />
<glyph unicode="B" horiz-adv-x="1366" d="M838 707q449 -32 449 -331q0 -183 -145.5 -279.5t-418.5 -96.5h-643q-14 0 -22.5 9t-8.5 22t9 21.5t22 8.5h37q29 0 47.5 18.5t18.5 44.5l-1 1101q0 26 -18 45t-47 19h-37q-13 0 -22 8.5t-9 21.5t8.5 22t22.5 9h598q113 0 204 -16t165.5 -51t115.5 -97.5t41 -147.5 q0 -126 -92 -214.5t-274 -116.5zM471 1225v-502h123q129 0 212.5 76t83.5 215q0 127 -74.5 200.5t-230.5 74.5h-52q-27 0 -44.5 -19.5t-17.5 -44.5zM626 61q157 0 251 84.5t94 226.5q0 134 -92 210.5t-253 76.5h-155v-535q0 -26 18.5 -44.5t47.5 -18.5h89z" />
<glyph unicode="C" horiz-adv-x="1372" d="M1106 1143q0 63 -84 111.5t-209 48.5q-68 0 -126.5 -19t-112 -65t-91 -116.5t-60 -180t-22.5 -248.5q0 -282 110.5 -446t310.5 -164q125 0 225.5 59t152.5 151q23 38 45 38q13 0 21.5 -9t7.5 -22q-8 -49 -76 -118q-162 -184 -432 -184q-160 0 -289.5 53t-214.5 146.5 t-130.5 220.5t-45.5 275q0 204 85 362t241.5 246t358.5 88q225 0 365.5 -101t140.5 -242q0 -83 -40.5 -127t-96.5 -44q-49 0 -85.5 32t-36.5 85q0 28 14 53t30 40t30 36t14 41z" />
<glyph unicode="D" horiz-adv-x="1497" d="M612 1350q186 0 328.5 -35t250 -111.5t164 -207t56.5 -312.5q0 -147 -53 -271.5t-152 -216.5t-251.5 -144t-342.5 -52h-532q-14 0 -22.5 9t-8.5 22t9 21.5t22 8.5h37q28 0 46.5 16.5t18.5 40.5v1113q0 24 -18.5 41t-46.5 17h-37q-13 0 -22 8.5t-9 21.5t8.5 22t22.5 9h532 zM612 61q103 0 190 38.5t153 113.5t103 195.5t37 275.5q0 310 -126.5 457.5t-356.5 147.5h-77q-28 0 -46.5 -17t-18.5 -41v-1112q0 -24 18.5 -41t46.5 -17h77z" />
<glyph unicode="E" horiz-adv-x="1273" d="M1086 394q13 0 21 -8.5t8 -22.5v-363h-1035q-14 0 -22.5 9t-8.5 22t8.5 21t22.5 8h38q28 0 46.5 17t18.5 41l-1 1112q0 24 -18.5 41.5t-46.5 17.5h-37q-13 0 -22 8.5t-9 21.5t8.5 22t22.5 9h1033v-364q0 -14 -8.5 -22.5t-22.5 -8.5q-13 0 -21.5 9t-8.5 22v35 q0 113 -66 190.5t-186 77.5h-265q-28 0 -46.5 -17t-18.5 -41v-497h73q114 0 161.5 43t47.5 140v9q0 13 9 22t22 9t22 -9t9 -22v-448q0 -13 -9 -22t-22 -9t-22 10t-9 26v10q0 93 -47 135.5t-162 42.5h-73v-552q0 -24 18.5 -41t46.5 -17h268q120 0 186 77.5t66 190.5v34 q0 13 8.5 22t22.5 9z" />
<glyph unicode="F" horiz-adv-x="1196" d="M80 1350h1002v-364q0 -14 -9 -22.5t-22 -8.5t-21.5 9t-8.5 22v35q0 113 -66 190.5t-186 77.5h-234q-28 0 -46.5 -17t-18.5 -41v-497h95q114 0 161.5 43t47.5 140v9q0 13 9 22t22 9t22 -9t9 -22v-447q0 -13 -9 -22t-22 -9t-22 9.5t-9 25.5v10q0 93 -47 135.5t-162 42.5 h-95v-552q0 -24 18.5 -41t46.5 -17h93q14 0 22.5 -8.5t8.5 -22.5q0 -13 -9 -21.5t-22 -8.5h-548q-14 0 -22.5 9t-8.5 22t9 21.5t22 8.5h37q28 0 46.5 17t18.5 41v1112q0 24 -18.5 41t-46.5 17h-37q-13 0 -22 8.5t-9 21.5t8.5 22t22.5 9z" />
<glyph unicode="G" horiz-adv-x="1462" d="M1307 124q-116 -67 -258 -106t-270 -39q-315 0 -504 192.5t-189 502.5q0 206 90 365.5t247.5 245t357.5 85.5q216 0 358.5 -99.5t142.5 -243.5q0 -83 -40.5 -127t-96.5 -44q-49 0 -85 32t-36 85q0 28 13.5 53t30 40t30 36t13.5 41q0 65 -86 112.5t-203 47.5 q-65 0 -122.5 -18t-113.5 -63t-96 -114.5t-64.5 -180.5t-24.5 -253q0 -285 118.5 -449t318.5 -164q94 0 181 32v398q0 26 -18 45t-47 19h-95q-14 0 -22.5 8t-8.5 21q0 14 9 22.5t22 8.5h448v-491z" />
<glyph unicode="H" horiz-adv-x="1527" d="M1447 61q13 0 22 -8.5t9 -21.5t-9 -22t-22 -9h-492q-13 0 -22 9t-9 22t9 21.5t22 8.5h37q28 0 46.5 17t18.5 41v560h-587v-560q0 -24 18.5 -41t46.5 -17h37q13 0 22 -8.5t9 -21.5t-8.5 -22t-22.5 -9h-492q-14 0 -22.5 9t-8.5 22t9 21.5t22 8.5h37q28 0 46.5 17t18.5 41 v1112q0 24 -18.5 41t-46.5 17h-37q-13 0 -22 8.5t-9 21.5t8.5 22t22.5 9h492q14 0 22.5 -9t8.5 -22t-9 -21.5t-22 -8.5h-37q-28 0 -46.5 -17t-18.5 -41v-491h587v491q0 24 -18.5 41t-46.5 17h-37q-13 0 -22 8.5t-9 21.5t9 22t22 9h492q13 0 22 -9t9 -22t-9 -21.5t-22 -8.5 h-37q-28 0 -46.5 -17t-18.5 -41v-1112q0 -24 18.5 -41t46.5 -17h37z" />
<glyph unicode="I" horiz-adv-x="651" d="M572 61q13 0 22 -8.5t9 -21.5t-8.5 -22t-22.5 -9h-492q-14 0 -22.5 9t-8.5 22t9 21.5t22 8.5h37q28 0 46.5 17t18.5 41v1112q0 24 -18.5 41t-46.5 17h-37q-13 0 -22 8.5t-9 21.5t8.5 22t22.5 9h492q14 0 22.5 -9t8.5 -22t-9 -21.5t-22 -8.5h-37q-28 0 -46.5 -17 t-18.5 -41v-1112q0 -24 18.5 -41t46.5 -17h37z" />
<glyph unicode="J" horiz-adv-x="649" d="M570 1350q14 0 22.5 -9t8.5 -22t-9 -21.5t-22 -8.5h-37q-29 0 -47 -19t-18 -45v-1396q0 -99 -50.5 -171.5t-127 -106.5t-165.5 -34q-122 0 -210 66t-88 181q0 61 37 95.5t88 34.5q48 0 81.5 -30t34.5 -84q-1 -30 -25 -70t-24 -66q0 -31 22 -48t55 -17q53 0 82 54t29 139 q0 42 -13.5 120.5t-13.5 148.5v1184q0 26 -18 45t-47 19h-37q-13 0 -22 8.5t-9 21.5t8.5 22t22.5 9h492z" />
<glyph unicode="K" horiz-adv-x="1400" d="M572 61q13 0 22 -8.5t9 -21.5t-8.5 -22t-22.5 -9h-492q-14 0 -22.5 9t-8.5 22t9 21.5t22 8.5h37q28 0 46.5 17t18.5 41v1112q0 24 -18.5 41t-46.5 17h-37q-13 0 -22 8.5t-9 21.5t8.5 22t22.5 9h492q14 0 22.5 -9t8.5 -22t-9 -21.5t-22 -8.5h-37q-28 0 -46.5 -17 t-18.5 -41v-1112q0 -24 18.5 -41t46.5 -17h37zM1359 61q13 0 22 -8.5t9 -22.5q0 -13 -9 -21.5t-22 -8.5h-523q-14 0 -22.5 9t-8.5 22t9 21.5t22 8.5h21q33 0 41 19.5t-11 44.5l-393 539l590 566q21 19 12.5 39t-41.5 20h-62q-13 0 -22 8.5t-9 22.5q0 13 9 21.5t22 8.5h346 q13 0 22 -9t9 -22t-9 -21.5t-22 -8.5h-20q-45 0 -74 -12.5t-65 -46.5l-441 -424l507 -698q34 -47 92 -47h21z" />
<glyph unicode="L" horiz-adv-x="1103" d="M1061 389q13 0 21 -8.5t8 -22.5v-358h-1010q-14 0 -22.5 9t-8.5 22t9 21.5t22 8.5h37q28 0 46.5 16.5t18.5 40.5v1113q0 24 -18.5 41t-46.5 17h-37q-13 0 -22 8.5t-9 21.5t8.5 22t22.5 9h492q14 0 22.5 -9t8.5 -22t-9 -21.5t-22 -8.5h-37q-28 0 -46.5 -17t-18.5 -41 v-1112q0 -24 18.5 -41.5t46.5 -17.5h243q115 0 183.5 82.5t68.5 187.5v28q0 14 9 22.5t22 8.5z" />
<glyph unicode="M" horiz-adv-x="1789" d="M843 -11h-84l-504 1222v-1087q0 -26 18 -44.5t47 -18.5h37q13 0 22 -8.5t9 -22.5q0 -13 -9 -21.5t-22 -8.5h-277q-13 0 -22 8.5t-9 21.5q0 14 8.5 22.5t22.5 8.5h37q29 0 47 18.5t18 44.5v1101q0 26 -18 45t-47 19h-37q-14 0 -22.5 8.5t-8.5 22.5q0 13 9 21.5t22 8.5h424 l409 -990l388 990h409q14 0 22.5 -9t8.5 -22t-9 -21.5t-22 -8.5h-38q-29 0 -47 -19t-18 -45v-1101q0 -26 18.5 -44.5t47.5 -18.5h37q13 0 22 -8.5t9 -21.5t-8.5 -22t-22.5 -9h-493q-13 0 -22 9t-9 22t9 21.5t22 8.5h38q28 0 46 18.5t19 43.5l-1 1086z" />
<glyph unicode="N" horiz-adv-x="1353" d="M1274 1350q13 0 22 -8.5t9 -21.5q0 -14 -8.5 -22.5t-22.5 -8.5h-37q-29 0 -47 -19t-18 -45v-1225h-140l-777 1053v-929q0 -26 18 -44.5t47 -18.5h37q13 0 22 -8.5t9 -22.5q0 -13 -9 -21.5t-22 -8.5h-277q-13 0 -22 8.5t-9 21.5q0 14 8.5 22.5t22.5 8.5h37q29 0 47 18.5 t18 44.5v1101q0 26 -18 45t-47 19h-37q-14 0 -22.5 8.5t-8.5 22.5q0 13 9 21.5t22 8.5h290l730 -986v861q0 26 -18.5 45t-47.5 19h-37q-13 0 -22 8.5t-9 22.5q0 13 9 21.5t22 8.5h277z" />
<glyph unicode="O" horiz-adv-x="1552" d="M776 1369q155 0 285.5 -53.5t219 -146t137.5 -219.5t49 -273t-49 -274t-137.5 -222t-219 -148t-285.5 -54q-156 0 -286.5 54t-218 148t-136.5 222t-49 274q0 117 30.5 222t90.5 190.5t142.5 148.5t192 97t234.5 34zM776 41q103 0 178 50t117 140t61 200t19 246t-19 245 t-61 198t-117 138t-178 49t-178 -49t-117 -138t-61 -198t-19 -245t19 -246t61 -200t117 -140t178 -50z" />
<glyph unicode="P" d="M1214 953q0 -191 -143.5 -309.5t-412.5 -118.5h-188v-406q0 -24 18.5 -41t46.5 -17h89q14 0 22.5 -8.5t8.5 -22.5q0 -13 -9 -21.5t-22 -8.5h-544q-14 0 -22.5 9t-8.5 22t9 21.5t22 8.5h37q28 0 46.5 17t18.5 41v1112q0 24 -18.5 41t-46.5 17h-37q-13 0 -22 8.5t-9 21.5 t8.5 22t22.5 9h578q269 0 412.5 -111t143.5 -286zM470 585h125q148 0 228 99t80 269q0 72 -17.5 131.5t-53 106t-96 72.5t-141.5 26h-60q-28 0 -46.5 -17t-18.5 -41v-646z" />
<glyph unicode="Q" horiz-adv-x="1552" d="M776 1369q155 0 285.5 -53.5t219 -146t137.5 -219.5t49 -273t-49 -274t-137.5 -222t-219 -148t-285.5 -54q-156 0 -286.5 54t-218 148t-136.5 222t-49 274q0 117 30.5 222t90.5 190.5t142.5 148.5t192 97t234.5 34zM776 41q103 0 178 50t117 140t61 200t19 246t-19 245 t-61 198t-117 138t-178 49t-178 -49t-117 -138t-61 -198t-19 -245t19 -246t61 -200t117 -140t178 -50zM1250 -528q-87 0 -170.5 27.5t-146.5 68.5t-128 89.5t-116 89.5t-109 68.5t-110 27.5q-53 0 -90.5 -40t-37.5 -105q0 -15 -9 -23t-21 -8t-20.5 8t-8.5 23q0 113 86 183 t207 70q75 0 150 -29t133.5 -73t121.5 -95t115 -95t112.5 -73t115.5 -29q71 0 111 37t40 86q0 24 -10.5 43t-25 33l-29 28t-25 34t-10.5 44q0 49 32.5 78t77.5 29q51 0 85.5 -38t34.5 -109q0 -44 -11.5 -89.5t-39 -93t-67 -84t-101.5 -60t-136 -23.5z" />
<glyph unicode="R" horiz-adv-x="1359" d="M1344 95q24 0 24 -25q0 -34 -58.5 -62t-136.5 -28q-83 0 -140.5 22t-87.5 59t-47.5 85.5t-26 101.5t-17.5 106t-27 101.5t-48 85.5t-88.5 59t-141.5 22h-79v-503q0 -24 18.5 -41t46.5 -17h37q13 0 22 -8.5t9 -21.5t-8.5 -22t-22.5 -9h-492q-14 0 -22.5 9t-8.5 22t9 21.5 t22 8.5h37q28 0 46.5 17t18.5 41v1112q0 24 -18.5 41t-46.5 17h-37q-13 0 -22 8.5t-9 21.5t8.5 22t22.5 9h598q243 0 372.5 -88.5t129.5 -251.5q0 -133 -99.5 -224.5t-277.5 -123.5q89 -16 154.5 -51.5t99.5 -80t56.5 -97.5t29 -105t14 -100.5t13.5 -85.5t26 -59t53 -22 q30 0 57 17t38 17zM470 684h124q79 0 136 27.5t87.5 74.5t44 100t13.5 115q0 128 -73.5 208t-228.5 80h-38q-28 0 -46.5 -17t-18.5 -41v-547z" />
<glyph unicode="S" horiz-adv-x="1206" d="M558 -21q-201 0 -336.5 100t-135.5 239q0 68 38 106t91 38q46 0 80 -29t34 -81q0 -40 -36.5 -85t-36.5 -68q0 -43 43.5 -80t106 -56.5t124.5 -19.5q64 0 121 15.5t103.5 46.5t74 82.5t27.5 116.5q0 51 -25 91.5t-68 67.5t-98 50t-116 44.5t-122.5 45t-116.5 57t-98 75.5 t-68 105t-25 141q0 188 141.5 288.5t365.5 100.5q121 0 226 -40.5t169 -113t64 -158.5q0 -71 -37.5 -110.5t-89.5 -39.5q-46 0 -81 29.5t-35 81.5q0 27 11 49.5t24.5 35.5t24.5 29.5t11 33.5q0 61 -86.5 100.5t-185.5 39.5q-61 0 -113.5 -12.5t-96 -39.5t-68.5 -74.5 t-25 -111.5q0 -48 26.5 -86t71.5 -65t103.5 -50.5t123 -46t129 -47.5t123 -60t103.5 -78.5t71.5 -107.5t26.5 -142t-37 -150.5t-105.5 -130t-176.5 -92t-239 -34.5z" />
<glyph unicode="T" horiz-adv-x="1226" d="M1194 1350v-364q0 -14 -9 -22.5t-22 -8.5t-21.5 9t-8.5 22v35q0 113 -66 190.5t-186 77.5h-59q-28 0 -46 -17t-18 -41v-1112q0 -24 18.5 -41t46.5 -17h37q13 0 22 -8.5t9 -21.5t-8.5 -22t-22.5 -9h-492q-14 0 -22.5 9t-8.5 22t9 21.5t22 8.5h37q28 0 46.5 16.5t18.5 40.5 l-1 1113q0 24 -18 41t-46 17h-48q-126 0 -194.5 -78t-68.5 -202v-23q0 -14 -9 -22.5t-22 -8.5t-21 8.5t-8 22.5v364h1160z" />
<glyph unicode="U" horiz-adv-x="1433" d="M1354 1350q13 0 22 -8.5t9 -21.5q0 -14 -8.5 -22.5t-22.5 -8.5h-37q-29 0 -47.5 -19t-18.5 -45v-722q0 -138 -39 -241t-110 -164t-163 -90t-205 -29q-85 0 -162.5 17t-149.5 56.5t-124.5 98.5t-84 150t-31.5 204v720q0 26 -18 45t-47 19h-37q-13 0 -22 8.5t-9 21.5 t8.5 22t22.5 9h492q14 0 22.5 -9t8.5 -22t-9 -21.5t-22 -8.5h-37q-29 0 -47 -19t-18 -45v-745q0 -207 92 -307t250 -100q164 0 265.5 103t101.5 310v739q0 26 -18 45t-47 19h-37q-13 0 -22 8.5t-9 22.5q0 13 9 21.5t22 8.5h277z" />
<glyph unicode="V" horiz-adv-x="1458" d="M1421 1350q13 0 22 -8.5t9 -21.5t-9 -22t-22 -9h-49q-38 0 -58.5 -17.5t-35.5 -54.5l-498 -1228h-84l-514 1230q-30 70 -100 70h-45q-13 0 -22 9t-9 22t9 21.5t22 8.5h580q13 0 22 -8.5t9 -21.5t-9 -22t-22 -9h-74q-32 0 -47 -21t-2 -51l362 -866l349 866q11 28 -4 50 t-45 22h-74q-13 0 -22 9t-9 22t9 21.5t22 8.5h339z" />
<glyph unicode="W" horiz-adv-x="1990" d="M1954 1350q14 0 22.5 -9t8.5 -22t-9 -21.5t-22 -8.5h-53q-64 0 -85 -64l-402 -1232h-84l-331 921l-306 -921h-84l-435 1232q-24 64 -75 64h-62q-13 0 -22 8.5t-9 22.5q0 13 9 21.5t22 8.5h568q13 0 22 -9t9 -22t-9 -21.5t-22 -8.5h-77q-30 0 -43.5 -18t-4.5 -46l278 -841 l320 966h72l326 -959l268 834q9 27 -4 45.5t-41 18.5h-80q-13 0 -22 8.5t-9 22.5q0 13 9 21.5t22 8.5h335z" />
<glyph unicode="X" horiz-adv-x="1331" d="M1289 61q13 0 22 -8.5t9 -22.5q0 -13 -9 -21.5t-22 -8.5h-522q-13 0 -22 9t-9 22t9 21.5t22 8.5h36q34 0 47.5 18t-2.5 45l-274 454l-297 -454q-16 -26 -4 -44.5t44 -18.5h38q13 0 22 -8.5t9 -22.5q0 -13 -9 -21.5t-22 -8.5h-308q-13 0 -22 9t-9 22t9 21.5t22 8.5h35 q72 0 114 63l338 519l-354 582q-24 38 -46.5 51t-56.5 13h-13q-14 0 -22.5 8.5t-8.5 22.5q0 13 9 21.5t22 8.5h510q14 0 22.5 -9t8.5 -22t-9 -21.5t-22 -8.5h-20q-34 0 -47.5 -18t2.5 -46l251 -416l270 416q16 24 4.5 44t-42.5 20h-35q-13 0 -22 8.5t-9 22.5q0 13 9 21.5 t22 8.5h293q14 0 22.5 -9t8.5 -22t-9 -21.5t-22 -8.5h-26q-71 0 -113 -64l-312 -481l375 -620q23 -38 46 -50.5t59 -12.5h10z" />
<glyph unicode="Y" horiz-adv-x="1302" d="M1269 1350q13 0 21.5 -8.5t8.5 -21.5t-8.5 -22t-21.5 -9h-36q-29 0 -55.5 -16.5t-40.5 -42.5l-330 -620v-486q0 -26 18 -45t47 -19h37q14 0 22.5 -8t8.5 -21t-9 -22t-22 -9h-492q-13 0 -22 9t-9 22t8.5 21t22.5 8h37q29 0 47 19t18 45v420l-372 686q-16 29 -33.5 44 t-46.5 15h-33q-14 0 -22.5 8.5t-8.5 22.5q0 13 9 21.5t22 8.5h516q13 0 21 -8.5t8 -21.5q0 -14 -8 -22.5t-21 -8.5h-34q-35 0 -47 -15.5t3 -43.5l294 -552l290 552q12 22 -1 40.5t-43 18.5h-30q-14 0 -22.5 8.5t-8.5 22.5q0 13 9 21.5t22 8.5h287z" />
<glyph unicode="Z" horiz-adv-x="1271" d="M1138 394q13 0 21.5 -9t8.5 -22v-363h-1070v78l722 1211h-367q-126 0 -194.5 -78t-68.5 -202v-23q0 -14 -9 -22.5t-22 -8.5t-21.5 9t-8.5 22v364h1030v-61l-735 -1228h431q120 0 186 77.5t66 190.5v34q0 13 8.5 22t22.5 9z" />
<glyph unicode="[" horiz-adv-x="677" d="M556 -494q13 0 22 -8.5t9 -21.5q0 -14 -8.5 -22.5t-22.5 -8.5h-444v2048h444q13 0 22 -8.5t9 -21.5t-8.5 -22t-22.5 -9h-121q-29 0 -47 -18.5t-18 -44.5v-1800q0 -26 18 -44.5t47 -18.5h121z" />
<glyph unicode="\" horiz-adv-x="456" d="M358 0h61l-321 1493h-61z" />
<glyph unicode="]" horiz-adv-x="677" d="M122 -494l121 -1q29 0 47 19t18 45v1800q0 26 -18 44.5t-47 18.5h-121q-14 0 -22.5 9t-8.5 22t9 21.5t22 8.5h444v-2048h-444q-14 0 -22.5 8.5t-8.5 22.5q0 13 9 21.5t22 8.5z" />
<glyph unicode="^" horiz-adv-x="872" d="M781 1053q14 -22 4.5 -39.5t-30 -16.5t-41.5 21l-277 329l-278 -329q-20 -22 -42.5 -21.5t-29 18t4.5 38.5l257 400q35 54 87.5 54.5t87.5 -54.5z" />
<glyph unicode="_" horiz-adv-x="1298" d="M1177 61q13 0 22 -8.5t9 -22.5q0 -13 -9 -21.5t-22 -8.5h-1056q-13 0 -22 9t-9 22t9 21.5t22 8.5h1056z" />
<glyph unicode="`" horiz-adv-x="626" d="M454 1157l-290 211q-45 32 -28 78q13 36 49 45q44 12 82 -32l224 -264q19 -22 3 -38.5t-40 0.5z" />
<glyph unicode="a" d="M1190 61q13 0 22 -8.5t9 -21.5t-8.5 -22t-22.5 -9h-354v212q-59 -116 -144.5 -175t-207.5 -59q-123 0 -216.5 64t-142 173.5t-48.5 246.5q0 205 111.5 342.5t295.5 137.5q127 0 211.5 -60t140.5 -172v214h252v-798q0 -27 18.5 -46t46.5 -19h37zM556 56q112 0 198 123.5 t86 279.5q0 161 -87 283.5t-197 122.5q-70 0 -117 -35t-76 -127t-29 -243q0 -114 15.5 -194t46 -125t69.5 -65t91 -20z" />
<glyph unicode="b" horiz-adv-x="1275" d="M792 945q185 0 296.5 -137t111.5 -346q0 -205 -112 -343t-296 -138q-127 0 -211 60.5t-140 172.5v-214h-355q-14 0 -22.5 9t-8.5 22t9 21.5t22 8.5h37q28 0 47 19t19 46v1241q0 27 -19 46t-47 19h-37q-13 0 -22 8.5t-9 21.5q0 14 8.5 22.5t22.5 8.5h355v-781 q59 116 144 174.5t207 58.5zM720 59q70 0 117 35t76 127t29 243q0 114 -15.5 194t-46 125t-69.5 65t-91 20q-74 0 -140 -57.5t-105 -151.5t-39 -195q0 -161 87 -283t197 -122z" />
<glyph unicode="c" horiz-adv-x="1073" d="M993 637q0 -79 -42 -123t-106 -44q-52 0 -86.5 38t-34.5 83q0 31 13.5 57t30 40.5t30 34.5t13.5 41q0 52 -66.5 86.5t-145.5 34.5q-263 0 -263 -420q0 -205 77 -310t204 -105q115 0 196 68t122 165q8 23 30 23q17 0 23.5 -13t2.5 -25q-10 -27 -23.5 -54t-48 -73 t-76.5 -79t-112 -58t-152 -25q-239 0 -370.5 134.5t-131.5 351.5q0 111 40.5 203t109.5 151t158 91t187 32q179 0 300 -93t121 -212z" />
<glyph unicode="d" d="M1190 61q13 0 22 -8.5t9 -21.5t-8.5 -22t-22.5 -9h-354v212q-59 -116 -144.5 -175t-207.5 -59q-123 0 -216.5 64t-142 173.5t-48.5 246.5q0 205 111.5 342.5t295.5 137.5q127 0 211.5 -60t140.5 -172v657q0 27 -18.5 46t-46.5 19h-38q-13 0 -22 8.5t-9 21.5q0 14 9 22.5 t22 8.5h355v-1367q0 -27 18.5 -46t46.5 -19h37zM556 56q112 0 198 123.5t86 279.5q0 161 -87 283.5t-197 122.5q-70 0 -117 -35t-76 -127t-29 -243q0 -114 15.5 -194t46 -125t69.5 -65t91 -20z" />
<glyph unicode="e" horiz-adv-x="1120" d="M1040 513q0 -29 -15.5 -39.5t-51.5 -10.5h-637q0 -117 31 -206.5t100 -144.5t170 -55q66 0 122 20t95.5 54t66.5 72t44 81q11 28 31 28q27 0 25 -30q-2 -20 -16.5 -53.5t-48 -77.5t-79.5 -82t-119.5 -64t-159.5 -26q-105 0 -197 29t-165.5 86.5t-116 152.5t-42.5 216 q0 213 130.5 346t368.5 133q224 0 344 -116.5t120 -312.5zM337 517h452q-9 369 -224 369q-100 0 -160.5 -97.5t-67.5 -271.5z" />
<glyph unicode="f" horiz-adv-x="702" d="M546 1516q121 0 207.5 -58t86.5 -159q0 -72 -36.5 -111.5t-96.5 -39.5q-40 0 -70 25.5t-30 67.5q0 27 10.5 47.5t23 31t23 27t10.5 36.5q0 33 -31.5 54t-74.5 21q-52 0 -89.5 -36t-37.5 -109v-389h183q14 0 22.5 -9t8.5 -22t-9 -21.5t-22 -8.5h-183v-737q0 -27 19 -46.5 t46 -19.5h107q14 0 22.5 -8.5t8.5 -21.5t-9 -21.5t-22 -8.5h-527q-14 0 -22.5 9t-8.5 22t8.5 21t22.5 8h37q28 0 47 19.5t19 46.5v737h-103q-14 0 -22.5 8.5t-8.5 22.5q0 13 9 21.5t22 8.5h103v268q0 81 31 144.5t83 102t114 58t129 19.5z" />
<glyph unicode="g" horiz-adv-x="1251" d="M848 924h252v-956q0 -141 -44 -249.5t-122.5 -175.5t-182 -101t-228.5 -34q-186 0 -314 89t-128 231q0 73 42.5 113.5t98.5 40.5q50 0 84.5 -31t34.5 -87q0 -39 -17.5 -64.5t-35 -47t-17.5 -49.5q0 -48 66.5 -91t167.5 -43q156 0 249.5 104.5t93.5 301.5v337 q-59 -116 -144.5 -175t-207.5 -59q-123 0 -216.5 64t-142 173.5t-48.5 246.5q0 205 111.5 342.5t295.5 137.5q127 0 211.5 -60t140.5 -172v214zM568 56q112 0 198 123.5t86 279.5q0 161 -87 283.5t-197 122.5q-70 0 -117 -35t-76 -127t-29 -243q0 -114 15.5 -194t46 -125 t69.5 -65t91 -20z" />
<glyph unicode="h" horiz-adv-x="1269" d="M1198 61q13 0 22 -8.5t9 -21.5t-8.5 -22t-22.5 -9h-456q-14 0 -22.5 9t-8.5 22t9 21.5t22 8.5h37q28 0 46.5 19t18.5 46v500q0 102 -42 152.5t-110 50.5q-112 0 -181.5 -108.5t-69.5 -266.5v-328q0 -27 18.5 -46t46.5 -19h37q13 0 22 -8.5t9 -21.5t-9 -22t-22 -9h-457 q-14 0 -22.5 9t-8.5 22t9 21.5t22 8.5h37q28 0 47 19t19 46v1241q0 27 -19 46t-47 19h-37q-13 0 -22 8.5t-9 21.5q0 14 8.5 22.5t22.5 8.5h355v-792q52 110 145 175t212 65q135 0 216.5 -79t81.5 -223v-513q0 -27 18.5 -46t46.5 -19h37z" />
<glyph unicode="i" horiz-adv-x="614" d="M177 1281q0 59 40.5 99.5t99.5 40.5q56 0 96 -41t40 -99q0 -56 -40 -96t-96 -40q-59 0 -99.5 39.5t-40.5 96.5zM543 61q13 0 22 -8.5t9 -21.5t-9 -22t-22 -9h-457q-14 0 -22.5 9t-8.5 22t9 21.5t22 8.5h37q28 0 47 19t19 46v672q0 27 -19 46t-47 19h-37q-13 0 -22 8.5 t-9 21.5t8.5 22t22.5 9h355v-798q0 -27 18.5 -46t46.5 -19h37z" />
<glyph unicode="j" horiz-adv-x="587" d="M169 1281q0 59 40.5 99.5t99.5 40.5q56 0 96.5 -41t40.5 -99q0 -56 -40.5 -96t-96.5 -40q-59 0 -99.5 39.5t-40.5 96.5zM78 924h354v-1174q0 -81 -31.5 -144.5t-83 -102t-114 -58t-129.5 -19.5q-121 0 -207 58t-86 159q0 72 36 111.5t96 39.5q40 0 70.5 -25.5t30.5 -67.5 q0 -27 -10.5 -47.5t-23 -30.5t-23 -26.5t-10.5 -36.5q0 -33 31.5 -54.5t74.5 -21.5q52 0 89.5 36t37.5 109v1169q0 27 -18.5 46t-46.5 19h-37q-13 0 -22 8.5t-9 21.5t8.5 22t22.5 9z" />
<glyph unicode="k" horiz-adv-x="1218" d="M543 61q13 0 22 -8.5t9 -21.5t-9 -22t-22 -9h-457q-14 0 -22.5 9t-8.5 22t9 21.5t22 8.5h37q28 0 47 19t19 46v1241q0 27 -19 46t-47 19h-37q-13 0 -22 8.5t-9 21.5q0 14 8.5 22.5t22.5 8.5h355v-1367q0 -27 18.5 -46t46.5 -19h37zM1181 61q13 0 22 -8.5t9 -22.5 q0 -13 -9 -21.5t-22 -8.5h-470q-13 0 -22 9t-9 22t9 21.5t22 8.5h24q29 0 35 19t-15 44l-281 340l434 340q22 16 13 37.5t-42 21.5h-77q-14 0 -22.5 8.5t-8.5 22.5q0 13 9 21.5t22 8.5h365q13 0 22 -9t9 -22t-9 -21.5t-22 -8.5h-17q-43 0 -71 -12.5t-72 -46.5l-303 -239 l378 -457q38 -47 92 -47h7z" />
<glyph unicode="l" horiz-adv-x="614" d="M543 61q13 0 22 -8.5t9 -21.5t-9 -22t-22 -9h-457q-14 0 -22.5 9t-8.5 22t9 21.5t22 8.5h37q28 0 47 19t19 46v1241q0 27 -19 46t-47 19h-37q-13 0 -22 8.5t-9 21.5q0 14 8.5 22.5t22.5 8.5h355v-1367q0 -27 18.5 -46t46.5 -19h37z" />
<glyph unicode="m" horiz-adv-x="1875" d="M1804 61q13 0 22 -8.5t9 -21.5q0 -14 -8.5 -22.5t-21.5 -8.5h-457q-14 0 -22.5 9t-8.5 22t8.5 21t22.5 8h37q27 0 46 19.5t19 46.5v509q0 98 -36.5 146t-103.5 48q-111 0 -175 -107.5t-64 -267.5v-328q0 -27 19 -46.5t47 -19.5h37q14 0 22.5 -8t8.5 -21t-8.5 -22 t-22.5 -9h-457q-13 0 -22 9t-9 22t8.5 21t22.5 8h37q27 0 46 19.5t19 46.5v509q0 98 -36.5 146t-103.5 48q-111 0 -174.5 -107.5t-63.5 -267.5v-328q0 -27 19 -46.5t46 -19.5h37q14 0 22.5 -8t8.5 -21t-9 -22t-22 -9h-457q-14 0 -22.5 9t-8.5 22t8.5 21t22.5 8h37 q28 0 47 19.5t19 46.5v672q0 27 -19 46t-47 19h-37q-13 0 -22 8.5t-9 21.5t8.5 22t22.5 9h355v-216q50 107 139 170t206 63q121 0 193 -62.5t87 -180.5q50 112 140.5 177.5t210.5 65.5q133 0 209 -76.5t76 -216.5v-522q0 -27 18.5 -46t46.5 -19h37z" />
<glyph unicode="n" horiz-adv-x="1269" d="M1198 61q13 0 22 -8.5t9 -21.5t-8.5 -22t-22.5 -9h-456q-14 0 -22.5 9t-8.5 22t8.5 21t22.5 8h37q27 0 46 19.5t19 46.5v500q0 102 -42 152.5t-110 50.5q-112 0 -181.5 -108.5t-69.5 -266.5v-328q0 -27 19 -46.5t46 -19.5h37q14 0 22.5 -8t8.5 -21t-9 -22t-22 -9h-457 q-14 0 -22.5 9t-8.5 22t8.5 21t22.5 8h37q28 0 47 19.5t19 46.5v672q0 27 -19 46t-47 19h-37q-13 0 -22 8.5t-9 21.5t8.5 22t22.5 9h355v-223q52 110 145 175t212 65q135 0 216.5 -79t81.5 -223v-513q0 -27 18.5 -46t46.5 -19h37z" />
<glyph unicode="o" horiz-adv-x="1153" d="M577 -21q-231 0 -365.5 131.5t-134.5 352.5q0 97 32.5 182.5t93.5 152t157.5 105.5t216.5 39q228 0 364 -124.5t136 -354.5q0 -222 -132 -353t-368 -131zM574 36q122 1 185 109t63 315q0 212 -64 318t-181 106q-116 0 -181 -106.5t-65 -317.5q0 -189 60.5 -306 t182.5 -118z" />
<glyph unicode="p" horiz-adv-x="1275" d="M792 942q92 0 169.5 -37.5t129.5 -102.5t80.5 -152.5t28.5 -187.5q0 -137 -49 -246.5t-142.5 -173.5t-216.5 -64q-122 0 -207 59t-144 175v-641q0 -27 19 -46.5t46 -19.5h37q14 0 22.5 -8t8.5 -21q0 -14 -9 -22.5t-22 -8.5h-354v1353q0 27 -19 46t-47 19h-37 q-13 0 -22 8.5t-9 21.5t8.5 22t22.5 9h355v-214q56 112 140 172t211 60zM720 56q52 0 91 20t69.5 65t46 125t15.5 194q0 151 -29 243t-76 127t-117 35q-110 0 -197 -122.5t-87 -283.5q0 -156 86 -279.5t198 -123.5z" />
<glyph unicode="q" horiz-adv-x="1255" d="M1190 -494q13 0 22 -8.5t9 -21.5q0 -14 -8.5 -22.5t-22.5 -8.5h-354v767q-59 -116 -144.5 -175t-207.5 -59q-123 0 -216.5 64t-142 173.5t-48.5 246.5q0 205 111.5 342.5t295.5 137.5q127 0 211.5 -60t140.5 -172v214h252v-1353q0 -27 18.5 -46t46.5 -19h37zM556 56 q112 0 198 123.5t86 279.5q0 161 -87 283.5t-197 122.5q-70 0 -117 -35t-76 -127t-29 -243q0 -114 15.5 -194t46 -125t69.5 -65t91 -20z" />
<glyph unicode="r" horiz-adv-x="1013" d="M741 941q103 0 171 -68t68 -172q0 -82 -46.5 -142.5t-124.5 -60.5q-53 0 -88 35.5t-35 85.5q0 30 13.5 56t29 41.5t29 35.5t13.5 39q0 27 -25.5 45t-64.5 18q-72 0 -128.5 -63t-84 -155.5t-27.5 -192.5v-317q0 -27 18.5 -46t46.5 -19h103q13 0 22 -8.5t9 -22.5 q0 -13 -9 -21.5t-22 -8.5h-523q-14 0 -22.5 9t-8.5 22t9 21.5t22 8.5h37q28 0 47 19t19 46v672q0 27 -19 46t-47 19h-37q-13 0 -22 8.5t-9 21.5t8.5 22t22.5 9h355v-226q43 119 122 181t178 62z" />
<glyph unicode="s" horiz-adv-x="1032" d="M565 912q0 -57 29 -111.5t72 -96t94 -89.5t94 -92t72 -105t29 -126q0 -97 -65.5 -169.5t-167.5 -108t-221 -35.5q-113 0 -207 34t-155.5 107t-61.5 174q0 60 32 93.5t77 35.5l265 451q21 52 71 129q21 31 39 31q14 0 22 -8t7 -20q-3 -10 -10 -26.5t-11 -32t-4 -35.5z M473 38q117 0 182 51.5t65 141.5q0 47 -29.5 92t-72 84.5t-85.5 81.5t-75.5 99t-36.5 122l-176 -303q46 -25 46 -82q0 -33 -38.5 -77.5t-38.5 -72.5q0 -57 78 -97t181 -40z" />
<glyph unicode="t" horiz-adv-x="831" d="M771 208q13 0 20.5 -8.5t7.5 -19.5q0 -18 -26 -55q-95 -146 -264 -146q-144 0 -233 82t-89 226v576h-102q-13 0 -22 8.5t-9 22.5q0 13 9 21.5t22 8.5h9q114 0 199.5 86t85.5 221q0 13 8.5 22t22.5 9q13 0 21 -8.5t8 -22.5v-307h297q14 0 22.5 -9t8.5 -22t-9 -21.5 t-22 -8.5h-297v-576q0 -92 40.5 -145t109.5 -53q51 0 88 23.5t67 74.5q14 21 27 21z" />
<glyph unicode="u" horiz-adv-x="1255" d="M1183 61q13 0 22 -8.5t9 -21.5t-9 -22t-22 -9h-355v208q-48 -105 -136.5 -165.5t-208.5 -60.5q-135 0 -214.5 78.5t-79.5 223.5v514q0 27 -19 46t-47 19h-37q-13 0 -22 8.5t-9 21.5t8.5 22t22.5 9h355v-627q0 -102 40 -152.5t108 -50.5q111 0 175 107.5t64 267.5v329 q0 27 -18.5 46t-46.5 19h-37q-13 0 -22 8.5t-9 21.5t8.5 22t22.5 9h354v-798q0 -27 18.5 -46t46.5 -19h38z" />
<glyph unicode="v" horiz-adv-x="1089" d="M1051 924q13 0 22 -9t9 -22t-9 -21.5t-22 -8.5h-23q-51 0 -71 -49l-362 -814h-80l-386 799q-31 64 -75 64h-16q-14 0 -22.5 8.5t-8.5 22.5q0 13 9 21.5t22 8.5h449q13 0 22 -9t9 -22t-9 -21.5t-22 -8.5h-54q-23 0 -37 -11t-14 -29q0 -11 6 -23l256 -540l241 539 q6 13 6 25q0 18 -14 28.5t-37 10.5h-59q-13 0 -22 8.5t-9 22.5q0 13 9 21.5t22 8.5h270z" />
<glyph unicode="w" horiz-adv-x="1490" d="M1453 924q13 0 22 -9t9 -22t-9 -21.5t-22 -8.5h-39q-57 0 -73 -49l-286 -814h-84l-226 591l-199 -591h-84l-314 799q-26 64 -75 64h-35q-14 0 -22.5 8.5t-8.5 22.5q0 13 9 21.5t22 8.5h464q14 0 22.5 -9t8.5 -22t-9 -21.5t-22 -8.5h-58q-25 0 -38 -12t-13 -30 q0 -13 4 -22l190 -489l211 614h64l235 -615l174 490q5 15 5 24q0 40 -50 40h-68q-14 0 -22.5 8.5t-8.5 22.5q0 13 9 21.5t22 8.5h295z" />
<glyph unicode="x" horiz-adv-x="1083" d="M1053 61q13 0 22 -8.5t9 -22.5q0 -13 -9 -21.5t-22 -8.5h-476q-13 0 -22 9t-9 22t9 21.5t22 8.5h33q34 0 48.5 18.5t-3.5 44.5l-188 262l-215 -262q-18 -22 -8.5 -42.5t39.5 -20.5h43q14 0 22.5 -8.5t8.5 -22.5q0 -13 -9 -21.5t-22 -8.5h-289q-13 0 -22 9t-9 22t9 21.5 t22 8.5h9q41 0 69 13.5t58 49.5l257 312l-263 363q-27 37 -49 50.5t-54 13.5h-16q-14 0 -22.5 8.5t-8.5 22.5q0 13 9 21.5t22 8.5h463q13 0 22 -9t9 -22t-9 -21.5t-22 -8.5h-20q-34 0 -48.5 -19t3.5 -45l171 -238l205 238q18 21 6 42.5t-42 21.5h-42q-14 0 -22.5 8.5 t-8.5 22.5q0 13 9 21.5t22 8.5h290q14 0 22.5 -9t8.5 -22t-9 -21.5t-22 -8.5h-24q-31 0 -54 -14t-55 -50l-248 -288l281 -387q27 -38 48.5 -50.5t55.5 -12.5h15z" />
<glyph unicode="y" horiz-adv-x="1230" d="M726 924h354v-956q0 -560 -542 -560q-184 0 -302.5 88t-118.5 232q0 73 43 113.5t99 40.5q49 0 83.5 -31t34.5 -87q0 -39 -17.5 -64.5t-35 -47t-17.5 -49.5q0 -50 57 -92t157 -42q149 0 228 102.5t79 303.5v333q-48 -105 -136.5 -165.5t-208.5 -60.5q-135 0 -214.5 78.5 t-79.5 223.5v514q0 27 -19 46t-47 19h-37q-13 0 -22 8.5t-9 21.5t8.5 22t22.5 9h355v-627q0 -102 40 -152.5t108 -50.5q111 0 175 107.5t64 267.5v329q0 27 -18.5 46t-46.5 19h-37q-13 0 -22 8.5t-9 21.5t8.5 22t22.5 9z" />
<glyph unicode="z" horiz-adv-x="1075" d="M956 924v-59l-579 -804h267q115 0 183.5 82t68.5 187v28q0 14 9 22.5t22 8.5t21 -8.5t8 -22.5v-358h-849v78l564 785h-235q-115 0 -183.5 -82t-68.5 -187v-28q0 -14 -9 -22.5t-22 -8.5t-21 8.5t-8 22.5v358h832z" />
<glyph unicode="{" horiz-adv-x="792" d="M696 -494q15 0 25 -9t10 -23q0 -13 -10.5 -21t-24.5 -8h-109q-196 0 -274 83.5t-78 262.5v488q0 86 -45 139t-120 53h-7q-13 0 -22 8.5t-9 22.5q0 13 8.5 21t22.5 8h7q73 0 118 50t45 124v440q0 179 79 263.5t275 84.5h109q12 0 23.5 -8.5t11.5 -22.5t-10 -22.5t-25 -8.5 q-59 0 -101 -23t-65.5 -64.5t-34 -90t-10.5 -108.5v-281q0 -166 -56 -254t-181 -105q125 -18 181 -109t56 -257v-348q0 -58 10.5 -107t34 -90t66 -64.5t100.5 -23.5z" />
<glyph unicode="|" horiz-adv-x="323" d="M201 -555h-62v2048h62v-2048z" />
<glyph unicode="}" horiz-adv-x="794" d="M732 531q14 0 22.5 -8t8.5 -21q0 -14 -8.5 -22.5t-22.5 -8.5h-7q-75 0 -120 -53t-45 -139v-488q0 -179 -78 -262.5t-274 -83.5h-109q-14 0 -24.5 8t-10.5 22t10 22.5t25 8.5q58 0 100.5 23.5t66 64.5t34 90t10.5 107v348q0 166 56 257t181 109q-125 17 -181 105t-56 254 v281q0 60 -10.5 108.5t-34 90t-65.5 64.5t-101 23q-15 0 -25 8.5t-10 22.5t11.5 22.5t23.5 8.5h109q196 0 275 -84.5t79 -263.5v-440q0 -74 45 -124t118 -50h7z" />
<glyph unicode="~" horiz-adv-x="1140" d="M744 259q-76 0 -136.5 26t-98 63t-69.5 74t-70.5 63t-82.5 26q-51 0 -88.5 -36.5t-37.5 -96.5q0 -21 -21 -24q-25 -5 -35 19q-3 8 -3 18q0 101 84.5 168.5t202.5 67.5q65 0 119 -19t88 -47.5t66.5 -62t57 -62t57.5 -47.5t70 -19q51 0 89.5 36t38.5 94q0 23 15.5 32.5 t31 -0.5t15.5 -34q0 -101 -87 -170t-206 -69z" />
<glyph unicode="&#xa1;" horiz-adv-x="471" d="M109 825q0 48 35.5 83t84.5 35q48 0 82.5 -35t34.5 -83q0 -49 -34.5 -83.5t-82.5 -34.5q-49 0 -84.5 34.5t-35.5 83.5zM236 -608q-51 0 -86 35.5t-35 88.5q0 68 37 387.5t37 482.5q0 21 13 33.5t30 12.5t30 -12.5t13 -33.5q0 -163 40.5 -483t40.5 -387q0 -52 -35.5 -88 t-84.5 -36z" />
<glyph unicode="&#xa2;" horiz-adv-x="1073" d="M965 306q17 0 23.5 -13t2.5 -25q-10 -27 -23.5 -54t-48 -73t-76.5 -79t-112 -58t-152 -25q-35 0 -66 3l-71 -338q-6 -29 -31 -29q-14 0 -22.5 10.5t-4.5 28.5l71 336q-182 33 -280 160.5t-98 314.5q0 111 40.5 203t109.5 151t158 91t187 32q48 0 81 -5l67 319q6 29 32 29 q13 0 22 -10.5t5 -28.5l-68 -321q126 -32 204 -113.5t78 -174.5q0 -79 -42 -123t-106 -44q-52 0 -86.5 38t-34.5 83q0 31 13.5 57t30 40.5t30 34.5t13.5 41q0 52 -66.5 86.5t-145.5 34.5q-263 0 -263 -420q0 -205 77 -310t204 -105q115 0 196 68t122 165q8 23 30 23z" />
<glyph unicode="&#xa3;" horiz-adv-x="1484" d="M1371 405q13 0 22 -9t9 -22q0 -172 -106 -287t-253 -115q-110 0 -204.5 40t-203.5 113q-115 -147 -343 -147q-100 0 -169.5 51t-69.5 143q0 81 58 135t158 54q74 0 165 -28q0 108 -33 320h-177q-14 0 -22.5 8.5t-8.5 22.5q0 13 9 21.5t22 8.5h167q-29 189 -29 261 q0 82 27 149t73.5 112t111.5 75.5t138 44t156 13.5q121 0 227 -40t172.5 -114t66.5 -165q0 -73 -39 -114t-92 -41q-48 0 -83 31.5t-35 84.5q0 35 18.5 61.5t37 48t18.5 43.5q0 63 -65 102.5t-160 39.5q-123 0 -203 -79.5t-80 -226.5q0 -102 34 -286h223q14 0 22.5 -9 t8.5 -22t-9 -21.5t-22 -8.5h-212q25 -137 25 -240t-29 -182q189 -76 323 -76q50 0 92 7.5t71 18t54 28.5t39 32.5t27.5 38t18.5 36t13 34.5t10 27q12 28 31 28zM265 44q68 0 111 54t54 158q-88 45 -161 45q-65 0 -104.5 -36.5t-39.5 -92.5q0 -58 42.5 -93t97.5 -35z" />
<glyph unicode="&#xa4;" horiz-adv-x="1384" d="M1162 464q0 -174 -114 -304l141 -143l-51 -49l-139 144q-130 -111 -303 -111q-176 0 -307 113l-145 -146l-49 49l145 145q-112 130 -112 302t115 303l-148 143l49 52l147 -148q132 111 305 111q172 0 301 -108l141 145l51 -52l-143 -141q116 -131 116 -305zM696 63 q164 0 279.5 117.5t115.5 283.5t-115.5 282.5t-279.5 116.5t-280.5 -116.5t-116.5 -282.5q0 -167 116 -284t281 -117z" />
<glyph unicode="&#xa5;" horiz-adv-x="1302" d="M1269 1350q13 0 21.5 -8.5t8.5 -21.5t-8.5 -22t-21.5 -9h-36q-29 0 -55.5 -16.5t-40.5 -42.5l-302 -567h226q13 0 22 -8.5t9 -22.5q0 -13 -9 -21.5t-22 -8.5h-254v-131h254q13 0 22 -8.5t9 -22.5q0 -13 -8.5 -21t-22.5 -8h-254v-287q0 -26 18 -45t47 -19h37q14 0 22.5 -8 t8.5 -21t-9 -22t-22 -9h-492q-13 0 -22 9t-9 22t8.5 21t22.5 8h37q29 0 47 19t18 45v287h-278q-13 0 -21.5 8.5t-8.5 22.5q0 13 8.5 21t21.5 8h278v73l-31 58h-247q-13 0 -21.5 8.5t-8.5 22.5q0 13 8.5 21.5t21.5 8.5h214l-308 567q-16 29 -33.5 44t-46.5 15h-33 q-14 0 -22.5 8.5t-8.5 22.5q0 13 9 21.5t22 8.5h516q13 0 21 -8.5t8 -21.5q0 -14 -8 -22.5t-21 -8.5h-34q-35 0 -47 -15.5t3 -43.5l294 -552l290 552q12 22 -1 40.5t-43 18.5h-30q-14 0 -22.5 8.5t-8.5 22.5q0 13 9 21.5t22 8.5h287z" />
<glyph unicode="&#xa6;" horiz-adv-x="323" d="M139 780v713h62v-713h-62zM201 190v-745h-62v745h62z" />
<glyph unicode="&#xa7;" horiz-adv-x="882" d="M797 413q0 -129 -88 -248q104 -113 104 -261q0 -92 -33.5 -165t-89 -117t-123 -66.5t-140.5 -22.5q-90 0 -167.5 31.5t-127.5 97.5t-50 153q0 71 32.5 108t76.5 37q35 0 60 -23.5t25 -59.5q0 -35 -36 -69t-36 -66q0 -67 62 -108.5t145 -41.5q95 0 163 56t68 164 q0 59 -29.5 109t-76.5 87.5t-104 74.5t-114 78.5t-104 90.5t-76.5 120.5t-29.5 158.5q0 131 93 254q-95 110 -95 255q0 93 32 166t85.5 116.5t117.5 66t135 22.5q136 0 237 -77t101 -205q0 -71 -32.5 -108t-75.5 -37q-35 0 -60.5 23.5t-25.5 59.5q0 35 36.5 69t36.5 66 q0 64 -64 107t-145 43q-87 0 -147 -54.5t-60 -165.5q0 -58 28.5 -107t74.5 -86.5t101.5 -74.5t111 -79t101.5 -91.5t74.5 -121.5t28.5 -159zM255 625q0 -54 22.5 -99.5t65.5 -84t85.5 -67.5t104.5 -69.5t101 -70.5q17 49 17 87q0 54 -22.5 100.5t-65.5 84.5t-86 68 t-104 70.5t-99 71.5q-19 -48 -19 -91z" />
<glyph unicode="&#xa8;" horiz-adv-x="1034" d="M216 1329q0 48 33.5 81.5t81.5 33.5q47 0 79.5 -33.5t32.5 -81.5q0 -47 -32.5 -79.5t-79.5 -32.5q-48 0 -81.5 32.5t-33.5 79.5zM603 1329q0 48 34 81.5t81 33.5t79.5 -33.5t32.5 -81.5q0 -47 -33 -79.5t-79 -32.5q-47 0 -81 33t-34 79z" />
<glyph unicode="&#xa9;" horiz-adv-x="1087" d="M544 570q-129 0 -238 63t-172.5 171t-63.5 236q0 194 139 331t335 137q195 0 333.5 -137t138.5 -331q0 -128 -63 -236t-172 -171t-237 -63zM544 622q170 0 291 122.5t121 295.5q0 172 -121 294.5t-291 122.5q-172 0 -293 -122t-121 -295q0 -174 121 -296t293 -122z M570 752q-145 0 -225 80.5t-80 211.5q0 132 87.5 210.5t212.5 78.5q106 0 180.5 -56t74.5 -128q0 -48 -26.5 -77t-67.5 -29q-33 0 -55 24t-22 54q0 31 26 61t26 48q0 29 -36.5 47t-79.5 18q-161 0 -161 -251q0 -122 48 -185t124 -63q64 0 112.5 38.5t74.5 95.5q5 15 18 15 q11 0 16 -8.5t2 -17.5q-5 -13 -12.5 -28t-28 -42t-46 -46.5t-68.5 -35t-94 -15.5z" />
<glyph unicode="&#xaa;" horiz-adv-x="931" d="M352 795q-110 0 -186.5 78t-76.5 212q0 133 76 211t187 78q77 0 126 -33t84 -97v120h177v-458q0 -20 15 -34t35 -14h22q12 0 18.5 -7t6.5 -17q0 -25 -25 -25h-249v119q-35 -68 -85.5 -100.5t-124.5 -32.5zM406 1317q-56 0 -81 -53.5t-25 -178.5q0 -126 25 -179t81 -53 q64 0 108 70.5t44 161.5q0 93 -45 162.5t-107 69.5zM836 724q14 0 22.5 -9t8.5 -22t-8.5 -21t-22.5 -8h-741q-13 0 -22 9t-9 22t8.5 21t22.5 8h741z" />
<glyph unicode="&#xab;" horiz-adv-x="942" d="M191 457q82 78 158.5 180t122.5 185q13 25 -11 39.5t-41 -9.5q-136 -182 -372 -361q-21 -16 -20 -35t20 -34q238 -180 372 -360q17 -23 41 -9t11 39q-46 83 -122.5 185t-158.5 180zM570 457q82 78 158 179.5t122 185.5q13 25 -11 39.5t-41 -9.5q-137 -184 -371 -361 q-21 -16 -20 -35t20 -34q235 -178 371 -360q17 -23 41 -9t11 39q-46 84 -122 185.5t-158 179.5z" />
<glyph unicode="&#xad;" horiz-adv-x="647" d="M564 527q14 0 22.5 -8.5t8.5 -22.5q0 -13 -8.5 -21t-22.5 -8h-482q-14 0 -22.5 8.5t-8.5 22.5q0 13 8.5 21t22.5 8h482z" />
<glyph unicode="&#xae;" horiz-adv-x="1087" d="M544 1508q195 0 333.5 -137t138.5 -331q0 -128 -63 -236t-172 -171t-237 -63q-129 0 -238 63t-172.5 171t-63.5 236q0 194 139 331t335 137zM544 622q170 0 291 122.5t121 295.5q0 172 -121 294.5t-291 122.5q-172 0 -293 -122t-121 -295q0 -174 121 -296t293 -122z M800 830q16 0 16 -16q0 -15 -23.5 -27.5t-56.5 -12.5q-62 0 -93 25.5t-37.5 61.5t-11 72t-25.5 61.5t-68 25.5h-4v-165q0 -16 10 -26t29 -10q8 0 13.5 -6t5.5 -14q0 -19 -19 -19h-221q-20 0 -20 19q0 8 6 14t14 6q39 0 39 36v385q0 16 -10.5 26.5t-28.5 10.5q-8 0 -14 5.5 t-6 13.5q0 19 20 19h230q100 0 157 -36t57 -103q0 -45 -32 -80t-89 -53q50 -16 74.5 -53.5t26.5 -74t9 -64.5t27 -28q7 0 14.5 3.5t10.5 3.5zM497 1058h21q98 0 98 117q0 102 -82 102q-17 0 -27 -11t-10 -26v-182z" />
<glyph unicode="&#xaf;" horiz-adv-x="733" d="M96 1267q-16 0 -26 9.5t-10 22.5t9 22t27 9h574q32 0 32 -32q0 -31 -32 -31h-574z" />
<glyph unicode="&#xb0;" horiz-adv-x="710" d="M356 893q-99 0 -169 68t-70 167q0 97 70.5 165.5t168.5 68.5t168 -68.5t70 -165.5t-70 -166t-168 -69zM356 958q68 0 116 49.5t48 120.5q0 69 -48 118.5t-116 49.5q-69 0 -117 -49t-48 -119q0 -71 47.5 -120.5t117.5 -49.5z" />
<glyph unicode="&#xb1;" horiz-adv-x="755" d="M90 573q-14 0 -22.5 8.5t-8.5 22.5q0 13 9 21.5t22 8.5h259v259q0 13 8.5 22t22.5 9q13 0 21 -8.5t8 -22.5v-259h260q13 0 22 -9t9 -22t-9 -21.5t-22 -8.5h-260v-259q0 -14 -8.5 -22.5t-22.5 -8.5q-13 0 -21 8.5t-8 22.5v259h-259zM665 186q13 0 22 -9t9 -22t-8.5 -21 t-22.5 -8h-579q-14 0 -22.5 9t-8.5 22t8.5 21t22.5 8h579z" />
<glyph unicode="&#xb4;" horiz-adv-x="626" d="M181 1157q-24 -17 -40 -0.5t3 38.5l224 264q43 50 92 29q36 -16 42 -53q7 -40 -31 -67z" />
<glyph unicode="&#xb6;" horiz-adv-x="1136" d="M671 577h-119q-215 0 -332.5 109.5t-117.5 288.5q0 168 118.5 271.5t343.5 103.5h497q21 0 29.5 -15t0 -30.5t-29.5 -15.5h-61q-25 0 -43.5 -18.5t-18.5 -42.5v-1228h-65v1288h-139v-1288h-63v577z" />
<glyph unicode="&#xb7;" horiz-adv-x="540" d="M132 517q0 59 40.5 99t99.5 40q56 0 96 -40.5t40 -98.5q0 -56 -40 -96.5t-96 -40.5q-59 0 -99.5 40t-40.5 97z" />
<glyph unicode="&#xb8;" horiz-adv-x="1228" d="M163 -170l40 184h71l-25 -127q103 -16 156 -62.5t53 -119.5q0 -89 -72.5 -143t-172.5 -54q-87 0 -153 38q-38 20 -38 50q0 12 8.5 20t22.5 8q9 0 50.5 -19t84.5 -19q55 0 88.5 32.5t33.5 82.5t-38 87.5t-109 41.5z" />
<glyph unicode="&#xba;" horiz-adv-x="894" d="M449 794q-147 0 -238.5 81t-91.5 211q0 117 90 202.5t240 85.5q144 0 236 -75.5t92 -212.5q0 -131 -89.5 -211.5t-238.5 -80.5zM449 1328q-65 0 -96 -59.5t-31 -184.5q0 -244 127 -244q66 1 96 60t30 184q0 126 -30 185t-96 59zM796 724q14 0 22.5 -9t8.5 -22t-9 -21.5 t-22 -8.5h-690q-14 0 -22.5 8.5t-8.5 22.5q0 13 9 21.5t22 8.5h690z" />
<glyph unicode="&#xbb;" horiz-adv-x="942" d="M372 457q-82 -78 -158.5 -180t-122.5 -185q-13 -25 11 -39t41 9q134 180 372 360q19 15 20 34t-20 35q-236 179 -372 361q-17 24 -41 9.5t-11 -39.5q46 -83 122.5 -185t158.5 -180zM751 457q-82 -78 -158.5 -180t-122.5 -185q-13 -25 11 -39t41 9q134 180 372 360 q19 15 20 34t-20 35q-236 179 -372 361q-17 24 -41 9.5t-11 -39.5q46 -83 122.5 -185t158.5 -180z" />
<glyph unicode="&#xbc;" horiz-adv-x="1597" d="M1201 1493h77l-845 -1692h-77zM605 628q0 -10 -7 -17t-17 -7h-394q-23 0 -23 24q0 9 6.5 16t16.5 7h50q20 0 32 12.5t12 29.5v550h-94q-23 0 -23 24q0 10 6.5 16.5t16.5 6.5h18q166 0 257 59q24 16 36 16q22 0 22 -21v-651q0 -17 12.5 -29.5t32.5 -12.5h16q10 0 17 -7 t7 -16zM1493 47q10 0 16.5 -7t6.5 -16q0 -10 -6.5 -17t-16.5 -7h-362q-10 0 -17 7t-7 17q0 9 7 16t17 7h17q20 0 32.5 12.5t12.5 29.5v54h-372v45q76 58 129.5 118t82.5 118.5t43 109t19 109.5q6 57 38 87t81 30q50 0 84 -30.5t34 -86.5q0 -45 -26.5 -103t-76 -120.5 t-132 -124t-183.5 -105.5h279v132q124 76 194 250q7 21 26 21t19 -22v-381h67q11 0 17.5 -7t6.5 -17t-7 -16.5t-17 -6.5h-67v-54q0 -17 12 -29.5t32 -12.5h17z" />
<glyph unicode="&#xbd;" horiz-adv-x="1644" d="M433 -199h-77l845 1692h77zM581 651q10 0 17 -7t7 -16q0 -10 -6.5 -17t-16.5 -7h-395q-23 0 -23 24q0 9 6.5 16t16.5 7h50q20 0 32 12.5t12 29.5v550h-94q-23 0 -23 24q0 10 6.5 16.5t16.5 6.5h18q166 0 257 59q24 16 36 16q22 0 22 -21v-651q0 -17 12.5 -29.5 t32.5 -12.5h16zM1569 225v-61q0 -176 -184 -176q-63 0 -167 24t-142 24q-22 0 -35 -7.5t-17 -16.5t-11.5 -16.5t-19.5 -7.5q-10 0 -16 6.5t-6 17.5v41q0 74 19 132t49.5 95t67.5 67t74.5 54.5t68 50t49.5 61t19 80.5q0 60 -31 87.5t-82 27.5q-47 0 -73.5 -17t-26.5 -45 q0 -14 8.5 -26t18 -19.5t18 -23t8.5 -36.5q0 -39 -27 -60.5t-65 -21.5q-43 0 -75 29.5t-32 83.5q0 76 77 131t207 55q138 0 229 -51t91 -149q0 -59 -29 -103.5t-76 -72t-103.5 -49.5t-114 -42t-105.5 -43t-80 -59t-35 -84q45 85 160 85q36 0 126.5 -15t127.5 -15q43 0 66 18 t23 48q0 22 23 22q9 0 16 -6.5t7 -16.5z" />
<glyph unicode="&#xbe;" horiz-adv-x="1712" d="M1315 1493h77l-845 -1692h-77zM790 834q0 -104 -88 -171t-258 -67q-121 0 -200.5 50.5t-79.5 136.5q0 54 28 82.5t68 28.5q38 0 67 -23t29 -61q0 -27 -22.5 -54t-22.5 -43q0 -28 28.5 -45.5t73.5 -17.5q64 0 98.5 45.5t34.5 134.5q0 81 -26 115.5t-63 34.5h-5 q-12 0 -20 8t-8 19q0 10 6.5 17.5t25.5 21.5q126 87 160 115q2 1 6 4.5t6 5.5q-35 -11 -72 -11q-46 0 -131 18.5t-121 18.5q-35 0 -55 -17.5t-20 -47.5q0 -10 -6.5 -16.5t-16.5 -6.5t-16.5 7t-6.5 17v58q0 177 179 177q62 0 169 -23.5t145 -23.5q27 0 40 12.5t21 24.5t22 12 q9 0 15.5 -6.5t6.5 -16.5v-7q0 -47 -27.5 -95.5t-77.5 -92t-86.5 -70t-87.5 -59.5q155 -2 221.5 -55.5t66.5 -133.5zM1607 47q10 0 17 -7t7 -16q0 -10 -7 -17t-17 -7h-362q-10 0 -17 7t-7 17q0 9 7 16t17 7h17q20 0 32.5 12.5t12.5 29.5v54h-372v45q76 58 129.5 118 t82.5 118.5t43 109t19 109.5q6 57 38 87t81 30q50 0 84 -30.5t34 -86.5q0 -45 -26.5 -103t-76 -120.5t-132 -124t-183.5 -105.5h279v132q124 76 194 250q7 21 26 21t19 -22v-381h67q11 0 17.5 -7t6.5 -17t-7 -16.5t-17 -6.5h-67v-54q0 -17 12 -29.5t32 -12.5h17z" />
<glyph unicode="&#xbf;" horiz-adv-x="1007" d="M722 1145q0 -55 -38.5 -93.5t-94.5 -38.5q-53 0 -91 38.5t-38 93.5q0 53 38 91t91 38q55 0 94 -38t39 -91zM559 -507q74 0 131.5 38.5t57.5 90.5q0 29 -20.5 54t-41 52t-20.5 61q0 57 36.5 90t86.5 33q68 0 107 -46t39 -119q0 -80 -34.5 -143.5t-92.5 -103t-130 -60 t-151 -20.5q-116 0 -213.5 33.5t-161.5 105.5t-64 170q0 69 26 130.5t67 109.5t91 95t99.5 97.5t90.5 106t67 131.5t26 163v101q0 15 10.5 25.5t25.5 10.5q16 0 26.5 -10t10.5 -26v-172q0 -115 -29.5 -211.5t-71.5 -163t-84 -125.5t-71.5 -126t-29.5 -138q0 -62 18 -109 t49.5 -73.5t69 -39t80.5 -12.5z" />
<glyph unicode="&#xc0;" horiz-adv-x="1458" d="M779 1452l-289 211q-44 32 -29 76q12 36 48 46q44 13 83 -32l224 -263q19 -22 3 -38.5t-40 0.5zM1421 61q13 0 22.5 -9t9.5 -22t-9.5 -21.5t-22.5 -8.5h-579q-13 0 -22 8.5t-9 21.5t9 22t22 9h73q32 0 47.5 20.5t2.5 50.5l-117 279h-483l-112 -279q-11 -28 3.5 -49.5 t45.5 -21.5h74q13 0 22 -9t9 -22t-9 -21.5t-22 -8.5h-339q-13 0 -22 8.5t-9 21.5t9 22t22 9h49q38 0 58.5 17.5t35.5 53.5l498 1228h85l513 -1230q30 -69 100 -69h45zM390 470h433l-220 529z" />
<glyph unicode="&#xc1;" horiz-adv-x="1458" d="M646 1452q-24 -17 -40 -0.5t3 38.5l224 263q42 49 90 30q36 -15 43 -52q8 -40 -31 -68zM1421 61q13 0 22 -9t9 -22t-9 -21.5t-22 -8.5h-579q-13 0 -22 8.5t-9 21.5t9 22t22 9h73q32 0 47.5 20.5t2.5 50.5l-117 279h-483l-112 -279q-11 -28 3.5 -49.5t45.5 -21.5h74 q13 0 22 -9t9 -22t-9 -21.5t-22 -8.5h-339q-13 0 -22 8.5t-9 21.5t9 22t22 9h49q38 0 58.5 17.5t35.5 53.5l498 1228h85l513 -1230q30 -69 100 -69h45zM390 470h433l-221 529z" />
<glyph unicode="&#xc2;" horiz-adv-x="1458" d="M974 1472q15 -34 -15.5 -47.5t-51.5 12.5l-165 197l-165 -197q-15 -18 -36.5 -17t-30 16t0.5 36l144 249q33 56 87 56.5t87 -56.5zM1421 60q13 0 22 -8.5t9 -21.5t-9 -21.5t-22 -8.5h-579q-13 0 -22 8.5t-9 21.5t9 21.5t22 8.5h73q32 0 47.5 21t2.5 51l-117 279h-483 l-112 -279q-11 -28 4 -50t45 -22h74q13 0 22 -8.5t9 -21.5t-9 -21.5t-22 -8.5h-339q-13 0 -22 8.5t-9 21.5t9 21.5t22 8.5h49q38 0 58.5 17.5t35.5 54.5l498 1228h85l513 -1230q30 -70 100 -70h45zM390 470h433l-220 528z" />
<glyph unicode="&#xc3;" horiz-adv-x="1458" d="M927 1443q-70 0 -137 26t-110.5 56.5t-98 56.5t-102.5 26q-62 0 -98.5 -33.5t-36.5 -87.5q0 -16 -9 -25.5t-22 -9.5q-12 0 -21.5 9.5t-9.5 25.5q0 107 69.5 168.5t186.5 61.5q67 0 133 -26t109.5 -56.5t98.5 -56.5t102 -26q59 0 96.5 31t37.5 89q0 36 31 36q12 0 22 -10 t10 -28q0 -102 -69 -164.5t-182 -62.5zM1421 60q13 0 22 -8.5t9 -21.5t-9 -21.5t-22 -8.5h-579q-13 0 -22 8.5t-9 21.5t9 21.5t22 8.5h73q32 0 47.5 21t2.5 51l-117 279h-483l-112 -279q-11 -28 4 -50t45 -22h74q13 0 22 -8.5t9 -21.5t-9 -21.5t-22 -8.5h-339q-13 0 -22 8.5 t-9 21.5t9 21.5t22 8.5h49q38 0 58.5 17.5t35.5 54.5l498 1228h85l513 -1230q30 -70 100 -70h45zM390 470h433l-221 528z" />
<glyph unicode="&#xc4;" horiz-adv-x="1458" d="M423 1553q0 48 33.5 81.5t81.5 33.5q46 0 78.5 -33.5t32.5 -81.5q0 -47 -32.5 -79.5t-78.5 -32.5q-48 0 -81.5 32.5t-33.5 79.5zM809 1553q0 48 34 81.5t81 33.5t79.5 -33.5t32.5 -81.5q0 -47 -33 -79.5t-79 -32.5q-47 0 -81 33t-34 79zM1421 61q13 0 22 -9t9 -22 t-9 -21.5t-22 -8.5h-579q-13 0 -22 8.5t-9 21.5t9 22t22 9h73q32 0 47.5 20.5t2.5 50.5l-117 279h-483l-112 -279q-11 -28 3.5 -49.5t45.5 -21.5h74q13 0 22 -9t9 -22t-9 -21.5t-22 -8.5h-339q-13 0 -22 8.5t-9 21.5t9 22t22 9h49q38 0 58.5 17.5t35.5 53.5l498 1228h85 l513 -1230q30 -69 100 -69h45zM390 470h433l-221 529z" />
<glyph unicode="&#xc5;" horiz-adv-x="1458" d="M720 1430q-93 0 -159 64.5t-66 155.5q0 90 66.5 154t158.5 64t157 -64t65 -154q0 -91 -65.5 -155.5t-156.5 -64.5zM720 1494q62 0 105.5 46t43.5 110q0 63 -44 108.5t-105 45.5q-62 0 -107 -45t-45 -109q0 -65 44.5 -110.5t107.5 -45.5zM1421 61q13 0 22 -9t9 -22 t-9 -21.5t-22 -8.5h-579q-13 0 -22 8.5t-9 21.5t9 22t22 9h73q32 0 47.5 20.5t2.5 50.5l-117 279h-483l-112 -279q-11 -28 3.5 -49.5t45.5 -21.5h74q13 0 22 -9t9 -22t-9 -21.5t-22 -8.5h-339q-13 0 -22 8.5t-9 21.5t9 22t22 9h49q38 0 58.5 17.5t35.5 53.5l498 1228h85 l513 -1230q30 -69 100 -69h45zM390 470h433l-220 529z" />
<glyph unicode="&#xc6;" horiz-adv-x="2037" d="M1028 1350h846v-364q0 -14 -9 -22.5t-22 -8.5t-21 8.5t-8 22.5v35q0 113 -66 190.5t-186 77.5h-294q-29 0 -47.5 -19t-18.5 -45v-476h95q114 0 161.5 43t47.5 140v9q0 13 9 22t22 9t22 -9t9 -22v-448q0 -13 -9 -22t-22 -9t-22 10t-9 26v10q0 93 -47 135t-162 42h-95v-561 q0 -26 18.5 -44.5t47.5 -18.5h297q115 0 183.5 82t68.5 187v28q0 14 8.5 22.5t22.5 8.5q13 0 21 -8.5t8 -22.5v-358h-1065q-14 0 -22.5 9t-8.5 22t9 21.5t22 8.5h37q29 0 47.5 18.5t18.5 44.5v287h-460l-195 -279q-18 -27 -4.5 -49t45.5 -22h82q13 0 22 -9t9 -22t-9 -21.5 t-22 -8.5h-346q-13 0 -22 8.5t-9 21.5t9 22t22 9h34q37 0 60.5 17.5t48.5 53.5zM915 470v601l-419 -601h419z" />
<glyph unicode="&#xc7;" horiz-adv-x="1372" d="M1245 312q13 0 21.5 -9t7.5 -22q-8 -49 -76 -118q-142 -162 -375 -181l-18 -95q103 -16 156 -62.5t53 -119.5q0 -89 -72.5 -143t-172.5 -54q-87 0 -153 38q-38 20 -38 50q0 12 8.5 20t22.5 8q9 0 50.5 -19t84.5 -19q55 0 88.5 32.5t33.5 82.5t-37.5 87.5t-108.5 41.5 l31 149q-125 2 -232 37.5t-186 98t-135 148.5t-84 190t-28 221q0 204 85 362t241.5 246t358.5 88q225 0 365.5 -101t140.5 -242q0 -83 -40.5 -127t-96.5 -44q-49 0 -85.5 32t-36.5 85q0 28 14 53t30 40t30 36t14 41q0 63 -84 111.5t-209 48.5q-68 0 -126.5 -19t-112 -65 t-91 -116.5t-60 -180t-22.5 -248.5q0 -282 110.5 -446t310.5 -164q125 0 225.5 59t152.5 151q23 38 45 38z" />
<glyph unicode="&#xc8;" horiz-adv-x="1273" d="M693 1452l-290 211q-45 32 -28 78q13 35 49 45q44 11 82 -33l224 -263q19 -22 3 -38.5t-40 0.5zM1086 394q13 0 21 -8.5t8 -22.5v-363h-1035q-13 0 -21.5 8.5t-8.5 22.5q0 13 8.5 21t21.5 8h38q28 0 46.5 17t18.5 41l-1 1112q0 24 -18.5 41.5t-46.5 17.5h-37 q-13 0 -22 8.5t-9 21.5t8.5 22t22.5 9h1033v-364q0 -14 -8.5 -22.5t-22.5 -8.5q-13 0 -21.5 9t-8.5 22v35q0 113 -66 190.5t-186 77.5h-265q-28 0 -46.5 -17t-18.5 -41v-497h73q114 0 161.5 43t47.5 140v9q0 13 9 22t22 9t22 -9t9 -22v-448q0 -13 -9 -22t-22 -9t-22 10 t-9 26v10q0 93 -47 135.5t-162 42.5h-73v-552q0 -24 18.5 -41t46.5 -17h268q120 0 186 77.5t66 190.5v34q0 13 8.5 22t22.5 9z" />
<glyph unicode="&#xc9;" horiz-adv-x="1273" d="M559 1452q-24 -17 -40 -0.5t3 38.5l224 263q43 50 92 29q36 -15 42 -52q7 -40 -31 -67zM1086 394q13 0 21 -8.5t8 -22.5v-363h-1035q-14 0 -22.5 9t-8.5 22t8.5 21t22.5 8h38q28 0 46.5 17t18.5 41l-1 1112q0 24 -18.5 41.5t-46.5 17.5h-37q-13 0 -22 8.5t-9 21.5t8.5 22 t22.5 9h1033v-364q0 -14 -8.5 -22.5t-22.5 -8.5q-13 0 -21.5 9t-8.5 22v35q0 113 -66 190.5t-186 77.5h-265q-28 0 -46.5 -17t-18.5 -41v-497h73q114 0 161.5 43t47.5 140v9q0 13 9 22t22 9t22 -9t9 -22v-448q0 -13 -9 -22t-22 -9t-22 10t-9 26v10q0 93 -47 135.5t-162 42.5 h-73v-552q0 -24 18.5 -41t46.5 -17h268q120 0 186 77.5t66 190.5v34q0 13 8.5 22t22.5 9z" />
<glyph unicode="&#xca;" horiz-adv-x="1273" d="M887 1472q15 -34 -15.5 -47.5t-51.5 12.5l-164 197l-166 -197q-15 -18 -36.5 -17t-30 16t0.5 36l144 249q33 56 87 56.5t87 -56.5zM1086 394q13 0 21 -8.5t8 -22.5v-363h-1035q-14 0 -22.5 9t-8.5 22t8.5 21t22.5 8h38q28 0 46.5 17t18.5 41l-1 1112q0 24 -18.5 41.5 t-46.5 17.5h-37q-13 0 -22 8.5t-9 21.5t8.5 22t22.5 9h1033v-364q0 -14 -8.5 -22.5t-22.5 -8.5q-13 0 -21.5 9t-8.5 22v35q0 113 -66 190.5t-186 77.5h-265q-28 0 -46.5 -17t-18.5 -41v-497h73q114 0 161 43t47 140v9q0 13 9.5 22t22.5 9t22 -9t9 -22v-448q0 -13 -9 -22 t-22 -9t-22.5 10t-9.5 26v10q0 93 -46.5 135.5t-161.5 42.5h-73v-552q0 -24 18.5 -41.5t46.5 -17.5h268q120 0 186 78t66 191v34q0 13 8.5 22t22.5 9z" />
<glyph unicode="&#xcb;" horiz-adv-x="1273" d="M336 1553q0 48 33.5 81.5t81.5 33.5q47 0 79.5 -33.5t32.5 -81.5q0 -47 -32.5 -79.5t-79.5 -32.5q-48 0 -81.5 32.5t-33.5 79.5zM723 1553q0 48 33.5 81.5t80.5 33.5t79.5 -33.5t32.5 -81.5q0 -47 -32.5 -79.5t-79.5 -32.5t-80.5 33t-33.5 79zM1086 394q13 0 21 -8.5 t8 -22.5v-363h-1035q-14 0 -22.5 9t-8.5 22t8.5 21t22.5 8h38q28 0 46.5 17t18.5 41l-1 1112q0 24 -18.5 41.5t-46.5 17.5h-37q-13 0 -22 8.5t-9 21.5t8.5 22t22.5 9h1033v-364q0 -14 -8.5 -22.5t-22.5 -8.5q-13 0 -21.5 9t-8.5 22v35q0 113 -66 190.5t-186 77.5h-265 q-28 0 -46.5 -17t-18.5 -41v-497h73q114 0 161.5 43t47.5 140v9q0 13 9 22t22 9t22 -9t9 -22v-448q0 -13 -9 -22t-22 -9t-22 10t-9 26v10q0 93 -47 135.5t-162 42.5h-73v-552q0 -24 18.5 -41t46.5 -17h268q120 0 186 77.5t66 190.5v34q0 13 8.5 22t22.5 9z" />
<glyph unicode="&#xcc;" horiz-adv-x="651" d="M376 1452l-289 211q-44 32 -29 76q12 36 48 46q44 13 83 -32l224 -263q19 -22 3 -38.5t-40 0.5zM572 61q13 0 22 -8.5t9 -21.5t-8.5 -22t-22.5 -9h-492q-14 0 -22.5 9t-8.5 22t9 21.5t22 8.5h37q28 0 46.5 17t18.5 41v1112q0 24 -18.5 41t-46.5 17h-37q-13 0 -22 8.5 t-9 21.5t8.5 22t22.5 9h492q14 0 22.5 -9t8.5 -22t-9 -21.5t-22 -8.5h-37q-28 0 -46.5 -17t-18.5 -41v-1112q0 -24 18.5 -41t46.5 -17h37z" />
<glyph unicode="&#xcd;" horiz-adv-x="651" d="M243 1452q-24 -17 -40 -0.5t3 38.5l224 263q42 49 90 30q36 -15 43 -52q8 -40 -31 -68zM572 61q13 0 22 -8.5t9 -21.5t-8.5 -22t-22.5 -9h-492q-14 0 -22.5 9t-8.5 22t9 21.5t22 8.5h37q28 0 46.5 17t18.5 41v1112q0 24 -18.5 41t-46.5 17h-37q-13 0 -22 8.5t-9 21.5 t8.5 22t22.5 9h492q14 0 22.5 -9t8.5 -22t-9 -21.5t-22 -8.5h-37q-28 0 -46.5 -17t-18.5 -41v-1112q0 -24 18.5 -41t46.5 -17h37z" />
<glyph unicode="&#xce;" horiz-adv-x="651" d="M570 1472q15 -34 -15 -47.5t-51 12.5l-165 197l-165 -197q-15 -18 -36.5 -17t-30.5 16t0 36l145 249q33 56 87 56.5t87 -56.5zM572 60q14 0 22.5 -8t8.5 -21t-8.5 -22t-22.5 -9h-492q-14 0 -22.5 9t-8.5 22t9 21.5t22 8.5h37q28 0 46.5 16.5t18.5 40.5v1113 q0 24 -18.5 41t-46.5 17h-37q-13 0 -22 8.5t-9 21.5t8.5 22t22.5 9h492q14 0 22.5 -9t8.5 -22t-9 -21.5t-22 -8.5h-37q-28 0 -46.5 -17t-18.5 -41v-1112q0 -24 18.5 -41.5t46.5 -17.5h37z" />
<glyph unicode="&#xcf;" horiz-adv-x="651" d="M20 1553q0 48 33 81.5t81 33.5q47 0 79.5 -33.5t32.5 -81.5q0 -47 -33 -79.5t-79 -32.5q-48 0 -81 32.5t-33 79.5zM406 1553q0 48 34 81.5t81 33.5t79.5 -33.5t32.5 -81.5q0 -47 -32.5 -79.5t-79.5 -32.5t-81 33t-34 79zM572 61q13 0 22 -8.5t9 -21.5t-8.5 -22t-22.5 -9 h-492q-14 0 -22.5 9t-8.5 22t9 21.5t22 8.5h37q28 0 46.5 17t18.5 41v1112q0 24 -18.5 41t-46.5 17h-37q-13 0 -22 8.5t-9 21.5t8.5 22t22.5 9h492q14 0 22.5 -9t8.5 -22t-9 -21.5t-22 -8.5h-37q-28 0 -46.5 -17t-18.5 -41v-1112q0 -24 18.5 -41t46.5 -17h37z" />
<glyph unicode="&#xd0;" horiz-adv-x="1480" d="M612 1350h-1q186 0 328.5 -35t250 -111.5t164 -207t56.5 -312.5q0 -147 -53 -271.5t-152 -216.5t-251.5 -144t-342.5 -52h-531q-14 0 -22.5 9t-8.5 22t8.5 21t22.5 8h37q28 0 46.5 17t18.5 41v553h-102q-14 0 -22.5 8.5t-8.5 22.5q0 13 8.5 21t22.5 8h102v500 q0 24 -18.5 41t-46.5 17h-37q-13 0 -22 8.5t-9 21.5t8.5 22t22.5 9h532zM611 61h1q103 0 190 38.5t153 113.5t103 195.5t37 275.5q0 310 -126.5 457.5t-356.5 147.5h-77q-28 0 -46.5 -17t-18.5 -41v-500h328q14 0 22.5 -8.5t8.5 -22.5q0 -13 -8.5 -21t-22.5 -8h-328v-552 q0 -24 18.5 -41t46.5 -17h76z" />
<glyph unicode="&#xd1;" horiz-adv-x="1353" d="M869 1443q-70 0 -137 26t-110.5 56.5t-98 56.5t-102.5 26q-62 0 -98 -33t-36 -88q0 -16 -9 -25.5t-22 -9.5q-12 0 -21.5 9.5t-9.5 25.5q0 107 69 168.5t186 61.5q67 0 133 -26t110 -56.5t99 -56.5t102 -26q60 0 97 31t37 89q0 36 31 36q12 0 21.5 -10t9.5 -28 q0 -102 -69 -164.5t-182 -62.5zM1274 1350q13 0 22 -8.5t9 -21.5q0 -14 -8.5 -22.5t-22.5 -8.5h-37q-29 0 -47 -19t-18 -45v-1225h-140l-777 1053v-929q0 -26 18 -45t47 -19h37q14 0 22.5 -8.5t8.5 -21.5t-9 -21.5t-22 -8.5h-277q-13 0 -22 8.5t-9 21.5t8.5 21.5t22.5 8.5 h37q29 0 47 19t18 45v1101q0 26 -18 45t-47 19h-37q-14 0 -22.5 8.5t-8.5 22.5q0 13 9 21.5t22 8.5h290l730 -986v861q0 26 -18.5 45t-47.5 19h-37q-13 0 -22 8.5t-9 22.5q0 13 9 21.5t22 8.5h277z" />
<glyph unicode="&#xd2;" horiz-adv-x="1552" d="M824 1452l-290 211q-45 32 -28 78q13 35 49 45q44 11 82 -33l224 -263q19 -22 3 -38.5t-40 0.5zM776 1369q155 0 285.5 -53.5t219 -146t137.5 -219.5t49 -273t-49 -274t-137.5 -222t-219 -148t-285.5 -54q-156 0 -286.5 54t-218 148t-136.5 222t-49 274q0 117 30.5 222 t90.5 190.5t142.5 148.5t192 97t234.5 34zM776 41q103 0 178 50t117 140t61 200t19 246t-19 245t-61 198t-117 138t-178 49t-178 -49t-117 -138t-61 -198t-19 -245t19 -246t61 -200t117 -140t178 -50z" />
<glyph unicode="&#xd3;" horiz-adv-x="1552" d="M691 1452q-24 -17 -40.5 -0.5t2.5 38.5l224 263q43 50 92 29q36 -15 42 -52q7 -40 -31 -67zM776 1369q155 0 285.5 -53.5t219 -146t137.5 -219.5t49 -273t-49 -274t-137.5 -222t-219 -148t-285.5 -54q-156 0 -286.5 54t-218 148t-136.5 222t-49 274q0 117 30.5 222 t90.5 190.5t142.5 148.5t192 97t234.5 34zM776 41q103 0 178 50t117 140t61 200t19 246t-19 245t-61 198t-117 138t-178 49t-178 -49t-117 -138t-61 -198t-19 -245t19 -246t61 -200t117 -140t178 -50z" />
<glyph unicode="&#xd4;" horiz-adv-x="1552" d="M1018 1472q15 -34 -15 -47.5t-51 12.5l-165 197l-165 -197q-15 -18 -36.5 -17t-30.5 16t0 36l145 249q33 56 87 56.5t87 -56.5zM776 1369q155 0 285.5 -53.5t219 -146t137.5 -219.5t49 -273t-49 -274t-137.5 -222t-219 -148t-285.5 -54q-156 0 -286.5 54t-218 148 t-136.5 222t-49 274q0 117 30.5 222t90.5 190.5t142.5 148.5t192 97t234.5 34zM776 41q103 0 178 50t117 140t61 200t19 246t-19 245t-61 198t-117 138t-178 49t-178 -49t-117 -138t-61 -198t-19 -245t19 -246t61 -200t117 -140t178 -50z" />
<glyph unicode="&#xd5;" horiz-adv-x="1552" d="M972 1443q-70 0 -137 26t-110.5 56.5t-98 56.5t-102.5 26q-62 0 -98.5 -33.5t-36.5 -87.5q0 -16 -9 -25.5t-22 -9.5q-12 0 -21.5 9.5t-9.5 25.5q0 107 69 168.5t186 61.5q67 0 133 -26t110 -56.5t99 -56.5t102 -26q60 0 97 31t37 89q0 36 31 36q12 0 21.5 -10t9.5 -28 q0 -102 -68.5 -164.5t-181.5 -62.5zM776 1369q155 0 285.5 -53.5t219 -146t137.5 -219.5t49 -273t-49 -274t-137.5 -222t-219 -148t-285.5 -54q-156 0 -286.5 54t-218 148t-136.5 222t-49 274q0 117 30.5 222t90.5 190.5t142.5 148.5t192 97t234.5 34zM776 41q103 0 178 50 t117 140t61 200t19 246t-19 245t-61 198t-117 138t-178 49t-178 -49t-117 -138t-61 -198t-19 -245t19 -246t61 -200t117 -140t178 -50z" />
<glyph unicode="&#xd6;" horiz-adv-x="1552" d="M467 1553q0 48 33.5 81.5t81.5 33.5q47 0 79.5 -33.5t32.5 -81.5q0 -47 -33 -79.5t-79 -32.5q-48 0 -81.5 32.5t-33.5 79.5zM854 1553q0 48 34 81.5t81 33.5t79.5 -33.5t32.5 -81.5q0 -47 -32.5 -79.5t-79.5 -32.5t-81 33t-34 79zM776 1369q155 0 285.5 -53.5t219 -146 t137.5 -219.5t49 -273t-49 -274t-137.5 -222t-219 -148t-285.5 -54q-156 0 -286.5 54t-218 148t-136.5 222t-49 274q0 117 30.5 222t90.5 190.5t142.5 148.5t192 97t234.5 34zM776 41q103 0 178 50t117 140t61 200t19 246t-19 245t-61 198t-117 138t-178 49t-178 -49 t-117 -138t-61 -198t-19 -245t19 -246t61 -200t117 -140t178 -50z" />
<glyph unicode="&#xd7;" horiz-adv-x="712" d="M625 277q22 -22 0 -44q-9 -9 -21 -8.5t-22 10.5l-34 34l-192 192v0l-64 -64l-7 -7l-108 -108l-60 -59q-21 -21 -43 0q-21 21 1 43l59 59l115 115l64 64l-65 64l-7 7v1l-107 107l-60 60q-22 21 0 43q21 21 43 -1l7 -7l232 -231l192 192l35 35q22 22 44 0q21 -21 -1 -43 l-60 -59l-107 -108l-60 -59v-1z" />
<glyph unicode="&#xd8;" horiz-adv-x="1552" d="M942 1352q242 -51 383.5 -235.5t141.5 -439.5q0 -146 -49 -274t-137.5 -222t-219 -148t-285.5 -54q-64 0 -122 9l-23 -109h-61l26 121q-235 55 -372.5 240t-137.5 437q0 117 30.5 222t90.5 190.5t142.5 148.5t192 97t234.5 34q46 0 106 -7l26 127h63zM401 677 q0 -472 212 -595l255 1214q-44 11 -92 11q-103 0 -178 -49t-117 -138t-61 -198t-19 -245zM776 41q103 0 178 50t117 140t61 200t19 246q0 483 -225 597l-257 -1217q47 -16 107 -16z" />
<glyph unicode="&#xd9;" horiz-adv-x="1433" d="M873 1452l-290 211q-45 32 -28 78q13 35 49 45q44 11 82 -33l224 -263q19 -22 3 -38.5t-40 0.5zM1354 1350q13 0 22 -8.5t9 -21.5q0 -14 -8.5 -22.5t-22.5 -8.5h-37q-29 0 -47 -19t-18 -45v-722q0 -138 -39 -241t-110.5 -164t-163.5 -90t-205 -29q-85 0 -162.5 17 t-149.5 56.5t-124.5 98.5t-84 150t-31.5 204v720q0 26 -18 45t-47 19h-37q-13 0 -22 8.5t-9 21.5t8.5 22t22.5 9h492q14 0 22.5 -9t8.5 -22t-9 -21.5t-22 -8.5h-37q-29 0 -47 -19t-18 -45v-745q0 -207 92 -307t250 -100q164 0 265.5 103t101.5 310v739q0 26 -18 45t-47 19 h-37q-13 0 -22 8.5t-9 22.5q0 13 9 21.5t22 8.5h277z" />
<glyph unicode="&#xda;" horiz-adv-x="1433" d="M739 1452q-24 -17 -40 -0.5t3 38.5l224 263q43 50 92 29q36 -15 42 -52q7 -40 -31 -67zM1354 1350q13 0 22 -8.5t9 -21.5q0 -14 -8.5 -22.5t-22.5 -8.5h-37q-29 0 -47 -19t-18 -45v-722q0 -138 -39 -241t-110.5 -164t-163.5 -90t-205 -29q-85 0 -162.5 17t-149.5 56.5 t-124.5 98.5t-84 150t-31.5 204v720q0 26 -18 45t-47 19h-37q-13 0 -22 8.5t-9 21.5t8.5 22t22.5 9h492q14 0 22.5 -9t8.5 -22t-9 -21.5t-22 -8.5h-37q-29 0 -47 -19t-18 -45v-745q0 -207 92 -307t250 -100q164 0 265.5 103t101.5 310v739q0 26 -18 45t-47 19h-37 q-13 0 -22 8.5t-9 22.5q0 13 9 21.5t22 8.5h277z" />
<glyph unicode="&#xdb;" horiz-adv-x="1433" d="M1067 1472q15 -34 -15.5 -47.5t-51.5 12.5l-164 197l-166 -197q-15 -18 -36.5 -17t-30 16t0.5 36l144 249q33 56 87 56.5t87 -56.5zM1354 1350q13 0 22 -8.5t9 -21.5q0 -14 -8.5 -22.5t-22.5 -8.5h-37q-29 0 -47.5 -19t-18.5 -45v-722q0 -138 -39 -241t-110 -164 t-163 -90t-205 -29q-85 0 -162.5 17t-149.5 56.5t-124.5 98.5t-84 150t-31.5 204v720q0 26 -18 45t-47 19h-37q-13 0 -22 8.5t-9 21.5t8.5 22t22.5 9h492q14 0 22.5 -9t8.5 -22t-9 -21.5t-22 -8.5h-37q-29 0 -47 -19t-18 -45v-745q0 -207 92 -307t250 -100q164 0 265.5 103 t101.5 310v739q0 26 -18 45t-47 19h-37q-13 0 -22 8.5t-9 22.5q0 13 9 21.5t22 8.5h277z" />
<glyph unicode="&#xdc;" horiz-adv-x="1433" d="M516 1553q0 48 33.5 81.5t81.5 33.5q47 0 79.5 -33.5t32.5 -81.5q0 -47 -32.5 -79.5t-79.5 -32.5q-48 0 -81.5 32.5t-33.5 79.5zM903 1553q0 48 33.5 81.5t80.5 33.5t79.5 -33.5t32.5 -81.5q0 -47 -32.5 -79.5t-79.5 -32.5t-80.5 33t-33.5 79zM1354 1350q13 0 22 -8.5 t9 -21.5q0 -14 -8.5 -22.5t-22.5 -8.5h-37q-29 0 -47.5 -19t-18.5 -45v-722q0 -138 -39 -241t-110 -164t-163 -90t-205 -29q-85 0 -162.5 17t-149.5 56.5t-124.5 98.5t-84 150t-31.5 204v720q0 26 -18 45t-47 19h-37q-13 0 -22 8.5t-9 21.5t8.5 22t22.5 9h492q14 0 22.5 -9 t8.5 -22t-9 -21.5t-22 -8.5h-37q-29 0 -47 -19t-18 -45v-745q0 -207 92 -307t250 -100q164 0 265.5 103t101.5 310v739q0 26 -18 45t-47 19h-37q-13 0 -22 8.5t-9 22.5q0 13 9 21.5t22 8.5h277z" />
<glyph unicode="&#xdd;" horiz-adv-x="1302" d="M654 1452q-24 -17 -40 -0.5t3 38.5l223 263q43 50 92 29q36 -15 42 -52q7 -40 -31 -67zM1269 1350q13 0 21.5 -8.5t8.5 -21.5t-8.5 -22t-21.5 -9h-36q-29 0 -55.5 -16.5t-40.5 -42.5l-330 -620v-486q0 -26 18 -45t47 -19h37q14 0 22.5 -8t8.5 -21t-9 -22t-22 -9h-492 q-13 0 -22 9t-9 22t8.5 21t22.5 8h37q29 0 47 19t18 45v420l-372 686q-16 29 -33.5 44t-46.5 15h-33q-14 0 -22.5 8.5t-8.5 22.5q0 13 9 21.5t22 8.5h516q13 0 21.5 -8.5t8.5 -21.5t-8.5 -22t-21.5 -9h-34q-35 0 -47 -15.5t3 -43.5l294 -552l290 552q12 22 -1 40.5t-43 18.5 h-30q-14 0 -22.5 8.5t-8.5 22.5q0 13 9 21.5t22 8.5h287z" />
<glyph unicode="&#xde;" horiz-adv-x="1275" d="M673 1089q269 0 412.5 -110.5t143.5 -285.5q0 -191 -143.5 -310t-412.5 -119h-203v-145q0 -24 18.5 -41t46.5 -17h37q13 0 22 -8.5t9 -21.5t-8.5 -22t-22.5 -9h-492q-14 0 -22.5 9t-8.5 22t9 21.5t22 8.5h37q28 0 46.5 16.5t18.5 40.5v1113q0 24 -18.5 41t-46.5 17h-37 q-13 0 -22 8.5t-9 21.5t8.5 22t22.5 9h492q14 0 22.5 -9t8.5 -22t-9 -21.5t-22 -8.5h-37q-28 0 -46.5 -17t-18.5 -41v-142h203zM609 325q149 0 229 99.5t80 268.5q0 150 -75.5 243t-233.5 93h-139v-704h139z" />
<glyph unicode="&#xdf;" horiz-adv-x="1396" d="M868 833q0 -40 25 -75.5t65 -64t88 -57.5t96 -62.5t88 -72t65 -92.5t25 -117q0 -145 -115.5 -229t-283.5 -84q-161 0 -259 78.5t-98 221.5q0 62 34.5 96t80.5 34q40 0 69 -26t29 -72q0 -35 -40.5 -80t-40.5 -75q0 -57 54 -87.5t143 -30.5q102 0 156 51t54 142 q0 38 -22 73t-57.5 63.5t-78 57t-85.5 59.5t-78.5 65.5t-57.5 81.5t-22 100q0 64 26 120.5t62.5 98.5t73 83t62.5 93t26 109q0 93 -69 153t-185 60q-118 0 -187.5 -75t-69.5 -200v-1047q0 -27 18.5 -46t46.5 -19h37q13 0 22 -8.5t9 -21.5t-9 -22t-22 -9h-457q-14 0 -22.5 9 t-8.5 22t9 21.5t22 8.5h37q28 0 47 19t19 46v737h-103q-14 0 -22.5 8.5t-8.5 22.5q0 13 9 21.5t22 8.5h103v159q0 199 130 316t365 117q160 0 254.5 -76.5t94.5 -198.5q0 -61 -17 -112t-41.5 -85.5t-48.5 -65.5t-41 -67.5t-17 -77.5z" />
<glyph unicode="&#xe0;" d="M598 1157l-290 211q-45 32 -28 78q13 36 49 45q44 12 82 -32l224 -264q19 -22 3 -38.5t-40 0.5zM1190 61q13 0 22 -8.5t9 -21.5t-8.5 -22t-22.5 -9h-354v212q-59 -116 -144.5 -175t-207.5 -59q-123 0 -216.5 64t-142 173.5t-48.5 246.5q0 205 111.5 342.5t295.5 137.5 q127 0 211.5 -60t140.5 -172v214h252v-798q0 -27 18.5 -46t46.5 -19h37zM556 56q112 0 198 123.5t86 279.5q0 161 -87 283.5t-197 122.5q-70 0 -117 -35t-76 -127t-29 -243q0 -114 15.5 -194t46 -125t69.5 -65t91 -20z" />
<glyph unicode="&#xe1;" d="M502 1157q-24 -17 -40 -0.5t3 38.5l224 264q43 50 92 29q36 -16 42 -53q7 -40 -31 -67zM1190 61q13 0 22 -8.5t9 -21.5t-8.5 -22t-22.5 -9h-354v212q-59 -116 -144.5 -175t-207.5 -59q-123 0 -216.5 64t-142 173.5t-48.5 246.5q0 205 111.5 342.5t295.5 137.5 q127 0 211.5 -60t140.5 -172v214h252v-798q0 -27 18.5 -46t46.5 -19h37zM556 56q112 0 198 123.5t86 279.5q0 161 -87 283.5t-197 122.5q-70 0 -117 -35t-76 -127t-29 -243q0 -114 15.5 -194t46 -125t69.5 -65t91 -20z" />
<glyph unicode="&#xe2;" d="M773 1189q15 -34 -15.5 -47t-51.5 13l-165 196l-165 -196q-15 -18 -36.5 -17t-30 15.5t0.5 35.5l144 250q33 56 87 56.5t87 -56.5zM1190 60q14 0 22.5 -8t8.5 -21t-8.5 -22t-22.5 -9h-354v212q-59 -116 -144.5 -175t-207.5 -59q-123 0 -216.5 64t-142 173.5t-48.5 246.5 q0 205 111.5 342.5t295.5 137.5q127 0 211.5 -60t140.5 -172v214h252v-798q0 -27 19 -46.5t46 -19.5h37zM556 56q112 0 198 123.5t86 279.5q0 161 -87 283.5t-197 122.5q-70 0 -117 -35t-76 -127t-29 -243q0 -114 15.5 -194t46 -125t69.5 -65t91 -20z" />
<glyph unicode="&#xe3;" d="M739 1152q-70 0 -137 26t-110.5 57t-98 57t-102.5 26q-62 0 -98.5 -33.5t-36.5 -87.5q0 -16 -9 -25.5t-22 -9.5q-12 0 -21.5 9.5t-9.5 25.5q0 107 69.5 168.5t186.5 61.5q67 0 133 -26t109.5 -56.5t98.5 -56.5t102 -26q60 0 97 30.5t37 88.5q0 18 9 27.5t22 9.5 q12 0 22 -10t10 -28q0 -102 -69 -165t-182 -63zM1190 60q14 0 22.5 -8t8.5 -21t-8.5 -22t-22.5 -9h-354v212q-59 -116 -144.5 -175t-207.5 -59q-123 0 -216.5 64t-142 173.5t-48.5 246.5q0 205 111.5 342.5t295.5 137.5q127 0 211.5 -60t140.5 -172v214h252v-798 q0 -27 19 -46.5t46 -19.5h37zM556 56q112 0 198 123.5t86 279.5q0 161 -87 283.5t-197 122.5q-70 0 -117 -35t-76 -127t-29 -243q0 -114 15.5 -194t46 -125t69.5 -65t91 -20z" />
<glyph unicode="&#xe4;" d="M236 1255q0 48 33 81.5t81 33.5q47 0 79.5 -33.5t32.5 -81.5q0 -47 -33 -79.5t-79 -32.5q-48 0 -81 32.5t-33 79.5zM622 1255q0 48 34 81.5t81 33.5t79.5 -33.5t32.5 -81.5q0 -47 -32.5 -79.5t-79.5 -32.5t-81 33t-34 79zM1190 61q13 0 22 -8.5t9 -21.5t-8.5 -22 t-22.5 -9h-354v212q-59 -116 -144.5 -175t-207.5 -59q-123 0 -216.5 64t-142 173.5t-48.5 246.5q0 205 111.5 342.5t295.5 137.5q127 0 211.5 -60t140.5 -172v214h252v-798q0 -27 18.5 -46t46.5 -19h37zM556 56q112 0 198 123.5t86 279.5q0 161 -87 283.5t-197 122.5 q-70 0 -117 -35t-76 -127t-29 -243q0 -114 15.5 -194t46 -125t69.5 -65t91 -20z" />
<glyph unicode="&#xe5;" d="M542 1115q-92 0 -158 64.5t-66 155.5q0 90 66 154t158 64t157.5 -64t65.5 -154t-66 -155t-157 -65zM542 1179q62 0 105.5 46t43.5 110q0 62 -44 107.5t-105 45.5q-62 0 -106.5 -44.5t-44.5 -108.5q0 -65 44 -110.5t107 -45.5zM1190 61q13 0 22 -8.5t9 -21.5t-8.5 -22 t-22.5 -9h-354v212q-59 -116 -144.5 -175t-207.5 -59q-123 0 -216.5 64t-142 173.5t-48.5 246.5q0 205 111.5 342.5t295.5 137.5q127 0 211.5 -60t140.5 -172v214h252v-798q0 -27 18.5 -46t46.5 -19h37zM556 56q112 0 198 123.5t86 279.5q0 161 -87 283.5t-197 122.5 q-70 0 -117 -35t-76 -127t-29 -243q0 -114 15.5 -194t46 -125t69.5 -65t91 -20z" />
<glyph unicode="&#xe6;" horiz-adv-x="1751" d="M1208 942q224 0 344 -116.5t120 -312.5q0 -29 -15.5 -39.5t-50.5 -10.5h-638q0 -117 31 -206.5t100 -144.5t170 -55q66 0 122 20t96 54t67 72t44 81q11 28 31 28q27 0 25 -30q-2 -20 -16.5 -53.5t-48 -77.5t-79.5 -82t-119.5 -64t-159.5 -26q-175 0 -310 79.5t-185 235.5 q-36 -146 -136.5 -230.5t-248.5 -84.5q-136 0 -214.5 74.5t-78.5 177.5q0 84 40 140.5t137 91t257 42.5l217 10v163q0 53 -23.5 94t-61.5 65t-81 36t-87 12q-91 0 -154 -31.5t-63 -74.5q0 -17 10.5 -32t22.5 -25.5t22.5 -31t10.5 -47.5q0 -42 -30.5 -68.5t-70.5 -26.5 q-46 0 -79 34t-33 100q0 107 99 183.5t293 76.5q259 0 376 -117q131 117 348 117zM970 517h452q-9 369 -225 369q-100 0 -159.5 -97.5t-67.5 -271.5zM477 88q100 0 165.5 98t66.5 276l-193 -9q-102 -5 -149 -59.5t-47 -128.5q0 -83 42 -130t115 -47z" />
<glyph unicode="&#xe7;" horiz-adv-x="1073" d="M965 306q17 0 23.5 -13t2.5 -25q-7 -18 -14.5 -35t-25.5 -46.5t-38.5 -54.5t-53 -53.5t-69.5 -48.5t-88 -34t-108 -16l-18 -93q103 -16 156 -62.5t53 -119.5q0 -89 -72.5 -143t-172.5 -54q-87 0 -153 38q-39 21 -39 50q0 12 8.5 20t22.5 8q9 0 51 -19t85 -19 q55 0 88.5 32.5t33.5 82.5t-38 87.5t-109 41.5l33 151q-213 16 -329.5 148t-116.5 336q0 111 40.5 203t109.5 151t158 91t187 32q179 0 300 -93t121 -212q0 -79 -42 -123t-106 -44q-52 0 -86.5 38t-34.5 83q0 31 13.5 57t30 40.5t30 34.5t13.5 41q0 52 -66.5 86.5 t-145.5 34.5q-263 0 -263 -420q0 -205 77 -310t204 -105q115 0 196 68t122 165q8 23 30 23z" />
<glyph unicode="&#xe8;" horiz-adv-x="1120" d="M616 1157l-290 211q-45 32 -28 78q13 36 49 45q44 12 82 -32l224 -264q19 -22 3 -38.5t-40 0.5zM1040 513q0 -29 -15.5 -39.5t-51.5 -10.5h-637q0 -117 31 -206.5t100 -144.5t170 -55q66 0 122 20t95.5 54t66.5 72t44 81q11 28 31 28q27 0 25 -30q-2 -20 -16.5 -53.5 t-48 -77.5t-79.5 -82t-119.5 -64t-159.5 -26q-105 0 -197 29t-165.5 86.5t-116 152.5t-42.5 216q0 213 130.5 346t368.5 133q224 0 344 -116.5t120 -312.5zM337 517h452q-9 369 -224 369q-100 0 -160.5 -97.5t-67.5 -271.5z" />
<glyph unicode="&#xe9;" horiz-adv-x="1120" d="M520 1157q-24 -17 -40 -0.5t3 38.5l224 264q43 50 92 29q36 -16 42 -53q7 -40 -31 -67zM1040 513q0 -29 -15.5 -39.5t-51.5 -10.5h-637q0 -117 31 -206.5t100 -144.5t170 -55q66 0 122 20t95.5 54t66.5 72t44 81q11 28 31 28q27 0 25 -30q-2 -20 -16.5 -53.5t-48 -77.5 t-79.5 -82t-119.5 -64t-159.5 -26q-105 0 -197 29t-165.5 86.5t-116 152.5t-42.5 216q0 213 130.5 346t368.5 133q224 0 344 -116.5t120 -312.5zM337 517h452q-9 369 -224 369q-100 0 -160.5 -97.5t-67.5 -271.5z" />
<glyph unicode="&#xea;" horiz-adv-x="1120" d="M791 1189q15 -34 -15.5 -47t-51.5 13l-165 196l-165 -196q-15 -18 -36.5 -17t-30 15.5t0.5 35.5l144 250q33 56 87 56.5t87 -56.5zM1040 513q0 -29 -15.5 -39.5t-51.5 -10.5h-637q0 -117 31 -206.5t100 -144.5t170 -55q66 0 122 20t95.5 54t66.5 72t44 81q11 28 31 28 q27 0 25 -30q-2 -20 -16.5 -53.5t-48 -77.5t-79.5 -82t-119.5 -64t-159.5 -26q-105 0 -197 29t-165.5 86.5t-116 152.5t-42.5 216q0 213 130.5 346t368.5 133q224 0 344 -116.5t120 -312.5zM337 517h452q-9 369 -224 369q-100 0 -160.5 -97.5t-67.5 -271.5z" />
<glyph unicode="&#xeb;" horiz-adv-x="1120" d="M253 1255q0 48 33.5 81.5t81.5 33.5q47 0 79.5 -33.5t32.5 -81.5q0 -47 -33 -79.5t-79 -32.5q-48 0 -81.5 32.5t-33.5 79.5zM640 1255q0 48 34 81.5t81 33.5t79.5 -33.5t32.5 -81.5q0 -47 -32.5 -79.5t-79.5 -32.5t-81 33t-34 79zM1040 513q0 -29 -15.5 -39.5 t-51.5 -10.5h-637q0 -117 31 -206.5t100 -144.5t170 -55q66 0 122 20t95.5 54t66.5 72t44 81q11 28 31 28q27 0 25 -30q-2 -20 -16.5 -53.5t-48 -77.5t-79.5 -82t-119.5 -64t-159.5 -26q-105 0 -197 29t-165.5 86.5t-116 152.5t-42.5 216q0 213 130 346t368 133 q224 0 344.5 -117t120.5 -312zM337 517h452q-9 369 -224 369q-100 0 -160.5 -97.5t-67.5 -271.5z" />
<glyph unicode="&#xec;" horiz-adv-x="614" d="M364 1157l-290 211q-45 32 -28 78q13 36 49 45q44 12 82 -32l224 -264q19 -22 3 -38.5t-40 0.5zM543 61q13 0 22 -8.5t9 -21.5t-9 -22t-22 -9h-457q-14 0 -22.5 9t-8.5 22t8.5 21t22.5 8h37q28 0 47 19.5t19 46.5v672q0 27 -19 46t-47 19h-37q-13 0 -22 8.5t-9 21.5 t8.5 22t22.5 9h355v-798q0 -27 18.5 -46t46.5 -19h37z" />
<glyph unicode="&#xed;" horiz-adv-x="614" d="M268 1157q-24 -17 -40 -0.5t3 38.5l224 264q43 50 92 29q36 -16 42 -53q7 -40 -31 -67zM543 61q13 0 22 -8.5t9 -21.5t-9 -22t-22 -9h-457q-14 0 -22.5 9t-8.5 22t8.5 21t22.5 8h37q28 0 47 19.5t19 46.5v672q0 27 -19 46t-47 19h-37q-13 0 -22 8.5t-9 21.5t8.5 22 t22.5 9h354v-798q0 -27 19 -46t47 -19h37z" />
<glyph unicode="&#xee;" horiz-adv-x="614" d="M538 1189q15 -34 -15 -47t-51 13l-165 196l-165 -196q-15 -18 -36.5 -17t-30.5 15.5t0 35.5l145 250q33 56 87 56.5t87 -56.5zM543 60q14 0 22.5 -8t8.5 -21t-9 -22t-22 -9h-457q-14 0 -22.5 9t-8.5 22t8.5 21t22.5 8h37q28 0 47 19.5t19 46.5v672q0 27 -19 46t-47 19 h-37q-13 0 -22 8.5t-9 21.5t8.5 22t22.5 9h355v-798q0 -27 19 -46.5t46 -19.5h37z" />
<glyph unicode="&#xef;" horiz-adv-x="614" d="M1 1255q0 48 33.5 81.5t81.5 33.5q47 0 79.5 -33.5t32.5 -81.5q0 -47 -33 -79.5t-79 -32.5q-48 0 -81.5 32.5t-33.5 79.5zM388 1255q0 48 34 81.5t81 33.5q46 0 78.5 -33.5t32.5 -81.5q0 -47 -32.5 -79.5t-78.5 -32.5q-47 0 -81 33t-34 79zM543 61q13 0 22 -8.5t9 -21.5 t-9 -22t-22 -9h-457q-14 0 -22.5 9t-8.5 22t9 21.5t22 8.5h37q28 0 47 19t19 46v672q0 27 -19 46t-47 19h-37q-13 0 -22 8.5t-9 21.5t8.5 22t22.5 9h355v-798q0 -27 18.5 -46t46.5 -19h37z" />
<glyph unicode="&#xf0;" horiz-adv-x="1185" d="M685 1386q111 -55 194 -136t132.5 -178.5t73 -204t23.5 -223.5q0 -158 -42.5 -286t-117 -210t-172 -125.5t-210.5 -43.5q-98 0 -185.5 31t-155.5 89.5t-108 151.5t-40 208q0 110 35.5 202.5t95 153t136 94t159.5 33.5q115 0 192 -48.5t136 -143.5q-43 377 -240 541 l-131 -130l-7 -7q-22 -22 -44 0q-21 21 1 43l131 130q-153 100 -391 100q-15 0 -25 8.5t-10 22.5q0 15 10 25t25 10q277 0 476 -81l125 125q22 22 44 0q21 -21 -1 -42zM575 35q77 0 138 58t94 159t33 225q0 163 -80.5 276.5t-182.5 113.5q-53 0 -91 -18t-68 -62.5t-45 -126 t-15 -201.5q0 -107 14 -186.5t35 -124t51.5 -71t57.5 -34.5t59 -8z" />
<glyph unicode="&#xf1;" horiz-adv-x="1269" d="M833 1152q-70 0 -137 26t-110.5 57t-98 57t-102.5 26q-62 0 -98 -33t-36 -88q0 -16 -9 -25.5t-22 -9.5q-12 0 -21.5 9.5t-9.5 25.5q0 107 69 168.5t186 61.5q67 0 133 -26t110 -56.5t99 -56.5t102 -26q60 0 96.5 30.5t36.5 88.5q0 18 9 27.5t22 9.5q12 0 22 -10t10 -28 q0 -102 -69 -165t-182 -63zM1198 60q14 0 22.5 -8t8.5 -21t-8.5 -22t-22.5 -9h-456q-14 0 -22.5 9t-8.5 22t8.5 21t22.5 8h37q27 0 46 19.5t19 46.5v500q0 102 -42 152.5t-110 50.5q-112 0 -181.5 -108.5t-69.5 -266.5v-328q0 -27 19 -46.5t46 -19.5h37q14 0 22.5 -8 t8.5 -21t-9 -22t-22 -9h-457q-14 0 -22.5 9t-8.5 22t8.5 21t22.5 8h37q28 0 47 19.5t19 46.5v672q0 27 -19 46t-47 19h-37q-13 0 -22 8.5t-9 21.5t8.5 22t22.5 9h355v-223q52 110 145 175t212 65q135 0 216.5 -79t81.5 -223v-513q0 -27 19 -46.5t46 -19.5h37z" />
<glyph unicode="&#xf2;" horiz-adv-x="1153" d="M629 1157l-289 211q-45 32 -28 78q13 36 49 45q44 12 82 -32l224 -264q19 -22 2.5 -38.5t-40.5 0.5zM577 -21q-231 0 -365.5 131.5t-134.5 352.5q0 97 32.5 182.5t93.5 152t157.5 105.5t216.5 39q228 0 364 -124.5t136 -354.5q0 -222 -132 -353t-368 -131zM574 36 q122 1 185 109t63 315q0 212 -64 318t-181 106q-116 0 -181 -106.5t-65 -317.5q0 -189 60.5 -306t182.5 -118z" />
<glyph unicode="&#xf3;" horiz-adv-x="1153" d="M534 1157q-24 -17 -40 -0.5t3 38.5l224 264q42 49 90 29q36 -14 43 -52q7 -40 -31 -68zM577 -21q-231 0 -365.5 131.5t-134.5 352.5q0 97 32.5 182.5t93.5 152t157.5 105.5t216.5 39q228 0 364 -124.5t136 -354.5q0 -222 -132 -353t-368 -131zM574 36q122 1 185 109 t63 315q0 212 -64 318t-181 106q-116 0 -181 -106.5t-65 -317.5q0 -189 60.5 -306t182.5 -118z" />
<glyph unicode="&#xf4;" horiz-adv-x="1153" d="M804 1189q15 -34 -15 -47t-51 13l-165 196l-165 -196q-15 -18 -36.5 -17t-30.5 15.5t0 35.5l145 250q33 56 87 56.5t87 -56.5zM577 -21q-231 0 -365.5 131.5t-134.5 352.5q0 97 32.5 182.5t93.5 152t157.5 105.5t216.5 39q228 0 364 -124.5t136 -354.5q0 -222 -132 -353 t-368 -131zM574 36q122 1 185 109t63 315q0 212 -64 318t-181 106q-116 0 -181 -106.5t-65 -317.5q0 -189 60.5 -306t182.5 -118z" />
<glyph unicode="&#xf5;" horiz-adv-x="1153" d="M771 1152q-70 0 -137 26t-110.5 57t-98 57t-102.5 26q-62 0 -98.5 -33.5t-36.5 -87.5q0 -16 -9 -25.5t-22 -9.5q-12 0 -21.5 9.5t-9.5 25.5q0 107 69 168.5t186 61.5q67 0 133 -26t110 -56.5t99 -56.5t102 -26q60 0 97 30.5t37 88.5q0 18 9 27.5t22 9.5q12 0 21.5 -10 t9.5 -28q0 -102 -68.5 -165t-181.5 -63zM577 -21q-231 0 -365.5 131.5t-134.5 352.5q0 97 32.5 182.5t93.5 152t157.5 105.5t216.5 39q228 0 364 -124.5t136 -354.5q0 -222 -132 -353t-368 -131zM574 36q122 1 185 109t63 315q0 212 -64 318t-181 106q-116 0 -181 -106.5 t-65 -317.5q0 -189 60.5 -306t182.5 -118z" />
<glyph unicode="&#xf6;" horiz-adv-x="1153" d="M267 1255q0 48 33.5 81.5t81.5 33.5q47 0 79.5 -33.5t32.5 -81.5q0 -47 -33 -79.5t-79 -32.5q-48 0 -81.5 32.5t-33.5 79.5zM654 1255q0 48 33.5 81.5t80.5 33.5t79.5 -33.5t32.5 -81.5q0 -47 -33 -79.5t-79 -32.5q-47 0 -80.5 33t-33.5 79zM577 -21q-231 0 -365.5 131.5 t-134.5 352.5q0 97 32.5 182.5t93.5 152t157.5 105.5t216.5 39q228 0 364 -124.5t136 -354.5q0 -222 -132 -353t-368 -131zM574 36q122 1 185 109t63 315q0 212 -64 318t-181 106q-116 0 -181 -106.5t-65 -317.5q0 -189 60.5 -306t182.5 -118z" />
<glyph unicode="&#xf7;" horiz-adv-x="919" d="M461 652q-46 0 -78 31.5t-32 76.5q0 46 31.5 78t78.5 32q45 0 76.5 -32t31.5 -78q0 -44 -32 -76t-76 -32zM811 507q13 0 22 -8.5t9 -21.5t-9 -22t-22 -9h-719q-13 0 -22 8.5t-9 21.5q0 14 8.5 22.5t22.5 8.5h719zM461 301q44 0 76 -32t32 -76q0 -46 -32 -78.5t-76 -32.5 q-46 0 -78 32t-32 79q0 45 32 76.5t78 31.5z" />
<glyph unicode="&#xf8;" horiz-adv-x="1153" d="M760 918q149 -44 233 -160.5t84 -294.5q0 -222 -132 -353t-368 -131q-67 0 -127 12l-37 -112h-61l42 126q-150 47 -233.5 167t-83.5 291q0 97 32.5 182.5t93.5 152t157.5 105.5t216.5 39q69 0 125 -10l37 110h63zM331 460q0 -249 95 -357l252 757q-45 24 -101 24 q-116 0 -181 -106.5t-65 -317.5zM574 36q122 1 185 109t63 315q0 258 -94 360l-254 -757q44 -27 100 -27z" />
<glyph unicode="&#xf9;" horiz-adv-x="1255" d="M661 1157l-290 211q-45 32 -28 78q13 36 49 45q44 12 82 -32l224 -264q19 -22 3 -38.5t-40 0.5zM1183 61q13 0 22 -8.5t9 -21.5t-9 -22t-22 -9h-355v208q-48 -105 -136.5 -165.5t-208.5 -60.5q-135 0 -214.5 78.5t-79.5 223.5v514q0 27 -19 46t-47 19h-37q-13 0 -22 8.5 t-9 21.5t8.5 22t22.5 9h355v-627q0 -102 40 -152.5t108 -50.5q111 0 175 107.5t64 267.5v329q0 27 -18.5 46t-46.5 19h-37q-13 0 -22 8.5t-9 21.5t8.5 22t22.5 9h354v-798q0 -27 18.5 -46t46.5 -19h38z" />
<glyph unicode="&#xfa;" horiz-adv-x="1255" d="M565 1157q-24 -17 -40 -0.5t3 38.5l224 264q43 50 92 29q36 -16 42 -53q7 -40 -31 -67zM1183 61q13 0 22 -8.5t9 -21.5t-9 -22t-22 -9h-355v208q-48 -105 -136.5 -165.5t-208.5 -60.5q-135 0 -214.5 78.5t-79.5 223.5v514q0 27 -19 46t-47 19h-37q-13 0 -22 8.5t-9 21.5 t8.5 22t22.5 9h355v-627q0 -102 40 -152.5t108 -50.5q111 0 175 107.5t64 267.5v329q0 27 -18.5 46t-46.5 19h-37q-13 0 -22 8.5t-9 21.5t8.5 22t22.5 9h354v-798q0 -27 18.5 -46t46.5 -19h38z" />
<glyph unicode="&#xfb;" horiz-adv-x="1255" d="M835 1189q15 -34 -15 -47t-51 13l-165 196l-165 -196q-15 -18 -36.5 -17t-30.5 15.5t0 35.5l145 250q33 56 87 56.5t87 -56.5zM1183 60q14 0 22.5 -8t8.5 -21t-9 -22t-22 -9h-355v208q-48 -105 -136.5 -165.5t-208.5 -60.5q-135 0 -214.5 78.5t-79.5 223.5v514 q0 27 -19 46t-47 19h-37q-13 0 -22 8.5t-9 21.5t8.5 22t22.5 9h355v-627q0 -102 40 -152.5t108 -50.5q111 0 175 107.5t64 267.5v329q0 27 -18.5 46t-46.5 19h-37q-13 0 -22 8.5t-9 21.5t8.5 22t22.5 9h354v-798q0 -27 19 -46.5t46 -19.5h38z" />
<glyph unicode="&#xfc;" horiz-adv-x="1255" d="M298 1255q0 48 33.5 81.5t81.5 33.5q47 0 79.5 -33.5t32.5 -81.5q0 -47 -32.5 -79.5t-79.5 -32.5q-48 0 -81.5 32.5t-33.5 79.5zM685 1255q0 48 34 81.5t81 33.5t79.5 -33.5t32.5 -81.5q0 -47 -33 -79.5t-79 -32.5q-47 0 -81 33t-34 79zM1183 61q13 0 22 -8.5t9 -21.5 t-9 -22t-22 -9h-355v208q-48 -105 -136.5 -165.5t-208.5 -60.5q-135 0 -214.5 78.5t-79.5 223.5v514q0 27 -19 46t-47 19h-37q-13 0 -22 8.5t-9 21.5t8.5 22t22.5 9h355v-627q0 -102 40 -152.5t108 -50.5q111 0 175 107.5t64 267.5v329q0 27 -18.5 46t-46.5 19h-37 q-13 0 -22 8.5t-9 21.5t8.5 22t22.5 9h354v-798q0 -27 18.5 -46t46.5 -19h38z" />
<glyph unicode="&#xfd;" horiz-adv-x="1230" d="M569 1157q-24 -17 -40 -0.5t3 38.5l224 264q43 50 92 29q36 -16 42 -53q7 -40 -31 -67zM726 924h354v-956q0 -560 -542 -560q-184 0 -302.5 88t-118.5 232q0 73 43 113.5t99 40.5q49 0 83.5 -31t34.5 -87q0 -39 -17.5 -64.5t-35 -47t-17.5 -49.5q0 -50 57 -92t157 -42 q149 0 228 102.5t79 303.5v333q-48 -105 -136.5 -165.5t-208.5 -60.5q-135 0 -214.5 78.5t-79.5 223.5v514q0 27 -19 46t-47 19h-37q-13 0 -22 8.5t-9 21.5t8.5 22t22.5 9h355v-627q0 -102 40 -152.5t108 -50.5q111 0 175 107.5t64 267.5v329q0 27 -18.5 46t-46.5 19h-37 q-13 0 -22 8.5t-9 21.5t8.5 22t22.5 9z" />
<glyph unicode="&#xfe;" horiz-adv-x="1275" d="M792 942q92 0 169.5 -37.5t129.5 -102.5t80.5 -152.5t28.5 -187.5q0 -137 -49 -246.5t-142.5 -173.5t-216.5 -64q-122 0 -207 59t-144 175v-641q0 -27 18.5 -46t46.5 -19h37q13 0 22 -8.5t9 -21.5q0 -14 -9 -22.5t-22 -8.5h-354v1779q0 27 -19 46t-47 19h-37 q-13 0 -22 8.5t-9 21.5t8.5 22t22.5 9h355v-640q56 112 140 172t211 60zM720 56q52 0 91 20t69.5 65t46 125t15.5 194q0 151 -29 243t-76 127t-117 35q-110 0 -197 -122.5t-87 -283.5q0 -156 86 -279.5t198 -123.5z" />
<glyph unicode="&#xff;" horiz-adv-x="1230" d="M303 1255q0 48 33 81.5t81 33.5q47 0 79.5 -33.5t32.5 -81.5q0 -47 -32.5 -79.5t-79.5 -32.5q-48 0 -81 32.5t-33 79.5zM689 1255q0 48 34 81.5t81 33.5t79.5 -33.5t32.5 -81.5q0 -47 -33 -79.5t-79 -32.5q-47 0 -81 33t-34 79zM726 924h354v-956q0 -560 -542 -560 q-184 0 -302.5 88t-118.5 232q0 73 43 113.5t99 40.5q49 0 83.5 -31t34.5 -87q0 -39 -17.5 -64.5t-35 -47t-17.5 -49.5q0 -50 57 -92t157 -42q149 0 228 102.5t79 303.5v333q-48 -105 -136.5 -165.5t-208.5 -60.5q-135 0 -214.5 78.5t-79.5 223.5v514q0 27 -19 46t-47 19 h-37q-13 0 -22 8.5t-9 21.5t8.5 22t22.5 9h355v-627q0 -102 40 -152.5t108 -50.5q111 0 175 107.5t64 267.5v329q0 27 -18.5 46t-46.5 19h-37q-13 0 -22 8.5t-9 21.5t8.5 22t22.5 9z" />
<glyph unicode="&#x152;" horiz-adv-x="2203" d="M2009 959q-29 0 -29 27v35q0 113 -66 190.5t-186 77.5h-294q-29 0 -47.5 -19t-18.5 -45v-476h95q114 0 161.5 43t47.5 140v9q0 13 9 22t22 9t22 -9t9 -22v-448q0 -13 -9 -22t-22 -9t-22 10t-9 26v10q0 93 -47 135t-162 42h-95v-561q0 -26 18.5 -45t47.5 -19h297 q115 0 183.5 82.5t68.5 187.5v28q0 14 8.5 22.5t22.5 8.5q13 0 21 -8.5t8 -22.5v-358h-962v126q-136 -147 -376 -147q-133 0 -248.5 54.5t-196.5 147.5t-127.5 222t-46.5 274q0 193 79.5 351.5t221.5 249.5t318 91q233 0 375 -139v120h960v-364q0 -27 -31 -27zM741 41 q340 0 340 635q0 140 -16 248t-53 197.5t-105.5 137.5t-165.5 48q-79 0 -139 -33t-97.5 -89t-61 -138.5t-32.5 -171.5t-9 -198q0 -90 6.5 -167t21 -150.5t40.5 -130t63 -99.5t89.5 -66t118.5 -23z" />
<glyph unicode="&#x153;" horiz-adv-x="1853" d="M1311 942q224 0 344 -116.5t120 -312.5q0 -29 -15.5 -39.5t-51.5 -10.5h-637q0 -117 31 -206.5t100 -144.5t170 -55q66 0 122 20t95.5 54t66.5 72t44 81q11 28 31 28q27 0 25 -30q-2 -20 -16.5 -53.5t-48 -77.5t-79.5 -82t-119.5 -64t-159.5 -26q-119 0 -218.5 50 t-164.5 140q-57 -88 -151.5 -138.5t-221.5 -50.5q-231 0 -365.5 131t-134.5 352q0 97 32.5 182.5t93.5 152t157.5 105.5t216.5 39q121 0 214.5 -47.5t152.5 -132.5q121 180 367 180zM1524 517q-9 369 -224 369q-100 0 -160.5 -97.5t-67.5 -271.5h452zM574 37 q122 1 185 108.5t63 314.5q0 212 -64 318t-181 106q-116 0 -181 -106.5t-65 -317.5q0 -189 60.5 -305.5t182.5 -117.5z" />
<glyph unicode="&#x178;" horiz-adv-x="1302" d="M431 1553q0 48 33 81.5t81 33.5q47 0 79.5 -33.5t32.5 -81.5q0 -47 -32.5 -79.5t-79.5 -32.5q-48 0 -81 32.5t-33 79.5zM817 1553q0 48 34 81.5t81 33.5t79.5 -33.5t32.5 -81.5q0 -47 -33 -79.5t-79 -32.5q-47 0 -81 33t-34 79zM1269 1350q13 0 21.5 -8.5t8.5 -21.5 t-8.5 -22t-21.5 -9h-36q-29 0 -55.5 -16.5t-40.5 -42.5l-330 -620v-486q0 -26 18 -45t47 -19h37q14 0 22.5 -8t8.5 -21t-9 -22t-22 -9h-492q-13 0 -22 9t-9 22t8.5 21t22.5 8h37q29 0 47 19t18 45v420l-372 686q-16 29 -33.5 44t-46.5 15h-33q-14 0 -22.5 8.5t-8.5 22.5 q0 13 9 21.5t22 8.5h516q13 0 21 -8.5t8 -21.5q0 -14 -8 -22.5t-21 -8.5h-34q-35 0 -47 -15.5t3 -43.5l294 -552l290 552q12 22 -1 40.5t-43 18.5h-30q-14 0 -22.5 8.5t-8.5 22.5q0 13 9 21.5t22 8.5h287z" />
<glyph unicode="&#x2c6;" horiz-adv-x="772" d="M665 1203q15 -34 -15 -47t-51 13l-165 197l-165 -197q-15 -18 -36.5 -17t-30.5 15.5t0 35.5l145 250q33 56 87 56.5t87 -56.5z" />
<glyph unicode="&#x2dc;" horiz-adv-x="1021" d="M673 1152q-70 0 -137 26t-110.5 57t-98 57t-102.5 26q-62 0 -98 -33t-36 -88q0 -16 -9 -25.5t-22 -9.5q-12 0 -21.5 9.5t-9.5 25.5q0 107 69 168.5t186 61.5q67 0 133 -26t110 -56.5t99 -56.5t102 -26q60 0 97 30.5t37 88.5q0 18 9 27.5t22 9.5q12 0 21.5 -10t9.5 -28 q0 -102 -69 -165t-182 -63z" />
<glyph unicode="&#x2000;" horiz-adv-x="934" />
<glyph unicode="&#x2001;" horiz-adv-x="1868" />
<glyph unicode="&#x2002;" horiz-adv-x="934" />
<glyph unicode="&#x2003;" horiz-adv-x="1868" />
<glyph unicode="&#x2004;" horiz-adv-x="622" />
<glyph unicode="&#x2005;" horiz-adv-x="467" />
<glyph unicode="&#x2006;" horiz-adv-x="311" />
<glyph unicode="&#x2007;" horiz-adv-x="311" />
<glyph unicode="&#x2008;" horiz-adv-x="233" />
<glyph unicode="&#x2009;" horiz-adv-x="373" />
<glyph unicode="&#x200a;" horiz-adv-x="103" />
<glyph unicode="&#x2010;" horiz-adv-x="647" d="M564 527q14 0 22.5 -8.5t8.5 -22.5q0 -13 -8.5 -21t-22.5 -8h-482q-14 0 -22.5 8.5t-8.5 22.5q0 13 8.5 21t22.5 8h482z" />
<glyph unicode="&#x2011;" horiz-adv-x="647" d="M564 527q14 0 22.5 -8.5t8.5 -22.5q0 -13 -8.5 -21t-22.5 -8h-482q-14 0 -22.5 8.5t-8.5 22.5q0 13 8.5 21t22.5 8h482z" />
<glyph unicode="&#x2012;" horiz-adv-x="647" d="M564 527q14 0 22.5 -8.5t8.5 -22.5q0 -13 -8.5 -21t-22.5 -8h-482q-14 0 -22.5 8.5t-8.5 22.5q0 13 8.5 21t22.5 8h482z" />
<glyph unicode="&#x2013;" horiz-adv-x="882" d="M801 527q13 0 22 -8.5t9 -22.5q0 -13 -8.5 -21t-22.5 -8h-719q-14 0 -22.5 8.5t-8.5 22.5q0 13 8.5 21t22.5 8h719z" />
<glyph unicode="&#x2014;" horiz-adv-x="1220" d="M1138 527q14 0 22.5 -8.5t8.5 -22.5q0 -13 -8.5 -21t-22.5 -8h-1056q-14 0 -22.5 8.5t-8.5 22.5q0 13 8.5 21t22.5 8h1056z" />
<glyph unicode="&#x2018;" horiz-adv-x="520" d="M242 879q-82 0 -144.5 60t-62.5 172q0 124 87.5 229.5t244.5 148.5q29 8 36 -14.5t-22 -32.5q-123 -45 -193 -130.5t-70 -194.5q0 -44 16 -76q11 51 48 77.5t78 26.5q54 0 92.5 -38.5t38.5 -94.5q0 -58 -43.5 -95.5t-105.5 -37.5z" />
<glyph unicode="&#x2019;" horiz-adv-x="477" d="M235 1486q82 0 144.5 -60t62.5 -172q0 -124 -87.5 -229.5t-244.5 -148.5q-29 -8 -36.5 14.5t21.5 32.5q123 45 193.5 131t70.5 194q0 44 -16 76q-11 -51 -48 -77.5t-78 -26.5q-54 0 -93 38.5t-39 94.5q0 57 44 95t106 38z" />
<glyph unicode="&#x201a;" horiz-adv-x="477" d="M235 262q82 0 144.5 -60.5t62.5 -172.5q0 -124 -87.5 -229t-244.5 -148q-29 -8 -36.5 14.5t21.5 32.5q123 45 193.5 131t70.5 194q0 43 -16 75q-11 -51 -48 -77t-78 -26q-54 0 -93 38.5t-39 94.5q0 57 44 95t106 38z" />
<glyph unicode="&#x201c;" horiz-adv-x="931" d="M242 879q-82 0 -144.5 60t-62.5 172q0 124 87.5 229.5t244.5 148.5q29 8 36 -14.5t-22 -32.5q-123 -45 -193 -130.5t-70 -194.5q0 -44 16 -76q11 51 48 77.5t78 26.5q54 0 92.5 -38.5t38.5 -94.5q0 -58 -43.5 -95.5t-105.5 -37.5zM654 879q-82 0 -144.5 60t-62.5 172 q0 124 87 229.5t244 148.5q29 8 36.5 -14.5t-21.5 -32.5q-123 -45 -193.5 -131t-70.5 -194q0 -42 17 -76q11 51 47.5 77.5t77.5 26.5q54 0 93 -38.5t39 -94.5q0 -58 -43.5 -95.5t-105.5 -37.5z" />
<glyph unicode="&#x201d;" horiz-adv-x="888" d="M235 1481q82 0 144.5 -60.5t62.5 -172.5q0 -124 -87.5 -229t-244.5 -148q-29 -8 -36.5 14t21.5 32q123 45 193.5 131t70.5 194q0 44 -16 76q-11 -51 -48 -77t-78 -26q-55 0 -93.5 38t-38.5 94q0 58 44 96t106 38zM646 1481q82 0 144.5 -60.5t62.5 -172.5q0 -124 -87 -229 t-244 -148q-29 -8 -36.5 14t21.5 32q123 45 193.5 131t70.5 194q0 44 -16 76q-11 -51 -48 -77t-78 -26q-55 0 -93.5 38t-38.5 94q0 58 43.5 96t105.5 38z" />
<glyph unicode="&#x201e;" horiz-adv-x="854" d="M192 245q82 0 144.5 -60t62.5 -172q0 -124 -87.5 -229.5t-244.5 -148.5q-29 -8 -36 14.5t22 32.5q123 45 193 130.5t70 194.5q0 43 -16 75q-11 -51 -48 -77t-78 -26q-54 0 -92.5 38.5t-38.5 94.5q0 58 43.5 95.5t105.5 37.5zM604 245q82 0 144.5 -60t62.5 -172 q0 -124 -87.5 -229.5t-244.5 -148.5q-29 -8 -36 14.5t22 32.5q123 45 193 130.5t70 194.5q0 43 -16 75q-11 -51 -48 -77t-78 -26q-54 0 -93 38.5t-39 94.5q0 57 44 95t106 38z" />
<glyph unicode="&#x2022;" horiz-adv-x="661" d="M73 515q0 109 75.5 184.5t184.5 75.5q105 0 179.5 -76t74.5 -184q0 -105 -74.5 -179t-179.5 -74q-109 0 -184.5 74t-75.5 179z" />
<glyph unicode="&#x2026;" horiz-adv-x="1415" d="M99 98q0 53 38 90.5t91 37.5t90 -37.5t37 -90.5t-37.5 -90.5t-89.5 -37.5q-53 0 -91 37.5t-38 90.5zM546 98q0 53 38 90.5t91 37.5t90 -37.5t37 -90.5t-37.5 -90.5t-89.5 -37.5q-53 0 -91 37.5t-38 90.5zM1001 98q0 53 38 90.5t91 37.5t90 -37.5t37 -90.5t-37.5 -90.5 t-89.5 -37.5q-53 0 -91 37.5t-38 90.5z" />
<glyph unicode="&#x202f;" horiz-adv-x="373" />
<glyph unicode="&#x2039;" horiz-adv-x="563" d="M191 457q82 78 158.5 180t122.5 185q13 25 -11 39.5t-41 -9.5q-136 -182 -372 -361q-21 -16 -20 -35t20 -34q238 -180 372 -360q17 -23 41 -9t11 39q-46 83 -122.5 185t-158.5 180z" />
<glyph unicode="&#x203a;" horiz-adv-x="563" d="M372 457q-82 -78 -158.5 -180t-122.5 -185q-13 -25 11 -39t41 9q134 180 372 360q19 15 20 34t-20 35q-236 179 -372 361q-17 24 -41 9.5t-11 -39.5q46 -83 122.5 -185t158.5 -180z" />
<glyph unicode="&#x205f;" horiz-adv-x="467" />
<glyph unicode="&#x20ac;" horiz-adv-x="1402" d="M1278 312q13 0 22 -9t8 -22q-3 -33 -42 -92t-105 -109q-135 -101 -319 -101q-138 0 -249.5 41.5t-188 117t-124 177t-64.5 225.5h-97q-13 0 -22 9t-9 22t8.5 21t22.5 8h91q-3 38 -3 75q0 35 3 70h-91q-13 0 -22 8.5t-9 22.5q0 13 8.5 21t22.5 8h97q35 255 198 410 t428 155q177 0 316 -98q69 -48 108 -108t42 -96q1 -13 -8 -21.5t-22 -8.5q-22 0 -44 37q-119 210 -334 210q-167 0 -259.5 -125.5t-111.5 -354.5h482q13 0 22 -8.5t9 -22.5q0 -13 -8.5 -21t-22.5 -8h-486q-1 -23 -1 -70q0 -27 2 -75h485q13 0 22 -9t9 -22t-8.5 -21t-22.5 -8 h-481q20 -227 112 -351.5t258 -124.5q216 0 334 210q23 38 44 38z" />
<glyph unicode="&#x2122;" horiz-adv-x="1800" d="M715 1350v-222q0 -14 -8.5 -22t-21.5 -8q-26 0 -26 30v19q-1 59 -29 102t-80 43h-17q-35 -1 -35 -51v-453q0 -22 15 -37t38 -15h16q11 0 19.5 -8t8.5 -19q0 -13 -7.5 -21t-20.5 -8h-344q-30 0 -30 29q0 12 8.5 19.5t21.5 7.5h16q22 0 37.5 15.5t15.5 36.5v453 q0 51 -39 51h-13q-50 0 -80 -49t-31 -96v-19q0 -30 -29 -30q-12 0 -19.5 8.5t-7.5 21.5v222h642zM1712 736q11 0 19.5 -8t8.5 -19q0 -13 -7.5 -21t-20.5 -8h-343q-30 0 -30 29q0 12 8.5 19.5t21.5 7.5h15q22 0 38 15.5t16 36.5v457l-223 -574h-31l-231 572v-455 q0 -21 16 -36.5t38 -15.5h15q14 0 22 -8t8 -22q0 -26 -30 -26h-194q-11 0 -19.5 7.5t-8.5 18.5q0 13 7.5 21.5t20.5 8.5h16q22 0 37.5 15.5t15.5 36.5v453q0 21 -15.5 36t-37.5 15h-16q-13 0 -20.5 8.5t-7.5 21.5q0 11 8 19.5t20 8.5h303l148 -366l146 366h287 q13 0 20.5 -8.5t7.5 -21.5q0 -11 -8 -19.5t-20 -8.5h-16q-23 0 -38 -15t-15 -36v-453q0 -22 15 -37t38 -15h16z" />
<glyph unicode="&#x25fc;" horiz-adv-x="921" d="M0 922h922v-922h-922v922z" />
</font>
</defs>
</svg>
