<svg id="Layer_1" data-name="Layer 1" xmlns="http://www.w3.org/2000/svg" xmlns:xlink="http://www.w3.org/1999/xlink" viewBox="0 0 739.74 717.68"><defs><linearGradient id="Red_Orange" x1="794.11" y1="964.16" x2="1123.43" y2="1037.96" gradientTransform="translate(-119.04 234.62) rotate(-8.15)" gradientUnits="userSpaceOnUse"><stop offset="0" stop-color="#f37e5f"/><stop offset="0.5" stop-color="#ec1c24"/><stop offset="1" stop-color="#cf232a"/></linearGradient><linearGradient id="linear-gradient" x1="769.67" y1="974.28" x2="1159.4" y2="1048.81" gradientTransform="matrix(0.99, -0.12, 0.12, 0.99, -102.65, 201.1)" gradientUnits="userSpaceOnUse"><stop offset="0" stop-color="#f58d68"/><stop offset="0.5" stop-color="#ee4423"/><stop offset="1" stop-color="#d43f29"/></linearGradient><linearGradient id="linear-gradient-2" x1="744" y1="986" x2="1193.8" y2="1057.42" gradientTransform="matrix(0.99, -0.1, 0.1, 0.99, -84.82, 167.58)" gradientUnits="userSpaceOnUse"><stop offset="0" stop-color="#f79b70"/><stop offset="0.5" stop-color="#f06022"/><stop offset="1" stop-color="#d95428"/></linearGradient><linearGradient id="linear-gradient-3" x1="720.42" y1="999.67" x2="1229.89" y2="1064.19" gradientTransform="translate(-68.43 134.07) rotate(-4.66)" gradientUnits="userSpaceOnUse"><stop offset="0" stop-color="#f8aa79"/><stop offset="0.5" stop-color="#f37720"/><stop offset="1" stop-color="#df6727"/></linearGradient><linearGradient id="linear-gradient-4" x1="695.85" y1="1014.94" x2="1264.21" y2="1068.8" gradientTransform="matrix(1, -0.06, 0.06, 1, -50.61, 100.55)" gradientUnits="userSpaceOnUse"><stop offset="0" stop-color="#faba83"/><stop offset="0.5" stop-color="#f58b1e"/><stop offset="1" stop-color="#e47925"/></linearGradient><linearGradient id="linear-gradient-5" x1="673.62" y1="1032.01" x2="1300.01" y2="1071.52" gradientTransform="translate(-34.22 67.03) rotate(-2.33)" gradientUnits="userSpaceOnUse"><stop offset="0" stop-color="#fcc98d"/><stop offset="0.5" stop-color="#f8a01b"/><stop offset="1" stop-color="#ea8923"/></linearGradient><linearGradient id="linear-gradient-6" x1="650.64" y1="1050.69" x2="1333.78" y2="1072.21" gradientTransform="matrix(1, -0.02, 0.02, 1, -16.39, 33.52)" gradientUnits="userSpaceOnUse"><stop offset="0" stop-color="#fed898"/><stop offset="0.5" stop-color="#fbb514"/><stop offset="1" stop-color="#f19a1f"/></linearGradient><linearGradient id="Gold" x1="630.26" y1="1071" x2="1370" y2="1071" gradientUnits="userSpaceOnUse"><stop offset="0" stop-color="#ffe7a3"/><stop offset="0.5" stop-color="#ffca05"/><stop offset="1" stop-color="#faac18"/></linearGradient></defs><title>boltonian_logo</title><path d="M914.38,1261.39,800.62,1116.57l68.54-170.92,182.29-26.11,68.5,87.22-98.65,86.11,116.59,39.63-41.22,102.78Zm-93.5-147.72L922,1242.4l162-23.2,30.45-75.94-128-43.51,109.14-95.28-51.78-65.94-162,23.2Z" transform="translate(-630.26 -712.16)" style="fill:url(#Red_Orange)"/><path d="M903.2,1285.39l-127-175.52,88.53-197.7L1080.27,890l75.17,104L1057,1090.56l114,55.9-52.29,116.75ZM796.6,1107.77l115,158.94,195.13-20.09,41.11-91.79-121.08-59.38L1132.14,992l-60.24-83.31L876.77,928.74Z" transform="translate(-630.26 -712.16)" style="fill:url(#linear-gradient)"/><path d="M892.13,1309.42,751.9,1103.27,860.32,878.75,1109,860.39l82.09,120.7L1093.38,1088l110.56,72.26-63.17,130.8ZM772.31,1101.76,901,1291l228.24-16.85,51.95-107.57-115-75.15,102.29-111.95-68.46-100.66L871.83,895.67Z" transform="translate(-630.26 -712.16)" style="fill:url(#linear-gradient-2)"/><path d="M881.12,1333.48,727.56,1096.74,855.8,845.39l281.79-14.62,89.15,137.48-96.54,117,106.67,88.66-74,145ZM748,1095.68l142.42,219.57,261.35-13.56,62.87-123.22-109.34-90.89L1204.81,967l-76.52-118L866.94,862.56Z" transform="translate(-630.26 -712.16)" style="fill:url(#linear-gradient-3)"/><path d="M870.16,1357.55,703.24,1090.26l148-278.21,314.94-10.92,96.33,154.28-95.16,126.94,102.47,105-84.72,159.23Zm-146.48-268,156.09,249.93,294.48-10.21,73.84-138.77-104-106.64,97-129.37-84.48-135.3L862.09,829.41Z" transform="translate(-630.26 -712.16)" style="fill:url(#linear-gradient-4)"/><path d="M859.23,1381.63,678.91,1083.82l2.46-4.48L846.66,778.74l348.08-7.26,103.57,171.1-93.61,136.79,98.08,121.4-95.47,173.6ZM699.36,1083.39l169.72,280.31,327.62-6.83,84.81-154.22-98.89-122.41L1277.24,942l-92.37-152.58-327.61,6.83Z" transform="translate(-630.26 -712.16)" style="fill:url(#linear-gradient-5)"/><path d="M848.32,1405.74,654.58,1077.4l187.47-332,381.21-3.62,110.87,187.94-91.94,146.55,93.56,137.73-106.22,188.07ZM675,1077.21l183.34,310.71,360.75-3.43,95.78-169.58L1221,1076.71l92.37-147.22-100.2-169.84-360.75,3.43Z" transform="translate(-630.26 -712.16)" style="fill:url(#linear-gradient-6)"/><path d="M1251.78,1429.84H837.43l-2.56-4.43L630.26,1071,837.43,712.16h414.35L1370,917l-90.19,156.25,89,154Zm-404.12-17.72h393.89l106.74-184.87-89-154L1349.54,917l-108-187.09H847.66L650.72,1071Z" transform="translate(-630.26 -712.16)" style="fill:url(#Gold)"/></svg>